<?xml version="1.0" encoding="UTF-8" standalone="no"?>
<svg xmlns:xlink="http://www.w3.org/1999/xlink" height="38.0px" width="38.0px" xmlns="http://www.w3.org/2000/svg">
  <g transform="matrix(1.0, 0.0, 0.0, 1.0, 23.0, 23.0)">
    <path d="M-23.0 -20.0 Q-23.0 -18.75 -22.15 -17.9 -21.25 -17.0 -20.0 -17.0 -18.8 -17.0 -17.9 -17.9 -17.05 -18.75 -17.0 -20.0 -17.05 -21.25 -17.9 -22.1 -18.8 -23.0 -20.0 -23.0 -21.25 -23.0 -22.15 -22.1 -23.0 -21.25 -23.0 -20.0" fill="#ffcc00" fill-rule="evenodd" stroke="none">
      <animate attributeName="fill" dur="2s" repeatCount="indefinite" values="#ffcc00;#ffcc01"/>
      <animate attributeName="fill-opacity" dur="2s" repeatCount="indefinite" values="1.0;1.0"/>
      <animate attributeName="d" dur="2s" repeatCount="indefinite" values="M-23.0 -20.0 Q-23.0 -18.75 -22.15 -17.9 -21.25 -17.0 -20.0 -17.0 -18.8 -17.0 -17.9 -17.9 -17.05 -18.75 -17.0 -20.0 -17.05 -21.25 -17.9 -22.1 -18.8 -23.0 -20.0 -23.0 -21.25 -23.0 -22.15 -22.1 -23.0 -21.25 -23.0 -20.0;M-15.0 0.0 Q-14.95 6.15 -10.55 10.5 -6.2 14.95 0.0 15.0 6.15 14.95 10.5 10.5 14.95 6.15 15.0 0.0 14.95 -6.2 10.5 -10.65 6.15 -15.0 0.0 -15.0 -6.2 -15.0 -10.55 -10.65 -14.95 -6.2 -15.0 0.0"/>
    </path>
    <path d="M-23.0 -20.0 Q-23.0 -21.25 -22.15 -22.1 -21.25 -23.0 -20.0 -23.0 -18.8 -23.0 -17.9 -22.1 -17.05 -21.25 -17.0 -20.0 -17.05 -18.75 -17.9 -17.9 -18.8 -17.0 -20.0 -17.0 -21.25 -17.0 -22.15 -17.9 -23.0 -18.75 -23.0 -20.0" fill="none" stroke="#000000" stroke-linecap="round" stroke-linejoin="round" stroke-opacity="0.0" stroke-width="1.0">
      <animate attributeName="stroke" dur="2s" repeatCount="indefinite" values="#000000;#000001"/>
      <animate attributeName="stroke-width" dur="2s" repeatCount="indefinite" values="0.0;0.0"/>
      <animate attributeName="fill-opacity" dur="2s" repeatCount="indefinite" values="0.0;0.0"/>
      <animate attributeName="d" dur="2s" repeatCount="indefinite" values="M-23.0 -20.0 Q-23.0 -21.25 -22.15 -22.1 -21.25 -23.0 -20.0 -23.0 -18.8 -23.0 -17.9 -22.1 -17.05 -21.25 -17.0 -20.0 -17.05 -18.75 -17.9 -17.9 -18.8 -17.0 -20.0 -17.0 -21.25 -17.0 -22.15 -17.9 -23.0 -18.75 -23.0 -20.0;M-15.0 0.0 Q-14.95 -6.2 -10.55 -10.65 -6.2 -15.0 0.0 -15.0 6.15 -15.0 10.5 -10.65 14.95 -6.2 15.0 0.0 14.95 6.15 10.5 10.5 6.15 14.95 0.0 15.0 -6.2 14.95 -10.55 10.5 -14.95 6.15 -15.0 0.0"/>
    </path>
  </g>
</svg>
