<?xml version="1.0" encoding="UTF-8" standalone="no"?>
<svg xmlns:xlink="http://www.w3.org/1999/xlink" height="26.95px" width="26.95px" xmlns="http://www.w3.org/2000/svg">
  <g transform="matrix(1.0, 0.0, 0.0, 1.0, 1.0, 1.0)">
    <path d="M21.65 9.05 L14.55 19.05 3.65 21.9 3.85 16.5 12.35 6.3 21.95 3.35 21.65 9.05 M14.2 14.25 L21.95 3.35 13.5 14.2 4.65 16.95 12.7 15.55 14.55 18.95 14.15 14.4 14.2 14.25" fill="#5faefe" fill-rule="evenodd" stroke="none"/>
    <path d="M24.95 3.0 L24.95 21.95 Q24.95 24.95 21.95 24.95 L3.0 24.95 Q0.0 24.95 0.0 21.95 L0.0 3.0 Q0.0 0.0 3.0 0.0 L21.95 0.0 Q24.95 0.0 24.95 3.0 M14.2 14.25 L14.15 14.4 14.55 18.95 12.7 15.55 4.65 16.95 13.5 14.2 21.95 3.35 14.2 14.25 M21.65 9.05 L21.95 3.35 12.35 6.3 3.85 16.5 3.65 21.9 14.55 19.05 21.65 9.05" fill="#01498f" fill-rule="evenodd" stroke="none"/>
    <path d="M24.95 3.0 Q24.95 0.0 21.95 0.0 L3.0 0.0 Q0.0 0.0 0.0 3.0 L0.0 21.95 Q0.0 24.95 3.0 24.95 L21.95 24.95 Q24.95 24.95 24.95 21.95 L24.95 3.0 Z" fill="none" stroke="#5faefe" stroke-linecap="square" stroke-linejoin="miter-clip" stroke-miterlimit="3.0" stroke-width="1.5"/>
  </g>
</svg>
