<?xml version="1.0" encoding="UTF-8" standalone="no"?>
<svg xmlns:xlink="http://www.w3.org/1999/xlink" height="26.95px" width="26.95px" xmlns="http://www.w3.org/2000/svg">
  <g transform="matrix(1.0, 0.0, 0.0, 1.0, 13.45, 13.45)">
    <path d="M9.2 -3.4 L9.5 -9.1 -0.1 -6.15 -8.6 4.05 -8.8 9.45 2.1 6.6 9.2 -3.4 M9.5 -12.45 Q12.5 -12.45 12.5 -9.45 L12.5 9.5 Q12.5 12.5 9.5 12.5 L-9.45 12.5 Q-12.45 12.5 -12.45 9.5 L-12.45 -9.45 Q-12.45 -12.45 -9.45 -12.45 L9.5 -12.45 M1.75 1.8 L1.7 1.95 2.1 6.5 0.25 3.1 -7.8 4.5 1.05 1.75 9.5 -9.1 1.75 1.8" fill="#5faefe" fill-rule="evenodd" stroke="none"/>
    <path d="M9.2 -3.4 L2.1 6.6 -8.8 9.45 -8.6 4.05 -0.1 -6.15 9.5 -9.1 9.2 -3.4 M1.75 1.8 L9.5 -9.1 1.05 1.75 -7.8 4.5 0.25 3.1 2.1 6.5 1.7 1.95 1.75 1.8" fill="#ffffff" fill-rule="evenodd" stroke="none"/>
    <path d="M9.5 -12.45 L-9.45 -12.45 Q-12.45 -12.45 -12.45 -9.45 L-12.45 9.5 Q-12.45 12.5 -9.45 12.5 L9.5 12.5 Q12.5 12.5 12.5 9.5 L12.5 -9.45 Q12.5 -12.45 9.5 -12.45 Z" fill="none" stroke="#ffffff" stroke-linecap="square" stroke-linejoin="miter-clip" stroke-miterlimit="3.0" stroke-width="1.5"/>
  </g>
</svg>
