<?xml version="1.0" encoding="UTF-8" standalone="no"?>
<svg xmlns:xlink="http://www.w3.org/1999/xlink" height="26.95px" width="26.95px" xmlns="http://www.w3.org/2000/svg">
  <g transform="matrix(1.0, 0.0, 0.0, 1.0, 1.0, 1.0)">
    <path d="M20.75 19.5 Q20.75 17.9 19.45 15.8 L19.3 15.6 19.2 15.8 Q18.0 17.9 18.0 19.45 L18.1 20.05 Q18.35 21.5 19.45 21.45 20.55 21.4 20.75 19.95 L20.75 19.5 M24.95 3.0 L24.95 21.95 Q24.95 24.95 21.95 24.95 L3.0 24.95 Q0.0 24.95 0.0 21.95 L0.0 3.0 Q0.0 0.0 3.0 0.0 L21.95 0.0 Q24.95 0.0 24.95 3.0 M14.15 1.95 L13.7 1.7 Q12.15 0.9 11.05 2.2 10.25 3.15 9.65 4.95 L9.55 5.8 9.5 6.2 9.5 6.55 9.6 6.7 Q13.7 7.1 18.2 12.05 L19.95 14.15 18.6 12.05 18.4 11.8 17.25 10.4 16.05 9.35 Q17.1 7.1 16.45 4.8 15.8 2.6 14.15 1.95 M13.1 2.0 Q14.05 1.9 15.3 3.55 16.6 5.15 15.45 8.8 L12.5 6.95 10.75 6.3 10.8 5.75 Q11.1 3.9 11.65 3.1 12.3 2.2 13.1 2.0 M10.3 9.45 L9.05 7.15 9.05 7.05 3.7 16.2 Q6.1 21.55 11.4 22.5 L11.45 22.55 19.3 14.9 Q15.25 14.2 12.65 12.05 11.25 10.95 10.3 9.45 M13.95 12.05 Q16.0 13.4 19.35 14.05 L17.5 12.05 Q14.1 8.85 10.1 7.6 L11.95 10.2 Q12.7 11.25 13.95 12.05 M9.5 6.55 L9.6 6.2 9.65 6.2 9.5 6.55 M3.5 16.5 L3.15 17.1 Q4.25 19.9 6.45 21.5 8.15 22.7 10.65 23.25 L11.15 22.8 Q5.85 21.85 3.5 16.5" fill="#01498f" fill-rule="evenodd" stroke="none"/>
    <path d="M20.75 19.5 L20.75 19.95 Q20.55 21.4 19.45 21.45 18.35 21.5 18.1 20.05 L18.0 19.45 Q18.0 17.9 19.2 15.8 L19.3 15.6 19.45 15.8 Q20.75 17.9 20.75 19.5 M14.15 1.95 Q15.8 2.6 16.45 4.8 17.1 7.1 16.05 9.35 L17.25 10.4 18.4 11.8 18.6 12.05 19.95 14.15 18.2 12.05 Q13.7 7.1 9.6 6.7 L9.5 6.55 9.5 6.2 9.55 5.8 9.65 4.95 Q10.25 3.15 11.05 2.2 12.15 0.9 13.7 1.7 L14.15 1.95 M9.5 6.55 L9.65 6.2 9.6 6.2 9.5 6.55 M13.95 12.05 Q12.7 11.25 11.95 10.2 L10.1 7.6 Q14.1 8.85 17.5 12.05 L19.35 14.05 Q16.0 13.4 13.95 12.05 M10.3 9.45 Q11.25 10.95 12.65 12.05 15.25 14.2 19.3 14.9 L11.45 22.55 11.4 22.5 Q6.1 21.55 3.7 16.2 L9.05 7.05 9.05 7.15 10.3 9.45 M13.1 2.0 Q12.3 2.2 11.65 3.1 11.1 3.9 10.8 5.75 L10.75 6.3 12.5 6.95 15.45 8.8 Q16.6 5.15 15.3 3.55 14.05 1.9 13.1 2.0 M3.5 16.5 Q5.85 21.85 11.15 22.8 L10.65 23.25 Q8.15 22.7 6.45 21.5 4.25 19.9 3.15 17.1 L3.5 16.5" fill="#5faefe" fill-rule="evenodd" stroke="none"/>
    <path d="M24.95 3.0 Q24.95 0.0 21.95 0.0 L3.0 0.0 Q0.0 0.0 0.0 3.0 L0.0 21.95 Q0.0 24.95 3.0 24.95 L21.95 24.95 Q24.95 24.95 24.95 21.95 L24.95 3.0 Z" fill="none" stroke="#5faefe" stroke-linecap="square" stroke-linejoin="miter-clip" stroke-miterlimit="3.0" stroke-width="1.5"/>
  </g>
</svg>
