<?xml version="1.0" encoding="UTF-8" standalone="no"?>
<svg xmlns:xlink="http://www.w3.org/1999/xlink" height="26.95px" width="26.95px" xmlns="http://www.w3.org/2000/svg">
  <g transform="matrix(1.0, 0.0, 0.0, 1.0, 13.45, 13.45)">
    <path d="M2.85 -8.9 Q4.15 -7.3 3.0 -3.65 L0.05 -5.5 -1.7 -6.15 -1.65 -6.7 Q-1.35 -8.55 -0.8 -9.35 -0.15 -10.25 0.65 -10.45 1.6 -10.55 2.85 -8.9 M4.0 -7.65 Q3.35 -9.85 1.7 -10.5 L1.25 -10.75 Q-0.3 -11.55 -1.4 -10.25 -2.2 -9.3 -2.8 -7.5 L-2.9 -6.65 -2.95 -6.25 -2.95 -5.9 -2.85 -5.75 Q2.05 -5.25 7.5 1.7 L5.95 -0.65 4.8 -2.05 3.6 -3.1 Q4.65 -5.35 4.0 -7.65 M9.5 -12.45 Q12.5 -12.45 12.5 -9.45 L12.5 9.5 Q12.5 12.5 9.5 12.5 L-9.45 12.5 Q-12.45 12.5 -12.45 9.5 L-12.45 -9.45 Q-12.45 -12.45 -9.45 -12.45 L9.5 -12.45 M8.3 7.5 L8.3 7.05 Q8.3 5.4 6.85 3.15 5.55 5.4 5.55 7.0 L5.65 7.6 Q5.9 9.05 7.0 9.0 8.1 8.95 8.3 7.5 M-0.5 -2.25 Q1.55 0.55 6.9 1.6 2.8 -3.25 -2.35 -4.85 L-0.5 -2.25 M-3.4 -5.4 L-8.75 3.75 Q-6.35 9.1 -1.05 10.05 L-1.0 10.1 6.85 2.45 Q0.7 1.4 -2.15 -3.0 L-3.4 -5.3 -3.4 -5.4 M-1.3 10.35 Q-6.6 9.4 -8.95 4.05 L-9.3 4.65 Q-8.2 7.45 -6.0 9.05 -4.3 10.25 -1.8 10.8 L-1.3 10.35" fill="#5faefe" fill-rule="evenodd" stroke="none"/>
    <path d="M2.85 -8.9 Q1.6 -10.55 0.65 -10.45 -0.15 -10.25 -0.8 -9.35 -1.35 -8.55 -1.65 -6.7 L-1.7 -6.15 0.05 -5.5 3.0 -3.65 Q4.15 -7.3 2.85 -8.9 M4.0 -7.65 Q4.65 -5.35 3.6 -3.1 L4.8 -2.05 5.95 -0.65 7.5 1.7 Q2.05 -5.25 -2.85 -5.75 L-2.95 -5.9 -2.95 -6.25 -2.9 -6.65 -2.8 -7.5 Q-2.2 -9.3 -1.4 -10.25 -0.3 -11.55 1.25 -10.75 L1.7 -10.5 Q3.35 -9.85 4.0 -7.65 M-3.4 -5.4 L-3.4 -5.3 -2.15 -3.0 Q0.7 1.4 6.85 2.45 L-1.0 10.1 -1.05 10.05 Q-6.35 9.1 -8.75 3.75 L-3.4 -5.4 M-0.5 -2.25 L-2.35 -4.85 Q2.8 -3.25 6.9 1.6 1.55 0.55 -0.5 -2.25 M8.3 7.5 Q8.1 8.95 7.0 9.0 5.9 9.05 5.65 7.6 L5.55 7.0 Q5.55 5.4 6.85 3.15 8.3 5.4 8.3 7.05 L8.3 7.5 M-1.3 10.35 L-1.8 10.8 Q-4.3 10.25 -6.0 9.05 -8.2 7.45 -9.3 4.65 L-8.95 4.05 Q-6.6 9.4 -1.3 10.35" fill="#ffffff" fill-rule="evenodd" stroke="none"/>
    <path d="M9.5 -12.45 L-9.45 -12.45 Q-12.45 -12.45 -12.45 -9.45 L-12.45 9.5 Q-12.45 12.5 -9.45 12.5 L9.5 12.5 Q12.5 12.5 12.5 9.5 L12.5 -9.45 Q12.5 -12.45 9.5 -12.45 Z" fill="none" stroke="#ffffff" stroke-linecap="square" stroke-linejoin="miter-clip" stroke-miterlimit="3.0" stroke-width="1.5"/>
  </g>
</svg>
