<?xml version="1.0" encoding="UTF-8" standalone="no"?>
<svg xmlns:xlink="http://www.w3.org/1999/xlink" height="26.95px" width="26.95px" xmlns="http://www.w3.org/2000/svg">
  <g transform="matrix(1.0, 0.0, 0.0, 1.0, 13.45, 13.45)">
    <path d="M3.65 -0.95 L3.65 -6.0 -3.9 -6.0 -3.9 -3.4 1.1 -3.4 1.1 -2.25 -0.15 -2.25 -0.15 -1.0 -1.4 -1.0 -1.4 0.25 -2.65 0.25 -2.65 1.5 -3.9 1.5 -3.9 6.6 3.65 6.6 3.65 4.0 -1.35 4.0 -1.35 2.8 -0.1 2.8 -0.1 1.55 1.15 1.55 1.15 0.3 2.4 0.3 2.4 -0.95 3.65 -0.95 M6.1 -4.65 L6.1 5.25 4.85 5.25 4.85 7.85 8.65 7.85 8.65 -7.2 7.4 -7.2 7.4 -7.25 4.85 -7.25 4.85 -4.65 6.1 -4.65 M9.5 -12.45 Q12.5 -12.45 12.5 -9.45 L12.5 9.5 Q12.5 12.5 9.5 12.5 L-9.45 12.5 Q-12.45 12.5 -12.45 9.5 L-12.45 -9.45 Q-12.45 -12.45 -9.45 -12.45 L9.5 -12.45 M-5.1 -7.25 L-7.65 -7.25 -7.65 -7.2 -8.9 -7.2 -8.9 7.85 -5.1 7.85 -5.1 5.25 -6.35 5.25 -6.35 -4.65 -5.1 -4.65 -5.1 -7.25" fill="#5faefe" fill-rule="evenodd" stroke="none"/>
    <path d="M3.65 -0.95 L2.4 -0.95 2.4 0.3 1.15 0.3 1.15 1.55 -0.1 1.55 -0.1 2.8 -1.35 2.8 -1.35 4.0 3.65 4.0 3.65 6.6 -3.9 6.6 -3.9 1.5 -2.65 1.5 -2.65 0.25 -1.4 0.25 -1.4 -1.0 -0.15 -1.0 -0.15 -2.25 1.1 -2.25 1.1 -3.4 -3.9 -3.4 -3.9 -6.0 3.65 -6.0 3.65 -0.95 M6.1 -4.65 L4.85 -4.65 4.85 -7.25 7.4 -7.25 7.4 -7.2 8.65 -7.2 8.65 7.85 4.85 7.85 4.85 5.25 6.1 5.25 6.1 -4.65 M-5.1 -7.25 L-5.1 -4.65 -6.35 -4.65 -6.35 5.25 -5.1 5.25 -5.1 7.85 -8.9 7.85 -8.9 -7.2 -7.65 -7.2 -7.65 -7.25 -5.1 -7.25" fill="#ffffff" fill-rule="evenodd" stroke="none"/>
    <path d="M9.5 -12.45 L-9.45 -12.45 Q-12.45 -12.45 -12.45 -9.45 L-12.45 9.5 Q-12.45 12.5 -9.45 12.5 L9.5 12.5 Q12.5 12.5 12.5 9.5 L12.5 -9.45 Q12.5 -12.45 9.5 -12.45 Z" fill="none" stroke="#ffffff" stroke-linecap="square" stroke-linejoin="miter-clip" stroke-miterlimit="3.0" stroke-width="1.5"/>
  </g>
</svg>
