<?xml version="1.0" encoding="UTF-8" standalone="no"?>
<svg xmlns:xlink="http://www.w3.org/1999/xlink" height="70.0px" width="230.5px" xmlns="http://www.w3.org/2000/svg">
  <g transform="matrix(1.0, 0.0, 0.0, 1.0, -5.35, 0.0)">
    <path d="M199.8 0.0 L202.1 0.0 202.1 70.0 199.8 70.0 199.8 0.0 M195.6 0.0 L198.1 0.0 198.1 70.0 195.6 70.0 195.6 0.0 M182.75 0.0 L184.7 0.0 184.7 70.0 182.75 70.0 182.75 0.0 M229.75 0.0 L235.85 0.0 235.85 70.0 229.75 70.0 229.75 0.0 M213.4 0.0 L214.75 0.0 214.75 70.0 213.4 70.0 213.4 0.0 M165.15 70.0 L160.9 70.0 160.9 0.0 165.15 0.0 165.15 70.0 M21.4 0.0 L22.8 0.0 22.8 70.0 21.4 70.0 21.4 0.0 M17.95 0.0 L20.15 0.0 20.15 70.0 17.95 70.0 17.95 0.0 M5.35 0.0 L9.4 0.0 9.4 70.0 5.35 70.0 5.35 0.0 M68.2 0.0 L70.65 0.0 70.65 70.0 68.2 70.0 68.2 0.0 M112.7 0.0 L114.55 0.0 114.55 70.0 112.7 70.0 112.7 0.0 M94.75 0.0 L97.95 0.0 97.95 70.0 94.75 70.0 94.75 0.0 M84.0 0.0 L90.1 0.0 90.1 70.0 84.0 70.0 84.0 0.0 M154.7 0.0 L156.55 0.0 156.55 70.0 154.7 70.0 154.7 0.0 M143.15 0.0 L146.5 0.0 146.5 70.0 143.15 70.0 143.15 0.0 M42.7 70.0 L39.5 70.0 39.5 0.0 42.7 0.0 42.7 70.0" fill="#000000" fill-opacity="0.08627451" fill-rule="evenodd" stroke="none"/>
  </g>
</svg>
