<?xml version="1.0" encoding="UTF-8" standalone="no"?>
<svg xmlns:xlink="http://www.w3.org/1999/xlink" height="70.0px" width="234.75px" xmlns="http://www.w3.org/2000/svg">
  <g transform="matrix(1.0, 0.0, 0.0, 1.0, -11.1, 0.0)">
    <path d="M30.8 0.0 L32.1 0.0 32.1 70.0 30.8 70.0 30.8 0.0 M24.75 0.0 L25.75 0.0 25.75 70.0 24.75 70.0 24.75 0.0 M11.1 0.0 L12.2 0.0 12.2 70.0 11.1 70.0 11.1 0.0 M73.85 0.0 L75.7 0.0 75.7 70.0 73.85 70.0 73.85 0.0 M56.65 0.0 L57.95 0.0 57.95 70.0 56.65 70.0 56.65 0.0 M105.65 0.0 L107.6 0.0 107.6 70.0 105.65 70.0 105.65 0.0 M91.75 0.0 L92.85 0.0 92.85 70.0 91.75 70.0 91.75 0.0 M137.75 0.0 L138.9 0.0 138.9 70.0 137.75 70.0 137.75 0.0 M130.9 0.0 L132.25 0.0 132.25 70.0 130.9 70.0 130.9 0.0 M167.55 0.0 L168.9 0.0 168.9 70.0 167.55 70.0 167.55 0.0 M221.25 0.0 L222.5 0.0 222.5 70.0 221.25 70.0 221.25 0.0 M224.9 0.0 L227.2 0.0 227.2 70.0 224.9 70.0 224.9 0.0 M207.45 0.0 L208.6 0.0 208.6 70.0 207.45 70.0 207.45 0.0 M243.45 0.0 L245.85 0.0 245.85 70.0 243.45 70.0 243.45 0.0" fill="#ffffff" fill-opacity="0.02745098" fill-rule="evenodd" stroke="none"/>
  </g>
</svg>
