<?xml version="1.0" encoding="UTF-8" standalone="no"?>
<svg xmlns:xlink="http://www.w3.org/1999/xlink" height="70.0px" width="246.95px" xmlns="http://www.w3.org/2000/svg">
  <g transform="matrix(1.0, 0.0, 0.0, 1.0, -1.2, 0.0)">
    <path d="M210.5 45.95 Q214.3 47.4 214.1 54.65 L237.7 56.75 238.1 63.0 238.15 63.95 238.2 66.25 226.4 65.5 225.75 65.7 Q225.4 65.9 225.4 66.3 L225.35 66.65 225.35 66.75 225.1 70.0 200.8 70.0 201.15 63.4 201.15 63.0 201.15 57.3 Q199.45 53.7 200.45 52.2 201.55 50.65 201.4 48.95 201.25 47.2 204.0 45.85 206.65 44.5 210.5 45.95 M218.2 48.6 L220.6 49.3 Q221.75 49.8 221.65 51.1 221.5 52.45 220.15 53.0 217.95 53.9 216.95 51.8 215.8 49.4 218.2 48.6 M242.9 34.8 Q245.9 39.45 248.15 44.45 L205.55 40.4 Q204.05 30.6 197.55 24.0 193.05 19.4 186.25 16.4 L185.45 16.1 184.95 15.85 185.45 15.85 185.55 15.85 185.7 15.85 186.45 15.9 Q211.15 17.0 225.65 20.25 229.55 21.5 233.0 24.0 238.5 27.85 242.9 34.8 M183.15 10.35 L176.75 10.2 Q174.3 10.1 172.65 12.25 L169.25 16.45 122.2 11.6 122.1 11.55 121.75 11.15 121.6 11.0 118.5 8.2 115.75 6.3 Q113.25 4.6 110.35 3.25 L110.15 3.15 Q105.7 1.25 98.95 0.0 L133.65 0.0 183.0 6.0 183.15 10.35 M174.9 24.0 Q182.55 27.3 187.35 33.0 L187.4 33.0 Q193.95 41.25 192.7 54.7 L192.7 54.75 Q192.3 59.9 192.25 65.15 L192.05 65.45 192.05 70.0 190.2 70.0 190.15 60.7 Q190.1 58.25 188.7 56.2 188.2 55.6 187.5 55.15 186.0 54.3 184.45 54.0 L182.5 53.85 179.75 54.2 178.65 55.1 Q175.05 56.65 172.15 53.95 171.6 53.45 171.5 52.8 L171.85 52.8 124.2 48.45 124.15 44.3 132.9 35.8 133.35 34.95 133.45 34.75 133.45 34.55 133.45 34.3 133.35 34.1 132.05 29.05 131.5 27.45 Q129.55 22.25 126.6 17.75 L168.9 21.9 Q172.05 22.75 174.9 24.0 M178.5 66.8 L178.4 65.7 Q179.1 64.95 180.0 65.2 L180.4 65.65 Q180.2 67.6 178.5 66.8 M187.05 46.95 Q186.25 46.1 185.15 46.1 184.1 46.1 183.35 46.95 182.55 47.7 182.55 48.75 182.55 49.9 183.35 50.6 L183.35 50.55 Q184.1 51.35 185.15 51.4 186.25 51.35 187.0 50.6 L187.05 50.55 Q187.75 49.85 187.8 48.75 187.75 47.7 187.0 46.95 L187.05 46.95 M166.45 47.1 Q166.45 48.2 167.25 48.9 168.0 49.65 169.05 49.65 169.9 49.65 170.55 49.2 169.85 49.1 169.35 48.6 168.7 47.95 168.7 47.0 168.7 46.05 169.35 45.4 169.8 44.95 170.45 44.85 169.8 44.4 169.05 44.45 168.0 44.4 167.25 45.2 166.45 46.0 166.45 47.1 M127.5 33.0 Q126.85 34.9 124.1 34.75 121.3 34.55 120.25 37.75 120.2 40.6 120.5 43.45 L120.45 45.75 120.45 58.6 120.4 58.6 120.3 63.65 120.2 64.9 119.7 70.0 74.75 70.0 75.4 63.0 75.45 61.95 75.8 56.1 76.1 42.45 116.3 45.1 116.1 41.75 115.7 41.45 Q115.5 40.15 115.55 37.35 115.6 34.55 113.7 33.7 111.75 32.85 108.0 32.75 104.2 32.65 100.95 30.7 L74.45 28.4 Q70.8 15.95 63.55 10.55 61.25 8.9 58.65 7.8 55.4 8.6 51.65 9.85 35.75 15.15 9.85 29.05 L1.2 33.8 7.75 29.05 Q25.45 16.8 41.8 9.45 48.55 6.4 55.0 4.2 L61.55 2.15 67.4 2.6 73.75 3.05 83.1 3.6 83.65 3.65 85.65 3.8 95.55 4.9 Q101.8 5.85 106.6 7.55 L109.5 8.65 112.25 10.5 Q114.2 11.9 115.95 13.55 L118.9 16.6 121.05 19.4 121.05 19.45 Q123.45 22.95 125.2 26.7 L126.15 29.05 127.5 33.0 M107.45 40.55 Q107.7 40.55 107.85 40.7 L108.0 41.05 107.85 41.45 107.45 41.55 107.15 41.45 106.95 41.05 107.15 40.7 Q107.25 40.55 107.45 40.55 M110.6 36.1 Q111.0 36.45 111.0 37.0 111.0 37.55 110.6 37.95 110.25 38.35 109.7 38.35 109.15 38.35 108.8 37.95 108.4 37.55 108.4 37.0 108.4 36.45 108.8 36.1 109.15 35.75 109.7 35.75 110.25 35.75 110.6 36.1 M148.55 45.3 Q148.55 46.4 149.4 47.15 L149.4 47.1 Q150.1 47.9 151.2 47.9 152.25 47.9 153.0 47.15 L153.05 47.1 Q153.75 46.35 153.85 45.3 153.75 44.2 153.0 43.45 L153.05 43.45 Q152.25 42.65 151.2 42.65 150.1 42.65 149.4 43.45 148.55 44.2 148.55 45.3 M130.7 43.45 Q130.7 44.55 131.5 45.3 132.25 46.0 133.3 46.0 134.4 46.0 135.2 45.3 135.9 44.55 136.0 43.45 136.0 42.4 135.2 41.6 134.4 40.8 133.3 40.8 132.25 40.8 131.5 41.6 130.7 42.4 130.7 43.45 M117.45 58.35 L107.8 57.65 Q107.35 57.65 107.0 57.95 106.65 58.2 106.65 58.7 L106.4 62.85 106.4 63.0 106.65 63.6 107.4 64.0 116.1 64.55 Q117.75 62.35 117.55 60.1 L117.45 58.45 117.45 58.35 M12.9 70.0 L12.8 68.5 12.8 66.25 17.05 63.25 Q16.9 65.7 17.05 68.1 L17.2 70.0 12.9 70.0 M55.35 39.25 L54.0 37.2 59.55 33.3 60.25 34.45 Q65.95 43.7 66.6 56.1 L66.65 60.0 66.6 63.0 Q66.4 66.6 65.85 70.0 L56.6 70.0 Q56.2 69.1 56.2 67.85 53.5 68.35 52.15 66.1 L52.15 65.85 Q52.0 63.0 54.8 62.05 L55.95 62.15 Q56.2 58.2 60.5 57.5 L60.45 56.1 Q59.7 46.55 55.35 39.25" fill="#ffffff" fill-opacity="0.09411765" fill-rule="evenodd" stroke="none"/>
  </g>
</svg>
