<?xml version="1.0" encoding="UTF-8" standalone="no"?>
<svg xmlns:xlink="http://www.w3.org/1999/xlink" height="60.0px" width="235.0px" xmlns="http://www.w3.org/2000/svg">
  <g transform="matrix(1.0, 0.0, 0.0, 1.0, -5.0, -5.0)">
    <path d="M55.0 15.0 L65.0 5.0 65.0 65.0 55.0 55.0 55.0 15.0" fill="url(#gradient0)" fill-rule="evenodd" stroke="none"/>
    <path d="M65.0 5.0 L55.0 15.0 15.0 15.0 5.0 5.0 65.0 5.0" fill="url(#gradient1)" fill-rule="evenodd" stroke="none"/>
    <path d="M5.0 5.0 L15.0 15.0 15.0 55.0 5.0 65.0 5.0 5.0" fill="url(#gradient2)" fill-rule="evenodd" stroke="none"/>
    <path d="M55.0 55.0 L65.0 65.0 5.0 65.0 15.0 55.0 55.0 55.0" fill="url(#gradient3)" fill-rule="evenodd" stroke="none"/>
    <path d="M55.0 15.0 L55.0 55.0 15.0 55.0 15.0 15.0 55.0 15.0" fill="#000000" fill-opacity="0.2509804" fill-rule="evenodd" stroke="none"/>
    <path d="M239.0 38.0 L239.0 35.0 236.0 35.0 236.0 34.0 240.0 34.0 240.0 38.0 239.0 38.0 M239.0 56.0 L240.0 56.0 240.0 60.0 236.0 60.0 236.0 59.0 239.0 59.0 239.0 56.0 M70.0 38.0 L70.0 34.0 74.0 34.0 74.0 35.0 71.0 35.0 71.0 38.0 70.0 38.0 M71.0 59.0 L74.0 59.0 74.0 60.0 70.0 60.0 70.0 56.0 71.0 56.0 71.0 59.0" fill="#eeb211" fill-opacity="0.49803922" fill-rule="evenodd" stroke="none"/>
  </g>
  <defs>
    <linearGradient gradientTransform="matrix(0.0061, 0.0, 0.0, 0.1526, 60.0, -60.0)" gradientUnits="userSpaceOnUse" id="gradient0" spreadMethod="pad" x1="-819.2" x2="819.2">
      <stop offset="0.0" stop-color="#000000" stop-opacity="0.2509804"/>
      <stop offset="1.0" stop-color="#000000"/>
    </linearGradient>
    <linearGradient gradientTransform="matrix(0.0, -0.0061, 0.1831, 0.0, -85.0, 10.0)" gradientUnits="userSpaceOnUse" id="gradient1" spreadMethod="pad" x1="-819.2" x2="819.2">
      <stop offset="0.0" stop-color="#000000" stop-opacity="0.2509804"/>
      <stop offset="1.0" stop-color="#000000"/>
    </linearGradient>
    <linearGradient gradientTransform="matrix(-0.0061, 0.0, 0.0, -0.1526, 10.0, 130.0)" gradientUnits="userSpaceOnUse" id="gradient2" spreadMethod="pad" x1="-819.2" x2="819.2">
      <stop offset="0.0" stop-color="#000000" stop-opacity="0.2509804"/>
      <stop offset="1.0" stop-color="#000000"/>
    </linearGradient>
    <linearGradient gradientTransform="matrix(0.0, 0.0061, -0.1831, 0.0, 155.0, 60.0)" gradientUnits="userSpaceOnUse" id="gradient3" spreadMethod="pad" x1="-819.2" x2="819.2">
      <stop offset="0.0" stop-color="#000000" stop-opacity="0.2509804"/>
      <stop offset="1.0" stop-color="#000000"/>
    </linearGradient>
  </defs>
</svg>
