<?xml version="1.0" encoding="UTF-8" standalone="no"?>
<svg xmlns:xlink="http://www.w3.org/1999/xlink" height="27.0px" width="82.0px" xmlns="http://www.w3.org/2000/svg">
  <g transform="matrix(1.0, 0.0, 0.0, 1.0, 0.0, 0.0)">
    <path d="M81.45 0.6 L81.55 0.65 Q82.0 1.25 82.0 2.0 L82.0 25.0 81.7 26.25 81.8 25.75 81.75 25.8 81.65 26.3 81.25 26.7 80.0 27.0 2.0 27.0 Q1.25 27.0 0.65 26.55 L0.6 26.45 Q0.0 25.85 0.0 25.0 L0.0 2.0 Q0.0 1.3 0.4 0.85 L0.6 0.6 0.85 0.4 Q1.35 0.0 2.0 0.0 L80.0 0.0 Q80.85 0.0 81.45 0.6" fill="#000000" fill-rule="evenodd" stroke="none"/>
    <path d="M81.0 24.0 L81.0 24.2 80.9 24.65 80.8 24.8 80.75 24.85 80.0 25.0 2.0 25.0 1.4 24.85 1.3 24.75 Q1.0 24.45 1.0 24.0 L1.0 2.0 Q1.0 1.7 1.15 1.55 L1.25 1.4 1.3 1.3 1.4 1.25 1.5 1.2 2.0 1.0 80.0 1.0 Q80.45 1.0 80.75 1.3 L80.85 1.4 81.0 2.0 81.0 24.0" fill="url(#gradient0)" fill-rule="evenodd" stroke="none"/>
    <path d="M81.0 24.0 L81.0 2.0 80.85 1.4 80.75 1.3 Q80.45 1.0 80.0 1.0 L2.0 1.0 1.5 1.2 1.4 1.25 1.3 1.3 1.25 1.4 1.15 1.55 Q1.0 1.7 1.0 2.0 L1.0 24.0 Q1.0 24.45 1.3 24.75 L1.4 24.85 2.0 25.0 80.0 25.0 80.75 24.85 80.8 24.8 80.9 24.65 81.0 24.2 81.0 24.0 M82.0 2.0 L82.0 24.0 81.8 25.15 81.65 25.3 81.55 25.45 81.25 25.7 80.0 26.0 2.0 26.0 Q1.25 26.0 0.65 25.55 L0.6 25.45 Q0.0 24.85 0.0 24.0 L0.0 2.0 Q0.0 1.3 0.4 0.85 L0.6 0.6 0.85 0.4 Q1.35 0.0 2.0 0.0 L80.0 0.0 Q80.85 0.0 81.45 0.6 L81.55 0.65 Q82.0 1.25 82.0 2.0" fill="#222222" fill-rule="evenodd" stroke="none"/>
  </g>
  <defs>
    <linearGradient gradientTransform="matrix(0.0, 0.0145, -0.05, 0.0, 41.0, 12.75)" gradientUnits="userSpaceOnUse" id="gradient0" spreadMethod="pad" x1="-819.2" x2="819.2">
      <stop offset="0.0" stop-color="#222222"/>
      <stop offset="1.0" stop-color="#444444"/>
    </linearGradient>
  </defs>
</svg>
