<?xml version="1.0" encoding="UTF-8" standalone="no"?>
<svg xmlns:xlink="http://www.w3.org/1999/xlink" height="12.0px" width="64.7px" xmlns="http://www.w3.org/2000/svg">
  <g transform="matrix(1.0, 0.0, 0.0, 1.0, 0.0, 0.0)">
    <path d="M62.95 11.25 L63.15 10.65 Q63.4 10.35 63.9 10.35 64.25 10.35 64.5 10.65 L64.7 11.25 64.5 11.8 63.9 12.0 63.15 11.8 62.95 11.25 M61.6 10.65 L61.8 11.25 61.6 11.8 61.0 12.0 Q60.5 12.0 60.3 11.8 L60.05 11.25 Q60.05 10.85 60.3 10.65 60.5 10.35 61.0 10.35 61.3 10.35 61.6 10.65 M55.0 0.25 L55.0 1.45 54.35 1.35 52.65 1.3 50.95 1.6 Q50.25 1.75 49.95 2.3 49.5 2.85 49.35 3.8 49.1 4.8 49.1 6.25 49.1 7.85 49.4 8.75 49.55 9.6 50.0 10.1 50.3 10.45 50.85 10.6 L52.15 10.7 53.45 10.45 Q54.0 10.35 54.35 9.95 L54.65 8.9 54.8 7.15 54.8 6.55 52.85 6.55 52.85 5.15 56.15 5.15 56.15 6.25 55.85 9.4 55.1 11.05 53.8 11.85 52.05 12.0 50.25 11.85 Q49.5 11.65 48.95 11.05 48.4 10.45 48.15 9.35 47.85 8.2 47.85 6.2 47.85 4.75 48.0 3.7 L48.55 2.0 Q48.9 1.3 49.4 0.95 L50.35 0.35 51.5 0.1 52.65 0.0 54.0 0.1 55.0 0.25 M57.4 10.65 Q57.6 10.35 58.1 10.35 58.45 10.35 58.7 10.65 L58.9 11.25 58.7 11.8 58.1 12.0 Q57.6 12.0 57.4 11.8 L57.2 11.25 57.4 10.65 M46.05 11.95 L44.4 11.95 39.8 1.6 39.8 11.95 38.6 11.95 38.6 0.1 40.4 0.1 45.0 10.35 44.85 0.1 46.05 0.1 46.05 11.95 M33.45 6.0 L33.2 9.2 Q33.0 10.4 32.5 11.0 L31.1 11.85 29.2 11.95 25.8 11.95 25.8 0.1 29.25 0.1 31.55 0.45 Q32.4 0.7 32.8 1.4 L33.35 3.25 33.45 6.0 M32.0 3.45 Q31.85 2.5 31.45 2.05 31.1 1.65 30.5 1.55 L29.1 1.45 27.1 1.45 27.1 10.6 29.1 10.6 30.65 10.45 31.55 9.85 32.0 8.55 32.15 6.0 32.0 3.45 M36.55 11.95 L35.2 11.95 35.2 0.1 36.55 0.1 36.55 11.95 M23.1 11.95 L22.5 9.5 18.1 9.5 17.55 11.95 16.15 11.95 19.2 0.1 21.35 0.1 24.55 11.95 23.1 11.95 M20.35 0.55 L18.4 8.35 22.3 8.35 20.35 0.55 M15.55 6.0 L15.3 9.0 Q15.2 10.15 14.7 10.85 L13.4 11.8 11.25 12.0 8.95 11.8 Q8.05 11.55 7.65 10.85 7.15 10.15 7.0 9.0 6.85 7.8 6.85 6.0 6.85 4.15 7.0 3.0 7.15 1.85 7.65 1.2 8.05 0.5 8.95 0.25 L11.25 0.05 13.4 0.25 Q14.3 0.5 14.7 1.2 15.2 1.85 15.3 3.0 L15.55 6.0 M11.25 1.35 L9.6 1.6 8.65 2.3 Q8.35 2.8 8.3 3.65 L8.2 6.0 8.3 8.35 Q8.35 9.2 8.65 9.75 L9.6 10.4 11.25 10.7 12.8 10.4 Q13.4 10.25 13.75 9.75 L14.1 8.35 14.15 6.0 14.1 3.65 13.75 2.3 12.8 1.6 11.25 1.35 M1.35 0.1 L1.35 10.6 6.1 10.6 6.1 11.95 0.0 11.95 0.0 0.1 1.35 0.1" fill="#000000" fill-rule="evenodd" stroke="none"/>
  </g>
</svg>
