<?xml version="1.0" encoding="UTF-8" standalone="no"?>
<svg xmlns:xlink="http://www.w3.org/1999/xlink" height="27.0px" width="82.0px" xmlns="http://www.w3.org/2000/svg">
  <g transform="matrix(1.0, 0.0, 0.0, 1.0, 0.0, 0.0)">
    <path d="M81.45 0.6 L81.55 0.65 Q82.0 1.25 82.0 2.0 L82.0 25.0 81.7 26.25 81.8 25.75 81.75 25.8 81.65 26.3 81.25 26.7 80.0 27.0 2.0 27.0 Q1.25 27.0 0.65 26.55 L0.6 26.45 Q0.0 25.85 0.0 25.0 L0.0 2.0 Q0.0 1.3 0.4 0.85 L0.6 0.6 0.85 0.4 Q1.35 0.0 2.0 0.0 L80.0 0.0 Q80.85 0.0 81.45 0.6" fill="#000000" fill-rule="evenodd" stroke="none"/>
  </g>
</svg>
