<?xml version="1.0" encoding="UTF-8" standalone="no"?>
<svg xmlns:xlink="http://www.w3.org/1999/xlink" height="14.0px" width="65.95px" xmlns="http://www.w3.org/2000/svg">
  <g transform="matrix(1.0, 0.0, 0.0, 1.0, 0.0, 0.0)">
    <path d="M57.45 5.45 L60.2 0.0 65.95 0.0 59.9 9.75 59.9 14.0 54.95 14.0 54.95 9.75 49.0 0.0 54.75 0.0 57.45 5.45 M42.1 4.2 L40.45 9.0 43.95 9.0 42.15 4.2 42.1 4.2 M45.15 12.45 L39.2 12.45 38.55 14.0 32.95 14.0 39.15 0.0 44.75 0.0 50.95 14.0 45.8 14.0 45.15 12.45 M30.95 10.25 L30.95 14.0 18.0 14.0 18.0 0.0 23.0 0.0 23.0 10.25 30.95 10.25 M16.2 4.85 Q16.2 9.65 11.0 9.65 L5.0 9.65 5.0 14.0 0.0 14.0 0.0 0.0 10.95 0.0 Q13.8 0.0 15.15 1.25 16.2 2.35 16.2 4.85 M10.0 5.85 Q10.55 5.5 10.55 4.8 10.55 4.0 10.0 3.6 L8.55 3.35 5.0 3.35 5.0 6.25 8.55 6.25 Q9.65 6.25 10.0 5.85" fill="#000000" fill-rule="evenodd" stroke="none"/>
  </g>
</svg>
