<?xml version="1.0" encoding="UTF-8" standalone="no"?>
<svg xmlns:xlink="http://www.w3.org/1999/xlink" height="28.0px" width="84.0px" xmlns="http://www.w3.org/2000/svg">
  <g transform="matrix(1.0, 0.0, 0.0, 1.0, 1.0, 1.0)">
    <path d="M81.45 0.6 L81.55 0.65 Q82.0 1.25 82.0 2.0 L82.0 24.0 81.7 25.25 81.8 24.75 81.75 24.8 81.65 25.3 81.25 25.7 80.0 26.0 2.0 26.0 Q1.25 26.0 0.65 25.55 L0.6 25.45 Q0.0 24.85 0.0 24.0 L0.0 2.0 Q0.0 1.3 0.4 0.85 L0.6 0.6 0.85 0.4 Q1.35 0.0 2.0 0.0 L80.0 0.0 Q80.85 0.0 81.45 0.6" fill="url(#gradient0)" fill-rule="evenodd" stroke="none"/>
    <path d="M81.45 0.6 Q80.85 0.0 80.0 0.0 L2.0 0.0 Q1.35 0.0 0.85 0.4 L0.6 0.6 0.4 0.85 Q0.0 1.3 0.0 2.0 L0.0 24.0 Q0.0 24.85 0.6 25.45 L0.65 25.55 Q1.25 26.0 2.0 26.0 L80.0 26.0 81.25 25.7 81.65 25.3 81.75 24.8 81.8 24.75 81.7 25.25 82.0 24.0 82.0 2.0 Q82.0 1.25 81.55 0.65 L81.45 0.6 Z" fill="none" stroke="#eeb211" stroke-linecap="round" stroke-linejoin="round" stroke-opacity="0.2509804" stroke-width="2.0"/>
  </g>
  <defs>
    <linearGradient gradientTransform="matrix(0.0, 0.0143, -0.05, 0.0, 41.0, 12.8)" gradientUnits="userSpaceOnUse" id="gradient0" spreadMethod="pad" x1="-819.2" x2="819.2">
      <stop offset="0.0" stop-color="#ee9d00"/>
      <stop offset="0.5098039215686274" stop-color="#eeb211"/>
      <stop offset="1.0" stop-color="#ffbe12"/>
    </linearGradient>
  </defs>
</svg>
