<?xml version="1.0" encoding="UTF-8" standalone="no"?>
<svg xmlns:xlink="http://www.w3.org/1999/xlink" height="28.0px" width="84.0px" xmlns="http://www.w3.org/2000/svg">
  <g transform="matrix(1.0, 0.0, 0.0, 1.0, 1.0, 0.0)">
    <path d="M82.0 3.0 L82.0 25.0 81.7 26.25 81.8 25.75 81.75 25.8 81.65 26.3 81.25 26.7 80.0 27.0 2.0 27.0 Q1.25 27.0 0.65 26.55 L0.6 26.45 Q0.0 25.85 0.0 25.0 L0.0 3.0 Q0.0 2.3 0.4 1.85 L0.6 1.6 0.85 1.4 Q1.35 1.0 2.0 1.0 L80.0 1.0 Q80.85 1.0 81.45 1.6 L81.55 1.65 Q82.0 2.25 82.0 3.0" fill="#f9c43b" fill-rule="evenodd" stroke="none"/>
    <path d="M82.0 3.0 Q82.0 2.25 81.55 1.65 L81.45 1.6 Q80.85 1.0 80.0 1.0 L2.0 1.0 Q1.35 1.0 0.85 1.4 L0.6 1.6 0.4 1.85 Q0.0 2.3 0.0 3.0 L0.0 25.0 Q0.0 25.85 0.6 26.45 L0.65 26.55 Q1.25 27.0 2.0 27.0 L80.0 27.0 81.25 26.7 81.65 26.3 81.75 25.8 81.8 25.75 81.7 26.25 82.0 25.0 82.0 3.0 Z" fill="none" stroke="#f9c43b" stroke-linecap="round" stroke-linejoin="round" stroke-opacity="0.2509804" stroke-width="2.0"/>
  </g>
</svg>
