<?xml version="1.0" encoding="UTF-8" standalone="no"?>
<svg xmlns:xlink="http://www.w3.org/1999/xlink" height="294.0px" width="310.0px" xmlns="http://www.w3.org/2000/svg">
  <g transform="matrix(1.0, 0.0, 0.0, 1.0, 0.0, 0.0)">
    <path d="M305.0 0.0 Q310.0 0.0 310.0 5.0 L310.0 289.0 Q310.0 294.0 305.0 294.0 L5.0 294.0 Q0.0 294.0 0.0 289.0 L0.0 5.0 Q0.0 0.0 5.0 0.0 L305.0 0.0" fill="#000000" fill-opacity="0.49803922" fill-rule="evenodd" stroke="none"/>
    <path d="M305.0 0.0 Q310.0 0.0 310.0 5.0 L310.0 287.0 Q310.0 292.0 305.0 292.0 L5.0 292.0 Q0.0 292.0 0.0 287.0 L0.0 5.0 Q0.0 0.0 5.0 0.0 L305.0 0.0" fill="url(#gradient0)" fill-rule="evenodd" stroke="none"/>
  </g>
  <defs>
    <linearGradient gradientTransform="matrix(0.0, 0.1733, -0.1892, 0.0, 155.0, 145.95)" gradientUnits="userSpaceOnUse" id="gradient0" spreadMethod="pad" x1="-819.2" x2="819.2">
      <stop offset="0.0" stop-color="#000000"/>
      <stop offset="1.0" stop-color="#202020"/>
    </linearGradient>
  </defs>
</svg>
