<?xml version="1.0" encoding="UTF-8" standalone="no"?>
<svg xmlns:xlink="http://www.w3.org/1999/xlink" height="292.0px" width="310.0px" xmlns="http://www.w3.org/2000/svg">
  <g transform="matrix(1.0, 0.0, 0.0, 1.0, 0.0, 0.0)">
    <path d="M39.15 0.0 L42.35 0.0 42.35 292.0 39.15 292.0 39.15 0.0 M5.0 0.0 L9.05 0.0 9.05 292.0 5.0 292.0 5.0 0.0 M17.6 0.0 L19.8 0.0 19.8 292.0 17.6 292.0 17.6 0.0 M21.05 0.0 L22.45 0.0 22.45 292.0 21.05 292.0 21.05 0.0 M67.85 0.0 L70.3 0.0 70.3 292.0 67.85 292.0 67.85 0.0 M83.65 0.0 L89.75 0.0 89.75 292.0 83.65 292.0 83.65 0.0 M94.4 0.0 L97.6 0.0 97.6 292.0 94.4 292.0 94.4 0.0 M112.35 0.0 L114.2 0.0 114.2 292.0 112.35 292.0 112.35 0.0 M146.3 0.0 L149.65 0.0 149.65 292.0 146.3 292.0 146.3 0.0 M157.85 0.0 L159.7 0.0 159.7 292.0 157.85 292.0 157.85 0.0 M164.05 0.0 L168.3 0.0 168.3 292.0 164.05 292.0 164.05 0.0 M185.9 0.0 L187.85 0.0 187.85 292.0 185.9 292.0 185.9 0.0 M198.75 0.0 L201.25 0.0 201.25 292.0 198.75 292.0 198.75 0.0 M202.95 0.0 L205.25 0.0 205.25 292.0 202.95 292.0 202.95 0.0 M216.55 0.0 L217.9 0.0 217.9 292.0 216.55 292.0 216.55 0.0 M232.9 0.0 L239.0 0.0 239.0 292.0 232.9 292.0 232.9 0.0 M257.75 0.0 L259.55 0.0 259.55 292.0 257.75 292.0 257.75 0.0 M268.85 0.0 L270.9 0.0 270.9 292.0 268.85 292.0 268.85 0.0 M274.2 0.0 L277.5 0.0 277.5 292.0 274.2 292.0 274.2 0.0 M303.1 0.0 L305.0 0.0 305.0 292.0 303.1 292.0 303.1 0.0" fill="#000000" fill-opacity="0.08627451" fill-rule="evenodd" stroke="none"/>
    <path d="M10.75 0.0 L11.85 0.0 11.85 292.0 10.75 292.0 10.75 0.0 M24.4 0.0 L25.4 0.0 25.4 292.0 24.4 292.0 24.4 0.0 M30.45 0.0 L31.75 0.0 31.75 292.0 30.45 292.0 30.45 0.0 M56.3 0.0 L57.6 0.0 57.6 292.0 56.3 292.0 56.3 0.0 M73.5 0.0 L75.35 0.0 75.35 292.0 73.5 292.0 73.5 0.0 M91.4 0.0 L92.5 0.0 92.5 292.0 91.4 292.0 91.4 0.0 M105.3 0.0 L107.25 0.0 107.25 292.0 105.3 292.0 105.3 0.0 M134.05 0.0 L135.4 0.0 135.4 292.0 134.05 292.0 134.05 0.0 M140.9 0.0 L142.05 0.0 142.05 292.0 140.9 292.0 140.9 0.0 M170.7 0.0 L172.05 0.0 172.05 292.0 170.7 292.0 170.7 0.0 M210.6 0.0 L211.75 0.0 211.75 292.0 210.6 292.0 210.6 0.0 M224.4 0.0 L225.65 0.0 225.65 292.0 224.4 292.0 224.4 0.0 M228.05 0.0 L230.35 0.0 230.35 292.0 228.05 292.0 228.05 0.0 M246.6 0.0 L249.0 0.0 249.0 292.0 246.6 292.0 246.6 0.0 M253.3 0.0 L254.3 0.0 254.3 292.0 253.3 292.0 253.3 0.0 M266.25 0.0 L267.1 0.0 267.1 292.0 266.25 292.0 266.25 0.0 M291.7 0.0 L294.95 0.0 294.95 292.0 291.7 292.0 291.7 0.0 M296.95 0.0 L298.25 0.0 298.25 292.0 296.95 292.0 296.95 0.0" fill="#ffffff" fill-opacity="0.02745098" fill-rule="evenodd" stroke="none"/>
    <path d="M310.0 7.6 L310.0 11.85 307.45 11.6 Q297.8 11.15 290.7 17.65 283.65 24.15 283.35 33.8 283.2 37.25 284.05 40.4 L284.05 40.5 Q284.9 43.9 286.9 47.05 L286.95 47.1 287.1 47.25 289.65 50.5 289.65 50.55 290.6 51.5 290.65 51.5 Q293.1 53.9 296.05 55.5 300.55 57.85 306.05 58.1 L310.0 58.0 310.0 67.9 309.95 67.9 Q306.8 69.45 306.9 77.5 306.95 85.55 305.95 93.65 L304.95 93.95 Q303.7 93.35 303.7 91.75 L303.6 70.0 Q303.55 68.55 302.1 68.15 301.4 67.85 300.95 67.1 299.85 65.55 295.9 64.35 291.9 63.15 288.7 59.2 L288.4 59.0 Q288.1 58.65 287.8 58.55 285.7 56.9 283.9 55.0 281.9 52.8 280.45 50.5 278.05 46.75 276.95 42.55 276.3 39.35 276.2 36.55 L276.15 33.0 Q273.15 38.65 273.55 43.9 L241.85 65.65 Q241.35 63.65 241.3 61.6 L241.3 61.55 Q241.1 59.4 241.35 57.5 241.45 55.75 241.95 54.15 L242.05 54.1 242.05 54.05 242.1 54.05 242.1 53.9 Q242.55 52.25 243.3 50.75 244.6 48.0 246.8 45.55 L247.2 45.05 255.1 38.3 269.25 26.4 Q273.1 22.65 272.35 19.55 271.6 16.35 272.85 13.15 L274.85 11.1 Q275.8 10.3 277.05 9.9 280.1 9.3 281.9 10.75 L281.95 10.55 Q283.35 7.75 286.5 7.75 L287.95 8.0 Q289.8 8.75 290.7 10.1 L290.65 10.2 Q297.55 6.7 305.7 7.1 L310.0 7.6 M289.1 40.35 L310.0 21.05 310.0 37.55 292.95 47.35 Q290.15 44.25 289.1 40.35 M257.0 25.3 L257.45 25.5 257.65 25.95 257.45 26.4 257.0 26.6 256.55 26.4 256.35 25.95 256.55 25.5 257.0 25.3 M268.1 22.55 Q267.35 22.55 266.8 22.0 266.25 21.45 266.25 20.7 266.25 19.95 266.8 19.4 267.35 18.85 268.1 18.85 268.85 18.85 269.4 19.4 269.95 19.95 269.95 20.7 269.95 21.45 269.4 22.0 268.85 22.55 268.1 22.55 M296.4 50.5 L310.0 44.1 310.0 50.0 300.7 52.75 Q298.4 51.9 296.4 50.5 M185.35 58.4 Q188.0 58.6 188.0 61.0 188.0 61.7 187.4 62.55 186.6 63.65 185.3 63.65 183.85 63.65 183.1 62.35 L182.65 60.95 Q182.65 58.2 185.35 58.4 M173.9 58.45 Q174.95 59.6 175.05 60.25 175.45 61.85 175.45 63.5 L175.45 63.9 175.45 64.8 Q175.45 66.35 174.85 67.7 L174.05 69.1 173.45 69.8 Q170.5 73.05 164.1 73.05 160.4 73.05 158.8 71.05 157.8 69.8 157.8 68.4 L157.35 65.7 Q156.85 64.15 156.85 63.6 156.85 58.35 159.75 55.75 162.35 53.45 166.15 54.0 L167.6 54.3 Q170.1 53.6 171.25 54.7 L172.35 56.75 173.9 58.45 M179.7 90.05 L166.45 99.35 107.4 91.25 Q105.45 91.35 103.8 92.05 101.2 93.1 99.35 95.55 102.1 104.8 102.95 111.15 L103.8 117.8 104.15 122.35 104.3 131.3 104.3 131.9 104.2 131.9 85.0 129.5 85.55 129.7 78.45 128.7 Q75.6 128.5 73.7 126.25 L73.55 125.1 Q73.3 124.2 73.65 123.15 74.75 120.15 77.45 120.55 L76.8 115.3 76.1 111.15 74.65 104.0 74.05 101.4 Q70.55 87.75 66.15 77.05 66.1 76.1 66.3 75.4 66.95 73.1 70.45 73.35 L177.9 88.8 179.7 90.05 M237.2 61.8 Q237.35 64.75 238.1 67.4 238.95 70.65 240.65 73.55 L240.65 73.6 153.85 126.4 153.65 125.85 Q153.1 124.3 152.95 122.6 L152.95 120.75 153.1 119.9 Q153.6 117.15 155.45 115.05 156.4 113.9 157.65 113.15 L157.7 113.1 237.2 58.0 237.2 61.8 M233.45 120.0 Q233.45 117.4 236.15 117.2 238.8 116.95 238.8 120.1 238.8 121.15 238.15 121.95 237.4 122.9 236.2 122.9 234.4 122.9 233.75 121.4 L233.45 120.0 M204.1 120.75 Q206.1 125.65 207.45 131.1 L208.35 134.75 208.7 136.9 209.55 142.5 209.8 145.15 193.95 143.15 194.45 141.6 194.9 140.05 195.45 136.85 195.55 136.5 Q195.85 134.0 195.8 131.3 195.7 127.85 195.1 124.15 L203.65 119.65 204.1 120.75 M168.2 139.25 L168.55 138.15 188.65 127.6 188.85 131.65 188.45 136.35 188.45 136.5 187.95 139.15 187.95 139.1 187.45 140.65 187.4 140.9 187.3 141.4 187.05 142.15 187.05 142.3 168.15 139.85 168.2 139.25 M225.2 159.9 L216.3 159.65 Q212.85 159.55 210.65 162.5 L205.9 168.3 140.7 161.6 140.6 161.55 140.1 161.0 139.85 160.75 Q137.85 158.65 135.55 156.9 L131.8 154.25 Q128.35 151.9 124.35 150.05 L124.05 149.9 Q116.45 146.65 103.9 144.75 L97.85 143.9 97.8 143.9 87.35 142.85 87.15 142.85 87.1 142.85 81.8 142.5 75.9 142.1 76.05 135.75 130.15 142.3 Q129.2 140.55 129.2 138.15 L126.05 138.25 Q124.65 137.35 124.7 136.15 124.7 134.95 122.5 134.15 L115.4 133.3 116.1 132.0 Q120.05 124.1 119.55 114.65 119.05 106.9 113.15 99.0 113.55 98.75 113.95 98.65 L158.85 104.75 149.65 111.05 Q148.15 113.05 143.2 128.8 L143.25 128.75 Q141.85 133.95 145.05 136.85 145.9 141.2 143.55 143.95 L224.95 153.8 225.2 159.9 M229.7 167.55 Q263.95 169.05 284.05 173.6 289.4 175.3 294.2 178.75 301.8 184.1 307.9 193.75 L310.0 197.15 310.0 206.6 256.2 201.5 Q254.1 187.9 245.05 178.75 238.85 172.4 229.4 168.25 L228.35 167.8 227.65 167.5 228.35 167.5 228.45 167.5 228.7 167.5 229.7 167.55 M213.7 178.75 Q224.3 183.3 230.95 191.25 L231.05 191.25 Q240.1 202.65 238.35 221.3 L238.35 221.4 Q237.85 228.55 237.75 235.75 L237.5 236.15 237.5 245.4 237.95 246.2 Q239.2 251.45 237.45 256.25 L237.05 256.4 235.6 256.25 235.3 255.85 Q233.95 252.95 234.8 249.8 L234.8 229.65 Q234.75 226.2 232.85 223.4 232.2 222.5 231.15 221.9 229.1 220.75 226.95 220.35 L224.25 220.1 220.45 220.6 Q219.95 221.4 218.95 221.85 213.95 224.0 209.9 220.3 209.15 219.6 209.0 218.7 L209.5 218.65 143.55 212.6 143.4 206.85 155.55 195.15 156.2 193.9 156.3 193.65 156.3 193.35 156.3 193.05 156.2 192.75 Q155.45 189.15 154.35 185.8 L153.6 183.55 Q150.9 176.35 146.8 170.1 L205.4 175.85 Q209.8 177.05 213.7 178.75 M247.25 123.6 L246.9 124.6 Q246.45 125.25 245.55 125.25 244.45 125.25 244.05 124.35 L243.9 123.6 Q243.9 121.9 245.6 121.9 247.25 121.9 247.25 123.6 M151.15 47.45 Q155.95 46.95 155.95 51.8 155.95 56.15 151.6 56.15 148.05 56.15 146.8 54.1 146.2 53.1 146.3 51.95 146.3 50.2 147.8 48.9 149.2 47.7 151.15 47.45 M83.45 87.5 L84.8 86.55 Q85.6 85.6 85.65 84.3 L85.65 84.0 Q85.6 82.5 84.6 81.4 83.65 80.35 82.35 80.4 80.95 80.4 80.05 81.55 79.1 82.6 79.15 84.1 79.2 85.65 80.2 86.65 81.15 87.65 82.45 87.65 L83.45 87.5 M86.05 62.2 Q86.7 62.85 86.7 63.75 86.7 64.65 86.05 65.3 85.4 65.95 84.5 65.95 83.6 65.95 82.95 65.3 82.3 64.65 82.3 63.75 82.3 62.85 82.95 62.2 83.6 61.55 84.5 61.55 85.4 61.55 86.05 62.2 M64.7 17.3 Q65.2 20.4 63.85 24.6 L63.85 24.65 63.2 25.85 60.05 25.75 59.95 25.5 59.35 23.75 59.3 23.6 58.9 22.6 58.9 22.55 Q58.4 21.4 57.45 21.4 L57.4 21.4 53.9 21.1 Q52.8 21.0 52.1 22.15 L51.05 23.5 50.9 23.65 50.35 24.35 Q49.4 25.05 47.85 25.05 L39.35 24.4 Q38.6 24.05 38.3 20.25 L38.3 20.15 Q38.1 17.65 38.45 14.65 L39.1 14.3 Q39.2 14.15 39.4 14.1 L39.8 14.0 Q52.65 12.75 64.15 16.15 L64.7 17.3 M72.5 28.25 Q72.9 28.25 73.2 28.55 L73.45 29.2 73.2 29.9 72.5 30.15 71.85 29.9 Q71.55 29.6 71.55 29.2 71.55 28.8 71.85 28.55 72.1 28.25 72.5 28.25 M56.9 25.15 L56.95 25.55 57.3 26.4 57.55 27.3 57.8 28.05 57.9 28.6 58.05 28.75 58.85 29.0 59.7 29.25 60.05 29.4 60.45 29.6 60.8 30.1 60.45 31.75 60.15 32.8 60.05 33.35 Q59.6 34.4 59.3 35.4 L58.9 36.35 58.3 37.05 56.65 37.9 54.2 38.55 53.55 38.6 52.95 38.6 51.8 38.6 51.1 38.55 49.15 38.0 47.3 37.0 45.65 35.65 44.95 33.65 44.7 32.8 44.4 31.65 44.35 31.25 44.35 31.1 44.35 31.0 44.3 30.85 44.35 30.3 44.65 29.55 Q44.8 29.15 45.95 29.0 L46.35 29.0 47.8 28.85 50.1 28.5 52.4 27.85 Q52.4 27.8 52.55 27.75 52.65 27.4 52.9 27.15 L53.4 26.4 53.9 25.65 54.3 25.1 54.4 25.0 54.65 24.9 56.9 25.15 M32.1 46.3 Q33.2 47.75 34.65 49.0 L37.1 50.9 Q39.85 52.9 43.1 54.25 47.6 56.0 52.4 56.0 57.55 55.9 61.35 52.8 L63.35 48.9 Q66.3 49.6 69.05 51.0 68.8 54.75 69.3 60.1 L70.3 65.15 70.15 65.15 Q60.45 64.5 51.4 68.35 49.05 69.35 46.8 70.5 L40.0 73.8 40.2 73.75 Q36.25 76.15 35.65 79.6 35.0 83.0 32.45 81.95 29.85 80.9 29.55 89.45 L29.55 104.15 Q30.35 105.8 28.9 108.9 27.4 112.0 27.4 104.45 L27.35 87.65 Q27.3 79.05 23.6 72.65 L22.95 71.65 21.35 69.1 27.35 72.8 Q27.7 65.9 27.3 62.65 L26.4 55.9 Q25.95 52.35 23.9 46.5 L31.4 45.35 32.1 46.3 M156.1 202.05 Q154.65 202.05 153.6 203.15 152.55 204.25 152.55 205.75 152.55 207.25 153.6 208.3 L153.6 208.25 Q154.65 209.3 156.1 209.3 157.65 209.3 158.7 208.3 L158.7 208.25 Q159.7 207.25 159.8 205.75 159.8 204.25 158.7 203.15 157.65 202.05 156.1 202.05 M121.6 196.8 Q121.6 196.05 122.15 195.55 122.65 195.0 123.4 195.0 124.15 195.0 124.7 195.55 125.2 196.05 125.2 196.8 125.2 197.55 124.7 198.1 124.15 198.6 123.4 198.6 122.65 198.6 122.15 198.1 121.6 197.55 121.6 196.8 M90.15 119.65 Q89.35 119.65 88.7 120.1 L87.9 120.8 Q86.95 121.85 87.05 123.35 87.05 124.25 87.4 125.0 L88.1 125.9 88.35 126.15 88.8 126.5 90.35 126.9 Q91.7 126.85 92.65 125.8 93.55 124.75 93.45 123.25 93.45 121.75 92.55 120.65 91.55 119.6 90.15 119.65 M89.6 99.85 Q88.7 99.1 87.6 99.1 86.45 99.1 85.65 99.9 L85.35 100.3 Q84.4 101.35 84.4 102.8 L84.4 103.0 Q84.45 104.4 85.45 105.4 86.4 106.4 87.8 106.35 L88.2 106.35 Q89.3 106.15 90.05 105.3 90.95 104.25 90.9 102.65 90.85 101.25 89.9 100.15 L89.6 99.85 M149.6 140.0 Q150.15 139.45 150.9 139.45 151.65 139.45 152.2 140.0 152.75 140.55 152.75 141.3 152.75 142.05 152.2 142.6 151.65 143.15 150.9 143.15 150.15 143.15 149.6 142.6 149.05 142.05 149.05 141.3 149.05 140.55 149.6 140.0 M53.95 191.65 L54.9 193.25 Q62.8 206.1 63.7 223.25 L63.8 228.65 63.7 232.8 Q62.95 246.65 58.45 258.1 56.55 263.0 53.9 267.5 L51.9 270.55 50.65 272.35 49.2 274.3 Q38.05 288.65 23.7 288.85 L23.45 288.85 Q9.5 288.8 0.0 275.3 L0.0 257.2 10.85 257.5 Q12.1 260.4 13.7 263.15 18.4 271.0 24.6 274.3 L26.65 275.25 Q16.9 277.35 11.05 274.5 20.1 281.1 32.1 276.55 L32.15 276.55 34.35 275.3 35.95 274.3 36.1 274.1 Q40.6 270.8 44.65 265.1 50.75 256.4 53.4 245.45 L53.35 245.5 Q49.25 244.15 49.35 239.55 45.55 240.15 43.7 237.1 L43.7 236.75 Q43.5 232.8 47.4 231.45 L48.95 231.6 Q49.3 226.15 55.3 225.15 L55.15 223.25 Q54.15 210.05 48.15 199.9 L46.3 197.1 53.95 191.65 M0.0 178.0 L0.0 174.25 Q15.05 165.1 29.4 158.6 38.65 154.4 47.6 151.35 52.15 149.75 56.7 148.5 L64.8 149.1 73.65 149.75 86.55 150.55 87.3 150.6 90.1 150.8 103.8 152.35 Q112.45 153.65 119.1 156.0 L123.15 157.55 Q125.1 158.65 126.9 160.05 129.65 162.0 132.1 164.3 L136.15 168.55 139.1 172.4 139.1 172.5 Q142.45 177.3 144.9 182.55 L146.2 185.8 148.05 191.25 Q147.2 193.85 143.35 193.65 139.45 193.4 138.05 197.8 137.95 201.8 138.35 205.7 L138.3 208.9 138.3 226.7 138.25 226.7 138.1 233.7 137.95 235.4 135.5 260.35 135.2 262.15 135.05 262.15 134.9 262.15 133.95 268.35 133.55 270.6 133.65 270.6 133.65 270.75 Q132.15 281.05 131.2 292.0 L62.8 292.0 Q65.2 285.95 67.1 279.75 L68.7 274.3 Q74.35 254.0 75.9 232.8 L75.95 231.35 76.45 223.25 76.9 204.35 132.6 207.95 132.25 203.4 131.75 202.95 Q131.45 201.15 131.5 197.25 131.55 193.35 128.95 192.2 126.3 191.0 121.05 190.9 115.8 190.75 111.3 188.05 L74.6 184.85 Q69.55 167.65 59.45 160.1 56.3 157.8 52.7 156.35 48.2 157.4 43.05 159.15 25.75 164.95 0.0 178.0 M70.0 124.6 Q70.5 124.6 70.85 125.0 71.2 125.35 71.2 125.85 L70.85 126.75 Q70.5 127.1 70.0 127.1 69.5 127.1 69.15 126.75 68.8 126.35 68.8 125.85 68.8 125.35 69.15 125.0 69.5 124.6 70.0 124.6 M60.35 133.8 Q59.85 133.3 59.85 132.6 59.85 131.9 60.35 131.45 60.8 130.95 61.5 130.95 62.2 130.95 62.7 131.45 63.15 131.9 63.15 132.6 63.15 133.3 62.7 133.8 62.2 134.25 61.5 134.25 60.8 134.25 60.35 133.8 M43.25 100.85 Q43.7 100.85 44.0 101.2 L44.3 101.95 44.0 102.75 Q43.7 103.05 43.25 103.05 42.8 103.05 42.5 102.75 42.2 102.4 42.2 101.95 42.2 101.5 42.5 101.2 42.8 100.85 43.25 100.85 M37.45 98.3 L37.35 98.1 Q36.8 95.1 39.5 93.5 L40.2 93.35 Q41.75 93.45 42.9 94.35 L43.2 98.2 42.1 99.35 Q39.45 100.15 37.45 98.3 M134.25 228.75 L134.15 226.45 134.15 226.35 120.8 225.4 Q120.15 225.4 119.7 225.8 119.2 226.15 119.2 226.8 L118.85 232.6 118.85 232.8 Q118.85 233.25 119.2 233.65 119.6 234.1 120.2 234.15 L132.25 234.95 Q134.6 231.9 134.25 228.75 M31.35 256.45 Q31.85 256.45 32.2 256.85 L32.5 257.65 32.2 258.5 31.35 258.8 30.55 258.5 Q30.2 258.15 30.2 257.65 30.2 257.15 30.55 256.85 30.85 256.45 31.35 256.45 M0.0 244.25 L7.2 244.5 Q7.9 248.9 9.15 252.9 L0.0 252.65 0.0 244.25 M29.2 245.1 Q31.4 244.9 32.9 245.55 L33.45 244.95 34.4 244.85 Q35.55 245.4 35.65 246.8 L35.45 247.4 34.15 247.95 Q34.65 249.45 33.6 250.35 30.25 253.15 27.7 249.5 L27.65 248.9 Q27.3 246.65 29.2 245.1 M48.45 243.2 Q49.0 243.2 49.4 243.6 49.75 243.95 49.75 244.45 L49.4 245.35 Q49.0 245.7 48.45 245.7 47.9 245.7 47.55 245.35 47.15 244.95 47.15 244.45 47.15 243.95 47.55 243.6 47.9 243.2 48.45 243.2 M117.7 261.0 Q117.15 260.9 116.7 261.25 116.3 261.55 116.2 262.1 L115.1 267.85 Q114.95 268.25 115.15 268.6 L115.65 269.3 Q115.95 269.55 116.4 269.6 L129.3 270.35 129.3 270.3 Q131.9 267.45 131.45 261.8 L117.7 261.0 M120.35 203.1 Q120.05 203.1 119.85 202.9 L119.65 202.4 119.85 201.9 120.35 201.7 120.85 201.9 121.05 202.4 120.85 202.9 120.35 203.1 M301.3 232.8 L301.35 234.1 301.4 237.3 285.05 236.25 Q284.55 236.15 284.15 236.5 283.7 236.85 283.7 237.35 L283.65 237.9 283.65 238.0 283.2 243.25 Q283.2 243.75 283.6 244.15 283.9 244.55 284.45 244.6 L301.3 245.75 Q300.8 258.75 298.3 271.55 L298.05 271.5 279.85 270.5 Q279.4 270.4 279.05 270.75 278.65 271.0 278.55 271.4 L278.2 272.75 278.15 272.8 277.05 277.25 Q276.9 277.55 277.1 277.9 L277.05 277.9 277.45 278.55 278.2 278.8 296.35 279.85 Q294.75 286.0 292.65 292.0 L239.1 292.0 Q241.85 284.25 243.85 276.25 L244.65 273.0 Q249.35 253.4 250.05 233.35 L250.1 232.8 250.05 224.9 Q247.7 219.95 249.15 217.85 250.6 215.7 250.45 213.35 250.25 210.95 254.0 209.05 257.7 207.15 263.05 209.15 268.3 211.15 268.05 221.2 L300.7 224.15 301.3 232.8 M184.55 208.25 Q184.45 206.75 183.4 205.75 L183.45 205.75 Q182.4 204.6 180.9 204.6 179.4 204.6 178.35 205.75 177.2 206.75 177.2 208.25 177.2 209.8 178.35 210.85 L178.35 210.8 Q179.4 211.85 180.9 211.85 182.4 211.85 183.4 210.85 L183.45 210.8 Q184.45 209.75 184.55 208.25 M218.7 238.05 L218.55 236.55 Q219.5 235.5 220.75 235.85 L221.35 236.45 Q221.05 239.2 218.7 238.05 M206.05 208.45 Q206.7 207.8 207.55 207.65 206.7 207.05 205.65 207.1 204.15 207.05 203.1 208.15 202.05 209.25 202.05 210.75 202.05 212.25 203.1 213.3 204.15 214.35 205.65 214.35 206.8 214.3 207.7 213.7 206.75 213.55 206.05 212.85 205.15 211.95 205.15 210.65 205.15 209.35 206.05 208.45 M230.45 210.55 L230.55 210.55 Q229.45 209.4 227.95 209.4 226.45 209.4 225.4 210.55 224.3 211.55 224.3 213.05 224.3 214.6 225.4 215.65 L225.4 215.6 Q226.45 216.65 227.95 216.75 229.45 216.65 230.45 215.65 L230.55 215.6 Q231.55 214.55 231.6 213.05 231.55 211.55 230.45 210.55 M276.4 218.9 Q273.3 220.2 271.95 217.25 270.4 213.95 273.7 212.85 275.45 213.15 277.05 213.8 278.65 214.5 278.5 216.35 278.3 218.15 276.4 218.9 M198.8 261.95 Q201.5 258.95 207.35 258.95 212.0 259.75 213.9 262.95 215.2 265.1 215.2 268.05 215.2 269.3 214.8 270.7 L213.9 273.65 212.8 274.9 Q211.65 275.9 210.7 276.15 L205.15 277.3 Q200.75 277.3 198.4 272.7 196.85 269.65 196.85 267.15 196.85 264.1 198.8 261.95 M164.45 271.7 Q165.05 271.7 165.5 272.15 165.95 272.6 165.95 273.2 165.95 273.8 165.5 274.25 L164.45 274.7 Q163.85 274.7 163.4 274.25 162.95 273.8 162.95 273.2 162.95 272.6 163.4 272.15 163.85 271.7 164.45 271.7 M175.75 266.9 Q174.95 264.7 176.75 263.1 L177.4 263.05 Q178.95 262.8 179.9 263.9 180.35 264.95 179.95 266.1 179.05 268.8 176.05 267.4 L175.75 266.9 M190.0 278.1 L189.65 275.8 Q189.65 274.05 191.0 273.0 192.25 272.0 193.95 272.05 198.25 272.15 198.25 276.95 198.25 278.6 197.95 279.1 197.2 280.3 194.55 280.3 191.05 280.3 190.0 278.1" fill="#ffffff" fill-opacity="0.09411765" fill-rule="evenodd" stroke="none"/>
  </g>
</svg>
