<?xml version="1.0" encoding="UTF-8" standalone="no"?>
<svg xmlns:xlink="http://www.w3.org/1999/xlink" height="73.0px" width="73.0px" xmlns="http://www.w3.org/2000/svg">
  <g transform="matrix(1.0, 0.0, 0.0, 1.0, 36.5, 36.5)">
    <path d="M24.05 -24.05 Q34.0 -14.1 34.0 0.0 34.0 14.1 24.05 24.05 14.1 34.0 0.0 34.0 -14.1 34.0 -24.05 24.05 -34.0 14.1 -34.0 0.0 -34.0 -14.1 -24.05 -24.05 -14.1 -34.0 0.0 -34.0 14.1 -34.0 24.05 -24.05 M21.25 -21.2 Q12.45 -30.0 0.0 -30.0 -12.45 -30.0 -21.2 -21.2 -30.0 -12.45 -30.0 0.0 -30.0 12.45 -21.2 21.25 -12.45 30.0 0.0 30.0 12.45 30.0 21.25 21.25 30.0 12.45 30.0 0.0 30.0 -12.45 21.25 -21.2" fill="#000000" fill-opacity="0.49803922" fill-rule="evenodd" stroke="none"/>
    <path d="M25.45 -25.45 Q36.0 -14.95 36.0 0.0 36.0 14.95 25.45 25.45 14.95 36.0 0.0 36.0 -14.95 36.0 -25.45 25.45 -36.0 14.95 -36.0 0.0 -36.0 -14.95 -25.45 -25.45 -14.95 -36.0 0.0 -36.0 14.95 -36.0 25.45 -25.45 M19.8 -19.8 Q28.0 -11.6 28.0 0.0 28.0 11.6 19.8 19.8 11.6 28.0 0.0 28.0 -11.6 28.0 -19.8 19.8 -28.0 11.6 -28.0 0.0 -28.0 -11.6 -19.8 -19.8 -11.6 -28.0 0.0 -28.0 11.6 -28.0 19.8 -19.8" fill="none" stroke="#ffffff" stroke-linecap="round" stroke-linejoin="round" stroke-opacity="0.2509804" stroke-width="1.0"/>
  </g>
</svg>
