<?xml version="1.0" encoding="UTF-8" standalone="no"?>
<svg xmlns:xlink="http://www.w3.org/1999/xlink" height="68.0px" width="68.0px" xmlns="http://www.w3.org/2000/svg">
  <g transform="matrix(1.0, 0.0, 0.0, 1.0, 34.0, 34.0)">
    <path d="M24.05 -24.05 Q34.0 -14.1 34.0 0.0 34.0 14.1 24.05 24.05 14.1 34.0 0.0 34.0 -14.1 34.0 -24.05 24.05 -34.0 14.1 -34.0 0.0 -34.0 -14.1 -24.05 -24.05 -14.1 -34.0 0.0 -34.0 14.1 -34.0 24.05 -24.05 M21.25 -21.2 Q12.45 -30.0 0.0 -30.0 -12.45 -30.0 -21.2 -21.2 -30.0 -12.45 -30.0 0.0 -30.0 12.45 -21.2 21.25 -12.45 30.0 0.0 30.0 12.45 30.0 21.25 21.25 30.0 12.45 30.0 0.0 30.0 -12.45 21.25 -21.2" fill="#ff0000" fill-rule="evenodd" stroke="none"/>
  </g>
</svg>
