<?xml version="1.0" encoding="UTF-8" standalone="no"?>
<svg xmlns:xlink="http://www.w3.org/1999/xlink" height="100.0px" width="50.0px" xmlns="http://www.w3.org/2000/svg">
  <g transform="matrix(1.0, 0.0, 0.0, 1.0, 0.0, 50.0)">
    <path d="M0.0 0.0 L0.0 -50.0 2.0 -50.0 0.0 0.0" fill="#ffffff" fill-rule="evenodd" stroke="none"/>
    <path d="M12.5 -50.0 L25.0 -50.0 0.0 0.0 12.5 -50.0" fill="#eeb211" fill-opacity="0.9019608" fill-rule="evenodd" stroke="none"/>
    <path d="M2.0 -50.0 L12.5 -50.0 0.0 0.0 2.0 -50.0" fill="#eeb211" fill-rule="evenodd" stroke="none"/>
    <path d="M25.0 -50.0 L37.5 -50.0 0.0 0.0 25.0 -50.0" fill="#eeb211" fill-opacity="0.8745098" fill-rule="evenodd" stroke="none"/>
    <path d="M50.0 -25.0 L50.0 -12.5 0.0 0.0 50.0 -25.0" fill="#eeb211" fill-opacity="0.62352943" fill-rule="evenodd" stroke="none"/>
    <path d="M50.0 -37.5 L50.0 -25.0 0.0 0.0 50.0 -37.5" fill="#eeb211" fill-opacity="0.6862745" fill-rule="evenodd" stroke="none"/>
    <path d="M50.0 -50.0 L50.0 -37.5 0.0 0.0 50.0 -50.0" fill="#eeb211" fill-opacity="0.7058824" fill-rule="evenodd" stroke="none"/>
    <path d="M37.5 -50.0 L50.0 -50.0 0.0 0.0 37.5 -50.0" fill="#eeb211" fill-opacity="0.8117647" fill-rule="evenodd" stroke="none"/>
    <path d="M50.0 12.5 L50.0 25.0 0.0 0.0 50.0 12.5" fill="#eeb211" fill-opacity="0.43529412" fill-rule="evenodd" stroke="none"/>
    <path d="M25.0 50.0 L12.5 50.0 0.0 0.0 25.0 50.0" fill="#eeb211" fill-opacity="0.08627451" fill-rule="evenodd" stroke="none"/>
    <path d="M37.5 50.0 L25.0 50.0 0.0 0.0 37.5 50.0" fill="#eeb211" fill-opacity="0.105882354" fill-rule="evenodd" stroke="none"/>
    <path d="M12.5 50.0 L0.0 50.0 0.0 0.0 12.5 50.0" fill="#eeb211" fill-opacity="0.047058824" fill-rule="evenodd" stroke="none"/>
    <path d="M50.0 -12.5 L50.0 12.5 0.0 0.0 50.0 -12.5" fill="#eeb211" fill-opacity="0.49803922" fill-rule="evenodd" stroke="none"/>
    <path d="M50.0 25.0 L50.0 50.0 0.0 0.0 50.0 25.0" fill="#eeb211" fill-opacity="0.29803923" fill-rule="evenodd" stroke="none"/>
    <path d="M50.0 50.0 L37.5 50.0 0.0 0.0 50.0 50.0" fill="#eeb211" fill-opacity="0.24705882" fill-rule="evenodd" stroke="none"/>
  </g>
</svg>
