<?xml version="1.0" encoding="UTF-8" standalone="no"?>
<svg xmlns:xlink="http://www.w3.org/1999/xlink" height="156.45px" width="251.5px" xmlns="http://www.w3.org/2000/svg">
  <g transform="matrix(1.0, 0.0, 0.0, 1.0, 1.25, 1.25)">
    <path d="M239.0 0.0 L239.0 0.5 233.85 0.0 239.0 0.0 M16.0 0.0 Q12.0 0.1 9.0 1.0 L9.0 0.0 16.0 0.0 M9.0 153.0 L15.85 153.95 9.0 153.95 9.0 153.0 M239.0 153.45 L239.0 153.95 234.1 153.95 239.0 153.45" fill="#555555" fill-rule="evenodd" stroke="none"/>
    <path d="M16.0 0.0 L232.85 0.0 238.0 0.5 Q249.0 2.5 249.0 12.9 L249.0 141.0 Q249.0 151.4 238.0 153.45 L233.1 153.95 15.85 153.95 9.0 153.0 8.0 152.7 Q0.0 149.9 0.0 141.0 L0.0 12.9 Q0.0 4.05 8.0 1.3 L9.0 1.0 Q12.0 0.1 16.0 0.0" fill="url(#gradient0)" fill-rule="evenodd" stroke="none"/>
    <path d="M15.85 153.95 L233.1 153.95 238.0 153.45 Q249.0 151.4 249.0 141.0 L249.0 12.9 Q249.0 2.5 238.0 0.5 L232.85 0.0 16.0 0.0 Q12.0 0.1 9.0 1.0 L8.0 1.3 Q0.0 4.05 0.0 12.9 L0.0 141.0 Q0.0 149.9 8.0 152.7 L9.0 153.0 15.85 153.95 Z" fill="none" stroke="url(#gradient1)" stroke-linecap="round" stroke-linejoin="round" stroke-width="2.5"/>
  </g>
  <defs>
    <radialGradient cx="0" cy="0" gradientTransform="matrix(0.2691, -0.1554, 0.2543, 0.4404, 27.0, 141.0)" gradientUnits="userSpaceOnUse" id="gradient0" r="819.2" spreadMethod="pad">
      <stop offset="0.0" stop-color="#333333"/>
      <stop offset="0.32941176470588235" stop-color="#555555"/>
      <stop offset="0.4549019607843137" stop-color="#444444"/>
      <stop offset="0.5490196078431373" stop-color="#444444"/>
      <stop offset="0.6274509803921569" stop-color="#555555"/>
      <stop offset="0.8666666666666667" stop-color="#777777"/>
      <stop offset="0.9333333333333333" stop-color="#4d4d4d"/>
      <stop offset="1.0" stop-color="#555555"/>
    </radialGradient>
    <linearGradient gradientTransform="matrix(0.0011, -0.002, 0.0827, 0.0477, 124.45, 76.95)" gradientUnits="userSpaceOnUse" id="gradient1" spreadMethod="pad" x1="-819.2" x2="819.2">
      <stop offset="0.0" stop-color="#262626"/>
      <stop offset="1.0" stop-color="#999999"/>
    </linearGradient>
  </defs>
</svg>
