<?xml version="1.0" encoding="UTF-8" standalone="no"?>
<svg xmlns:xlink="http://www.w3.org/1999/xlink" height="31.45px" width="394.95px" xmlns="http://www.w3.org/2000/svg">
  <g transform="matrix(1.0, 0.0, 0.0, 1.0, -8.9, -6.25)">
    <path d="M390.7 19.3 L395.8 19.3 395.8 14.25 390.7 14.25 390.7 19.3 M398.6 24.5 L401.2 24.5 401.2 35.05 395.8 35.05 395.8 24.6 390.7 24.6 390.7 35.05 385.3 35.05 385.3 8.9 401.2 8.9 401.2 22.0 398.6 22.0 398.6 24.5 M372.3 14.25 L372.3 29.65 377.4 29.65 377.4 14.25 372.3 14.25 M367.05 11.5 L367.05 9.0 369.55 9.0 369.55 8.9 382.8 8.9 382.8 34.95 380.2 34.95 380.2 35.05 366.9 35.05 366.9 11.5 367.05 11.5 M348.45 8.9 L364.35 8.9 364.35 14.25 359.1 14.25 359.1 35.05 353.7 35.05 353.7 14.25 348.45 14.25 348.45 8.9 M335.45 24.6 L335.45 35.05 330.05 35.05 330.05 8.9 345.95 8.9 345.95 35.05 340.55 35.05 340.55 24.6 335.45 24.6 M340.55 19.3 L340.55 14.25 335.45 14.25 335.45 19.3 340.55 19.3 M327.6 24.6 L319.7 24.6 319.7 29.65 327.6 29.65 327.6 35.05 314.3 35.05 314.3 8.9 327.6 8.9 327.6 14.25 319.7 14.25 319.7 19.3 327.6 19.3 327.6 24.6 M306.35 14.25 L301.25 14.25 301.25 19.3 306.35 19.3 306.35 14.25 M309.15 24.5 L311.75 24.5 311.75 35.05 306.35 35.05 306.35 24.6 301.25 24.6 301.25 35.05 295.85 35.05 295.85 8.9 311.75 8.9 311.75 22.0 309.15 22.0 309.15 24.5 M287.95 19.45 L287.95 14.25 282.85 14.25 282.85 29.65 287.95 29.65 287.95 24.5 293.35 24.5 293.35 34.95 290.75 34.95 290.75 35.05 277.45 35.05 277.45 11.5 277.6 11.5 277.6 9.0 280.1 9.0 280.1 8.9 290.75 8.9 290.75 9.0 293.35 9.0 293.35 19.45 287.95 19.45 M256.5 14.25 L256.5 35.05 251.1 35.05 251.1 8.9 267.0 8.9 267.0 35.05 261.6 35.05 261.6 14.25 256.5 14.25 M248.55 8.9 L248.55 35.05 243.15 35.05 243.15 8.9 248.55 8.9 M240.65 8.9 L240.65 19.45 238.05 19.45 238.05 24.5 240.65 24.5 240.65 35.05 235.25 35.05 235.25 24.6 230.15 24.6 230.15 35.05 224.75 35.05 224.75 8.9 230.15 8.9 230.15 19.3 235.25 19.3 235.25 8.9 240.65 8.9 M208.95 8.9 L222.2 8.9 222.2 14.25 211.7 14.25 211.7 19.3 222.2 19.3 222.2 34.95 219.6 34.95 219.6 35.05 206.3 35.05 206.3 29.65 216.8 29.65 216.8 24.6 206.3 24.6 206.3 11.5 206.45 11.5 206.45 9.0 208.95 9.0 208.95 8.9 M190.6 14.25 L190.6 35.05 185.2 35.05 185.2 14.25 179.95 14.25 179.95 8.9 195.85 8.9 195.85 14.25 190.6 14.25 M177.5 14.25 L169.6 14.25 169.6 19.3 177.5 19.3 177.5 24.6 169.6 24.6 169.6 35.05 164.2 35.05 164.2 8.9 177.5 8.9 177.5 14.25 M151.2 14.25 L151.2 19.3 156.3 19.3 156.3 14.25 151.2 14.25 M151.2 24.6 L151.2 35.05 145.8 35.05 145.8 8.9 161.7 8.9 161.7 35.05 156.3 35.05 156.3 24.6 151.2 24.6 M143.25 22.0 L140.65 22.0 140.65 24.5 143.25 24.5 143.25 35.05 137.85 35.05 137.85 24.6 132.75 24.6 132.75 35.05 127.35 35.05 127.35 8.9 143.25 8.9 143.25 22.0 M122.25 9.0 L124.85 9.0 124.85 19.45 119.45 19.45 119.45 14.25 114.35 14.25 114.35 29.65 119.45 29.65 119.45 24.5 124.85 24.5 124.85 34.95 122.25 34.95 122.25 35.05 108.95 35.05 108.95 11.5 109.1 11.5 109.1 9.0 111.6 9.0 111.6 8.9 122.25 8.9 122.25 9.0 M132.75 14.25 L132.75 19.3 137.85 19.3 137.85 14.25 132.75 14.25 M106.5 24.6 L98.6 24.6 98.6 29.65 106.5 29.65 106.5 35.05 93.2 35.05 93.2 8.9 106.5 8.9 106.5 14.25 98.6 14.25 98.6 19.3 106.5 19.3 106.5 24.6 M85.25 35.05 L85.25 14.25 80.15 14.25 80.15 35.05 74.75 35.05 74.75 8.9 90.65 8.9 90.65 35.05 85.25 35.05 M72.25 8.9 L72.25 35.05 66.85 35.05 66.85 8.9 72.25 8.9 M53.8 14.25 L53.8 35.05 48.4 35.05 48.4 14.25 43.3 14.25 43.3 35.05 37.9 35.05 37.9 8.9 64.3 8.9 64.3 35.05 58.9 35.05 58.9 14.25 53.8 14.25 M22.05 14.25 L16.95 14.25 16.95 19.3 22.05 19.3 22.05 14.25 M11.55 35.05 L11.55 8.9 27.45 8.9 27.45 35.05 22.05 35.05 22.05 24.6 16.95 24.6 16.95 35.05 11.55 35.05" fill="#ffffff" fill-rule="evenodd" stroke="none"/>
    <path d="M390.7 19.3 L395.8 19.3 395.8 14.25 390.7 14.25 390.7 19.3 M398.6 24.5 L401.2 24.5 401.2 35.05 395.8 35.05 395.8 24.6 390.7 24.6 390.7 35.05 385.3 35.05 385.3 8.9 401.2 8.9 401.2 22.0 398.6 22.0 398.6 24.5 M372.3 14.25 L372.3 29.65 377.4 29.65 377.4 14.25 372.3 14.25 M367.05 11.5 L367.05 9.0 369.55 9.0 369.55 8.9 382.8 8.9 382.8 34.95 380.2 34.95 380.2 35.05 366.9 35.05 366.9 11.5 367.05 11.5 M348.45 8.9 L364.35 8.9 364.35 14.25 359.1 14.25 359.1 35.05 353.7 35.05 353.7 14.25 348.45 14.25 348.45 8.9 M335.45 24.6 L335.45 35.05 330.05 35.05 330.05 8.9 345.95 8.9 345.95 35.05 340.55 35.05 340.55 24.6 335.45 24.6 M340.55 19.3 L340.55 14.25 335.45 14.25 335.45 19.3 340.55 19.3 M327.6 24.6 L319.7 24.6 319.7 29.65 327.6 29.65 327.6 35.05 314.3 35.05 314.3 8.9 327.6 8.9 327.6 14.25 319.7 14.25 319.7 19.3 327.6 19.3 327.6 24.6 M306.35 14.25 L301.25 14.25 301.25 19.3 306.35 19.3 306.35 14.25 M309.15 24.5 L311.75 24.5 311.75 35.05 306.35 35.05 306.35 24.6 301.25 24.6 301.25 35.05 295.85 35.05 295.85 8.9 311.75 8.9 311.75 22.0 309.15 22.0 309.15 24.5 M287.95 19.45 L287.95 14.25 282.85 14.25 282.85 29.65 287.95 29.65 287.95 24.5 293.35 24.5 293.35 34.95 290.75 34.95 290.75 35.05 277.45 35.05 277.45 11.5 277.6 11.5 277.6 9.0 280.1 9.0 280.1 8.9 290.75 8.9 290.75 9.0 293.35 9.0 293.35 19.45 287.95 19.45 M256.5 14.25 L256.5 35.05 251.1 35.05 251.1 8.9 267.0 8.9 267.0 35.05 261.6 35.05 261.6 14.25 256.5 14.25 M248.55 8.9 L248.55 35.05 243.15 35.05 243.15 8.9 248.55 8.9 M240.65 8.9 L240.65 19.45 238.05 19.45 238.05 24.5 240.65 24.5 240.65 35.05 235.25 35.05 235.25 24.6 230.15 24.6 230.15 35.05 224.75 35.05 224.75 8.9 230.15 8.9 230.15 19.3 235.25 19.3 235.25 8.9 240.65 8.9 M208.95 8.9 L222.2 8.9 222.2 14.25 211.7 14.25 211.7 19.3 222.2 19.3 222.2 34.95 219.6 34.95 219.6 35.05 206.3 35.05 206.3 29.65 216.8 29.65 216.8 24.6 206.3 24.6 206.3 11.5 206.45 11.5 206.45 9.0 208.95 9.0 208.95 8.9 M190.6 14.25 L190.6 35.05 185.2 35.05 185.2 14.25 179.95 14.25 179.95 8.9 195.85 8.9 195.85 14.25 190.6 14.25 M177.5 14.25 L169.6 14.25 169.6 19.3 177.5 19.3 177.5 24.6 169.6 24.6 169.6 35.05 164.2 35.05 164.2 8.9 177.5 8.9 177.5 14.25 M151.2 14.25 L151.2 19.3 156.3 19.3 156.3 14.25 151.2 14.25 M151.2 24.6 L151.2 35.05 145.8 35.05 145.8 8.9 161.7 8.9 161.7 35.05 156.3 35.05 156.3 24.6 151.2 24.6 M143.25 22.0 L140.65 22.0 140.65 24.5 143.25 24.5 143.25 35.05 137.85 35.05 137.85 24.6 132.75 24.6 132.75 35.05 127.35 35.05 127.35 8.9 143.25 8.9 143.25 22.0 M122.25 9.0 L124.85 9.0 124.85 19.45 119.45 19.45 119.45 14.25 114.35 14.25 114.35 29.65 119.45 29.65 119.45 24.5 124.85 24.5 124.85 34.95 122.25 34.95 122.25 35.05 108.95 35.05 108.95 11.5 109.1 11.5 109.1 9.0 111.6 9.0 111.6 8.9 122.25 8.9 122.25 9.0 M132.75 14.25 L132.75 19.3 137.85 19.3 137.85 14.25 132.75 14.25 M106.5 24.6 L98.6 24.6 98.6 29.65 106.5 29.65 106.5 35.05 93.2 35.05 93.2 8.9 106.5 8.9 106.5 14.25 98.6 14.25 98.6 19.3 106.5 19.3 106.5 24.6 M85.25 35.05 L85.25 14.25 80.15 14.25 80.15 35.05 74.75 35.05 74.75 8.9 90.65 8.9 90.65 35.05 85.25 35.05 M72.25 8.9 L72.25 35.05 66.85 35.05 66.85 8.9 72.25 8.9 M53.8 14.25 L53.8 35.05 48.4 35.05 48.4 14.25 43.3 14.25 43.3 35.05 37.9 35.05 37.9 8.9 64.3 8.9 64.3 35.05 58.9 35.05 58.9 14.25 53.8 14.25 M22.05 14.25 L16.95 14.25 16.95 19.3 22.05 19.3 22.05 14.25 M11.55 35.05 L11.55 8.9 27.45 8.9 27.45 35.05 22.05 35.05 22.05 24.6 16.95 24.6 16.95 35.05 11.55 35.05" fill="none" stroke="#000000" stroke-linecap="square" stroke-linejoin="miter-clip" stroke-miterlimit="3.0" stroke-width="4.0"/>
    <path d="M390.7 19.3 L395.8 19.3 395.8 14.25 390.7 14.25 390.7 19.3 M401.2 24.5 L401.2 35.05 395.8 35.05 395.8 24.6 390.7 24.6 390.7 35.05 385.3 35.05 385.3 8.9 401.2 8.9 401.2 22.0 398.6 22.0 398.6 24.5 401.2 24.5 M367.05 9.0 L369.55 9.0 369.55 8.9 382.8 8.9 382.8 34.95 380.2 34.95 380.2 35.05 366.9 35.05 366.9 11.5 367.05 11.5 367.05 9.0 M372.3 14.25 L372.3 29.65 377.4 29.65 377.4 14.25 372.3 14.25 M348.45 14.25 L348.45 8.9 364.35 8.9 364.35 14.25 359.1 14.25 359.1 35.05 353.7 35.05 353.7 14.25 348.45 14.25 M340.55 14.25 L335.45 14.25 335.45 19.3 340.55 19.3 340.55 14.25 M327.6 14.25 L319.7 14.25 319.7 19.3 327.6 19.3 327.6 24.6 319.7 24.6 319.7 29.65 327.6 29.65 327.6 35.05 314.3 35.05 314.3 8.9 327.6 8.9 327.6 14.25 M335.45 24.6 L335.45 35.05 330.05 35.05 330.05 8.9 345.95 8.9 345.95 35.05 340.55 35.05 340.55 24.6 335.45 24.6 M309.15 24.5 L311.75 24.5 311.75 35.05 306.35 35.05 306.35 24.6 301.25 24.6 301.25 35.05 295.85 35.05 295.85 8.9 311.75 8.9 311.75 22.0 309.15 22.0 309.15 24.5 M306.35 14.25 L301.25 14.25 301.25 19.3 306.35 19.3 306.35 14.25 M248.55 8.9 L248.55 35.05 243.15 35.05 243.15 8.9 248.55 8.9 M256.5 14.25 L256.5 35.05 251.1 35.05 251.1 8.9 267.0 8.9 267.0 35.05 261.6 35.05 261.6 14.25 256.5 14.25 M240.65 8.9 L240.65 19.45 238.05 19.45 238.05 24.5 240.65 24.5 240.65 35.05 235.25 35.05 235.25 24.6 230.15 24.6 230.15 35.05 224.75 35.05 224.75 8.9 230.15 8.9 230.15 19.3 235.25 19.3 235.25 8.9 240.65 8.9 M208.95 8.9 L222.2 8.9 222.2 14.25 211.7 14.25 211.7 19.3 222.2 19.3 222.2 34.95 219.6 34.95 219.6 35.05 206.3 35.05 206.3 29.65 216.8 29.65 216.8 24.6 206.3 24.6 206.3 11.5 206.45 11.5 206.45 9.0 208.95 9.0 208.95 8.9 M195.85 14.25 L190.6 14.25 190.6 35.05 185.2 35.05 185.2 14.25 179.95 14.25 179.95 8.9 195.85 8.9 195.85 14.25 M177.5 8.9 L177.5 14.25 169.6 14.25 169.6 19.3 177.5 19.3 177.5 24.6 169.6 24.6 169.6 35.05 164.2 35.05 164.2 8.9 177.5 8.9 M143.25 22.0 L140.65 22.0 140.65 24.5 143.25 24.5 143.25 35.05 137.85 35.05 137.85 24.6 132.75 24.6 132.75 35.05 127.35 35.05 127.35 8.9 143.25 8.9 143.25 22.0 M151.2 24.6 L151.2 35.05 145.8 35.05 145.8 8.9 161.7 8.9 161.7 35.05 156.3 35.05 156.3 24.6 151.2 24.6 M151.2 14.25 L151.2 19.3 156.3 19.3 156.3 14.25 151.2 14.25 M124.85 9.0 L124.85 19.45 119.45 19.45 119.45 14.25 114.35 14.25 114.35 29.65 119.45 29.65 119.45 24.5 124.85 24.5 124.85 34.95 122.25 34.95 122.25 35.05 108.95 35.05 108.95 11.5 109.1 11.5 109.1 9.0 111.6 9.0 111.6 8.9 122.25 8.9 122.25 9.0 124.85 9.0 M137.85 14.25 L132.75 14.25 132.75 19.3 137.85 19.3 137.85 14.25 M106.5 24.6 L98.6 24.6 98.6 29.65 106.5 29.65 106.5 35.05 93.2 35.05 93.2 8.9 106.5 8.9 106.5 14.25 98.6 14.25 98.6 19.3 106.5 19.3 106.5 24.6 M85.25 35.05 L85.25 14.25 80.15 14.25 80.15 35.05 74.75 35.05 74.75 8.9 90.65 8.9 90.65 35.05 85.25 35.05 M72.25 8.9 L72.25 35.05 66.85 35.05 66.85 8.9 72.25 8.9 M53.8 14.25 L53.8 35.05 48.4 35.05 48.4 14.25 43.3 14.25 43.3 35.05 37.9 35.05 37.9 8.9 64.3 8.9 64.3 35.05 58.9 35.05 58.9 14.25 53.8 14.25 M22.05 14.25 L16.95 14.25 16.95 19.3 22.05 19.3 22.05 14.25 M11.55 35.05 L11.55 8.9 27.45 8.9 27.45 35.05 22.05 35.05 22.05 24.6 16.95 24.6 16.95 35.05 11.55 35.05" fill="url(#gradient0)" fill-rule="evenodd" stroke="none"/>
    <path d="M287.95 19.45 L287.95 14.25 282.85 14.25 282.85 29.65 287.95 29.65 287.95 24.5 293.35 24.5 293.35 34.95 290.75 34.95 290.75 35.05 277.45 35.05 277.45 11.5 277.6 11.5 277.6 9.0 280.1 9.0 280.1 8.9 290.75 8.9 290.75 9.0 293.35 9.0 293.35 19.45 287.95 19.45" fill="url(#gradient1)" fill-rule="evenodd" stroke="none"/>
  </g>
  <defs>
    <linearGradient gradientTransform="matrix(0.0, -0.0097, 0.016, 0.0, 135.3, 21.95)" gradientUnits="userSpaceOnUse" id="gradient0" spreadMethod="pad" x1="-819.2" x2="819.2">
      <stop offset="0.047058823529411764" stop-color="#515151"/>
      <stop offset="0.23529411764705882" stop-color="#999999"/>
      <stop offset="0.7058823529411765" stop-color="#bfbfbf"/>
      <stop offset="0.8470588235294118" stop-color="#999999"/>
    </linearGradient>
    <linearGradient gradientTransform="matrix(0.0, -0.0094, 0.016, 0.0, 135.3, 21.95)" gradientUnits="userSpaceOnUse" id="gradient1" spreadMethod="pad" x1="-819.2" x2="819.2">
      <stop offset="0.047058823529411764" stop-color="#515151"/>
      <stop offset="0.23529411764705882" stop-color="#999999"/>
      <stop offset="0.7058823529411765" stop-color="#bfbfbf"/>
      <stop offset="0.8470588235294118" stop-color="#999999"/>
    </linearGradient>
  </defs>
</svg>
