<?xml version="1.0" encoding="UTF-8" standalone="no"?>
<svg xmlns:xlink="http://www.w3.org/1999/xlink" height="314.6px" width="398.4px" xmlns="http://www.w3.org/2000/svg">
  <g transform="matrix(1.0, 0.0, 0.0, 1.0, 198.8, 314.6)">
    <path d="M-77.8 -297.25 Q-76.7 -298.9 -74.75 -299.55 L-74.4 -299.7 -74.4 -299.75 Q-73.9 -305.05 -69.7 -308.85 -64.85 -313.25 -58.0 -313.25 -51.0 -313.25 -46.15 -308.85 -43.05 -306.0 -42.0 -302.95 -40.3 -302.15 -39.15 -301.35 -39.2 -298.1 -39.75 -294.95 L-38.55 -293.2 Q-38.85 -289.35 -39.55 -285.75 L-40.2 -282.95 -44.35 -281.3 -45.3 -278.6 -45.1 -278.45 -45.1 -278.5 -44.5 -278.35 Q-43.15 -277.85 -41.95 -277.0 L-41.85 -276.95 -36.85 -274.0 -35.1 -272.9 -33.5 -271.8 Q-30.5 -266.65 -29.0 -263.3 -27.5 -259.8 -26.3 -256.1 L-26.2 -256.05 -26.1 -255.85 -26.1 -255.7 -26.15 -255.65 -25.95 -255.05 -25.9 -254.95 -26.05 -254.75 -26.1 -254.7 -26.6 -254.85 Q-27.25 -254.1 -28.4 -253.85 L-29.0 -253.65 -37.15 -250.05 Q-41.15 -248.3 -44.9 -246.15 L-52.7 -241.65 Q-56.55 -239.4 -60.6 -237.4 L-68.85 -233.6 Q-71.25 -232.55 -73.75 -231.9 -79.9 -230.35 -86.2 -231.05 L-87.15 -231.25 Q-88.1 -231.55 -88.75 -232.05 L-89.2 -232.4 Q-93.95 -236.85 -95.35 -242.45 -96.05 -245.15 -95.95 -248.1 -94.85 -254.95 -94.3 -259.5 L-93.75 -261.55 -92.0 -267.5 -88.3 -277.0 -88.15 -277.1 Q-86.25 -278.15 -84.05 -278.75 L-79.65 -279.95 -73.55 -281.65 -73.45 -281.65 Q-74.05 -282.65 -74.1 -283.8 -76.05 -284.2 -77.45 -285.75 L-77.5 -285.85 -77.85 -286.5 -78.2 -290.7 Q-78.3 -293.05 -77.8 -297.25 M-64.15 -301.95 L-64.65 -301.6 -64.8 -296.8 -64.8 -296.75 Q-64.5 -293.4 -63.85 -293.1 -60.5 -292.25 -56.45 -292.55 -55.1 -292.55 -54.3 -293.15 L-53.8 -293.8 -53.65 -293.9 -52.75 -295.05 Q-52.15 -296.05 -51.2 -296.0 L-48.1 -295.7 -48.05 -295.7 Q-47.25 -295.7 -46.8 -294.7 L-46.5 -293.8 -46.4 -293.7 -45.85 -292.15 -45.85 -291.95 -43.05 -291.85 Q-42.6 -292.4 -42.45 -292.9 -41.3 -296.55 -41.75 -299.3 L-42.25 -300.3 Q-52.25 -303.3 -63.5 -302.25 L-63.8 -302.1 -64.15 -301.95 M-37.95 -269.9 Q-40.35 -271.1 -42.95 -271.7 L-44.65 -268.3 Q-48.0 -265.6 -52.45 -265.55 -56.7 -265.5 -60.6 -267.05 -63.45 -268.2 -65.9 -269.95 L-68.0 -271.65 -70.25 -274.0 -70.85 -274.8 -77.35 -273.85 Q-75.55 -268.7 -75.15 -265.6 L-74.4 -259.7 Q-74.05 -256.85 -74.35 -250.85 L-79.6 -254.1 -72.7 -242.75 -71.95 -242.45 -66.55 -242.2 Q-60.85 -243.35 -55.65 -245.95 -48.55 -249.5 -41.15 -252.4 -38.55 -253.45 -36.35 -255.15 L-36.15 -255.5 -36.3 -255.5 -36.65 -255.8 -36.55 -256.1 -37.75 -261.95 Q-38.15 -266.6 -37.95 -269.9 M-48.5 -292.1 L-48.55 -292.45 -50.5 -292.65 -50.75 -292.65 -50.85 -292.5 -51.2 -292.0 -51.6 -291.35 -52.05 -290.7 -52.4 -290.2 -52.45 -290.1 -54.5 -289.55 -56.5 -289.25 -57.8 -289.1 -58.05 -289.1 Q-59.1 -288.95 -59.25 -288.6 L-59.5 -287.95 -59.55 -287.5 -59.55 -287.35 -59.55 -287.3 -59.55 -287.25 -59.5 -287.15 -59.45 -286.8 -59.2 -285.75 -58.95 -285.0 -58.35 -283.3 Q-57.8 -282.55 -56.95 -282.1 L-55.3 -281.25 -53.6 -280.75 -53.0 -280.7 -51.95 -280.7 -51.45 -280.7 -50.85 -280.75 -48.75 -281.3 Q-47.8 -281.7 -47.35 -282.05 L-46.8 -282.65 -46.45 -283.5 -45.85 -285.3 -45.7 -285.75 -45.4 -286.7 -45.15 -288.15 -45.45 -288.55 -45.85 -288.75 -46.1 -288.9 -46.85 -289.1 -47.6 -289.35 -47.65 -289.45 -47.8 -289.9 -48.0 -290.6 -48.2 -291.35 -48.5 -292.1" fill="#000000" fill-rule="evenodd" stroke="none"/>
    <path d="M-64.15 -301.95 L-63.8 -302.1 -63.5 -302.25 Q-52.25 -303.3 -42.25 -300.3 L-41.75 -299.3 Q-41.3 -296.55 -42.45 -292.9 -42.6 -292.4 -43.05 -291.85 L-45.85 -291.95 -45.85 -292.15 -46.4 -293.7 -46.5 -293.8 -46.8 -294.7 Q-47.25 -295.7 -48.05 -295.7 L-48.1 -295.7 -51.2 -296.0 Q-52.15 -296.05 -52.75 -295.05 L-53.65 -293.9 -53.8 -293.8 -54.3 -293.15 Q-55.1 -292.55 -56.45 -292.55 -60.5 -292.25 -63.85 -293.1 -64.5 -293.4 -64.8 -296.75 L-64.8 -296.8 -64.65 -301.6 -64.15 -301.95 M-48.5 -292.1 L-48.2 -291.35 -48.0 -290.6 -47.8 -289.9 -47.65 -289.45 -47.6 -289.35 -46.85 -289.1 -46.1 -288.9 -45.85 -288.75 -45.45 -288.55 -45.15 -288.15 -45.4 -286.7 -45.7 -285.75 -45.85 -285.3 -46.45 -283.5 -46.8 -282.65 -47.35 -282.05 Q-47.8 -281.7 -48.75 -281.3 L-50.85 -280.75 -51.45 -280.7 -51.95 -280.7 -53.0 -280.7 -53.6 -280.75 -55.3 -281.25 -56.95 -282.1 Q-57.8 -282.55 -58.35 -283.3 L-58.95 -285.0 -59.2 -285.75 -59.45 -286.8 -59.5 -287.15 -59.55 -287.25 -59.55 -287.3 -59.55 -287.35 -59.55 -287.5 -59.5 -287.95 -59.25 -288.6 Q-59.1 -288.95 -58.05 -289.1 L-57.8 -289.1 -56.5 -289.25 -54.5 -289.55 -52.45 -290.1 -52.4 -290.2 -52.05 -290.7 -51.6 -291.35 -51.2 -292.0 -50.85 -292.5 -50.75 -292.65 -50.5 -292.65 -48.55 -292.45 -48.5 -292.1 M-37.95 -269.9 Q-38.15 -266.6 -37.75 -261.95 L-36.55 -256.1 -36.65 -255.8 -36.3 -255.5 -36.15 -255.5 -36.35 -255.15 Q-38.55 -253.45 -41.15 -252.4 -48.55 -249.5 -55.65 -245.95 -60.85 -243.35 -66.55 -242.2 L-71.95 -242.45 -72.7 -242.75 -79.6 -254.1 -74.35 -250.85 Q-74.05 -256.85 -74.4 -259.7 L-75.15 -265.6 Q-75.55 -268.7 -77.35 -273.85 L-70.85 -274.8 -70.25 -274.0 -68.0 -271.65 -65.9 -269.95 Q-63.45 -268.2 -60.6 -267.05 -56.7 -265.5 -52.45 -265.55 -48.0 -265.6 -44.65 -268.3 L-42.95 -271.7 Q-40.35 -271.1 -37.95 -269.9" fill="#ffffff" fill-rule="evenodd" stroke="none"/>
    <path d="M182.05 -299.15 Q178.7 -300.55 177.05 -300.25 L154.2 -279.2 Q155.15 -275.8 157.65 -273.05 L188.5 -290.9 Q190.15 -289.0 190.2 -284.85 L190.15 -284.25 160.6 -270.35 Q162.4 -269.1 164.4 -268.35 L188.2 -275.4 Q187.6 -272.65 183.65 -268.95 177.5 -263.3 169.0 -263.65 164.2 -263.9 160.25 -265.95 L160.25 -266.0 Q157.75 -267.35 155.55 -269.45 L154.75 -270.3 Q153.45 -271.7 152.45 -273.2 L152.4 -273.3 152.3 -273.35 Q150.6 -276.05 149.8 -279.1 149.1 -281.9 149.2 -284.9 149.45 -293.3 155.6 -299.0 161.8 -304.7 170.25 -304.3 L175.9 -303.3 177.2 -302.8 Q180.8 -301.15 182.85 -298.8 L182.05 -299.15 M194.3 -300.25 L194.55 -299.95 194.7 -299.75 194.65 -299.75 Q199.85 -291.8 199.6 -281.85 199.3 -272.7 194.45 -265.55 L194.4 -265.45 194.35 -265.45 Q192.4 -262.65 189.7 -260.05 184.7 -255.6 178.95 -253.5 L178.8 -253.5 142.3 -237.9 142.3 -237.85 142.15 -237.8 141.5 -237.5 141.4 -237.45 Q137.45 -235.95 132.95 -235.75 L129.25 -235.85 129.0 -235.9 108.7 -225.0 91.1 -215.6 85.65 -212.75 85.6 -212.75 88.55 -203.9 Q90.1 -198.7 90.95 -193.4 L91.6 -188.15 101.2 -186.95 101.15 -187.0 101.2 -187.0 Q102.75 -186.8 103.85 -185.6 L103.9 -185.55 103.95 -185.55 104.4 -184.95 104.8 -184.25 105.1 -182.95 105.1 -182.75 105.6 -174.4 124.05 -173.25 Q140.15 -171.8 151.35 -169.2 L151.7 -169.15 151.8 -169.1 Q158.7 -167.0 164.65 -162.15 L168.85 -158.35 Q172.75 -154.25 176.25 -148.8 L177.7 -146.45 179.6 -143.0 181.4 -139.35 181.45 -139.3 182.5 -136.8 182.5 -136.85 183.65 -134.2 183.7 -134.15 Q184.55 -132.35 185.0 -130.35 L185.0 -130.3 185.05 -129.15 185.05 -129.05 Q184.85 -127.3 183.3 -126.15 L183.3 -126.1 171.55 -117.75 171.8 -111.15 Q172.05 -93.85 168.85 -76.75 167.45 -69.35 165.3 -62.2 161.4 -49.35 155.1 -37.4 144.85 -18.1 127.4 -5.05 123.85 -2.35 120.15 -0.35 L119.15 -0.1 -165.9 -0.1 -170.8 0.0 -170.9 0.0 -171.1 0.0 -171.5 -0.05 -171.6 -0.05 -171.65 -0.05 -174.5 -0.25 Q-184.2 -1.85 -191.2 -12.9 L-191.25 -13.0 Q-198.8 -24.85 -198.8 -41.25 -198.8 -57.75 -191.2 -69.1 L-191.1 -69.25 -187.7 -73.95 Q-188.15 -84.6 -185.95 -93.5 -178.45 -101.9 -169.15 -111.15 -155.25 -125.0 -137.3 -140.85 L-137.1 -152.15 -136.5 -167.15 -135.5 -182.4 Q-134.7 -192.8 -133.4 -202.6 -133.2 -204.4 -131.85 -205.4 L-131.8 -205.4 -127.35 -209.0 -121.2 -213.7 Q-114.5 -218.85 -107.75 -223.6 L-102.1 -227.55 -91.6 -234.6 -91.65 -234.6 -91.6 -234.6 Q-72.85 -245.3 -71.15 -246.1 L-64.7 -249.3 -57.4 -252.85 -53.35 -254.75 Q-45.45 -258.1 -36.95 -257.5 L58.55 -243.3 58.6 -243.3 Q59.5 -243.2 60.35 -242.65 L64.2 -239.95 64.25 -240.0 107.6 -270.5 107.7 -270.8 107.65 -270.7 108.55 -272.85 Q109.45 -274.9 110.85 -276.75 112.9 -279.6 115.7 -281.75 L117.2 -282.9 117.2 -282.95 117.4 -283.05 122.85 -287.45 141.2 -302.15 141.4 -302.4 146.6 -306.55 146.75 -306.75 147.35 -307.25 Q149.55 -309.15 152.1 -310.55 L152.35 -310.7 Q159.8 -314.95 169.1 -314.55 182.0 -314.0 190.9 -304.5 L190.95 -304.45 191.0 -304.4 191.1 -304.35 194.3 -300.25 M88.4 -158.35 Q84.95 -159.8 81.15 -160.85 L29.95 -165.85 Q33.55 -160.4 35.85 -154.15 L36.55 -152.15 38.2 -146.1 38.2 -145.8 38.2 -145.55 38.2 -145.3 38.15 -145.05 37.55 -143.95 27.0 -133.75 27.1 -128.75 109.9 -121.2 Q111.45 -137.45 103.5 -147.45 L103.5 -147.4 Q97.65 -154.35 88.4 -158.35 M98.45 -174.75 L98.2 -180.1 -31.85 -195.85 -31.95 -190.3 -26.85 -190.0 -22.2 -189.65 -22.15 -189.65 -22.0 -189.65 -21.95 -189.65 -12.85 -188.75 -12.8 -188.75 -7.5 -188.05 Q3.45 -186.35 10.1 -183.5 L10.35 -183.4 16.85 -179.7 20.1 -177.4 23.9 -174.05 24.1 -173.85 24.55 -173.35 24.65 -173.25 81.6 -167.4 85.75 -172.5 Q87.65 -175.05 90.65 -175.0 L98.45 -174.75 M158.75 -158.35 Q154.55 -161.35 149.85 -162.85 132.3 -166.8 102.35 -168.1 L101.55 -168.15 101.3 -168.15 101.2 -168.15 100.55 -168.15 101.2 -167.9 102.1 -167.5 Q110.35 -163.85 115.75 -158.35 123.7 -150.3 125.5 -138.45 L177.0 -133.55 Q174.25 -139.6 170.65 -145.25 165.35 -153.65 158.75 -158.35 M66.65 -199.45 L66.5 -203.0 48.95 -193.75 48.65 -192.8 48.65 -192.3 65.05 -190.15 65.1 -190.3 65.3 -190.9 65.4 -191.35 65.5 -191.55 65.95 -192.95 65.9 -192.9 66.35 -195.25 66.35 -195.3 66.35 -195.35 66.65 -199.45 M79.6 -209.9 L72.15 -206.0 Q72.7 -202.75 72.75 -199.75 L72.5 -195.2 72.45 -194.9 71.95 -192.1 71.6 -190.75 71.15 -189.4 85.0 -187.65 84.75 -190.0 84.05 -194.85 83.7 -196.75 82.95 -199.95 Q81.75 -204.7 80.0 -209.0 L79.6 -209.9 M58.7 -235.8 L57.1 -236.9 -36.65 -250.4 Q-40.7 -250.65 -40.5 -247.15 -36.65 -237.8 -33.6 -225.85 L-33.05 -223.6 -31.8 -217.35 -31.2 -213.7 -30.6 -209.0 -30.5 -208.3 -30.0 -202.05 -29.75 -202.05 -7.25 -199.2 -7.2 -199.2 -7.15 -199.8 -7.25 -207.6 -7.6 -211.55 -8.3 -217.35 Q-9.1 -222.9 -11.5 -231.0 -9.85 -233.1 -7.6 -234.05 L-4.45 -234.75 47.15 -227.65 58.7 -235.8 M39.4 -215.6 Q38.35 -214.95 37.5 -213.95 35.85 -212.1 35.45 -209.7 L35.35 -209.0 35.35 -207.35 Q35.45 -205.85 35.95 -204.5 L36.15 -204.0 111.9 -250.1 111.9 -250.15 Q110.45 -252.7 109.7 -255.55 109.05 -257.9 108.9 -260.45 108.8 -262.2 108.95 -263.8 L39.5 -215.65 39.4 -215.6 M1.3 -228.25 L0.55 -227.95 Q5.7 -221.05 6.1 -214.3 6.6 -206.05 3.15 -199.15 L2.55 -198.0 24.8 -195.4 Q30.8 -215.3 32.45 -217.45 L40.45 -222.95 1.3 -228.25 M186.4 -300.05 Q179.2 -307.75 168.75 -308.25 160.3 -308.65 153.45 -304.35 L147.9 -300.2 Q135.65 -290.6 124.55 -280.95 L117.7 -275.1 117.25 -274.65 Q115.35 -272.55 114.25 -270.15 L113.2 -267.35 113.15 -267.3 113.15 -267.25 113.15 -267.2 113.15 -267.15 113.1 -267.1 Q112.65 -265.7 112.5 -264.2 112.3 -262.5 112.45 -260.65 112.55 -258.8 112.95 -257.05 L140.65 -276.1 Q140.3 -280.65 142.9 -285.65 L142.95 -282.55 Q143.05 -280.05 143.65 -277.3 L143.65 -277.25 Q144.55 -273.6 146.65 -270.3 147.95 -268.3 149.7 -266.4 151.3 -264.7 153.1 -263.3 L153.65 -262.9 154.5 -262.3 154.65 -262.25 Q160.2 -258.6 167.35 -258.25 172.2 -258.0 176.45 -259.4 L176.55 -259.4 176.6 -259.45 176.65 -259.45 Q181.35 -261.1 185.35 -264.75 192.95 -271.75 193.25 -282.0 193.5 -290.0 189.3 -296.4 L189.35 -296.35 186.4 -300.05 M103.05 -130.55 Q103.95 -129.65 104.0 -128.35 103.95 -127.05 103.05 -126.1 102.15 -125.2 100.85 -125.15 99.5 -125.2 98.6 -126.1 97.65 -127.05 97.65 -128.35 97.65 -129.65 98.6 -130.55 99.5 -131.5 100.85 -131.5 102.15 -131.5 103.05 -130.55 M84.5 -130.4 Q84.5 -129.1 83.6 -128.15 L83.55 -128.15 Q82.65 -127.25 81.35 -127.25 80.05 -127.25 79.1 -128.15 78.15 -129.1 78.2 -130.4 78.15 -131.7 79.1 -132.65 80.05 -133.6 81.35 -133.55 82.65 -133.6 83.6 -132.65 L83.55 -132.65 Q84.5 -131.7 84.5 -130.4 M9.3 -176.85 L5.8 -178.2 Q0.0 -180.2 -7.6 -181.4 L-19.55 -182.75 -22.0 -182.9 -22.7 -182.95 -33.9 -183.7 -41.65 -184.25 -48.7 -184.75 -56.7 -182.25 Q-64.5 -179.55 -72.55 -175.9 -92.4 -166.95 -113.75 -152.15 L-121.75 -146.45 -111.3 -152.15 Q-79.95 -168.95 -60.7 -175.4 L-52.2 -177.85 Q-49.05 -176.65 -46.3 -174.6 -37.5 -168.0 -33.1 -153.0 L31.05 -147.4 29.45 -152.15 28.3 -155.0 Q26.15 -159.6 23.25 -163.8 L23.25 -163.85 20.65 -167.25 17.15 -170.95 12.6 -174.7 9.3 -176.85 M120.15 -111.15 L120.1 -110.6 Q119.5 -93.1 115.4 -76.0 L114.7 -73.15 Q111.2 -59.05 104.95 -45.95 L103.75 -43.35 Q97.6 -30.7 88.55 -20.0 L81.8 -12.7 75.15 -6.7 118.5 -6.7 Q125.6 -11.35 131.65 -17.1 L117.05 -17.35 Q116.6 -17.35 116.3 -17.65 115.95 -18.0 115.95 -18.4 115.9 -18.9 116.2 -19.25 L117.45 -20.6 117.55 -20.75 120.35 -24.2 120.75 -24.5 121.3 -24.6 137.45 -24.35 138.15 -24.1 Q142.2 -29.05 145.65 -34.7 L149.25 -41.0 150.05 -42.6 134.35 -43.3 Q133.95 -43.35 133.7 -43.6 L133.65 -43.6 Q133.35 -43.85 133.3 -44.25 L133.35 -45.0 134.9 -48.05 134.9 -48.1 135.05 -48.45 135.1 -48.45 135.25 -48.9 135.7 -49.9 136.15 -50.4 136.8 -50.55 153.2 -49.8 153.55 -49.7 Q157.85 -59.5 160.55 -70.0 L144.7 -70.9 Q144.35 -70.95 144.1 -71.15 L143.7 -71.7 143.7 -72.35 144.7 -76.2 144.7 -76.25 145.0 -77.4 145.45 -78.0 146.15 -78.2 162.05 -77.3 162.2 -77.3 Q164.45 -88.5 164.9 -99.85 L150.2 -100.8 Q149.7 -100.8 149.4 -101.15 149.1 -101.55 149.1 -102.0 L149.45 -106.6 149.45 -106.65 149.5 -107.1 Q149.55 -107.6 149.9 -107.85 150.25 -108.15 150.7 -108.1 L165.0 -107.2 164.95 -109.95 164.95 -110.0 164.9 -111.15 164.35 -118.65 119.95 -122.7 Q120.3 -116.95 120.15 -111.15 M38.1 -137.95 Q39.4 -137.95 40.35 -137.0 41.25 -136.1 41.3 -134.8 41.25 -133.5 40.35 -132.55 39.4 -131.65 38.1 -131.6 36.8 -131.65 35.9 -132.55 34.95 -133.45 34.95 -134.8 34.95 -136.1 35.9 -137.0 36.8 -137.95 38.1 -137.95 M7.2 -117.55 L22.5 -116.55 22.5 -132.55 -31.1 -135.95 Q-31.1 -127.7 -31.5 -119.45 L-31.9 -112.4 -31.95 -111.15 Q-33.35 -92.6 -38.25 -74.9 L-39.65 -70.1 Q-46.0 -49.5 -58.25 -31.3 -68.3 -16.4 -82.05 -6.7 L-27.6 -6.7 Q-21.9 -9.45 -16.75 -13.2 -13.1 -15.9 -9.85 -19.1 L-24.5 -19.3 Q-25.0 -19.35 -25.35 -19.7 L-25.75 -20.5 -25.45 -21.4 -21.4 -26.4 -20.95 -26.75 -20.4 -26.85 -4.15 -26.6 -3.4 -26.35 Q0.3 -31.2 3.3 -36.55 6.1 -41.55 8.5 -46.7 L8.9 -47.55 -6.5 -48.3 -7.25 -48.6 -7.7 -49.25 -7.65 -50.05 -5.45 -55.05 -5.0 -55.6 -4.25 -55.8 11.55 -55.05 11.95 -55.0 Q15.55 -64.4 17.6 -74.2 L18.45 -78.1 3.4 -78.95 2.75 -79.25 2.3 -79.8 2.25 -80.5 3.25 -85.5 3.7 -86.25 Q4.1 -86.55 4.6 -86.5 L19.7 -85.6 19.85 -85.6 Q21.75 -97.2 22.25 -108.95 L6.7 -109.95 Q6.2 -110.0 5.85 -110.35 5.55 -110.7 5.55 -111.15 L5.55 -111.3 5.9 -116.35 Q5.9 -116.9 6.3 -117.2 6.7 -117.6 7.2 -117.55 M61.95 -130.3 Q61.05 -129.4 59.75 -129.4 58.45 -129.4 57.5 -130.35 L57.5 -130.3 Q56.55 -131.25 56.55 -132.55 56.55 -133.85 57.5 -134.8 58.45 -135.75 59.75 -135.7 61.05 -135.75 61.95 -134.8 62.85 -133.85 62.9 -132.55 62.85 -131.25 61.95 -130.35 L61.95 -130.3 M-20.0 -227.2 L-19.75 -226.95 Q-18.9 -226.05 -18.85 -224.75 -18.8 -223.4 -19.6 -222.45 L-19.65 -222.45 Q-20.3 -221.7 -21.2 -221.55 L-21.6 -221.5 Q-22.75 -221.5 -23.6 -222.4 -24.45 -223.25 -24.5 -224.5 L-24.5 -224.65 Q-24.55 -225.95 -23.7 -226.85 L-23.45 -227.15 Q-22.75 -227.85 -21.75 -227.85 -20.75 -227.85 -20.0 -227.2 M-26.35 -244.2 Q-25.2 -244.2 -24.35 -243.3 -23.5 -242.4 -23.45 -241.05 L-23.45 -240.8 Q-23.5 -239.65 -24.2 -238.8 -24.7 -238.25 -25.35 -238.0 L-26.2 -237.85 Q-27.4 -237.85 -28.2 -238.75 -29.1 -239.65 -29.1 -240.95 -29.15 -242.25 -28.35 -243.2 -27.55 -244.2 -26.35 -244.2 M-20.8 -209.55 L-19.5 -209.9 Q-18.3 -209.95 -17.45 -209.05 -16.6 -208.1 -16.6 -206.8 -16.55 -205.5 -17.35 -204.55 -18.15 -203.65 -19.35 -203.6 -20.1 -203.6 -20.7 -203.95 L-21.1 -204.2 -21.35 -204.5 -21.9 -205.25 Q-22.25 -205.9 -22.25 -206.7 -22.3 -208.0 -21.45 -208.95 L-20.8 -209.55 M-180.55 -29.9 L-181.65 -34.7 -188.4 -34.9 -188.55 -37.35 -188.55 -41.5 Q-188.3 -47.0 -186.75 -51.65 L-190.75 -48.8 -190.8 -48.7 Q-191.55 -45.15 -191.7 -41.25 L-191.75 -36.95 -191.65 -34.45 Q-190.9 -25.65 -186.8 -18.9 L-185.85 -17.45 Q-180.45 -9.7 -172.45 -9.7 L-172.35 -9.7 Q-163.75 -9.75 -157.15 -18.9 L-156.45 -19.95 -155.35 -21.7 Q-153.85 -24.25 -152.75 -27.0 -150.25 -33.45 -149.8 -41.25 -149.1 -54.3 -154.75 -63.55 -156.2 -65.9 -157.85 -67.65 L-158.0 -67.9 -160.55 -70.05 -165.35 -66.7 Q-161.35 -64.95 -158.4 -60.0 -153.8 -52.35 -154.4 -41.5 L-154.4 -41.45 Q-154.95 -30.65 -160.35 -22.95 -162.65 -19.75 -165.25 -17.85 L-166.25 -17.2 Q-166.85 -16.8 -167.5 -16.5 -174.35 -13.9 -179.5 -17.65 -176.15 -16.05 -170.6 -17.25 -174.85 -18.95 -177.95 -24.1 L-179.55 -27.3 -186.7 -27.5 -187.5 -30.1 -180.55 -29.9 M-51.15 -147.05 L-57.85 -142.3 -56.2 -139.8 Q-50.95 -131.0 -50.1 -119.45 L-49.9 -115.0 -50.05 -111.3 -50.05 -111.15 Q-50.95 -94.6 -59.25 -82.9 -62.75 -77.9 -66.7 -75.0 L-66.85 -74.9 -68.25 -74.0 -70.2 -72.9 Q-80.7 -68.9 -88.6 -74.7 -83.45 -72.2 -74.95 -74.05 L-76.75 -74.9 Q-82.15 -77.75 -86.25 -84.6 -87.7 -87.0 -88.75 -89.55 L-99.7 -89.85 -100.95 -93.85 -90.25 -93.55 Q-91.35 -97.05 -91.9 -100.9 L-102.3 -101.2 -102.6 -104.95 -102.55 -110.8 -107.7 -107.2 -107.7 -104.45 -107.45 -100.55 Q-106.3 -87.0 -99.95 -76.55 L-98.9 -74.9 -98.45 -74.25 Q-90.1 -62.2 -77.75 -62.2 L-77.55 -62.2 Q-65.05 -62.35 -55.25 -74.9 L-54.0 -76.55 -52.95 -78.15 -51.2 -80.85 Q-48.9 -84.75 -47.2 -89.05 -43.3 -99.05 -42.6 -111.1 L-42.6 -111.15 -42.5 -114.75 -42.6 -119.45 Q-43.45 -134.4 -50.3 -145.7 L-51.15 -147.05 M-121.55 -39.6 Q-122.35 -41.0 -123.3 -42.05 L-123.4 -42.2 Q-126.15 -45.15 -129.95 -45.15 L-130.95 -45.1 -133.3 -44.55 Q-136.6 -43.35 -139.4 -39.6 -142.35 -35.7 -143.55 -30.65 L-144.1 -27.55 -144.25 -26.15 -144.4 -23.55 -144.35 -22.0 Q-144.1 -16.75 -141.75 -12.7 L-141.35 -12.0 -141.2 -11.8 Q-138.1 -7.1 -133.3 -7.1 L-133.2 -7.1 Q-128.35 -7.15 -124.4 -12.0 L-123.9 -12.7 -123.45 -13.3 -122.7 -14.35 -121.05 -17.55 Q-119.4 -21.45 -119.0 -26.15 L-118.9 -27.55 Q-118.6 -34.55 -121.55 -39.6 M-146.45 -69.35 L-144.5 -66.65 -132.4 -74.9 -114.9 -86.65 Q-116.65 -91.4 -116.85 -100.8 L-153.1 -75.3 Q-149.6 -73.3 -146.45 -69.35 M-93.9 -53.95 L-96.8 -53.3 Q-100.85 -51.8 -104.4 -47.2 -108.1 -42.45 -109.75 -36.25 L-110.5 -32.45 -110.7 -30.7 -110.95 -27.55 -110.95 -25.65 Q-110.75 -19.2 -108.0 -14.2 L-107.55 -13.4 -107.35 -13.15 Q-103.65 -7.4 -97.75 -7.35 L-97.7 -7.35 Q-91.75 -7.45 -86.75 -13.4 L-86.1 -14.2 -85.5 -14.95 -84.6 -16.25 Q-83.4 -18.15 -82.5 -20.2 -80.35 -24.95 -79.75 -30.7 L-79.6 -32.45 Q-79.05 -41.0 -82.5 -47.2 L-84.6 -50.25 -84.75 -50.4 Q-88.05 -54.05 -92.7 -54.0 L-93.9 -53.95 M-118.35 -64.0 L-120.05 -65.4 -120.9 -66.4 -122.2 -68.5 -122.35 -68.4 -122.4 -68.5 -131.3 -63.05 -130.5 -58.0 -118.35 -64.0 M-130.45 -40.0 L-129.4 -39.85 Q-126.85 -39.1 -125.1 -36.0 -123.05 -32.4 -123.2 -27.5 L-123.3 -26.25 Q-123.8 -20.55 -126.8 -16.5 -128.05 -14.8 -129.45 -13.75 L-129.5 -13.7 -130.0 -13.45 -130.65 -13.05 Q-134.3 -11.7 -136.95 -13.65 L-132.85 -13.35 -132.25 -13.45 -132.85 -13.7 Q-134.7 -14.7 -136.05 -17.05 L-136.85 -18.75 -140.6 -18.85 -140.95 -20.25 -137.3 -20.1 -137.75 -22.65 -141.35 -22.75 -141.4 -24.05 -141.3 -26.25 -141.15 -27.5 Q-140.75 -30.55 -139.55 -33.05 L-137.85 -36.0 Q-134.85 -40.05 -131.1 -40.05 L-130.45 -40.0 M-93.45 -47.7 L-92.15 -47.5 Q-89.0 -46.6 -86.95 -42.8 -84.55 -38.4 -84.9 -32.35 L-85.0 -30.85 Q-85.75 -23.85 -89.55 -18.9 -91.15 -16.8 -92.85 -15.55 L-92.95 -15.5 -93.55 -15.15 -94.4 -14.7 Q-98.9 -13.0 -102.05 -15.45 -100.2 -14.5 -97.05 -15.05 L-96.35 -15.2 -97.05 -15.5 Q-99.3 -16.7 -100.85 -19.6 L-101.8 -21.7 -106.4 -21.8 -106.8 -23.5 -102.35 -23.35 -102.85 -26.45 -107.25 -26.6 -107.25 -28.15 -107.05 -30.85 -106.9 -32.35 Q-106.3 -36.1 -104.75 -39.2 -103.85 -41.15 -102.6 -42.8 -98.8 -47.75 -94.2 -47.8 L-93.45 -47.7" fill="#000000" fill-rule="evenodd" stroke="none"/>
    <path d="M182.05 -299.15 L182.85 -298.8 Q180.8 -301.15 177.2 -302.8 L175.9 -303.3 170.25 -304.3 Q161.8 -304.7 155.6 -299.0 149.45 -293.3 149.2 -284.9 149.1 -281.9 149.8 -279.1 150.6 -276.05 152.3 -273.35 L152.4 -273.3 152.45 -273.2 Q153.45 -271.7 154.75 -270.3 L155.55 -269.45 Q157.75 -267.35 160.25 -266.0 L160.25 -265.95 Q164.2 -263.9 169.0 -263.65 177.5 -263.3 183.65 -268.95 187.6 -272.65 188.2 -275.4 L164.4 -268.35 Q162.4 -269.1 160.6 -270.35 L190.15 -284.25 190.2 -284.85 Q190.15 -289.0 188.5 -290.9 L157.65 -273.05 Q155.15 -275.8 154.2 -279.2 L177.05 -300.25 Q178.7 -300.55 182.05 -299.15 M186.4 -300.05 L189.35 -296.35 189.3 -296.4 Q193.5 -290.0 193.25 -282.0 192.95 -271.75 185.35 -264.75 181.35 -261.1 176.65 -259.45 L176.6 -259.45 176.55 -259.4 176.45 -259.4 Q172.2 -258.0 167.35 -258.25 160.2 -258.6 154.65 -262.25 L154.5 -262.3 153.65 -262.9 153.1 -263.3 Q151.3 -264.7 149.7 -266.4 147.95 -268.3 146.65 -270.3 144.55 -273.6 143.65 -277.25 L143.65 -277.3 Q143.05 -280.05 142.95 -282.55 L142.9 -285.65 Q140.3 -280.65 140.65 -276.1 L112.95 -257.05 Q112.55 -258.8 112.45 -260.65 112.3 -262.5 112.5 -264.2 112.65 -265.7 113.1 -267.1 L113.15 -267.15 113.15 -267.2 113.15 -267.25 113.15 -267.3 113.2 -267.35 114.25 -270.15 Q115.35 -272.55 117.25 -274.65 L117.7 -275.1 124.55 -280.95 Q135.65 -290.6 147.9 -300.2 L153.45 -304.35 Q160.3 -308.65 168.75 -308.25 179.2 -307.75 186.4 -300.05 M1.3 -228.25 L40.45 -222.95 32.45 -217.45 Q30.8 -215.3 24.8 -195.4 L2.55 -198.0 3.15 -199.15 Q6.6 -206.05 6.1 -214.3 5.7 -221.05 0.55 -227.95 L1.3 -228.25 M39.4 -215.6 L39.5 -215.65 108.95 -263.8 Q108.8 -262.2 108.9 -260.45 109.05 -257.9 109.7 -255.55 110.45 -252.7 111.9 -250.15 L111.9 -250.1 36.15 -204.0 35.95 -204.5 Q35.45 -205.85 35.35 -207.35 L35.35 -209.0 35.45 -209.7 Q35.85 -212.1 37.5 -213.95 38.35 -214.95 39.4 -215.6 M58.7 -235.8 L47.15 -227.65 -4.45 -234.75 -7.6 -234.05 Q-9.85 -233.1 -11.5 -231.0 -9.1 -222.9 -8.3 -217.35 L-7.6 -211.55 -7.25 -207.6 -7.15 -199.8 -7.2 -199.2 -7.25 -199.2 -29.75 -202.05 -30.0 -202.05 -30.5 -208.3 -30.6 -209.0 -31.2 -213.7 -31.8 -217.35 -33.05 -223.6 -33.6 -225.85 Q-36.65 -237.8 -40.5 -247.15 -40.7 -250.65 -36.65 -250.4 L57.1 -236.9 58.7 -235.8 M79.6 -209.9 L80.0 -209.0 Q81.75 -204.7 82.95 -199.95 L83.7 -196.75 84.05 -194.85 84.75 -190.0 85.0 -187.65 71.15 -189.4 71.6 -190.75 71.95 -192.1 72.45 -194.9 72.5 -195.2 72.75 -199.75 Q72.7 -202.75 72.15 -206.0 L79.6 -209.9 M66.65 -199.45 L66.35 -195.35 66.35 -195.3 66.35 -195.25 65.9 -192.9 65.95 -192.95 65.5 -191.55 65.4 -191.35 65.3 -190.9 65.1 -190.3 65.05 -190.15 48.65 -192.3 48.65 -192.8 48.95 -193.75 66.5 -203.0 66.65 -199.45 M158.75 -158.35 Q165.35 -153.65 170.65 -145.25 174.25 -139.6 177.0 -133.55 L125.5 -138.45 Q123.7 -150.3 115.75 -158.35 110.35 -163.85 102.1 -167.5 L101.2 -167.9 100.55 -168.15 101.2 -168.15 101.3 -168.15 101.55 -168.15 102.35 -168.1 Q132.3 -166.8 149.85 -162.85 154.55 -161.35 158.75 -158.35 M98.45 -174.75 L90.65 -175.0 Q87.65 -175.05 85.75 -172.5 L81.6 -167.4 24.65 -173.25 24.55 -173.35 24.1 -173.85 23.9 -174.05 20.1 -177.4 16.85 -179.7 10.35 -183.4 10.1 -183.5 Q3.45 -186.35 -7.5 -188.05 L-12.8 -188.75 -12.85 -188.75 -21.95 -189.65 -22.0 -189.65 -22.15 -189.65 -22.2 -189.65 -26.85 -190.0 -31.95 -190.3 -31.85 -195.85 98.2 -180.1 98.45 -174.75 M88.4 -158.35 Q97.65 -154.35 103.5 -147.4 L103.5 -147.45 Q111.45 -137.45 109.9 -121.2 L27.1 -128.75 27.0 -133.75 37.55 -143.95 38.15 -145.05 38.2 -145.3 38.2 -145.55 38.2 -145.8 38.2 -146.1 36.55 -152.15 35.85 -154.15 Q33.55 -160.4 29.95 -165.85 L81.15 -160.85 Q84.95 -159.8 88.4 -158.35 M84.5 -130.4 Q84.5 -131.7 83.55 -132.65 L83.6 -132.65 Q82.65 -133.6 81.35 -133.55 80.05 -133.6 79.1 -132.65 78.15 -131.7 78.2 -130.4 78.15 -129.1 79.1 -128.15 80.05 -127.25 81.35 -127.25 82.65 -127.25 83.55 -128.15 L83.6 -128.15 Q84.5 -129.1 84.5 -130.4 M103.05 -130.55 Q102.15 -131.5 100.85 -131.5 99.5 -131.5 98.6 -130.55 97.65 -129.65 97.65 -128.35 97.65 -127.05 98.6 -126.1 99.5 -125.2 100.85 -125.15 102.15 -125.2 103.05 -126.1 103.95 -127.05 104.0 -128.35 103.95 -129.65 103.05 -130.55 M120.15 -111.15 Q120.3 -116.95 119.95 -122.7 L164.35 -118.65 164.9 -111.15 164.95 -110.0 164.95 -109.95 165.0 -107.2 150.7 -108.1 Q150.25 -108.15 149.9 -107.85 149.55 -107.6 149.5 -107.1 L149.45 -106.65 149.45 -106.6 149.1 -102.0 Q149.1 -101.55 149.4 -101.15 149.7 -100.8 150.2 -100.8 L164.9 -99.85 Q164.45 -88.5 162.2 -77.3 L162.05 -77.3 146.15 -78.2 145.45 -78.0 145.0 -77.4 144.7 -76.25 144.7 -76.2 143.7 -72.35 143.7 -71.7 144.1 -71.15 Q144.35 -70.95 144.7 -70.9 L160.55 -70.0 Q157.85 -59.5 153.55 -49.7 L153.2 -49.8 136.8 -50.55 136.15 -50.4 135.7 -49.9 135.25 -48.9 135.1 -48.45 135.05 -48.45 134.9 -48.1 134.9 -48.05 133.35 -45.0 133.3 -44.25 Q133.35 -43.85 133.65 -43.6 L133.7 -43.6 Q133.95 -43.35 134.35 -43.3 L150.05 -42.6 149.25 -41.0 145.65 -34.7 Q142.2 -29.05 138.15 -24.1 L137.45 -24.35 121.3 -24.6 120.75 -24.5 120.35 -24.2 117.55 -20.75 117.45 -20.6 116.2 -19.25 Q115.9 -18.9 115.95 -18.4 115.95 -18.0 116.3 -17.65 116.6 -17.35 117.05 -17.35 L131.65 -17.1 Q125.6 -11.35 118.5 -6.7 L75.15 -6.7 81.8 -12.7 88.55 -20.0 Q97.6 -30.7 103.75 -43.35 L104.95 -45.95 Q111.2 -59.05 114.7 -73.15 L115.4 -76.0 Q119.5 -93.1 120.1 -110.6 L120.15 -111.15 M9.3 -176.85 L12.6 -174.7 17.15 -170.95 20.65 -167.25 23.25 -163.85 23.25 -163.8 Q26.15 -159.6 28.3 -155.0 L29.45 -152.15 31.05 -147.4 -33.1 -153.0 Q-37.5 -168.0 -46.3 -174.6 -49.05 -176.65 -52.2 -177.85 L-60.7 -175.4 Q-79.95 -168.95 -111.3 -152.15 L-121.75 -146.45 -113.75 -152.15 Q-92.4 -166.95 -72.55 -175.9 -64.5 -179.55 -56.7 -182.25 L-48.7 -184.75 -41.65 -184.25 -33.9 -183.7 -22.7 -182.95 -22.0 -182.9 -19.55 -182.75 -7.6 -181.4 Q0.0 -180.2 5.8 -178.2 L9.3 -176.85 M-20.8 -209.55 L-21.45 -208.95 Q-22.3 -208.0 -22.25 -206.7 -22.25 -205.9 -21.9 -205.25 L-21.35 -204.5 -21.1 -204.2 -20.7 -203.95 Q-20.1 -203.6 -19.35 -203.6 -18.15 -203.65 -17.35 -204.55 -16.55 -205.5 -16.6 -206.8 -16.6 -208.1 -17.45 -209.05 -18.3 -209.95 -19.5 -209.9 L-20.8 -209.55 M-26.35 -244.2 Q-27.55 -244.2 -28.35 -243.2 -29.15 -242.25 -29.1 -240.95 -29.1 -239.65 -28.2 -238.75 -27.4 -237.85 -26.2 -237.85 L-25.35 -238.0 Q-24.7 -238.25 -24.2 -238.8 -23.5 -239.65 -23.45 -240.8 L-23.45 -241.05 Q-23.5 -242.4 -24.35 -243.3 -25.2 -244.2 -26.35 -244.2 M-20.0 -227.2 Q-20.75 -227.85 -21.75 -227.85 -22.75 -227.85 -23.45 -227.15 L-23.7 -226.85 Q-24.55 -225.95 -24.5 -224.65 L-24.5 -224.5 Q-24.45 -223.25 -23.6 -222.4 -22.75 -221.5 -21.6 -221.5 L-21.2 -221.55 Q-20.3 -221.7 -19.65 -222.45 L-19.6 -222.45 Q-18.8 -223.4 -18.85 -224.75 -18.9 -226.05 -19.75 -226.95 L-20.0 -227.2 M61.95 -130.3 L61.95 -130.35 Q62.85 -131.25 62.9 -132.55 62.85 -133.85 61.95 -134.8 61.05 -135.75 59.75 -135.7 58.45 -135.75 57.5 -134.8 56.55 -133.85 56.55 -132.55 56.55 -131.25 57.5 -130.3 L57.5 -130.35 Q58.45 -129.4 59.75 -129.4 61.05 -129.4 61.95 -130.3 M7.2 -117.55 Q6.7 -117.6 6.3 -117.2 5.9 -116.9 5.9 -116.35 L5.55 -111.3 5.55 -111.15 Q5.55 -110.7 5.85 -110.35 6.2 -110.0 6.7 -109.95 L22.25 -108.95 Q21.75 -97.2 19.85 -85.6 L19.7 -85.6 4.6 -86.5 Q4.1 -86.55 3.7 -86.25 L3.25 -85.5 2.25 -80.5 2.3 -79.8 2.75 -79.25 3.4 -78.95 18.45 -78.1 17.6 -74.2 Q15.55 -64.4 11.95 -55.0 L11.55 -55.05 -4.25 -55.8 -5.0 -55.6 -5.45 -55.05 -7.65 -50.05 -7.7 -49.25 -7.25 -48.6 -6.5 -48.3 8.9 -47.55 8.5 -46.7 Q6.1 -41.55 3.3 -36.55 0.3 -31.2 -3.4 -26.35 L-4.15 -26.6 -20.4 -26.85 -20.95 -26.75 -21.4 -26.4 -25.45 -21.4 -25.75 -20.5 -25.35 -19.7 Q-25.0 -19.35 -24.5 -19.3 L-9.85 -19.1 Q-13.1 -15.9 -16.75 -13.2 -21.9 -9.45 -27.6 -6.7 L-82.05 -6.7 Q-68.3 -16.4 -58.25 -31.3 -46.0 -49.5 -39.65 -70.1 L-38.25 -74.9 Q-33.35 -92.6 -31.95 -111.15 L-31.9 -112.4 -31.5 -119.45 Q-31.1 -127.7 -31.1 -135.95 L22.5 -132.55 22.5 -116.55 7.2 -117.55 M38.1 -137.95 Q36.8 -137.95 35.9 -137.0 34.95 -136.1 34.95 -134.8 34.95 -133.45 35.9 -132.55 36.8 -131.65 38.1 -131.6 39.4 -131.65 40.35 -132.55 41.25 -133.5 41.3 -134.8 41.25 -136.1 40.35 -137.0 39.4 -137.95 38.1 -137.95 M-180.55 -29.9 L-187.5 -30.1 -186.7 -27.5 -179.55 -27.3 -177.95 -24.1 Q-174.85 -18.95 -170.6 -17.25 -176.15 -16.05 -179.5 -17.65 -174.35 -13.9 -167.5 -16.5 -166.85 -16.8 -166.25 -17.2 L-165.25 -17.85 Q-162.65 -19.75 -160.35 -22.95 -154.95 -30.65 -154.4 -41.45 L-154.4 -41.5 Q-153.8 -52.35 -158.4 -60.0 -161.35 -64.95 -165.35 -66.7 L-160.55 -70.05 -158.0 -67.9 -157.85 -67.65 Q-156.2 -65.9 -154.75 -63.55 -149.1 -54.3 -149.8 -41.25 -150.25 -33.45 -152.75 -27.0 -153.85 -24.25 -155.35 -21.7 L-156.45 -19.95 -157.15 -18.9 Q-163.75 -9.75 -172.35 -9.7 L-172.45 -9.7 Q-180.45 -9.7 -185.85 -17.45 L-186.8 -18.9 Q-190.9 -25.65 -191.65 -34.45 L-191.75 -36.95 -191.7 -41.25 Q-191.55 -45.15 -190.8 -48.7 L-190.75 -48.8 -186.75 -51.65 Q-188.3 -47.0 -188.55 -41.5 L-188.55 -37.35 -188.4 -34.9 -181.65 -34.7 -180.55 -29.9 M-51.15 -147.05 L-50.3 -145.7 Q-43.45 -134.4 -42.6 -119.45 L-42.5 -114.75 -42.6 -111.15 -42.6 -111.1 Q-43.3 -99.05 -47.2 -89.05 -48.9 -84.75 -51.2 -80.85 L-52.95 -78.15 -54.0 -76.55 -55.25 -74.9 Q-65.05 -62.35 -77.55 -62.2 L-77.75 -62.2 Q-90.1 -62.2 -98.45 -74.25 L-98.9 -74.9 -99.95 -76.55 Q-106.3 -87.0 -107.45 -100.55 L-107.7 -104.45 -107.7 -107.2 -102.55 -110.8 -102.6 -104.95 -102.3 -101.2 -91.9 -100.9 Q-91.35 -97.05 -90.25 -93.55 L-100.95 -93.85 -99.7 -89.85 -88.75 -89.55 Q-87.7 -87.0 -86.25 -84.6 -82.15 -77.75 -76.75 -74.9 L-74.95 -74.05 Q-83.45 -72.2 -88.6 -74.7 -80.7 -68.9 -70.2 -72.9 L-68.25 -74.0 -66.85 -74.9 -66.7 -75.0 Q-62.75 -77.9 -59.25 -82.9 -50.95 -94.6 -50.05 -111.15 L-50.05 -111.3 -49.9 -115.0 -50.1 -119.45 Q-50.95 -131.0 -56.2 -139.8 L-57.85 -142.3 -51.15 -147.05 M-118.35 -64.0 L-130.5 -58.0 -131.3 -63.05 -122.4 -68.5 -122.35 -68.4 -122.2 -68.5 -120.9 -66.4 -120.05 -65.4 -118.35 -64.0 M-93.9 -53.95 L-92.7 -54.0 Q-88.05 -54.05 -84.75 -50.4 L-84.6 -50.25 -82.5 -47.2 Q-79.05 -41.0 -79.6 -32.45 L-79.75 -30.7 Q-80.35 -24.95 -82.5 -20.2 -83.4 -18.15 -84.6 -16.25 L-85.5 -14.95 -86.1 -14.2 -86.75 -13.4 Q-91.75 -7.45 -97.7 -7.35 L-97.75 -7.35 Q-103.65 -7.4 -107.35 -13.15 L-107.55 -13.4 -108.0 -14.2 Q-110.75 -19.2 -110.95 -25.65 L-110.95 -27.55 -110.7 -30.7 -110.5 -32.45 -109.75 -36.25 Q-108.1 -42.45 -104.4 -47.2 -100.85 -51.8 -96.8 -53.3 L-93.9 -53.95 M-146.45 -69.35 Q-149.6 -73.3 -153.1 -75.3 L-116.85 -100.8 Q-116.65 -91.4 -114.9 -86.65 L-132.4 -74.9 -144.5 -66.65 -146.45 -69.35 M-121.55 -39.6 Q-118.6 -34.55 -118.9 -27.55 L-119.0 -26.15 Q-119.4 -21.45 -121.05 -17.55 L-122.7 -14.35 -123.45 -13.3 -123.9 -12.7 -124.4 -12.0 Q-128.35 -7.15 -133.2 -7.1 L-133.3 -7.1 Q-138.1 -7.1 -141.2 -11.8 L-141.35 -12.0 -141.75 -12.7 Q-144.1 -16.75 -144.35 -22.0 L-144.4 -23.55 -144.25 -26.15 -144.1 -27.55 -143.55 -30.65 Q-142.35 -35.7 -139.4 -39.6 -136.6 -43.35 -133.3 -44.55 L-130.95 -45.1 -129.95 -45.15 Q-126.15 -45.15 -123.4 -42.2 L-123.3 -42.05 Q-122.35 -41.0 -121.55 -39.6 M-93.45 -47.7 L-94.2 -47.8 Q-98.8 -47.75 -102.6 -42.8 -103.85 -41.15 -104.75 -39.2 -106.3 -36.1 -106.9 -32.35 L-107.05 -30.85 -107.25 -28.15 -107.25 -26.6 -102.85 -26.45 -102.35 -23.35 -106.8 -23.5 -106.4 -21.8 -101.8 -21.7 -100.85 -19.6 Q-99.3 -16.7 -97.05 -15.5 L-96.35 -15.2 -97.05 -15.05 Q-100.2 -14.5 -102.05 -15.45 -98.9 -13.0 -94.4 -14.7 L-93.55 -15.15 -92.95 -15.5 -92.85 -15.55 Q-91.15 -16.8 -89.55 -18.9 -85.75 -23.85 -85.0 -30.85 L-84.9 -32.35 Q-84.55 -38.4 -86.95 -42.8 -89.0 -46.6 -92.15 -47.5 L-93.45 -47.7 M-130.45 -40.0 L-131.1 -40.05 Q-134.85 -40.05 -137.85 -36.0 L-139.55 -33.05 Q-140.75 -30.55 -141.15 -27.5 L-141.3 -26.25 -141.4 -24.05 -141.35 -22.75 -137.75 -22.65 -137.3 -20.1 -140.95 -20.25 -140.6 -18.85 -136.85 -18.75 -136.05 -17.05 Q-134.7 -14.7 -132.85 -13.7 L-132.25 -13.45 -132.85 -13.35 -136.95 -13.65 Q-134.3 -11.7 -130.65 -13.05 L-130.0 -13.45 -129.5 -13.7 -129.45 -13.75 Q-128.05 -14.8 -126.8 -16.5 -123.8 -20.55 -123.3 -26.25 L-123.2 -27.5 Q-123.05 -32.4 -125.1 -36.0 -126.85 -39.1 -129.4 -39.85 L-130.45 -40.0" fill="#ffffff" fill-rule="evenodd" stroke="none"/>
  </g>
</svg>
