<?xml version="1.0" encoding="UTF-8" standalone="no"?>
<svg xmlns:xlink="http://www.w3.org/1999/xlink" height="41.25px" width="291.6px" xmlns="http://www.w3.org/2000/svg">
  <g transform="matrix(1.0, 0.0, 0.0, 1.0, 145.8, -104.95)">
    <path d="M69.95 107.35 Q72.45 104.95 75.95 105.0 L80.6 105.0 Q84.1 104.95 86.6 107.35 89.0 109.65 89.0 113.05 L89.0 145.4 Q89.0 146.2 88.25 146.2 L82.7 146.2 Q81.85 146.2 81.85 145.4 L81.85 113.1 Q81.85 111.85 80.6 111.85 L75.95 111.85 Q74.65 111.85 74.65 113.1 L74.65 145.4 Q74.65 146.2 73.9 146.2 L68.3 146.2 Q67.5 146.2 67.5 145.4 L67.5 113.05 Q67.5 109.65 69.95 107.35 M46.25 105.75 L46.25 138.1 Q46.25 139.35 47.6 139.35 L52.2 139.35 Q53.45 139.35 53.45 138.1 L53.45 105.75 Q53.45 104.95 54.3 105.0 L59.85 105.0 Q60.6 104.95 60.6 105.75 L60.6 138.1 Q60.6 141.45 58.15 143.85 55.65 146.2 52.2 146.2 L47.6 146.2 Q44.1 146.2 41.65 143.85 39.1 141.45 39.1 138.1 L39.1 105.75 Q39.1 104.95 39.95 105.0 L45.5 105.0 Q46.25 104.95 46.25 105.75 M23.85 111.85 L19.2 111.85 Q17.9 111.85 17.9 113.05 L17.9 138.1 Q17.9 139.35 19.2 139.35 L23.85 139.35 Q25.1 139.35 25.1 138.1 L25.1 113.05 Q25.1 111.85 23.85 111.85 M29.75 107.35 Q32.25 109.7 32.25 113.05 L32.25 138.1 Q32.25 141.45 29.75 143.85 27.3 146.2 23.85 146.2 L19.2 146.2 Q15.75 146.2 13.25 143.85 10.7 141.45 10.75 138.1 L10.75 113.05 Q10.7 109.7 13.25 107.35 15.75 104.95 19.2 105.0 L23.85 105.0 Q27.3 104.95 29.75 107.35 M3.9 121.0 Q3.9 123.55 2.4 125.65 0.8 127.75 -1.7 128.55 -2.05 128.75 -2.0 129.1 -2.1 129.4 -1.8 129.55 L-0.9 130.15 Q3.9 133.55 3.9 139.05 L3.9 145.4 Q3.9 146.2 3.1 146.2 L-2.4 146.2 Q-3.25 146.2 -3.25 145.4 L-3.25 139.05 Q-3.25 137.0 -5.05 135.75 L-9.5 132.75 -10.15 132.7 -10.45 133.25 -10.45 145.35 Q-10.45 146.2 -11.25 146.2 L-16.8 146.2 Q-17.65 146.2 -17.65 145.35 L-17.65 105.75 Q-17.65 104.95 -16.8 105.0 L-4.5 105.0 Q-1.05 104.95 1.45 107.35 3.9 109.7 3.9 113.05 L3.9 121.0 M145.05 111.85 L132.65 111.85 Q131.35 111.85 131.35 113.05 L131.35 121.05 Q131.35 122.2 132.65 122.2 L137.4 122.2 Q140.9 122.2 143.4 124.6 145.8 126.95 145.8 130.35 L145.8 138.1 Q145.8 141.45 143.35 143.85 140.85 146.2 137.4 146.2 L125.1 146.2 Q124.2 146.2 124.2 145.4 L124.2 140.15 Q124.2 139.35 125.1 139.35 L137.4 139.35 Q138.6 139.35 138.6 138.1 L138.6 130.35 Q138.6 129.1 137.4 129.15 L132.65 129.15 Q129.2 129.1 126.75 126.7 124.2 124.35 124.2 121.05 L124.2 113.05 Q124.2 109.7 126.75 107.35 129.2 104.95 132.65 105.0 L145.05 105.0 Q145.8 104.95 145.8 105.75 L145.8 111.05 Q145.8 111.85 145.05 111.85 M117.4 113.05 L117.4 138.1 Q117.35 141.45 114.9 143.85 112.4 146.2 108.95 146.2 L96.7 146.2 Q95.9 146.2 95.9 145.4 L95.9 105.75 Q95.9 104.95 96.7 105.0 L108.95 105.0 Q112.4 104.95 114.9 107.35 117.35 109.7 117.4 113.05 M103.85 111.85 Q103.05 111.85 103.05 112.7 L103.05 138.55 Q103.05 139.35 103.85 139.35 L108.95 139.35 Q110.2 139.35 110.25 138.1 L110.25 113.1 Q110.2 111.85 108.95 111.85 L103.85 111.85 M-95.9 105.75 L-95.9 111.0 Q-95.95 111.8 -96.7 111.8 L-108.95 111.8 Q-110.25 111.8 -110.25 113.05 L-110.25 121.4 Q-110.25 122.15 -109.45 122.15 L-96.7 122.15 Q-95.95 122.15 -95.9 122.95 L-95.9 128.25 Q-95.95 129.0 -96.7 129.05 L-109.45 129.05 Q-110.25 129.0 -110.25 129.8 L-110.25 138.1 Q-110.25 139.35 -108.95 139.35 L-96.7 139.35 Q-95.95 139.35 -95.9 140.15 L-95.9 145.4 Q-95.95 146.2 -96.7 146.2 L-108.95 146.2 Q-112.45 146.2 -114.95 143.85 -117.4 141.5 -117.4 138.1 L-117.4 113.05 Q-117.4 109.65 -114.95 107.35 -112.45 104.95 -108.95 105.0 L-96.7 105.0 Q-95.95 104.95 -95.9 105.75 M-81.65 105.75 L-81.65 138.1 Q-81.7 139.35 -80.45 139.35 L-75.8 139.35 Q-74.55 139.35 -74.5 138.15 L-74.5 105.75 Q-74.5 104.9 -73.75 104.95 L-68.15 104.95 Q-67.35 104.9 -67.3 105.75 L-67.3 138.15 Q-67.3 139.35 -66.1 139.35 L-61.4 139.35 Q-60.15 139.35 -60.15 138.1 L-60.15 105.75 Q-60.15 104.9 -59.35 104.95 L-53.8 104.95 Q-52.95 104.9 -52.95 105.75 L-52.95 138.1 Q-52.95 141.45 -55.5 143.85 -57.95 146.2 -61.4 146.2 L-66.1 146.2 Q-68.3 146.2 -70.2 145.1 -70.95 144.7 -71.65 145.1 -73.65 146.2 -75.8 146.2 L-80.45 146.2 Q-83.95 146.2 -86.4 143.85 -88.95 141.45 -88.9 138.1 L-88.9 105.75 Q-88.9 104.9 -88.1 104.95 L-82.55 104.95 Q-81.65 104.9 -81.65 105.75 M-124.3 113.05 L-124.3 145.4 Q-124.3 146.2 -125.05 146.2 L-130.6 146.2 Q-131.45 146.2 -131.45 145.4 L-131.45 113.1 Q-131.45 111.85 -132.7 111.85 L-137.3 111.85 Q-138.65 111.85 -138.65 113.1 L-138.65 145.4 Q-138.65 146.2 -139.4 146.2 L-144.95 146.2 Q-145.8 146.2 -145.8 145.4 L-145.8 113.05 Q-145.8 109.65 -143.3 107.35 -140.85 104.95 -137.3 105.0 L-132.7 105.0 Q-129.2 104.95 -126.7 107.35 -124.3 109.65 -124.3 113.05 M-10.45 121.4 Q-10.45 122.15 -9.6 122.15 L-4.5 122.15 Q-3.25 122.15 -3.25 121.0 L-3.25 113.05 Q-3.25 111.8 -4.5 111.8 L-9.6 111.8 Q-10.45 111.8 -10.45 112.65 L-10.45 121.4 M-32.95 105.0 Q-29.5 104.95 -27.0 107.35 -24.55 109.7 -24.5 113.05 L-24.5 117.95 Q-24.55 118.75 -25.3 118.75 L-30.85 118.75 Q-31.65 118.75 -31.65 117.95 L-31.65 113.1 Q-31.7 111.85 -32.95 111.85 L-37.55 111.85 Q-38.9 111.85 -38.85 113.1 L-38.85 138.1 Q-38.9 139.35 -37.55 139.35 L-32.95 139.35 Q-31.7 139.35 -31.65 138.1 L-31.65 133.35 Q-31.7 132.5 -32.45 132.5 L-34.35 132.5 Q-35.2 132.5 -35.2 131.7 L-35.2 126.45 Q-35.2 125.65 -34.35 125.65 L-25.3 125.65 Q-24.55 125.65 -24.5 126.45 L-24.5 138.1 Q-24.55 141.45 -27.0 143.85 -29.5 146.2 -32.95 146.2 L-37.55 146.2 Q-41.05 146.2 -43.5 143.85 -46.05 141.45 -46.0 138.1 L-46.0 113.05 Q-46.05 109.7 -43.5 107.35 -41.05 104.95 -37.55 105.0 L-32.95 105.0" fill="#ffffff" fill-rule="evenodd" stroke="none"/>
  </g>
</svg>
