<?xml version="1.0" encoding="UTF-8" standalone="no"?>
<svg xmlns:xlink="http://www.w3.org/1999/xlink" height="58.0px" width="218.0px" xmlns="http://www.w3.org/2000/svg">
  <g transform="matrix(1.0, 0.0, 0.0, 1.0, 0.0, 0.0)">
    <path d="M213.0 0.0 Q218.0 0.0 218.0 5.0 L218.0 53.0 Q218.0 58.0 213.0 58.0 L5.0 58.0 Q0.0 58.0 0.0 53.0 L0.0 5.0 Q0.0 0.0 5.0 0.0 L213.0 0.0" fill="#000000" fill-opacity="0.49803922" fill-rule="evenodd" stroke="none"/>
    <path d="M213.0 0.0 Q218.0 0.0 218.0 5.0 L218.0 51.0 Q218.0 56.0 213.0 56.0 L5.0 56.0 Q0.0 56.0 0.0 51.0 L0.0 5.0 Q0.0 0.0 5.0 0.0 L213.0 0.0" fill="url(#gradient0)" fill-rule="evenodd" stroke="none"/>
  </g>
  <defs>
    <linearGradient gradientTransform="matrix(0.0, 0.03, -0.1331, 0.0, 109.0, 28.1)" gradientUnits="userSpaceOnUse" id="gradient0" spreadMethod="pad" x1="-819.2" x2="819.2">
      <stop offset="0.0" stop-color="#000000"/>
      <stop offset="1.0" stop-color="#202020"/>
    </linearGradient>
  </defs>
</svg>
