<?xml version="1.0" encoding="UTF-8" standalone="no"?>
<svg xmlns:xlink="http://www.w3.org/1999/xlink" height="56.0px" width="211.85px" xmlns="http://www.w3.org/2000/svg">
  <g transform="matrix(1.0, 0.0, 0.0, 1.0, -3.25, 0.0)">
    <path d="M11.95 0.0 L15.15 0.0 15.15 56.0 11.95 56.0 11.95 0.0 M56.45 0.0 L62.55 0.0 62.55 56.0 56.45 56.0 56.45 0.0 M40.65 0.0 L43.1 0.0 43.1 56.0 40.65 56.0 40.65 0.0 M67.2 0.0 L70.4 0.0 70.4 56.0 67.2 56.0 67.2 0.0 M122.45 0.0 L122.45 56.0 119.1 56.0 119.1 0.0 122.45 0.0 M85.15 0.0 L87.0 0.0 87.0 56.0 85.15 56.0 85.15 0.0 M136.85 0.0 L141.1 0.0 141.1 56.0 136.85 56.0 136.85 0.0 M130.65 0.0 L132.5 0.0 132.5 56.0 130.65 56.0 130.65 0.0 M158.7 0.0 L160.65 0.0 160.65 56.0 158.7 56.0 158.7 0.0 M175.75 0.0 L178.05 0.0 178.05 56.0 175.75 56.0 175.75 0.0 M171.55 0.0 L174.05 0.0 174.05 56.0 171.55 56.0 171.55 0.0 M189.35 0.0 L190.7 0.0 190.7 56.0 189.35 56.0 189.35 0.0 M205.7 0.0 L211.8 0.0 211.8 56.0 205.7 56.0 205.7 0.0" fill="#000000" fill-opacity="0.08627451" fill-rule="evenodd" stroke="none"/>
    <path d="M29.1 0.0 L30.4 0.0 30.4 56.0 29.1 56.0 29.1 0.0 M3.25 0.0 L4.55 0.0 4.55 56.0 3.25 56.0 3.25 0.0 M46.3 0.0 L48.15 0.0 48.15 56.0 46.3 56.0 46.3 0.0 M64.2 0.0 L65.3 0.0 65.3 56.0 64.2 56.0 64.2 0.0 M78.1 0.0 L80.05 0.0 80.05 56.0 78.1 56.0 78.1 0.0 M113.7 0.0 L114.85 0.0 114.85 56.0 113.7 56.0 113.7 0.0 M106.85 0.0 L108.2 0.0 108.2 56.0 106.85 56.0 106.85 0.0 M143.5 0.0 L144.85 0.0 144.85 56.0 143.5 56.0 143.5 0.0 M203.15 0.0 L203.15 56.0 200.85 56.0 200.85 0.0 203.15 0.0 M183.4 0.0 L184.55 0.0 184.55 56.0 183.4 56.0 183.4 0.0 M197.2 0.0 L198.45 0.0 198.45 56.0 197.2 56.0 197.2 0.0 M214.1 0.0 L215.1 0.0 215.1 56.0 214.1 56.0 214.1 0.0" fill="#ffffff" fill-opacity="0.02745098" fill-rule="evenodd" stroke="none"/>
    <path d="M211.4 28.1 L167.15 23.9 Q165.6 13.7 158.8 6.8 154.9 2.8 149.3 0.0 L169.3 0.0 Q180.1 1.15 188.05 2.95 192.05 4.25 195.65 6.8 201.35 10.85 205.95 18.05 209.05 22.85 211.4 28.1 M176.05 38.65 L200.55 40.85 201.0 47.35 201.0 48.35 201.05 50.75 188.8 49.95 Q188.4 49.85 188.1 50.15 187.8 50.4 187.8 50.75 L187.75 51.2 187.75 51.25 187.4 55.2 187.7 55.85 187.85 56.0 162.05 56.0 162.55 47.75 162.6 47.35 162.55 41.45 Q160.8 37.7 161.85 36.15 162.95 34.55 162.85 32.75 162.7 30.95 165.5 29.55 168.3 28.1 172.3 29.6 176.25 31.1 176.05 38.65 M178.95 35.7 Q177.8 33.2 180.3 32.4 L182.8 33.1 Q184.0 33.65 183.9 35.0 183.75 36.35 182.3 36.95 180.0 37.9 178.95 35.7 M148.3 16.2 Q155.1 24.75 153.75 38.75 L153.75 38.8 153.3 49.55 153.15 49.85 153.15 56.0 151.15 56.0 151.1 45.0 Q151.05 42.4 149.65 40.3 L148.35 39.2 Q146.85 38.3 145.2 38.0 L143.2 37.85 140.35 38.2 139.2 39.15 Q135.45 40.75 132.45 38.0 131.85 37.45 131.75 36.8 L132.15 36.75 82.65 32.2 82.55 27.9 91.65 19.1 92.15 18.2 92.25 18.0 92.25 17.75 92.25 17.55 92.15 17.3 90.75 12.1 90.2 10.4 Q88.2 5.0 85.1 0.35 L129.05 4.65 Q132.35 5.55 135.3 6.8 143.25 10.25 148.2 16.2 L148.3 16.2 M147.85 30.65 L147.9 30.65 Q147.1 29.8 145.95 29.8 144.85 29.8 144.05 30.65 143.25 31.4 143.25 32.55 143.25 33.7 144.05 34.5 L144.05 34.45 Q144.85 35.25 145.95 35.3 147.1 35.25 147.85 34.5 L147.9 34.45 Q148.65 33.65 148.7 32.55 148.65 31.4 147.85 30.65 M128.85 30.75 Q128.85 29.75 129.55 29.1 130.05 28.6 130.65 28.5 130.05 28.05 129.25 28.1 128.1 28.05 127.35 28.85 126.55 29.7 126.55 30.8 126.55 31.95 127.35 32.75 128.1 33.5 129.25 33.5 L130.8 33.05 Q130.05 32.9 129.55 32.4 128.85 31.7 128.85 30.75 M84.65 12.1 L86.05 16.2 Q85.4 18.15 82.5 18.0 79.6 17.8 78.55 21.1 78.45 24.1 78.75 27.05 L78.75 29.45 78.75 42.8 78.7 42.8 78.6 48.05 78.45 49.3 77.8 56.0 31.1 56.0 31.95 47.35 31.95 46.25 32.35 40.2 32.7 26.0 74.45 28.7 74.2 25.3 73.8 24.95 Q73.6 23.6 73.65 20.7 73.65 17.75 71.7 16.9 69.75 16.0 65.8 15.95 61.85 15.8 58.5 13.8 L30.95 11.4 Q29.0 4.75 26.05 0.0 L77.8 0.0 79.35 2.05 79.35 2.15 Q81.85 5.75 83.7 9.65 L84.65 12.1 M66.6 21.35 Q66.2 20.9 66.2 20.35 66.2 19.8 66.6 19.4 67.0 19.0 67.55 19.0 68.1 19.0 68.55 19.4 68.9 19.8 68.9 20.35 L68.55 21.35 67.55 21.7 Q67.0 21.7 66.6 21.35 M64.75 24.55 Q64.75 24.35 64.9 24.2 65.05 24.05 65.25 24.05 65.5 24.05 65.65 24.2 L65.8 24.55 65.65 24.95 65.25 25.1 64.9 24.95 64.75 24.55 M141.0 50.1 Q140.8 52.15 139.05 51.3 L138.9 50.15 Q139.65 49.4 140.55 49.65 L141.0 50.1 M113.4 28.95 Q113.35 27.8 112.55 27.05 L112.6 27.05 Q111.8 26.2 110.7 26.2 109.55 26.2 108.75 27.05 107.9 27.8 107.9 28.95 107.9 30.1 108.75 30.9 L108.75 30.85 Q109.55 31.65 110.7 31.65 111.8 31.65 112.55 30.9 L112.6 30.85 Q113.35 30.05 113.4 28.95 M94.05 29.0 L94.05 28.95 Q94.8 28.2 94.85 27.05 94.85 25.95 94.05 25.1 93.25 24.3 92.1 24.3 91.0 24.3 90.2 25.1 89.4 25.95 89.4 27.05 89.4 28.2 90.2 29.0 L90.2 28.95 Q91.0 29.75 92.1 29.75 93.25 29.75 94.05 29.0 M64.8 42.1 Q64.4 42.35 64.4 42.85 L64.15 47.2 64.15 47.35 64.4 48.0 Q64.7 48.35 65.15 48.35 L74.2 48.95 Q75.95 46.7 75.7 44.3 L75.6 42.6 75.6 42.5 65.6 41.8 Q65.1 41.8 64.8 42.1 M12.3 56.0 L10.35 56.0 10.65 55.45 Q10.95 55.15 11.35 55.15 11.75 55.15 12.05 55.45 L12.3 56.0 M11.1 22.7 L9.75 20.6 15.45 16.5 16.2 17.7 Q22.1 27.35 22.8 40.2 L22.85 44.25 22.8 47.35 Q22.55 51.85 21.8 56.0 L13.4 56.0 Q11.95 54.75 12.0 52.4 9.15 52.85 7.8 50.6 L7.8 50.3 Q7.65 47.35 10.55 46.35 L11.7 46.45 Q12.0 42.35 16.5 41.6 L16.35 40.2 Q15.6 30.3 11.1 22.7" fill="#ffffff" fill-opacity="0.09411765" fill-rule="evenodd" stroke="none"/>
  </g>
</svg>
