<?xml version="1.0" encoding="UTF-8" standalone="no"?>
<svg xmlns:xlink="http://www.w3.org/1999/xlink" height="12.9px" width="208.0px" xmlns="http://www.w3.org/2000/svg">
  <g transform="matrix(1.0, 0.0, 0.0, 1.0, 0.0, 0.0)">
    <path d="M208.0 0.0 L208.0 1.0 0.0 1.0 0.0 0.0 208.0 0.0" fill="#444444" fill-rule="evenodd" stroke="none"/>
    <path d="M155.25 9.0 L155.0 9.0 152.15 9.0 151.55 9.1 151.35 9.45 151.4 9.7 151.55 9.8 152.15 9.9 155.3 9.95 156.7 10.1 157.1 10.2 Q157.7 10.5 157.7 11.4 157.7 12.2 157.15 12.55 L156.7 12.75 155.3 12.9 151.8 12.9 149.95 12.6 Q149.45 12.25 149.45 11.5 L151.15 11.5 151.4 11.8 151.95 11.95 152.0 11.95 154.8 11.95 155.25 11.95 155.65 11.8 155.95 11.45 155.7 11.05 155.25 10.95 154.75 10.9 152.05 10.8 150.3 10.7 150.0 10.6 149.55 10.1 149.4 9.45 Q149.4 8.8 149.85 8.45 L150.0 8.35 151.95 8.05 155.1 8.05 155.25 8.05 156.7 8.25 157.05 8.4 Q157.7 8.7 157.7 9.4 L155.85 9.4 155.7 9.1 155.25 9.0 M142.9 11.95 L148.45 11.95 148.45 12.9 141.2 12.9 141.2 8.05 148.45 8.05 148.45 9.0 142.9 9.0 142.9 9.9 148.25 9.9 148.25 10.9 142.9 10.9 142.9 11.95 M132.35 8.35 L134.3 8.05 137.45 8.05 138.05 8.1 139.4 8.4 140.0 9.0 140.05 9.4 138.2 9.4 138.05 9.1 137.35 9.0 134.5 9.0 133.9 9.1 133.85 9.15 Q133.7 9.25 133.7 9.45 L133.9 9.8 134.15 9.9 134.5 9.9 137.65 9.95 138.4 10.0 139.45 10.2 Q140.05 10.5 140.05 11.4 L140.0 11.8 139.5 12.55 138.65 12.85 137.65 12.9 134.15 12.9 132.3 12.6 Q131.8 12.25 131.8 11.5 L133.5 11.5 133.75 11.8 134.35 11.95 137.15 11.95 138.0 11.8 138.3 11.45 138.05 11.05 137.1 10.9 134.4 10.8 132.35 10.6 131.95 10.2 131.75 9.45 131.8 9.1 Q131.9 8.6 132.35 8.35 M125.15 8.05 L128.3 8.05 130.25 8.4 Q130.75 8.65 130.9 9.1 L130.9 9.4 129.05 9.4 128.9 9.1 128.3 9.0 128.2 9.0 125.35 9.0 124.75 9.1 124.55 9.45 124.75 9.8 124.8 9.85 125.3 9.9 128.5 9.95 130.1 10.15 130.3 10.2 Q130.9 10.5 130.9 11.4 130.9 12.2 130.35 12.55 L130.1 12.7 128.75 12.9 125.0 12.9 123.15 12.6 122.85 12.25 122.65 11.5 124.35 11.5 124.6 11.8 125.2 11.95 128.0 11.95 128.3 11.95 128.85 11.8 129.15 11.45 128.9 11.05 128.3 10.9 127.95 10.9 125.25 10.8 124.05 10.75 123.2 10.6 Q122.8 10.4 122.7 10.0 L122.6 9.45 Q122.6 8.7 123.2 8.35 L124.3 8.1 125.15 8.05 M117.2 8.95 L115.8 10.75 118.65 10.75 117.3 8.95 117.2 8.95 M118.6 8.05 L122.25 12.9 120.25 12.9 119.4 11.75 115.05 11.75 114.2 12.9 112.25 12.9 115.9 8.05 118.6 8.05 M111.65 12.9 L105.6 12.9 105.6 8.05 107.3 8.05 107.3 11.9 111.65 11.9 111.65 12.9 M102.5 9.25 L101.0 9.1 99.7 9.1 98.2 9.3 Q97.9 9.5 97.9 10.25 L97.9 10.75 Q97.9 11.45 98.2 11.65 L98.45 11.75 99.6 11.85 101.0 11.85 102.45 11.75 102.8 11.2 104.55 11.2 Q104.55 12.2 103.95 12.55 L103.5 12.7 102.9 12.85 101.05 12.9 98.55 12.9 Q97.35 12.8 96.85 12.5 96.2 12.05 96.2 10.85 L96.2 10.25 Q96.2 8.85 96.9 8.45 97.55 8.05 99.55 8.05 L101.05 8.05 103.85 8.35 Q104.5 8.65 104.55 9.6 L104.55 9.7 102.8 9.7 Q102.8 9.4 102.5 9.25 M84.25 11.95 L89.8 11.95 89.8 12.9 82.55 12.9 82.55 8.05 89.8 8.05 89.8 9.0 84.25 9.0 84.25 9.9 89.6 9.9 89.6 10.9 84.25 10.9 84.25 11.95 M75.7 11.6 L78.65 8.1 78.7 8.05 81.25 8.05 81.25 12.9 79.55 12.9 79.55 9.35 76.6 12.9 74.8 12.9 71.85 9.35 71.85 12.9 70.2 12.9 70.2 8.05 72.8 8.05 75.7 11.6 M64.45 8.95 L63.05 10.75 65.85 10.75 64.55 8.95 64.45 8.95 M62.3 11.75 L61.45 12.9 59.5 12.9 59.55 12.9 63.15 8.05 65.8 8.05 69.5 12.9 67.5 12.9 66.65 11.75 62.3 11.75 M55.3 8.0 L58.2 8.35 58.85 9.05 58.9 9.55 57.15 9.55 56.85 9.2 55.55 9.1 55.3 9.1 53.95 9.1 53.3 9.15 52.5 9.3 Q52.2 9.5 52.2 10.3 L52.2 10.8 Q52.2 11.45 52.5 11.65 L53.35 11.85 53.9 11.85 55.3 11.85 56.55 11.8 56.8 11.75 57.15 11.3 57.15 10.9 54.6 10.9 54.6 9.95 58.9 9.95 58.9 10.95 58.8 11.8 58.25 12.5 56.05 12.9 55.5 12.9 53.75 12.9 52.1 12.8 51.15 12.5 50.65 11.9 Q50.5 11.5 50.5 10.95 L50.5 10.2 50.55 9.8 Q50.55 9.25 50.8 8.9 L51.15 8.5 Q51.45 8.25 52.1 8.15 L53.75 8.0 55.3 8.0" fill="url(#gradient0)" fill-rule="evenodd" stroke="none"/>
  </g>
  <defs>
    <linearGradient gradientTransform="matrix(0.0, 0.003, -0.0654, 0.0, 104.1, 10.45)" gradientUnits="userSpaceOnUse" id="gradient0" spreadMethod="pad" x1="-819.2" x2="819.2">
      <stop offset="0.0" stop-color="#ee9d00"/>
      <stop offset="0.5098039215686274" stop-color="#eeb211"/>
      <stop offset="1.0" stop-color="#ffbe12"/>
    </linearGradient>
  </defs>
</svg>
