<?xml version="1.0" encoding="UTF-8" standalone="no"?>
<svg xmlns:xlink="http://www.w3.org/1999/xlink" height="222.0px" width="222.0px" xmlns="http://www.w3.org/2000/svg">
  <g transform="matrix(1.0, 0.0, 0.0, 1.0, 1.0, 1.0)">
    <path d="M220.0 0.05 L220.0 220.0 0.0 220.0 0.0 0.0 220.0 0.0 220.0 0.05 110.0 110.0 220.0 0.05 M0.0 0.0 L110.0 110.0 220.0 220.0 110.0 110.0 0.0 0.0 M0.0 220.0 L110.0 110.0 0.0 220.0" fill="#ff0000" fill-rule="evenodd" stroke="none"/>
    <path d="M110.0 110.0 L220.0 220.0 M110.0 110.0 L0.0 0.0" fill="none" stroke="#ffffff" stroke-linecap="round" stroke-linejoin="round" stroke-width="2.0"/>
    <path d="M220.0 0.05 L110.0 110.0 0.0 220.0" fill="none" stroke="#ffffff" stroke-linecap="round" stroke-linejoin="round" stroke-width="2.0"/>
    <path d="M110.0 77.0 Q123.65 77.0 133.3 86.65 143.0 96.35 143.0 110.0 143.0 123.65 133.3 133.3 123.65 143.0 110.0 143.0 96.35 143.0 86.65 133.3 77.0 123.65 77.0 110.0 77.0 96.35 86.65 86.65 96.35 77.0 110.0 77.0 Z" fill="none" stroke="#ffffff" stroke-linecap="round" stroke-linejoin="round" stroke-width="3.0"/>
  </g>
</svg>
