<?xml version="1.0" encoding="UTF-8" standalone="no"?>
<svg xmlns:xlink="http://www.w3.org/1999/xlink" height="24.6px" width="44.4px" xmlns="http://www.w3.org/2000/svg">
  <g transform="matrix(1.0, 0.0, 0.0, 1.0, 0.0, -0.3)">
    <path d="M44.4 3.9 L35.95 3.9 35.95 10.4 41.15 10.4 41.15 14.0 35.95 14.0 35.95 21.3 44.4 21.3 44.4 24.9 32.45 24.9 32.45 0.3 44.4 0.3 44.4 3.9 M21.9 21.85 L23.2 14.8 26.75 0.3 30.55 0.3 24.15 24.9 19.45 24.9 13.2 0.3 17.1 0.3 20.65 14.8 21.9 21.85 M11.95 3.9 L3.5 3.9 3.5 10.4 8.7 10.4 8.7 14.0 3.5 14.0 3.5 21.3 11.95 21.3 11.95 24.9 0.0 24.9 0.0 0.3 11.95 0.3 11.95 3.9" fill="#ffffff" fill-rule="evenodd" stroke="none"/>
  </g>
</svg>
