<?xml version="1.0" encoding="UTF-8" standalone="no"?>
<svg xmlns:xlink="http://www.w3.org/1999/xlink" height="24.6px" width="113.75px" xmlns="http://www.w3.org/2000/svg">
  <g transform="matrix(1.0, 0.0, 0.0, 1.0, 0.0, -0.3)">
    <path d="M110.25 10.4 L110.25 0.3 113.75 0.3 113.75 24.9 110.25 24.9 110.25 14.0 102.15 14.0 102.15 24.9 98.6 24.9 98.6 0.3 102.15 0.3 102.15 10.4 110.25 10.4 M90.45 3.9 L90.45 24.9 86.6 24.9 86.6 3.9 80.85 3.9 80.85 0.3 96.0 0.3 96.0 3.9 90.45 3.9 M75.7 0.3 L79.6 0.3 73.25 15.75 73.25 24.9 69.35 24.9 69.35 15.75 63.0 0.3 66.85 0.3 70.7 10.8 71.3 13.7 71.85 10.8 75.7 0.3 M59.85 2.3 Q61.6 4.3 61.6 7.6 61.6 10.85 60.2 12.75 58.95 14.25 57.45 14.55 L58.0 15.25 58.65 16.7 59.3 18.95 Q59.95 23.05 61.6 24.9 L57.85 24.9 Q56.4 23.95 55.75 19.2 55.45 17.45 54.95 16.5 L53.85 15.15 50.35 15.15 50.35 24.9 46.8 24.9 46.8 0.3 54.1 0.3 Q58.05 0.25 59.85 2.3 M54.65 3.9 L50.35 3.9 50.35 11.6 54.65 11.6 Q58.4 11.55 58.4 7.7 58.4 3.9 54.65 3.9 M44.4 3.9 L35.95 3.9 35.95 10.4 41.15 10.4 41.15 14.0 35.95 14.0 35.95 21.3 44.4 21.3 44.4 24.9 32.45 24.9 32.45 0.3 44.4 0.3 44.4 3.9 M21.9 21.85 L23.2 14.8 26.75 0.3 30.55 0.3 24.15 24.9 19.45 24.9 13.2 0.3 17.1 0.3 20.65 14.8 21.9 21.85 M11.95 3.9 L3.5 3.9 3.5 10.4 8.7 10.4 8.7 14.0 3.5 14.0 3.5 21.3 11.95 21.3 11.95 24.9 0.0 24.9 0.0 0.3 11.95 0.3 11.95 3.9" fill="#ffffff" fill-rule="evenodd" stroke="none"/>
  </g>
</svg>
