<?xml version="1.0" encoding="UTF-8" standalone="no"?>
<svg xmlns:xlink="http://www.w3.org/1999/xlink" height="28.1px" width="282.35px" xmlns="http://www.w3.org/2000/svg">
  <g transform="matrix(1.0, 0.0, 0.0, 1.0, 0.0, -0.1)">
    <path d="M275.4 3.9 L271.1 3.9 271.1 11.6 275.4 11.6 Q279.15 11.55 279.15 7.7 279.15 3.9 275.4 3.9 M280.6 2.3 Q282.35 4.3 282.35 7.6 282.35 10.85 280.95 12.75 279.7 14.25 278.2 14.55 L278.75 15.25 279.4 16.7 280.05 18.95 Q280.7 23.05 282.35 24.9 L278.6 24.9 Q277.15 23.95 276.5 19.2 276.2 17.45 275.7 16.5 275.15 15.5 274.6 15.15 L271.1 15.15 271.1 24.9 267.55 24.9 267.55 0.3 274.85 0.3 Q278.8 0.25 280.6 2.3 M265.15 3.9 L256.7 3.9 256.7 10.4 261.9 10.4 261.9 14.0 256.7 14.0 256.7 21.3 265.15 21.3 265.15 24.9 253.2 24.9 253.2 0.3 265.15 0.3 265.15 3.9 M247.5 0.3 L251.3 0.3 244.9 24.9 240.2 24.9 233.95 0.3 237.85 0.3 241.4 14.8 242.65 21.85 243.95 14.8 247.5 0.3 M224.25 3.9 L224.25 10.4 229.45 10.4 229.45 14.0 224.25 14.0 224.25 21.3 232.7 21.3 232.7 24.9 220.75 24.9 220.75 0.3 232.7 0.3 232.7 3.9 224.25 3.9 M202.55 15.95 L202.55 24.9 199.55 24.9 199.55 15.95 193.05 0.7 196.2 0.7 201.0 14.45 205.85 0.7 209.0 0.7 202.55 15.95 M187.6 12.15 Q190.7 13.3 190.7 17.6 190.7 21.75 189.1 23.3 187.55 24.9 184.15 24.9 L176.6 24.9 176.6 0.7 183.55 0.7 Q186.7 0.65 188.25 2.3 189.85 3.85 189.85 7.35 189.85 10.75 187.5 12.15 L187.6 12.15 M182.9 3.5 L179.3 3.5 179.3 11.0 183.0 11.0 Q187.15 11.0 187.15 7.25 187.15 3.5 182.9 3.5 M188.05 18.15 Q188.05 14.0 183.95 13.8 L179.3 13.8 179.3 22.15 183.8 22.15 Q188.05 22.15 188.05 18.15 M163.85 21.9 Q164.4 22.35 164.4 23.7 164.4 24.9 163.75 26.2 163.15 27.5 161.7 28.2 L161.7 27.55 162.75 26.65 Q163.35 26.05 163.5 25.05 L163.05 25.2 162.7 25.2 Q161.85 25.15 161.5 24.65 161.15 24.1 161.15 23.45 161.15 22.65 161.5 22.1 161.85 21.5 162.5 21.5 163.3 21.5 163.85 21.9 M156.65 3.85 L151.85 3.65 151.55 3.65 148.45 4.0 Q147.25 4.35 146.6 5.4 145.9 6.35 145.55 8.25 145.25 10.1 145.25 13.1 145.25 16.2 145.6 17.95 146.0 19.6 146.65 20.35 147.35 21.1 148.3 21.25 L150.65 21.4 153.05 21.15 Q154.0 20.8 154.45 20.15 154.95 19.45 155.15 18.15 L155.35 14.85 155.35 14.0 151.6 14.0 151.6 10.4 158.8 10.4 158.8 13.1 Q158.8 17.05 158.3 19.45 157.75 21.8 156.7 23.05 155.6 24.35 154.05 24.7 L150.45 25.1 146.85 24.7 Q145.2 24.35 144.1 23.05 142.95 21.75 142.35 19.4 141.8 17.0 141.8 13.0 141.8 8.55 142.65 5.95 143.55 3.3 144.95 2.05 146.35 0.7 148.1 0.4 L151.55 0.1 154.2 0.25 156.65 0.7 156.65 3.85 M134.9 16.7 L136.0 20.85 135.8 0.3 138.95 0.3 138.95 24.9 135.05 24.9 127.8 8.55 126.6 4.1 126.7 24.9 123.45 24.9 123.45 0.3 127.7 0.3 134.9 16.7 M120.45 0.3 L120.45 24.9 116.95 24.9 116.95 0.3 120.45 0.3 M110.25 10.4 L110.25 0.3 113.75 0.3 113.75 24.9 110.25 24.9 110.25 14.0 102.15 14.0 102.15 24.9 98.6 24.9 98.6 0.3 102.15 0.3 102.15 10.4 110.25 10.4 M90.45 3.9 L90.45 24.9 86.6 24.9 86.6 3.9 80.85 3.9 80.85 0.3 96.0 0.3 96.0 3.9 90.45 3.9 M75.7 0.3 L79.6 0.3 73.25 15.75 73.25 24.9 69.35 24.9 69.35 15.75 63.0 0.3 66.85 0.3 70.7 10.8 71.3 13.7 71.85 10.8 75.7 0.3 M59.85 2.3 Q61.6 4.3 61.6 7.6 61.6 10.85 60.2 12.75 58.95 14.25 57.45 14.55 L58.0 15.25 58.65 16.7 59.3 18.95 Q59.95 23.05 61.6 24.9 L57.85 24.9 Q56.4 23.95 55.75 19.2 55.45 17.45 54.95 16.5 L53.85 15.15 50.35 15.15 50.35 24.9 46.8 24.9 46.8 0.3 54.1 0.3 Q58.05 0.25 59.85 2.3 M58.4 7.7 Q58.4 3.9 54.65 3.9 L50.35 3.9 50.35 11.6 54.65 11.6 Q58.4 11.55 58.4 7.7 M44.4 3.9 L35.95 3.9 35.95 10.4 41.15 10.4 41.15 14.0 35.95 14.0 35.95 21.3 44.4 21.3 44.4 24.9 32.45 24.9 32.45 0.3 44.4 0.3 44.4 3.9 M21.9 21.85 L23.2 14.8 26.75 0.3 30.55 0.3 24.15 24.9 19.45 24.9 13.2 0.3 17.1 0.3 20.65 14.8 21.9 21.85 M11.95 3.9 L3.5 3.9 3.5 10.4 8.7 10.4 8.7 14.0 3.5 14.0 3.5 21.3 11.95 21.3 11.95 24.9 0.0 24.9 0.0 0.3 11.95 0.3 11.95 3.9" fill="#ffffff" fill-rule="evenodd" stroke="none"/>
  </g>
</svg>
