<?xml version="1.0" encoding="UTF-8" standalone="no"?>
<svg xmlns:xlink="http://www.w3.org/1999/xlink" height="27.5px" width="197.25px" xmlns="http://www.w3.org/2000/svg">
  <g transform="matrix(1.0, 0.0, 0.0, 1.0, 98.6, 13.75)">
    <path d="M98.15 7.65 Q98.65 8.15 98.65 8.95 98.65 9.7 98.15 10.15 97.7 10.65 97.0 10.65 96.1 10.65 95.6 10.15 95.15 9.7 95.15 8.95 95.15 8.15 95.6 7.65 96.1 7.2 97.0 7.2 97.7 7.2 98.15 7.65 M-76.2 -13.75 Q-73.05 -13.8 -71.5 -12.15 -69.9 -10.6 -69.9 -7.1 -69.9 -3.7 -72.25 -2.3 L-72.15 -2.3 Q-69.05 -1.15 -69.05 3.15 -69.05 7.3 -70.65 8.85 -72.2 10.45 -75.6 10.45 L-83.15 10.45 -83.15 -13.75 -76.2 -13.75 M-50.75 -13.75 L-57.2 1.5 -57.2 10.45 -60.2 10.45 -60.2 1.5 -66.7 -13.75 -63.55 -13.75 -58.75 0.0 -53.9 -13.75 -50.75 -13.75 M-72.6 -7.2 Q-72.6 -10.95 -76.85 -10.95 L-80.45 -10.95 -80.45 -3.45 -76.75 -3.45 Q-72.6 -3.45 -72.6 -7.2 M-71.7 3.7 Q-71.7 -0.45 -75.8 -0.65 L-80.45 -0.65 -80.45 7.7 -75.95 7.7 Q-71.7 7.7 -71.7 3.7 M-95.35 9.25 Q-95.35 10.45 -96.0 11.75 -96.6 13.05 -98.05 13.75 L-98.05 13.1 -97.0 12.2 Q-96.4 11.6 -96.25 10.6 L-96.7 10.75 -97.05 10.75 Q-97.9 10.7 -98.25 10.2 L-98.6 9.0 Q-98.6 8.2 -98.25 7.65 -97.9 7.05 -97.25 7.05 -96.45 7.05 -95.9 7.45 -95.35 7.9 -95.35 9.25" fill="#ffffff" fill-rule="evenodd" stroke="none"/>
  </g>
</svg>
