<?xml version="1.0" encoding="UTF-8" standalone="no"?>
<svg xmlns:xlink="http://www.w3.org/1999/xlink" height="25.0px" width="158.8px" xmlns="http://www.w3.org/2000/svg">
  <g transform="matrix(1.0, 0.0, 0.0, 1.0, 79.4, 12.5)">
    <path d="M77.25 -11.9 L77.25 -8.75 72.45 -8.95 72.15 -8.95 69.05 -8.6 Q67.85 -8.25 67.2 -7.2 66.5 -6.25 66.15 -4.35 65.85 -2.5 65.85 0.5 65.85 3.6 66.2 5.35 66.6 7.0 67.25 7.75 67.95 8.5 68.9 8.65 L71.25 8.8 73.65 8.55 Q74.6 8.2 75.05 7.55 75.55 6.85 75.75 5.55 L75.95 2.25 75.95 1.4 72.2 1.4 72.2 -2.2 79.4 -2.2 79.4 0.5 Q79.4 4.45 78.9 6.85 78.35 9.2 77.3 10.45 76.2 11.75 74.65 12.1 L71.05 12.5 67.45 12.1 Q65.8 11.75 64.7 10.45 63.55 9.15 62.95 6.8 62.4 4.4 62.4 0.4 62.4 -4.05 63.25 -6.65 64.15 -9.3 65.55 -10.55 66.95 -11.9 68.7 -12.2 L72.15 -12.5 74.8 -12.35 77.25 -11.9 M11.05 -8.7 L11.05 12.3 7.2 12.3 7.2 -8.7 1.45 -8.7 1.45 -12.3 16.6 -12.3 16.6 -8.7 11.05 -8.7 M22.75 -2.2 L30.85 -2.2 30.85 -12.3 34.35 -12.3 34.35 12.3 30.85 12.3 30.85 1.4 22.75 1.4 22.75 12.3 19.2 12.3 19.2 -12.3 22.75 -12.3 22.75 -2.2 M-3.7 -12.3 L0.2 -12.3 -6.15 3.15 -6.15 12.3 -10.05 12.3 -10.05 3.15 -16.4 -12.3 -12.55 -12.3 -8.7 -1.8 -8.1 1.1 -7.55 -1.8 -3.7 -12.3 M59.55 -12.3 L59.55 12.3 55.65 12.3 48.4 -4.05 47.2 -8.5 47.3 12.3 44.05 12.3 44.05 -12.3 48.3 -12.3 55.5 4.1 56.6 8.25 56.4 -12.3 59.55 -12.3 M41.05 -12.3 L41.05 12.3 37.55 12.3 37.55 -12.3 41.05 -12.3 M-70.7 1.4 L-75.9 1.4 -75.9 8.7 -67.45 8.7 -67.45 12.3 -79.4 12.3 -79.4 -12.3 -67.45 -12.3 -67.45 -8.7 -75.9 -8.7 -75.9 -2.2 -70.7 -2.2 -70.7 1.4 M-58.75 2.2 L-57.5 9.25 -56.2 2.2 -52.65 -12.3 -48.85 -12.3 -55.25 12.3 -59.95 12.3 -66.2 -12.3 -62.3 -12.3 -58.75 2.2 M-29.05 -8.7 L-29.05 -1.0 -24.75 -1.0 Q-21.0 -1.05 -21.0 -4.9 -21.0 -8.7 -24.75 -8.7 L-29.05 -8.7 M-20.75 4.1 L-20.1 6.35 Q-19.45 10.45 -17.8 12.3 L-21.55 12.3 Q-23.0 11.35 -23.65 6.6 -23.95 4.85 -24.45 3.9 L-25.55 2.55 -29.05 2.55 -29.05 12.3 -32.6 12.3 -32.6 -12.3 -25.3 -12.3 Q-21.35 -12.35 -19.55 -10.3 -17.8 -8.3 -17.8 -5.0 -17.8 -1.75 -19.2 0.15 -20.45 1.65 -21.95 1.95 L-21.4 2.65 Q-21.1 3.2 -20.75 4.1 M-35.0 -12.3 L-35.0 -8.7 -43.45 -8.7 -43.45 -2.2 -38.25 -2.2 -38.25 1.4 -43.45 1.4 -43.45 8.7 -35.0 8.7 -35.0 12.3 -46.95 12.3 -46.95 -12.3 -35.0 -12.3" fill="#ffcc00" fill-rule="evenodd" stroke="none"/>
  </g>
</svg>
