<?xml version="1.0" encoding="UTF-8" standalone="no"?>
<svg xmlns:xlink="http://www.w3.org/1999/xlink" height="24.95px" width="132.5px" xmlns="http://www.w3.org/2000/svg">
  <g transform="matrix(1.0, 0.0, 0.0, 1.0, 66.25, 12.45)">
    <path d="M63.0 1.4 L57.8 1.4 57.8 8.7 66.25 8.7 66.25 12.3 54.3 12.3 54.3 -12.3 66.25 -12.3 66.25 -8.7 57.8 -8.7 57.8 -2.2 63.0 -2.2 63.0 1.4 M51.15 -12.3 L51.15 12.3 47.25 12.3 40.0 -4.05 38.8 -8.5 38.9 12.3 35.65 12.3 35.65 -12.3 39.9 -12.3 47.1 4.1 48.2 8.25 48.0 -12.3 51.15 -12.3 M32.75 -0.05 Q32.75 4.25 32.25 6.75 31.75 9.3 30.65 10.55 29.55 11.85 27.85 12.15 L24.0 12.5 23.75 12.5 20.15 12.15 Q18.5 11.85 17.35 10.55 16.15 9.2 15.6 6.75 15.0 4.25 15.0 -0.1 15.0 -8.5 17.3 -10.5 19.6 -12.5 23.85 -12.45 L24.2 -12.45 Q28.6 -12.5 30.7 -10.45 32.75 -8.45 32.75 -0.05 M28.15 -7.75 Q27.0 -8.85 23.85 -8.85 20.95 -8.85 19.65 -7.7 18.5 -6.65 18.5 0.1 18.5 6.75 20.0 8.3 L23.85 8.8 Q27.05 8.8 28.15 7.75 29.3 6.65 29.3 0.0 29.3 -6.7 28.15 -7.75 M-15.9 -1.0 L-11.6 -1.0 Q-7.85 -1.05 -7.85 -4.9 -7.85 -8.7 -11.6 -8.7 L-15.9 -8.7 -15.9 -1.0 M-21.85 -12.3 L-21.85 -8.7 -30.3 -8.7 -30.3 -2.2 -25.1 -2.2 -25.1 1.4 -30.3 1.4 -30.3 8.7 -21.85 8.7 -21.85 12.3 -33.8 12.3 -33.8 -12.3 -21.85 -12.3 M-54.3 -8.7 L-62.75 -8.7 -62.75 -2.2 -57.55 -2.2 -57.55 1.4 -62.75 1.4 -62.75 8.7 -54.3 8.7 -54.3 12.3 -66.25 12.3 -66.25 -12.3 -54.3 -12.3 -54.3 -8.7 M-35.7 -12.3 L-42.1 12.3 -46.8 12.3 -53.05 -12.3 -49.15 -12.3 -45.6 2.2 -44.35 9.25 -43.05 2.2 -39.5 -12.3 -35.7 -12.3 M-19.45 12.3 L-19.45 -12.3 -12.15 -12.3 Q-8.2 -12.35 -6.4 -10.3 -4.65 -8.3 -4.65 -5.0 -4.65 -1.75 -6.05 0.15 -7.3 1.65 -8.8 1.95 L-8.25 2.65 -7.6 4.1 -6.95 6.35 Q-6.3 10.45 -4.65 12.3 L-8.4 12.3 Q-9.85 11.35 -10.5 6.6 -10.8 4.85 -11.3 3.9 L-12.4 2.55 -15.9 2.55 -15.9 12.3 -19.45 12.3 M13.35 -12.3 L7.0 3.15 7.0 12.3 3.1 12.3 3.1 3.15 -3.25 -12.3 0.6 -12.3 4.45 -1.8 5.05 1.1 5.6 -1.8 9.45 -12.3 13.35 -12.3" fill="#ffcc00" fill-rule="evenodd" stroke="none"/>
  </g>
</svg>
