<?xml version="1.0" encoding="UTF-8" standalone="no"?>
<svg xmlns:xlink="http://www.w3.org/1999/xlink" height="28.1px" width="358.4px" xmlns="http://www.w3.org/2000/svg">
  <g transform="matrix(1.0, 0.0, 0.0, 1.0, 179.2, 14.05)">
    <path d="M178.7 7.95 Q179.2 8.45 179.2 9.25 179.2 10.0 178.7 10.45 178.25 10.95 177.55 10.95 176.65 10.95 176.15 10.45 175.7 10.0 175.7 9.25 175.7 8.45 176.15 7.95 176.65 7.5 177.55 7.5 178.25 7.5 178.7 7.95 M4.35 -13.45 Q7.5 -13.5 9.05 -11.85 10.65 -10.3 10.65 -6.8 10.65 -3.4 8.3 -2.0 L8.4 -2.0 Q11.5 -0.85 11.5 3.45 11.5 7.6 9.9 9.15 8.35 10.75 4.95 10.75 L-2.6 10.75 -2.6 -13.45 4.35 -13.45 M29.8 -13.45 L23.35 1.8 23.35 10.75 20.35 10.75 20.35 1.8 13.85 -13.45 17.0 -13.45 21.8 0.3 26.65 -13.45 29.8 -13.45 M7.95 -6.9 Q7.95 -10.65 3.7 -10.65 L0.1 -10.65 0.1 -3.15 3.8 -3.15 Q7.95 -3.15 7.95 -6.9 M8.85 4.0 Q8.85 -0.15 4.75 -0.35 L0.1 -0.35 0.1 8.0 4.6 8.0 Q8.85 8.0 8.85 4.0 M-14.8 9.55 Q-14.8 10.75 -15.45 12.05 -16.05 13.35 -17.5 14.05 L-17.5 13.4 -16.45 12.5 Q-15.85 11.9 -15.7 10.9 L-16.15 11.05 -16.5 11.05 Q-17.35 11.0 -17.7 10.5 L-18.05 9.3 Q-18.05 8.5 -17.7 7.95 -17.35 7.35 -16.7 7.35 -15.9 7.35 -15.35 7.75 -14.8 8.2 -14.8 9.55" fill="#ffffff" fill-rule="evenodd" stroke="none"/>
    <path d="M-22.55 -13.45 L-22.55 -10.3 -27.35 -10.5 -27.65 -10.5 -30.75 -10.15 Q-31.95 -9.8 -32.6 -8.75 -33.3 -7.8 -33.65 -5.9 L-33.95 -1.05 Q-33.95 2.05 -33.6 3.8 -33.2 5.45 -32.55 6.2 -31.85 6.95 -30.9 7.1 L-28.55 7.25 -26.15 7.0 Q-25.2 6.65 -24.75 6.0 -24.25 5.3 -24.05 4.0 L-23.85 0.7 -23.85 -0.15 -27.6 -0.15 -27.6 -3.75 -20.4 -3.75 -20.4 -1.05 Q-20.4 2.9 -20.9 5.3 -21.45 7.65 -22.5 8.9 -23.6 10.2 -25.15 10.55 L-28.75 10.95 -32.35 10.55 Q-34.0 10.2 -35.1 8.9 -36.25 7.6 -36.85 5.25 -37.4 2.85 -37.4 -1.15 -37.4 -5.6 -36.55 -8.2 -35.65 -10.85 -34.25 -12.1 -32.85 -13.45 -31.1 -13.75 L-27.65 -14.05 -25.0 -13.9 -22.55 -13.45 M-83.2 -13.85 L-83.2 -10.25 -88.75 -10.25 -88.75 10.75 -92.6 10.75 -92.6 -10.25 -98.35 -10.25 -98.35 -13.85 -83.2 -13.85 M-77.05 -13.85 L-77.05 -3.75 -68.95 -3.75 -68.95 -13.85 -65.45 -13.85 -65.45 10.75 -68.95 10.75 -68.95 -0.15 -77.05 -0.15 -77.05 10.75 -80.6 10.75 -80.6 -13.85 -77.05 -13.85 M-99.6 -13.85 L-105.95 1.6 -105.95 10.75 -109.85 10.75 -109.85 1.6 -116.2 -13.85 -112.35 -13.85 -108.5 -3.35 -107.9 -0.45 -107.35 -3.35 -103.5 -13.85 -99.6 -13.85 M-51.5 -13.85 L-44.3 2.55 -43.2 6.7 -43.4 -13.85 -40.25 -13.85 -40.25 10.75 -44.15 10.75 -51.4 -5.6 -52.6 -10.05 -52.5 10.75 -55.75 10.75 -55.75 -13.85 -51.5 -13.85 M-58.75 -13.85 L-58.75 10.75 -62.25 10.75 -62.25 -13.85 -58.75 -13.85 M-167.25 -13.85 L-167.25 -10.25 -175.7 -10.25 -175.7 -3.75 -170.5 -3.75 -170.5 -0.15 -175.7 -0.15 -175.7 7.15 -167.25 7.15 -167.25 10.75 -179.2 10.75 -179.2 -13.85 -167.25 -13.85 M-162.1 -13.85 L-158.55 0.65 -157.3 7.7 -156.0 0.65 -152.45 -13.85 -148.65 -13.85 -155.05 10.75 -159.75 10.75 -166.0 -13.85 -162.1 -13.85 M-119.35 -11.85 Q-117.6 -9.85 -117.6 -6.55 -117.6 -3.3 -119.0 -1.4 -120.25 0.1 -121.75 0.4 L-121.2 1.1 -120.55 2.55 -119.9 4.8 Q-119.25 8.9 -117.6 10.75 L-121.35 10.75 Q-122.8 9.8 -123.45 5.05 -123.75 3.3 -124.25 2.35 -124.8 1.35 -125.35 1.0 L-128.85 1.0 -128.85 10.75 -132.4 10.75 -132.4 -13.85 -125.1 -13.85 Q-121.15 -13.9 -119.35 -11.85 M-134.8 -13.85 L-134.8 -10.25 -143.25 -10.25 -143.25 -3.75 -138.05 -3.75 -138.05 -0.15 -143.25 -0.15 -143.25 7.15 -134.8 7.15 -134.8 10.75 -146.75 10.75 -146.75 -13.85 -134.8 -13.85 M-128.85 -10.25 L-128.85 -2.55 -124.55 -2.55 Q-120.8 -2.6 -120.8 -6.45 -120.8 -10.25 -124.55 -10.25 L-128.85 -10.25" fill="#ffcc00" fill-rule="evenodd" stroke="none"/>
    <path d="M147.7 -13.85 L154.9 2.55 156.0 6.7 155.8 -13.85 158.95 -13.85 158.95 10.75 155.05 10.75 147.8 -5.6 146.6 -10.05 146.7 10.75 143.45 10.75 143.45 -13.85 147.7 -13.85 M174.05 -13.85 L174.05 -10.25 165.6 -10.25 165.6 -3.75 170.8 -3.75 170.8 -0.15 165.6 -0.15 165.6 7.15 174.05 7.15 174.05 10.75 162.1 10.75 162.1 -13.85 174.05 -13.85 M85.95 -13.85 L85.95 -10.25 77.5 -10.25 77.5 -3.75 82.7 -3.75 82.7 -0.15 77.5 -0.15 77.5 7.15 85.95 7.15 85.95 10.75 74.0 10.75 74.0 -13.85 85.95 -13.85 M72.1 -13.85 L65.7 10.75 61.0 10.75 54.75 -13.85 58.65 -13.85 62.2 0.65 63.45 7.7 64.75 0.65 68.3 -13.85 72.1 -13.85 M132.0 -14.0 Q136.4 -14.05 138.5 -12.0 140.55 -10.0 140.55 -1.6 140.55 2.7 140.05 5.2 139.55 7.75 138.45 9.0 137.35 10.3 135.65 10.6 L131.8 10.95 131.55 10.95 127.95 10.6 Q126.3 10.3 125.15 9.0 123.95 7.65 123.4 5.2 122.8 2.7 122.8 -1.65 122.8 -10.05 125.1 -12.05 127.4 -14.05 131.65 -14.0 L132.0 -14.0 M101.4 -11.85 Q103.15 -9.85 103.15 -6.55 103.15 -3.3 101.75 -1.4 100.5 0.1 99.0 0.4 L99.55 1.1 100.2 2.55 100.85 4.8 Q101.5 8.9 103.15 10.75 L99.4 10.75 Q97.95 9.8 97.3 5.05 97.0 3.3 96.5 2.35 L95.4 1.0 91.9 1.0 91.9 10.75 88.35 10.75 88.35 -13.85 95.65 -13.85 Q99.6 -13.9 101.4 -11.85 M108.4 -13.85 L112.25 -3.35 112.85 -0.45 113.4 -3.35 117.25 -13.85 121.15 -13.85 114.8 1.6 114.8 10.75 110.9 10.75 110.9 1.6 104.55 -13.85 108.4 -13.85 M127.45 -9.25 Q126.3 -8.2 126.3 -1.45 126.3 5.2 127.8 6.75 L131.65 7.25 Q134.85 7.25 135.95 6.2 137.1 5.1 137.1 -1.55 137.1 -8.25 135.95 -9.3 134.8 -10.4 131.65 -10.4 128.75 -10.4 127.45 -9.25 M99.95 -6.45 Q99.95 -10.25 96.2 -10.25 L91.9 -10.25 91.9 -2.55 96.2 -2.55 Q99.95 -2.6 99.95 -6.45 M53.5 10.75 L41.55 10.75 41.55 -13.85 53.5 -13.85 53.5 -10.25 45.05 -10.25 45.05 -3.75 50.25 -3.75 50.25 -0.15 45.05 -0.15 45.05 7.15 53.5 7.15 53.5 10.75" fill="#ffcc00" fill-rule="evenodd" stroke="none"/>
  </g>
</svg>
