<?xml version="1.0" encoding="UTF-8" standalone="no"?>
<svg xmlns:xlink="http://www.w3.org/1999/xlink" height="16.15px" width="164.5px" xmlns="http://www.w3.org/2000/svg">
  <g transform="matrix(1.0, 0.0, 0.0, 1.0, 0.0, 0.0)">
    <path d="M144.65 0.05 Q147.55 0.05 148.95 1.35 150.35 2.65 150.35 8.1 150.35 10.85 150.0 12.45 149.65 14.1 148.9 14.9 148.15 15.75 147.05 15.95 L144.5 16.15 144.3 16.15 141.9 15.95 Q140.8 15.75 140.05 14.9 139.25 14.05 138.85 12.45 138.5 10.85 138.5 8.05 138.5 2.6 140.0 1.3 141.55 0.05 144.4 0.05 L144.65 0.05 M140.8 8.15 Q140.8 12.45 141.8 13.45 L144.4 13.8 Q146.5 13.8 147.25 13.1 148.05 12.45 148.05 8.1 148.05 3.8 147.25 3.1 146.5 2.35 144.4 2.35 142.45 2.35 141.6 3.15 140.8 3.8 140.8 8.15 M154.15 3.3 L154.3 16.05 152.25 16.05 152.25 0.15 154.8 0.15 158.25 9.9 158.55 11.65 158.8 9.95 162.35 0.15 164.5 0.15 164.5 16.05 162.6 16.05 162.6 5.45 162.65 4.85 162.6 5.3 158.75 16.05 158.25 16.05 154.4 5.6 154.15 3.3 M64.0 1.3 Q65.55 0.05 68.4 0.05 L68.65 0.05 Q71.55 0.05 72.95 1.35 74.35 2.65 74.35 8.1 74.35 10.85 74.0 12.45 73.65 14.1 72.9 14.9 72.15 15.75 71.05 15.95 L68.5 16.15 68.3 16.15 65.9 15.95 Q64.8 15.75 64.05 14.9 63.25 14.05 62.85 12.45 62.5 10.85 62.5 8.05 62.5 2.6 64.0 1.3 M64.8 8.15 Q64.8 12.45 65.8 13.45 L68.4 13.8 Q70.5 13.8 71.25 13.1 72.05 12.45 72.05 8.1 72.05 3.8 71.25 3.1 70.5 2.35 68.4 2.35 66.45 2.35 65.6 3.15 64.8 3.8 64.8 8.15 M60.85 4.85 Q60.85 7.0 59.9 8.15 59.1 9.15 58.05 9.35 L58.45 9.8 58.85 10.75 59.3 12.15 Q59.75 14.85 60.85 16.05 L58.35 16.05 Q57.35 15.45 56.9 12.35 56.75 11.25 56.4 10.6 L55.65 9.75 53.35 9.75 53.35 16.05 50.95 16.05 50.95 0.15 55.85 0.15 Q58.45 0.15 59.65 1.45 60.85 2.75 60.85 4.85 M56.2 2.5 L53.35 2.5 53.35 7.45 56.2 7.45 Q58.7 7.45 58.7 4.95 58.7 2.5 56.2 2.5 M76.2 0.15 L78.55 0.15 78.55 11.05 78.8 12.4 79.4 13.2 Q79.8 13.55 80.4 13.65 L81.75 13.75 Q83.35 13.75 84.0 13.2 84.7 12.7 84.7 11.05 L84.7 0.15 87.1 0.15 87.1 10.4 86.8 13.05 Q86.45 14.15 85.8 14.85 85.1 15.5 84.1 15.8 L81.75 16.1 Q79.05 16.1 77.6 14.85 76.2 13.55 76.2 10.45 L76.2 0.15 M91.95 0.15 L96.75 10.75 97.5 13.45 97.35 0.15 99.45 0.15 99.45 16.05 96.85 16.05 92.0 5.45 91.2 2.6 91.3 16.05 89.1 16.05 89.1 0.15 91.95 0.15 M103.9 2.45 L103.9 13.7 106.2 13.7 108.05 13.55 Q108.75 13.45 109.1 12.95 L109.65 11.25 109.8 8.1 109.6 4.85 Q109.45 3.65 109.05 3.15 108.65 2.7 107.95 2.55 L106.2 2.45 103.9 2.45 M106.4 0.15 Q109.3 0.15 110.6 1.35 112.15 2.65 112.15 8.1 112.15 10.75 111.8 12.35 111.5 13.9 110.75 14.75 110.0 15.6 108.9 15.85 L106.3 16.05 101.5 16.05 101.5 0.15 106.4 0.15 M116.45 3.85 Q116.45 4.35 117.1 5.15 117.8 6.0 119.45 7.3 120.95 8.5 121.7 9.25 L122.85 10.55 123.25 11.5 123.3 12.3 123.0 13.7 122.15 14.9 Q121.6 15.45 120.75 15.8 L118.75 16.1 118.2 16.1 115.85 16.0 114.7 15.7 114.7 13.4 116.3 13.7 117.75 13.75 118.95 13.7 119.9 13.45 120.55 12.95 120.75 12.25 120.7 11.8 120.25 11.15 119.25 10.1 117.35 8.5 115.4 6.8 114.4 5.6 114.05 4.65 114.0 3.75 Q114.0 2.85 114.45 2.15 114.9 1.4 115.7 0.95 116.5 0.5 117.55 0.25 L119.85 0.0 120.75 0.05 121.8 0.25 121.8 2.6 119.35 2.2 118.25 2.3 Q117.75 2.4 117.3 2.6 116.9 2.8 116.65 3.1 L116.45 3.85 M136.6 2.55 L135.25 2.45 134.25 2.4 133.85 2.4 132.5 2.5 Q132.0 2.6 131.6 3.1 131.25 3.6 131.0 4.75 L130.8 8.1 131.0 11.45 Q131.25 12.6 131.65 13.1 132.05 13.6 132.65 13.7 L134.05 13.8 135.4 13.75 136.6 13.65 136.6 15.9 133.55 16.15 Q131.35 16.15 129.9 14.75 128.45 13.4 128.45 8.05 128.45 2.6 129.95 1.35 131.4 0.05 133.6 0.05 L136.6 0.3 136.6 2.55 M127.0 15.75 Q126.6 16.15 126.0 16.15 125.3 16.15 124.9 15.75 124.5 15.4 124.5 14.8 124.5 14.2 124.9 13.8 125.3 13.4 126.0 13.4 126.6 13.4 127.0 13.8 127.4 14.2 127.4 14.8 127.4 15.4 127.0 15.75 M10.35 0.15 L10.35 16.05 7.75 16.05 2.9 5.45 2.1 2.6 2.2 16.05 0.0 16.05 0.0 0.15 2.85 0.15 7.65 10.75 8.4 13.45 8.25 0.15 10.35 0.15 M14.8 6.7 L18.25 6.7 18.25 9.0 14.8 9.0 14.8 13.7 20.4 13.7 20.4 16.05 12.45 16.05 12.45 0.15 20.4 0.15 20.4 2.5 14.8 2.5 14.8 6.7 M28.6 7.0 L26.4 16.05 24.4 16.05 21.2 0.15 23.65 0.15 25.5 11.65 25.9 8.85 28.1 0.15 29.6 0.15 31.9 9.05 32.2 11.65 34.05 0.15 36.5 0.15 33.35 16.05 31.3 16.05 29.15 6.9 28.9 4.6 28.6 7.0 M42.05 2.55 Q41.25 2.8 40.8 3.45 40.3 4.05 40.1 5.3 L39.9 8.4 Q39.9 10.45 40.15 11.55 40.4 12.6 40.85 13.1 41.3 13.55 41.95 13.7 L43.5 13.8 45.1 13.6 46.05 12.95 46.5 11.7 46.6 9.55 46.6 9.0 44.15 9.0 44.15 6.7 48.95 6.7 48.95 8.4 Q48.95 10.95 48.6 12.5 48.25 14.05 47.55 14.85 46.8 15.7 45.75 15.95 L43.35 16.15 40.95 15.95 Q39.9 15.7 39.1 14.85 38.35 14.0 38.0 12.5 37.6 10.95 37.6 8.35 37.6 5.45 38.15 3.8 38.75 2.1 39.7 1.25 40.65 0.4 41.8 0.25 L44.1 0.0 45.85 0.1 47.5 0.4 47.5 2.45 44.3 2.3 44.1 2.3 42.05 2.55" fill="#ffffff" fill-rule="evenodd" stroke="none"/>
  </g>
</svg>
