<?xml version="1.0" encoding="UTF-8" standalone="no"?>
<svg xmlns:xlink="http://www.w3.org/1999/xlink" height="26.95px" width="26.95px" xmlns="http://www.w3.org/2000/svg">
  <g transform="matrix(1.0, 0.0, 0.0, 1.0, 1.0, 1.0)">
    <path d="M23.5 5.4 L22.0 6.9 18.1 3.0 19.6 1.5 Q22.2 2.8 23.5 5.4 M21.7 7.2 L21.1 7.8 17.2 3.9 17.8 3.3 21.7 7.2 M14.8 6.3 L18.7 10.2 18.25 10.65 14.35 6.75 14.8 6.3 M15.05 6.05 L16.9 4.2 20.8 8.1 18.95 9.95 15.05 6.05 M17.95 10.95 L9.5 19.4 7.45 19.35 7.45 17.55 5.6 17.5 5.6 15.5 14.05 7.05 17.95 10.95 M7.0 18.1 L6.9 18.2 6.9 19.9 8.95 19.95 7.25 21.65 4.4 22.3 2.65 20.55 3.35 17.75 5.05 16.05 5.05 18.05 6.8 18.1 6.9 18.0 6.9 18.1 7.0 18.1 M2.35 22.75 L2.25 22.85 2.25 22.75 2.15 22.75 2.25 22.65 2.65 21.15 3.85 22.35 2.35 22.75" fill="#5faefe" fill-rule="evenodd" stroke="none"/>
    <path d="M24.95 3.0 L24.95 21.95 Q24.95 24.95 21.95 24.95 L3.0 24.95 Q0.0 24.95 0.0 21.95 L0.0 3.0 Q0.0 0.0 3.0 0.0 L21.95 0.0 Q24.95 0.0 24.95 3.0 M21.7 7.2 L17.8 3.3 17.2 3.9 21.1 7.8 21.7 7.2 M23.5 5.4 Q22.2 2.8 19.6 1.5 L18.1 3.0 22.0 6.9 23.5 5.4 M17.95 10.95 L14.05 7.05 5.6 15.5 5.6 17.5 7.45 17.55 7.45 19.35 9.5 19.4 17.95 10.95 M15.05 6.05 L18.95 9.95 20.8 8.1 16.9 4.2 15.05 6.05 M14.8 6.3 L14.35 6.75 18.25 10.65 18.7 10.2 14.8 6.3 M7.0 18.1 L6.9 18.1 6.9 18.0 6.8 18.1 5.05 18.05 5.05 16.05 3.35 17.75 2.65 20.55 4.4 22.3 7.25 21.65 8.95 19.95 6.9 19.9 6.9 18.2 7.0 18.1 M2.35 22.75 L3.85 22.35 2.65 21.15 2.25 22.65 2.15 22.75 2.25 22.75 2.25 22.85 2.35 22.75" fill="#01498f" fill-rule="evenodd" stroke="none"/>
    <path d="M24.95 3.0 Q24.95 0.0 21.95 0.0 L3.0 0.0 Q0.0 0.0 0.0 3.0 L0.0 21.95 Q0.0 24.95 3.0 24.95 L21.95 24.95 Q24.95 24.95 24.95 21.95 L24.95 3.0 Z" fill="none" stroke="#5faefe" stroke-linecap="square" stroke-linejoin="miter-clip" stroke-miterlimit="3.0" stroke-width="1.5"/>
  </g>
</svg>
