<?xml version="1.0" encoding="UTF-8" standalone="no"?>
<svg xmlns:xlink="http://www.w3.org/1999/xlink" height="26.95px" width="26.95px" xmlns="http://www.w3.org/2000/svg">
  <g transform="matrix(1.0, 0.0, 0.0, 1.0, 13.45, 13.45)">
    <path d="M5.65 -9.45 L7.15 -10.95 Q9.75 -9.65 11.05 -7.05 L9.55 -5.55 5.65 -9.45 M4.45 -8.25 L8.35 -4.35 6.5 -2.5 2.6 -6.4 4.45 -8.25 M2.35 -6.15 L6.25 -2.25 5.8 -1.8 1.9 -5.7 2.35 -6.15 M9.25 -5.25 L8.65 -4.65 4.75 -8.55 5.35 -9.15 9.25 -5.25 M5.5 -1.5 L-2.95 6.95 -5.0 6.9 -5.0 5.1 -6.85 5.05 -6.85 3.05 1.6 -5.4 5.5 -1.5 M-5.45 5.65 L-5.55 5.75 -5.55 7.45 -3.5 7.5 -5.2 9.2 -8.05 9.85 -9.8 8.1 -9.1 5.3 -7.4 3.6 -7.4 5.6 -5.65 5.65 -5.55 5.55 -5.55 5.65 -5.45 5.65 M-8.6 9.9 L-10.1 10.3 -10.2 10.4 -10.2 10.3 -10.3 10.3 -10.2 10.2 -9.8 8.7 -8.6 9.9" fill="#ffffff" fill-rule="evenodd" stroke="none"/>
    <path d="M5.65 -9.45 L9.55 -5.55 11.05 -7.05 Q9.75 -9.65 7.15 -10.95 L5.65 -9.45 M2.35 -6.15 L1.9 -5.7 5.8 -1.8 6.25 -2.25 2.35 -6.15 M4.45 -8.25 L2.6 -6.4 6.5 -2.5 8.35 -4.35 4.45 -8.25 M9.25 -5.25 L5.35 -9.15 4.75 -8.55 8.65 -4.65 9.25 -5.25 M5.5 -1.5 L1.6 -5.4 -6.85 3.05 -6.85 5.05 -5.0 5.1 -5.0 6.9 -2.95 6.95 5.5 -1.5 M9.5 -12.45 Q12.5 -12.45 12.5 -9.45 L12.5 9.5 Q12.5 12.5 9.5 12.5 L-9.45 12.5 Q-12.45 12.5 -12.45 9.5 L-12.45 -9.45 Q-12.45 -12.45 -9.45 -12.45 L9.5 -12.45 M-5.45 5.65 L-5.55 5.65 -5.55 5.55 -5.65 5.65 -7.4 5.6 -7.4 3.6 -9.1 5.3 -9.8 8.1 -8.05 9.85 -5.2 9.2 -3.5 7.5 -5.55 7.45 -5.55 5.75 -5.45 5.65 M-8.6 9.9 L-9.8 8.7 -10.2 10.2 -10.3 10.3 -10.2 10.3 -10.2 10.4 -10.1 10.3 -8.6 9.9" fill="#5faefe" fill-rule="evenodd" stroke="none"/>
    <path d="M9.5 -12.45 L-9.45 -12.45 Q-12.45 -12.45 -12.45 -9.45 L-12.45 9.5 Q-12.45 12.5 -9.45 12.5 L9.5 12.5 Q12.5 12.5 12.5 9.5 L12.5 -9.45 Q12.5 -12.45 9.5 -12.45 Z" fill="none" stroke="#ffffff" stroke-linecap="square" stroke-linejoin="miter-clip" stroke-miterlimit="3.0" stroke-width="1.5"/>
  </g>
</svg>
