<?xml version="1.0" encoding="UTF-8" standalone="no"?>
<svg xmlns:xlink="http://www.w3.org/1999/xlink" height="26.95px" width="26.95px" xmlns="http://www.w3.org/2000/svg">
  <g transform="matrix(1.0, 0.0, 0.0, 1.0, 13.45, 13.45)">
    <path d="M2.75 -0.5 L8.9 -9.05 3.2 -9.05 -0.1 -4.0 -3.35 -9.05 -9.3 -9.05 -2.95 -0.3 -9.5 9.15 -3.8 9.15 -0.1 3.45 3.65 9.15 9.55 9.15 2.75 -0.5 M9.5 -12.45 Q12.5 -12.45 12.5 -9.45 L12.5 9.5 Q12.5 12.5 9.5 12.5 L-9.45 12.5 Q-12.45 12.5 -12.45 9.5 L-12.45 -9.45 Q-12.45 -12.45 -9.45 -12.45 L9.5 -12.45" fill="#01498f" fill-rule="evenodd" stroke="none"/>
    <path d="M2.75 -0.5 L9.55 9.15 3.65 9.15 -0.1 3.45 -3.8 9.15 -9.5 9.15 -2.95 -0.3 -9.3 -9.05 -3.35 -9.05 -0.1 -4.0 3.2 -9.05 8.9 -9.05 2.75 -0.5" fill="#5faefe" fill-rule="evenodd" stroke="none"/>
    <path d="M9.5 -12.45 L-9.45 -12.45 Q-12.45 -12.45 -12.45 -9.45 L-12.45 9.5 Q-12.45 12.5 -9.45 12.5 L9.5 12.5 Q12.5 12.5 12.5 9.5 L12.5 -9.45 Q12.5 -12.45 9.5 -12.45 Z" fill="none" stroke="#5faefe" stroke-linecap="square" stroke-linejoin="miter-clip" stroke-miterlimit="3.0" stroke-width="1.5"/>
  </g>
</svg>
