<?xml version="1.0" encoding="UTF-8" standalone="no"?>
<svg xmlns:xlink="http://www.w3.org/1999/xlink" height="26.95px" width="26.95px" xmlns="http://www.w3.org/2000/svg">
  <g transform="matrix(1.0, 0.0, 0.0, 1.0, 13.45, 13.45)">
    <path d="M9.5 -12.45 Q12.5 -12.45 12.5 -9.45 L12.5 9.5 Q12.5 12.5 9.5 12.5 L-9.45 12.5 Q-12.45 12.5 -12.45 9.5 L-12.45 -9.45 Q-12.45 -12.45 -9.45 -12.45 L9.5 -12.45 M4.25 -0.65 L4.55 0.9 Q4.55 2.75 3.25 4.05 1.9 5.4 0.05 5.4 -1.8 5.4 -3.15 4.05 -4.45 2.75 -4.45 0.9 L-4.15 -0.65 Q-2.3 -1.45 0.05 -1.45 2.35 -1.45 4.25 -0.65 M7.55 -3.45 Q4.45 -5.75 0.15 -5.75 -4.15 -5.75 -7.2 -3.45 -9.15 -2.0 -9.85 -0.1 0.15 -6.95 10.2 -0.1 9.5 -2.0 7.55 -3.45 M-10.1 1.05 Q-9.6 3.45 -7.2 5.3 -4.15 7.6 0.15 7.6 4.45 7.6 7.5 5.3 9.95 3.45 10.45 1.05 L10.5 1.05 10.5 0.85 Q-0.05 -4.85 -10.15 0.85 L-10.15 0.9 -10.15 1.05 -10.1 1.05" fill="#01498f" fill-rule="evenodd" stroke="none"/>
    <path d="M4.25 -0.65 Q2.35 -1.45 0.05 -1.45 -2.3 -1.45 -4.15 -0.65 L-4.45 0.9 Q-4.45 2.75 -3.15 4.05 -1.8 5.4 0.05 5.4 1.9 5.4 3.25 4.05 4.55 2.75 4.55 0.9 L4.25 -0.65 M7.55 -3.45 Q9.5 -2.0 10.2 -0.1 0.15 -6.95 -9.85 -0.1 -9.15 -2.0 -7.2 -3.45 -4.15 -5.75 0.15 -5.75 4.45 -5.75 7.55 -3.45 M-10.15 0.85 Q-0.05 -4.85 10.5 0.85 L10.5 1.05 10.45 1.05 Q9.95 3.45 7.5 5.3 4.45 7.6 0.15 7.6 -4.15 7.6 -7.2 5.3 -9.6 3.45 -10.1 1.05 L-10.15 0.85" fill="#5faefe" fill-rule="evenodd" stroke="none"/>
    <path d="M-10.15 0.85 L-10.1 1.05 -10.15 1.05 -10.15 0.9 -10.15 0.85" fill="#ffffff" fill-rule="evenodd" stroke="none"/>
    <path d="M9.5 -12.45 L-9.45 -12.45 Q-12.45 -12.45 -12.45 -9.45 L-12.45 9.5 Q-12.45 12.5 -9.45 12.5 L9.5 12.5 Q12.5 12.5 12.5 9.5 L12.5 -9.45 Q12.5 -12.45 9.5 -12.45 Z" fill="none" stroke="#5faefe" stroke-linecap="square" stroke-linejoin="miter-clip" stroke-miterlimit="3.0" stroke-width="1.5"/>
  </g>
</svg>
