<?xml version="1.0" encoding="UTF-8" standalone="no"?>
<svg xmlns:xlink="http://www.w3.org/1999/xlink" height="26.95px" width="26.95px" xmlns="http://www.w3.org/2000/svg">
  <g transform="matrix(1.0, 0.0, 0.0, 1.0, 13.45, 13.5)">
    <path d="M12.5 -9.5 L12.5 9.45 Q12.5 12.45 9.5 12.45 L-9.45 12.45 Q-12.45 12.45 -12.45 9.45 L-12.45 -9.5 Q-12.45 -12.5 -9.45 -12.5 L9.5 -12.5 Q12.5 -12.5 12.5 -9.5 M7.5 -3.55 Q4.45 -5.85 0.15 -5.85 -4.15 -5.85 -7.2 -3.55 -9.6 -1.7 -10.1 0.7 L-10.15 0.9 Q-0.05 6.6 10.5 0.9 L10.5 0.7 10.45 0.7 Q9.95 -1.7 7.5 -3.55 M7.55 5.2 Q9.5 3.75 10.2 1.85 0.15 8.7 -9.85 1.85 -9.15 3.75 -7.2 5.2 -4.15 7.5 0.15 7.5 4.45 7.5 7.55 5.2 M-10.1 -1.05 L-10.15 -1.05 -10.15 -0.9 -10.15 -0.85 -10.1 -1.05" fill="#01498f" fill-rule="evenodd" stroke="none"/>
    <path d="M7.5 -3.55 Q9.95 -1.7 10.45 0.7 L10.5 0.7 10.5 0.9 Q-0.05 6.6 -10.15 0.9 L-10.1 0.7 Q-9.6 -1.7 -7.2 -3.55 -4.15 -5.85 0.15 -5.85 4.45 -5.85 7.5 -3.55 M7.55 5.2 Q4.45 7.5 0.15 7.5 -4.15 7.5 -7.2 5.2 -9.15 3.75 -9.85 1.85 0.15 8.7 10.2 1.85 9.5 3.75 7.55 5.2" fill="#5faefe" fill-rule="evenodd" stroke="none"/>
    <path d="M-10.1 -1.05 L-10.15 -0.85 -10.15 -0.9 -10.15 -1.05 -10.1 -1.05" fill="#ffffff" fill-rule="evenodd" stroke="none"/>
    <path d="M12.5 -9.5 L12.5 9.45 Q12.5 12.45 9.5 12.45 L-9.45 12.45 Q-12.45 12.45 -12.45 9.45 L-12.45 -9.5 Q-12.45 -12.5 -9.45 -12.5 L9.5 -12.5 Q12.5 -12.5 12.5 -9.5 Z" fill="none" stroke="#5faefe" stroke-linecap="square" stroke-linejoin="miter-clip" stroke-miterlimit="3.0" stroke-width="1.5"/>
  </g>
</svg>
