<?xml version="1.0" encoding="UTF-8" standalone="no"?>
<svg xmlns:xlink="http://www.w3.org/1999/xlink" height="373.8px" width="281.6px" xmlns="http://www.w3.org/2000/svg">
  <g transform="matrix(1.0, 0.0, 0.0, 1.0, -28.75, 1.25)">
    <path d="M134.2 47.4 L270.1 47.4 Q275.45 47.4 280.15 49.15 287.1 51.7 292.7 58.15 302.15 68.95 302.15 84.2 L302.15 293.05 Q302.15 303.7 297.55 312.15 295.55 315.8 292.7 319.05 287.1 325.55 280.15 328.1 275.45 329.85 270.1 329.85 L134.2 329.85 69.05 329.85 62.9 329.3 Q53.55 327.3 46.35 319.05 36.95 308.3 36.95 293.05 L36.95 84.2 Q36.95 68.95 46.35 58.15 L49.55 54.9 Q55.55 49.6 62.9 48.0 L69.05 47.4 134.2 47.4" fill="#000000" fill-rule="evenodd" stroke="none"/>
    <path d="M134.2 0.0 L257.95 0.0 Q269.55 0.0 277.8 9.55 286.05 19.1 286.05 32.6 L286.05 41.35 Q293.35 44.1 299.25 50.9 309.1 62.3 309.1 78.4 L309.1 299.1 Q309.1 308.85 305.5 316.85 303.15 322.05 299.25 326.55 293.35 333.4 286.05 336.15 L286.05 338.7 Q286.05 352.2 277.8 361.75 269.55 371.3 257.9 371.3 L134.2 371.3 85.25 371.3 Q73.65 371.3 65.4 361.75 57.15 352.2 57.15 338.7 L57.15 337.35 Q47.35 335.25 39.85 326.55 30.0 315.2 30.0 299.1 L30.0 78.4 Q30.0 62.3 39.85 50.9 41.45 49.0 43.2 47.45 49.45 41.8 57.15 40.15 L57.15 32.6 Q57.15 19.1 65.4 9.55 73.65 0.0 85.3 0.0 L134.2 0.0 M134.2 329.85 L270.1 329.85 Q275.45 329.85 280.15 328.1 287.1 325.55 292.7 319.05 295.55 315.8 297.55 312.15 302.15 303.7 302.15 293.05 L302.15 84.2 Q302.15 68.95 292.7 58.15 287.1 51.7 280.15 49.15 275.45 47.4 270.1 47.4 L134.2 47.4 69.05 47.4 62.9 48.0 Q55.55 49.6 49.55 54.9 L46.35 58.15 Q36.95 68.95 36.95 84.2 L36.95 293.05 Q36.95 308.3 46.35 319.05 53.55 327.3 62.9 329.3 L69.05 329.85 134.2 329.85" fill="url(#gradient0)" fill-rule="evenodd" stroke="none"/>
    <path d="M134.2 371.3 L257.9 371.3 Q269.55 371.3 277.8 361.75 286.05 352.2 286.05 338.7 L286.05 336.15 Q293.35 333.4 299.25 326.55 303.15 322.05 305.5 316.85 309.1 308.85 309.1 299.1 L309.1 78.4 Q309.1 62.3 299.25 50.9 293.35 44.1 286.05 41.35 L286.05 32.6 Q286.05 19.1 277.8 9.55 269.55 0.0 257.95 0.0 L134.2 0.0" fill="none" stroke="url(#gradient1)" stroke-linecap="round" stroke-linejoin="round" stroke-width="2.5"/>
    <path d="M134.2 329.85 L270.1 329.85 Q275.45 329.85 280.15 328.1 287.1 325.55 292.7 319.05 295.55 315.8 297.55 312.15 302.15 303.7 302.15 293.05 L302.15 84.2 Q302.15 68.95 292.7 58.15 287.1 51.7 280.15 49.15 275.45 47.4 270.1 47.4 L134.2 47.4" fill="none" stroke="url(#gradient2)" stroke-linecap="round" stroke-linejoin="round" stroke-width="2.5"/>
    <path d="M134.2 0.0 L85.3 0.0 Q73.65 0.0 65.4 9.55 57.15 19.1 57.15 32.6 L57.15 40.15 Q49.45 41.8 43.2 47.45 41.45 49.0 39.85 50.9 30.0 62.3 30.0 78.4 L30.0 299.1 Q30.0 315.2 39.85 326.55 47.35 335.25 57.15 337.35 L57.15 338.7 Q57.15 352.2 65.4 361.75 73.65 371.3 85.25 371.3 L134.2 371.3" fill="none" stroke="url(#gradient3)" stroke-linecap="round" stroke-linejoin="round" stroke-width="2.5"/>
    <path d="M134.2 47.4 L69.05 47.4 62.9 48.0 Q55.55 49.6 49.55 54.9 L46.35 58.15 Q36.95 68.95 36.95 84.2 L36.95 293.05 Q36.95 308.3 46.35 319.05 53.55 327.3 62.9 329.3 L69.05 329.85 134.2 329.85" fill="none" stroke="url(#gradient4)" stroke-linecap="round" stroke-linejoin="round" stroke-width="2.5"/>
    <path d="M208.65 333.05 Q215.85 333.8 222.95 332.0 L228.2 330.8 267.6 330.8 268.15 331.85 Q267.55 333.95 265.55 333.95 241.25 334.95 221.15 345.45 L218.45 350.75 Q219.2 352.9 220.4 354.8 221.35 356.25 222.75 357.45 L251.55 364.35 252.5 365.4 Q262.9 365.35 271.9 359.9 277.15 356.7 281.15 351.85 280.85 354.25 279.65 356.15 271.45 369.6 254.9 371.0 242.8 372.0 231.4 368.5 L237.6 367.35 214.15 361.6 213.4 360.15 Q212.0 360.15 210.65 359.5 209.25 359.0 208.05 358.15 206.7 357.05 205.85 355.6 L205.3 354.55 198.4 349.3 198.25 344.95 197.0 343.55 197.2 341.15 Q200.45 339.3 203.85 337.8 211.0 334.65 218.75 334.4 L208.65 333.05" fill="url(#gradient5)" fill-rule="evenodd" stroke="none"/>
    <path d="M76.8 330.8 L104.55 330.8 109.35 331.1 110.75 331.15 111.25 331.25 115.1 331.5 116.3 330.8 172.3 330.8 174.2 332.3 178.5 331.65 185.6 330.8 205.1 330.8 Q179.0 334.1 153.35 340.75 145.35 342.85 137.75 346.0 130.45 349.1 126.45 355.85 L129.3 360.5 159.05 365.3 159.6 366.05 192.45 370.4 162.6 369.15 Q129.05 367.85 95.65 369.75 L79.2 369.75 Q77.3 368.95 75.25 368.35 L73.9 367.55 73.15 366.75 69.95 364.65 Q75.45 363.15 81.55 360.95 104.75 352.4 111.35 349.05 120.15 344.65 127.85 338.4 120.7 335.35 112.75 334.6 L89.5 333.85 76.5 330.85 76.8 330.8" fill="url(#gradient6)" fill-rule="evenodd" stroke="none"/>
    <path d="M203.15 1.25 Q220.1 2.1 238.65 0.5 L254.45 2.0 Q239.85 11.05 224.7 19.6 213.75 25.7 201.2 27.35 L177.0 31.55 150.6 35.9 150.6 35.0 Q169.9 31.2 188.65 24.95 199.45 21.3 208.7 15.1 L209.6 14.05 211.1 10.7 211.1 10.5 209.35 8.75 Q206.15 5.9 202.25 4.1 200.0 3.05 197.45 2.85 198.6 1.05 207.35 1.6 L203.15 1.25 M175.1 13.35 Q177.15 19.55 170.5 21.65 156.55 26.2 142.45 30.0 128.25 33.75 113.95 36.75 L94.8 40.8 Q142.65 39.25 185.95 44.95 L193.95 46.05 Q176.2 44.85 162.95 45.5 L86.5 45.55 80.95 45.5 64.8 45.5 62.65 45.55 61.5 45.55 Q66.75 41.4 72.5 38.0 83.0 31.8 94.4 27.6 L121.0 20.05 Q123.3 19.45 125.45 18.25 L128.0 16.05 128.7 15.2 129.85 13.4 130.3 12.45 127.2 9.6 Q102.1 5.65 75.15 2.9 L78.25 1.5 170.4 1.55 Q166.5 3.8 156.9 2.8 L171.4 8.0 175.1 13.35" fill="url(#gradient7)" fill-rule="evenodd" stroke="none"/>
  </g>
  <defs>
    <linearGradient gradientTransform="matrix(0.152, -0.152, 0.1327, 0.1327, 253.2, 240.25)" gradientUnits="userSpaceOnUse" id="gradient0" spreadMethod="pad" x1="-819.2" x2="819.2">
      <stop offset="0.06274509803921569" stop-color="#555555"/>
      <stop offset="0.16470588235294117" stop-color="#888888"/>
      <stop offset="0.32941176470588235" stop-color="#555555"/>
      <stop offset="0.4549019607843137" stop-color="#444444"/>
      <stop offset="0.5490196078431373" stop-color="#444444"/>
      <stop offset="0.6274509803921569" stop-color="#555555"/>
      <stop offset="0.8666666666666667" stop-color="#777777"/>
      <stop offset="0.9333333333333333" stop-color="#4d4d4d"/>
      <stop offset="1.0" stop-color="#555555"/>
    </linearGradient>
    <linearGradient gradientTransform="matrix(0.0058, -0.005, 0.148, 0.1729, 156.1, 156.7)" gradientUnits="userSpaceOnUse" id="gradient1" spreadMethod="pad" x1="-819.2" x2="819.2">
      <stop offset="0.0" stop-color="#262626"/>
      <stop offset="1.0" stop-color="#999999"/>
    </linearGradient>
    <linearGradient gradientTransform="matrix(-0.0079, 0.0079, -0.123, -0.123, 154.6, 188.7)" gradientUnits="userSpaceOnUse" id="gradient2" spreadMethod="pad" x1="-819.2" x2="819.2">
      <stop offset="0.0" stop-color="#262626"/>
      <stop offset="1.0" stop-color="#999999"/>
    </linearGradient>
    <linearGradient gradientTransform="matrix(0.0058, -0.005, 0.148, 0.1729, 186.1, 156.7)" gradientUnits="userSpaceOnUse" id="gradient3" spreadMethod="pad" x1="-819.2" x2="819.2">
      <stop offset="0.0" stop-color="#262626"/>
      <stop offset="1.0" stop-color="#999999"/>
    </linearGradient>
    <linearGradient gradientTransform="matrix(-0.0079, 0.0079, -0.123, -0.123, 184.6, 188.7)" gradientUnits="userSpaceOnUse" id="gradient4" spreadMethod="pad" x1="-819.2" x2="819.2">
      <stop offset="0.0" stop-color="#262626"/>
      <stop offset="1.0" stop-color="#999999"/>
    </linearGradient>
    <radialGradient cx="0" cy="0" gradientTransform="matrix(1.0, 0.0, 0.0, 1.0, 0.0, 0.0)" gradientUnits="userSpaceOnUse" id="gradient5" r="819.2" spreadMethod="pad">
      <stop offset="0.3843137254901961" stop-color="#959595" stop-opacity="0.16078432"/>
      <stop offset="1.0" stop-color="#7b7b7b"/>
    </radialGradient>
    <radialGradient cx="0" cy="0" gradientTransform="matrix(0.3066, 0.0, 0.0, 0.0343, 168.8, 348.8)" gradientUnits="userSpaceOnUse" id="gradient6" r="819.2" spreadMethod="pad">
      <stop offset="0.3843137254901961" stop-color="#959595" stop-opacity="0.16078432"/>
      <stop offset="1.0" stop-color="#7b7b7b"/>
    </radialGradient>
    <radialGradient cx="0" cy="0" gradientTransform="matrix(0.2568, 0.0, 0.0, 0.03, 157.6, 22.4)" gradientUnits="userSpaceOnUse" id="gradient7" r="819.2" spreadMethod="pad">
      <stop offset="0.3843137254901961" stop-color="#959595" stop-opacity="0.16078432"/>
      <stop offset="1.0" stop-color="#7b7b7b"/>
    </radialGradient>
  </defs>
</svg>
