<?xml version="1.0" encoding="UTF-8" standalone="no"?>
<svg xmlns:xlink="http://www.w3.org/1999/xlink" height="371.3px" width="279.1px" xmlns="http://www.w3.org/2000/svg">
  <g transform="matrix(1.0, 0.0, 0.0, 1.0, -30.0, 0.0)">
    <path d="M147.2 0.0 L257.95 0.0 Q269.55 0.0 277.8 9.55 286.05 19.1 286.05 32.6 L286.05 41.35 Q293.35 44.1 299.25 50.9 309.1 62.3 309.1 78.4 L309.1 299.1 Q309.1 308.85 305.5 316.85 303.15 322.05 299.25 326.55 293.35 333.4 286.05 336.15 L286.05 338.7 Q286.05 352.2 277.8 361.75 269.55 371.3 257.9 371.3 L147.2 371.3 147.2 329.85 270.1 329.85 Q275.45 329.85 280.15 328.1 287.1 325.55 292.7 319.05 295.55 315.8 297.55 312.15 302.15 303.7 302.15 293.05 L302.15 84.2 Q302.15 68.95 292.7 58.15 287.1 51.7 280.15 49.15 275.45 47.4 270.1 47.4 L147.2 47.4 147.2 0.0" fill="url(#gradient0)" fill-rule="evenodd" stroke="none"/>
    <path d="M147.2 0.0 L147.2 47.4 69.05 47.4 62.9 48.0 Q55.55 49.6 49.55 54.9 L46.35 58.15 Q36.95 68.95 36.95 84.2 L36.95 293.05 Q36.95 308.3 46.35 319.05 53.55 327.3 62.9 329.3 L69.05 329.85 147.2 329.85 147.2 371.3 85.25 371.3 Q73.65 371.3 65.4 361.75 57.15 352.2 57.15 338.7 L57.15 337.35 Q47.35 335.25 39.85 326.55 30.0 315.2 30.0 299.1 L30.0 78.4 Q30.0 62.3 39.85 50.9 41.45 49.0 43.2 47.45 49.45 41.8 57.15 40.15 L57.15 32.6 Q57.15 19.1 65.4 9.55 73.65 0.0 85.3 0.0 L147.2 0.0" fill="url(#gradient1)" fill-rule="evenodd" stroke="none"/>
  </g>
  <defs>
    <linearGradient gradientTransform="matrix(0.152, -0.152, 0.1327, 0.1327, 253.2, 240.25)" gradientUnits="userSpaceOnUse" id="gradient0" spreadMethod="pad" x1="-819.2" x2="819.2">
      <stop offset="0.06274509803921569" stop-color="#555555"/>
      <stop offset="0.16470588235294117" stop-color="#888888"/>
      <stop offset="0.32941176470588235" stop-color="#555555"/>
      <stop offset="0.4549019607843137" stop-color="#444444"/>
      <stop offset="0.5490196078431373" stop-color="#444444"/>
      <stop offset="0.6274509803921569" stop-color="#555555"/>
      <stop offset="0.8666666666666667" stop-color="#777777"/>
      <stop offset="0.9333333333333333" stop-color="#4d4d4d"/>
      <stop offset="1.0" stop-color="#555555"/>
    </linearGradient>
    <linearGradient gradientTransform="matrix(0.152, -0.152, 0.1327, 0.1327, 283.2, 240.25)" gradientUnits="userSpaceOnUse" id="gradient1" spreadMethod="pad" x1="-819.2" x2="819.2">
      <stop offset="0.06274509803921569" stop-color="#555555"/>
      <stop offset="0.16470588235294117" stop-color="#888888"/>
      <stop offset="0.32941176470588235" stop-color="#555555"/>
      <stop offset="0.4549019607843137" stop-color="#444444"/>
      <stop offset="0.5490196078431373" stop-color="#444444"/>
      <stop offset="0.6274509803921569" stop-color="#555555"/>
      <stop offset="0.8666666666666667" stop-color="#777777"/>
      <stop offset="0.9333333333333333" stop-color="#4d4d4d"/>
      <stop offset="1.0" stop-color="#555555"/>
    </linearGradient>
  </defs>
</svg>
