<?xml version="1.0" encoding="UTF-8" standalone="no"?>
<svg xmlns:xlink="http://www.w3.org/1999/xlink" height="282.45px" width="263.15px" xmlns="http://www.w3.org/2000/svg">
  <g transform="matrix(1.0, 0.0, 0.0, 1.0, 131.55, 0.0)">
    <path d="M123.2 10.75 Q131.6 21.55 131.6 36.8 L131.6 245.65 Q131.6 260.9 123.2 271.65 118.2 278.15 112.0 280.7 107.8 282.45 103.05 282.45 L-102.95 282.45 -108.4 281.9 Q-116.75 279.9 -123.15 271.65 -131.55 260.9 -131.55 245.65 L-131.55 36.8 Q-131.55 21.55 -123.15 10.75 -121.8 8.95 -120.3 7.5 -114.95 2.2 -108.4 0.6 L-102.95 0.0 103.05 0.0 Q107.8 0.0 112.0 1.75 118.2 4.3 123.2 10.75" fill="#cc0066" fill-rule="evenodd" stroke="none"/>
  </g>
</svg>
