<?xml version="1.0" encoding="UTF-8" standalone="no"?>
<svg xmlns:xlink="http://www.w3.org/1999/xlink" height="282.45px" width="295.2px" xmlns="http://www.w3.org/2000/svg">
  <g transform="matrix(1.0, 0.0, 0.0, 1.0, 147.6, 0.0)">
    <path d="M125.6 1.75 Q132.55 4.3 138.15 10.75 147.6 21.55 147.6 36.8 L147.6 245.65 Q147.6 260.9 138.15 271.65 132.55 278.15 125.6 280.7 120.9 282.45 115.55 282.45 L-115.5 282.45 -121.65 281.9 Q-131.0 279.9 -138.2 271.65 -147.6 260.9 -147.6 245.65 L-147.6 36.8 Q-147.6 21.55 -138.2 10.75 L-135.0 7.5 Q-129.0 2.2 -121.65 0.6 L-115.5 0.0 115.55 0.0 Q120.9 0.0 125.6 1.75" fill="url(#gradient0)" fill-rule="evenodd" stroke="none"/>
  </g>
  <defs>
    <radialGradient cx="0" cy="0" gradientTransform="matrix(0.1849, 0.0, 0.0, 0.2272, 9.0, 146.0)" gradientUnits="userSpaceOnUse" id="gradient0" r="819.2" spreadMethod="pad">
      <stop offset="0.0" stop-color="#2b2b2b"/>
      <stop offset="1.0" stop-color="#000000"/>
    </radialGradient>
  </defs>
</svg>
