<?xml version="1.0" encoding="UTF-8" standalone="no"?>
<svg xmlns:xlink="http://www.w3.org/1999/xlink" height="38.35px" width="232.5px" xmlns="http://www.w3.org/2000/svg">
  <g transform="matrix(1.0, 0.0, 0.0, 1.0, -8.1, -18.0)">
    <path d="M37.9 44.85 Q36.45 44.6 35.75 45.9 L35.75 49.8 36.15 50.25 Q37.4 51.25 38.8 50.6 L39.0 50.25 Q40.6 47.25 38.3 44.95 L37.9 44.85 M35.35 43.65 L35.65 44.3 Q39.35 42.4 40.45 46.05 41.85 50.85 37.8 51.75 36.6 52.15 35.75 51.45 L35.75 55.85 34.5 55.85 34.5 43.65 35.35 43.65 M25.6 48.45 L20.55 48.45 Q20.6 49.3 21.15 49.9 22.45 51.4 24.65 50.6 L24.45 52.05 24.1 52.1 Q17.1 51.65 20.2 44.45 20.7 44.1 21.3 43.95 26.2 42.95 25.6 48.45 M27.7 44.45 Q28.2 44.1 28.8 44.0 33.75 42.95 33.1 48.45 L28.05 48.45 Q28.05 49.3 28.6 49.95 30.0 51.4 32.15 50.6 L31.95 52.05 31.6 52.1 Q24.7 51.65 27.7 44.45 M28.95 44.95 L28.4 45.55 28.05 47.55 31.9 47.55 31.1 44.95 28.95 44.95 M21.45 44.95 L20.55 47.55 24.4 47.55 23.85 45.2 23.55 45.05 21.45 44.95 M17.95 41.05 L13.85 45.65 18.25 52.0 16.85 52.0 12.65 45.85 12.65 52.0 11.4 52.0 11.4 41.05 12.65 41.05 12.65 45.45 16.55 41.05 17.95 41.05 M9.55 40.1 L10.15 40.1 9.55 41.7 Q8.55 44.4 8.65 47.5 8.65 51.55 10.2 55.3 L9.55 55.3 Q6.7 47.65 9.55 40.1 M76.9 45.15 L76.6 44.95 Q74.9 44.3 73.6 45.6 L73.6 49.8 Q74.9 51.35 76.7 50.55 78.15 48.1 76.9 45.15 M73.65 40.65 L73.65 44.3 Q76.3 42.4 77.8 45.1 79.5 48.25 77.25 50.9 75.65 52.9 73.3 51.3 L72.4 52.0 72.4 40.95 73.65 40.65 M63.4 45.1 L63.35 45.95 64.6 47.25 Q65.45 48.0 65.75 48.95 66.95 53.1 61.9 52.0 L62.15 50.9 64.8 50.85 65.35 50.0 Q64.95 48.85 64.05 48.15 59.9 44.65 64.85 43.55 L66.0 43.65 66.0 44.8 64.7 44.65 Q64.0 44.5 63.4 45.1 M59.05 43.65 L60.3 43.65 60.3 52.0 59.05 52.0 59.05 43.65 M51.15 40.95 L52.4 40.65 52.4 44.25 53.35 43.7 Q56.4 42.8 56.85 45.6 57.35 48.75 57.35 52.0 L56.15 52.0 56.1 46.5 55.95 45.65 55.65 45.1 52.85 45.1 52.55 45.65 52.4 46.45 52.35 52.0 51.15 52.0 51.15 40.95 M58.9 41.4 Q58.9 41.1 59.15 40.85 L59.75 40.65 60.3 40.85 60.55 41.4 60.3 41.95 59.75 42.2 59.15 41.95 Q58.9 41.75 58.9 41.4 M47.05 41.1 L48.25 40.8 48.25 43.65 49.7 43.65 49.7 44.5 48.25 44.5 Q48.0 47.4 48.6 49.95 48.85 51.0 50.0 50.85 L49.95 52.05 Q48.85 52.25 48.2 51.3 46.0 48.05 47.05 44.5 L46.15 44.5 46.15 43.65 47.05 43.65 47.05 41.1 M48.95 18.0 L50.75 18.0 54.2 28.2 57.75 18.0 59.2 18.0 59.2 31.55 58.05 31.55 58.15 20.25 54.15 31.55 50.1 20.25 50.2 31.55 48.95 31.55 48.95 18.0 M76.95 22.5 Q76.2 18.3 71.25 19.55 L71.25 30.0 73.55 30.0 Q75.0 30.15 76.15 29.5 77.6 26.2 76.95 22.5 M73.75 18.0 Q75.8 17.9 77.35 19.1 79.7 24.2 77.8 29.6 77.4 30.65 76.7 30.95 73.35 32.0 69.7 31.55 L69.7 18.0 73.75 18.0 M62.95 19.55 L62.95 23.8 66.0 23.8 66.0 25.35 62.95 25.35 62.95 30.0 67.9 30.0 67.9 31.55 61.4 31.55 61.4 18.0 67.9 18.0 67.9 19.55 62.95 19.55 M112.65 41.1 L113.85 40.8 113.85 43.65 115.3 43.65 115.3 44.5 113.85 44.5 Q113.85 47.4 114.3 50.0 114.45 51.0 115.6 50.85 L115.55 52.05 Q114.35 52.25 113.75 51.35 111.5 48.05 112.65 44.5 L111.75 44.5 111.75 43.65 112.65 43.65 112.65 41.1 M116.75 40.95 L118.0 40.65 118.0 44.25 118.45 43.95 Q121.3 42.6 122.8 45.0 L122.95 52.0 121.75 52.0 Q122.95 48.45 121.25 45.1 L118.45 45.1 Q117.05 48.05 117.95 52.0 L116.75 52.0 116.75 40.95 M109.1 43.65 L110.35 43.65 110.35 52.0 109.1 52.0 109.1 43.65 M110.35 40.85 L110.6 41.4 110.35 41.95 109.8 42.2 109.2 41.95 Q108.95 41.75 108.95 41.4 108.95 41.1 109.2 40.85 L109.8 40.65 110.35 40.85 M97.95 43.65 L99.2 43.65 100.65 50.4 102.45 43.65 103.75 43.65 105.35 50.4 106.85 43.65 108.0 43.65 105.9 52.0 104.85 52.0 103.1 45.0 101.15 52.0 100.05 52.0 97.95 43.65 M85.95 45.65 Q86.35 47.3 86.25 49.0 86.1 51.45 83.8 51.5 78.85 52.1 80.5 46.8 82.3 40.85 85.95 45.65 M87.15 43.65 L88.4 43.65 90.05 47.4 91.7 43.65 92.9 43.65 90.7 47.8 92.9 52.0 91.6 52.0 90.0 48.2 88.3 52.0 87.15 52.0 89.35 47.8 87.15 43.65 M83.05 44.7 Q82.25 44.7 81.7 45.6 81.1 46.5 81.1 47.75 81.1 49.0 81.7 49.9 82.25 50.8 83.05 50.8 83.85 50.8 84.45 49.9 85.0 49.0 85.0 47.75 85.0 46.5 84.45 45.6 83.85 44.7 83.05 44.7 M82.55 27.4 L86.9 27.4 84.75 18.5 82.55 27.4 M90.9 18.0 L92.45 18.0 92.45 30.0 97.85 30.0 97.85 31.55 90.9 31.55 90.9 18.0 M83.4 18.0 L85.9 18.0 89.5 31.55 87.85 31.55 87.2 28.8 82.15 28.8 81.55 31.55 79.9 31.55 83.4 18.0 M108.85 18.0 Q110.3 18.0 111.2 18.9 115.05 22.75 110.45 25.4 L108.65 26.0 106.35 26.0 106.35 31.55 104.8 31.55 104.8 18.0 108.85 18.0 M110.75 23.75 Q112.8 18.45 106.35 19.55 L106.35 24.45 109.8 24.45 Q110.5 24.45 110.75 23.75 M154.2 43.65 L155.45 43.65 155.6 50.0 Q157.35 51.8 159.05 49.95 L159.25 49.65 159.25 43.65 160.45 43.65 160.45 52.0 159.25 52.0 159.25 51.25 Q157.55 52.9 155.8 51.25 152.65 48.45 154.2 43.65 M146.75 45.6 Q147.7 43.05 150.4 44.0 153.6 45.0 153.05 49.05 152.75 51.05 151.0 51.3 145.15 52.35 146.75 45.6 M151.65 47.75 Q151.65 46.5 151.1 45.6 150.5 44.7 149.7 44.7 148.9 44.7 148.35 45.6 147.75 46.5 147.75 47.75 147.75 49.0 148.35 49.9 148.9 50.8 149.7 50.8 150.5 50.8 151.1 49.9 151.65 49.0 151.65 47.75 M139.5 43.65 L140.85 43.65 142.6 51.35 144.35 43.65 145.55 43.65 142.3 55.85 141.3 55.85 142.35 52.0 141.8 52.0 139.5 43.65 M127.7 43.65 L128.95 43.65 128.95 44.25 131.55 43.5 Q132.2 43.7 132.85 44.05 L133.35 44.65 Q134.85 48.35 133.95 52.0 L132.75 52.0 132.5 45.35 132.2 45.1 Q130.9 44.4 129.45 45.1 127.95 48.2 128.9 52.0 L127.7 52.0 127.7 43.65 M124.65 43.65 L125.9 43.65 125.9 52.0 124.65 52.0 124.65 43.65 M124.5 41.4 L124.75 40.85 Q125.0 40.65 125.35 40.65 L125.9 40.85 126.15 41.4 125.9 41.95 125.35 42.2 124.75 41.95 124.5 41.4 M124.15 28.55 L123.0 31.0 Q115.1 33.85 114.0 26.0 113.1 19.6 118.45 18.25 120.05 17.75 121.5 18.75 126.2 22.05 124.15 28.55 M122.4 29.25 L122.95 24.8 122.2 20.15 Q114.65 17.85 116.1 26.6 117.0 31.95 122.4 29.25 M126.45 18.0 L130.5 18.0 Q131.95 18.0 132.85 18.9 136.6 22.75 132.1 25.4 L130.3 26.0 128.0 26.0 128.0 31.55 126.45 31.55 126.45 18.0 M128.0 24.45 L131.4 24.1 Q133.45 23.9 133.1 22.0 132.45 18.35 128.0 19.55 L128.0 24.45 M153.3 23.75 Q155.3 18.45 148.95 19.55 L148.95 24.45 152.4 24.45 Q153.05 24.45 153.3 23.75 M143.75 18.0 L145.35 18.0 145.2 27.5 Q145.1 31.75 140.85 31.8 137.65 31.85 136.9 29.05 135.55 23.9 136.2 18.0 L137.8 18.0 Q137.8 23.05 138.35 28.0 138.65 30.6 141.6 30.05 143.15 30.0 143.45 28.65 144.6 23.4 143.75 18.0 M151.45 18.0 Q152.95 18.0 153.85 18.85 157.65 22.75 153.05 25.4 L151.25 26.0 148.95 26.0 148.95 31.55 147.4 31.55 147.4 18.0 151.45 18.0 M235.95 50.75 L236.55 50.55 237.15 50.75 237.35 51.3 237.15 51.85 236.55 52.1 235.95 51.85 235.7 51.3 Q235.7 50.95 235.95 50.75 M200.95 44.8 L199.15 44.95 198.25 47.55 202.1 47.55 202.05 46.75 Q202.1 45.3 200.95 44.8 M194.5 43.2 Q195.05 42.3 196.2 42.35 L196.2 43.0 195.1 43.25 194.45 44.0 Q197.3 50.3 190.65 50.0 L190.9 51.45 193.5 51.6 Q195.5 51.5 195.25 53.25 194.7 57.7 189.2 55.75 L189.2 54.5 Q192.55 55.6 194.75 53.8 L194.45 53.05 Q190.15 53.9 189.7 50.35 L190.55 50.0 190.15 49.85 Q187.65 47.35 189.7 44.15 191.8 43.0 194.1 43.8 L194.5 43.2 M192.1 44.65 Q191.25 44.65 190.65 45.3 190.0 45.9 190.0 46.75 190.0 47.6 190.65 48.25 191.25 48.85 192.1 48.85 192.95 48.85 193.6 48.25 194.2 47.6 194.2 46.75 194.2 45.9 193.6 45.3 192.95 44.65 192.1 44.65 M186.25 47.8 L185.4 47.6 Q184.05 47.35 182.9 48.05 L182.45 49.4 Q182.5 50.35 183.4 50.65 185.0 51.2 186.2 50.1 L186.25 47.8 M184.25 43.45 Q185.85 43.45 186.6 44.95 188.2 48.25 187.5 52.0 L186.75 52.0 186.15 51.35 185.65 51.5 Q179.8 52.9 182.0 47.2 183.95 45.95 186.25 46.75 L186.1 45.6 Q184.6 44.3 182.55 44.85 L182.75 43.6 184.25 43.45 M193.25 27.4 L197.6 27.4 195.45 18.5 193.25 27.4 M174.9 43.65 L174.9 44.8 Q173.45 44.15 172.3 45.1 L172.25 45.95 173.5 47.25 Q174.25 48.0 174.6 49.0 175.9 53.1 170.8 52.0 L171.05 50.9 173.7 50.85 174.25 50.0 174.15 49.75 Q169.8 47.1 171.9 43.85 L174.9 43.65 M177.5 41.1 L178.7 40.8 178.7 43.65 180.15 43.65 180.15 44.5 178.7 44.5 Q178.45 47.4 179.05 50.0 179.25 51.0 180.45 50.85 L180.4 52.05 Q179.3 52.25 178.65 51.3 176.5 48.05 177.5 44.5 L176.6 44.5 176.6 43.65 177.5 43.65 177.5 41.1 M165.3 44.7 L163.95 45.05 Q162.1 48.3 163.45 52.0 L162.25 52.0 162.25 43.65 163.25 43.65 163.25 44.5 165.3 43.5 165.3 44.7 M164.6 27.4 L168.95 27.4 166.8 18.5 164.6 27.4 M174.5 19.55 L174.5 24.45 177.95 24.45 Q178.7 24.45 178.95 23.75 180.9 18.45 174.5 19.55 M172.95 18.0 L177.0 18.0 Q181.55 18.2 181.15 22.8 180.95 24.85 179.0 25.7 178.7 25.75 178.55 25.95 L178.7 26.05 181.15 31.55 179.0 31.25 Q178.25 29.9 178.15 28.5 L177.95 27.65 177.65 26.9 177.3 26.45 176.95 26.0 174.5 26.0 174.5 31.55 172.95 31.55 172.95 18.0 M165.45 18.0 L167.95 18.0 171.55 31.55 169.9 31.55 169.25 28.8 164.2 28.8 163.6 31.55 161.95 31.55 165.45 18.0 M194.1 18.0 L196.6 18.0 200.2 31.55 198.55 31.55 197.9 28.8 192.85 28.8 192.25 31.55 190.6 31.55 194.1 18.0 M184.55 19.55 L184.55 23.8 187.6 23.8 187.6 25.35 184.55 25.35 184.55 30.0 189.5 30.0 189.5 31.55 183.0 31.55 183.0 18.0 189.5 18.0 189.5 19.55 184.55 19.55 M238.4 40.15 L239.1 40.15 Q242.1 47.8 239.1 55.3 L238.45 55.3 Q241.5 47.75 238.4 40.15 M222.8 43.95 Q227.7 42.95 227.1 48.45 L222.05 48.45 Q222.15 49.3 222.7 49.85 224.1 51.4 226.15 50.6 L225.95 52.05 225.6 52.1 Q218.7 51.65 221.7 44.45 L222.8 43.95 M232.3 47.6 L229.8 48.05 Q229.05 49.25 229.7 50.0 L233.1 50.1 233.15 47.8 232.3 47.6 M230.65 44.75 L229.45 44.85 229.65 43.6 231.15 43.45 Q232.85 43.45 233.6 44.85 235.3 48.25 234.4 52.0 L233.65 52.0 233.05 51.35 Q232.15 52.1 230.85 52.1 229.35 52.1 229.0 51.0 227.2 45.55 233.15 46.75 L233.0 45.6 230.65 44.75 M222.15 46.4 L222.05 47.55 225.9 47.55 225.1 44.95 222.95 44.95 222.15 46.4 M217.65 43.65 L217.65 44.5 Q218.5 43.5 219.7 43.5 L219.7 44.7 Q218.9 44.7 218.35 45.05 217.85 45.4 217.85 46.05 L217.85 52.0 216.65 52.0 216.65 43.65 217.65 43.65 M210.35 48.05 L209.9 49.4 Q209.9 50.35 210.85 50.65 212.5 51.2 213.65 50.1 L213.7 47.8 212.85 47.6 Q211.45 47.35 210.35 48.05 M210.2 43.6 L211.7 43.45 Q213.45 43.45 214.15 44.85 215.8 48.25 214.95 52.0 L214.2 52.0 213.6 51.35 Q212.35 52.35 210.85 52.1 210.35 51.95 210.15 51.6 206.75 46.15 213.7 46.75 L213.55 45.6 213.0 45.25 Q211.6 44.5 210.0 44.85 L210.2 43.6 M203.3 47.5 L203.3 48.45 198.25 48.45 198.65 49.55 Q199.75 51.6 202.35 50.6 L202.15 52.05 Q196.7 52.85 197.05 47.15 197.1 46.4 197.55 45.9 201.85 40.75 203.3 47.5" fill="#ffffff" fill-rule="evenodd" stroke="none"/>
  </g>
</svg>
