<?xml version="1.0" encoding="UTF-8" standalone="no"?>
<svg xmlns:xlink="http://www.w3.org/1999/xlink" height="37.7px" width="38.6px" xmlns="http://www.w3.org/2000/svg">
  <g transform="matrix(1.0, 0.0, 0.0, 1.0, 1.0, 1.0)">
    <path d="M26.8 0.1 L28.75 0.0 36.6 0.0 36.6 35.7 0.0 35.7 0.0 29.8 Q0.0 17.45 8.65 8.75 16.3 0.95 26.8 0.1 M20.3 9.15 L20.3 11.85 17.6 11.85 17.6 14.6 14.8 14.6 14.8 17.4 12.05 17.4 12.05 20.7 14.8 20.7 14.8 23.4 17.6 23.4 17.6 26.25 20.3 26.25 20.3 28.95 29.15 28.95 29.15 25.6 26.4 25.6 26.4 22.85 23.6 22.85 23.6 20.15 20.9 20.15 20.9 17.95 23.6 17.95 23.6 15.25 26.4 15.25 26.4 12.5 29.15 12.5 29.15 9.15 20.3 9.15" fill="#01498f" fill-rule="evenodd" stroke="none"/>
    <path d="M20.3 9.15 L29.15 9.15 29.15 12.5 26.4 12.5 26.4 15.25 23.6 15.25 23.6 17.95 20.9 17.95 20.9 20.15 23.6 20.15 23.6 22.85 26.4 22.85 26.4 25.6 29.15 25.6 29.15 28.95 20.3 28.95 20.3 26.25 17.6 26.25 17.6 23.4 14.8 23.4 14.8 20.7 12.05 20.7 12.05 17.4 14.8 17.4 14.8 14.6 17.6 14.6 17.6 11.85 20.3 11.85 20.3 9.15" fill="#5faefe" fill-rule="evenodd" stroke="none"/>
    <path d="M26.8 0.1 Q16.3 0.95 8.65 8.75 0.0 17.45 0.0 29.8 L0.0 35.7 36.6 35.7 36.6 0.0 28.75 0.0 26.8 0.1 Z" fill="none" stroke="#5faefe" stroke-linecap="square" stroke-linejoin="miter-clip" stroke-miterlimit="3.0" stroke-width="1.5"/>
  </g>
</svg>
