<?xml version="1.0" encoding="UTF-8" standalone="no"?>
<svg xmlns:xlink="http://www.w3.org/1999/xlink" height="37.4px" width="136.6px" xmlns="http://www.w3.org/2000/svg">
  <g transform="matrix(1.0, 0.0, 0.0, 1.0, 53.2, 15.85)">
    <path d="M82.05 -14.85 L82.05 20.55 -52.55 20.55 -52.55 -14.85 82.05 -14.85" fill="url(#gradient0)" fill-rule="evenodd" stroke="none"/>
    <path d="M82.4 20.55 L-52.2 20.55 -52.2 -14.85 82.4 -14.85 82.4 20.55 Z" fill="none" stroke="url(#gradient1)" stroke-linecap="square" stroke-linejoin="miter-clip" stroke-miterlimit="3.0" stroke-width="1.5"/>
    <path d="M8.35 -5.05 L8.35 -4.95 14.5 -4.95 14.5 -5.05 8.35 -5.05 M1.15 -2.1 L1.15 -2.0 2.05 -2.0 2.05 -2.1 1.15 -2.1 M28.3 -8.1 L28.2 -8.1 28.2 5.5 37.2 5.5 37.2 5.4 39.0 5.4 39.0 -9.45 28.3 -9.45 28.3 -8.1 M19.6 -3.7 L19.6 -6.3 22.7 -6.3 22.7 -3.7 19.6 -3.7 M1.65 -3.35 L1.65 -9.45 -2.25 -9.45 -2.25 -3.7 -5.35 -3.7 -5.35 -9.45 -9.2 -9.45 -9.2 5.5 -5.35 5.5 -5.35 -0.4 -2.25 -0.4 -2.25 5.5 1.65 5.5 1.65 -0.75 -0.1 -0.75 -0.1 -3.35 1.65 -3.35 M8.5 -3.7 L8.5 -0.4 10.25 -0.4 10.25 2.2 7.1 2.2 7.1 -6.3 14.1 -6.3 14.1 -9.45 3.3 -9.45 3.3 5.5 12.35 5.5 12.35 5.4 14.1 5.4 14.1 -3.7 8.5 -3.7 M20.85 -5.05 L20.85 -4.95 21.45 -4.95 21.45 -5.05 20.85 -5.05 M24.9 -0.75 L25.5 -1.3 24.9 -1.9 26.55 -1.9 26.55 -9.45 15.75 -9.45 15.75 5.5 18.35 5.5 18.35 6.75 14.5 6.75 14.5 6.65 13.6 6.65 13.6 6.75 -3.5 6.75 -3.5 0.85 -4.1 0.85 -4.1 6.75 -10.45 6.75 -10.45 6.35 -11.35 6.35 -11.35 6.75 -28.35 6.75 -28.35 0.85 -29.0 0.85 -29.0 6.75 -47.8 6.75 -47.8 -10.7 -36.25 -10.7 -36.25 -3.45 -35.35 -3.45 -35.35 -10.7 -4.1 -10.7 -4.1 -4.95 -3.5 -4.95 -3.5 -10.7 45.7 -10.7 45.7 0.95 46.4 0.95 46.4 -10.7 75.85 -10.7 75.85 -9.35 77.65 -9.35 77.65 5.2 75.85 5.2 75.85 6.75 58.8 6.75 58.8 -5.05 58.2 -5.05 58.2 6.75 51.85 6.75 51.85 6.65 51.0 6.65 51.0 6.75 39.4 6.75 39.4 6.65 38.45 6.65 38.45 6.75 21.45 6.75 21.45 0.85 20.85 0.85 20.85 6.75 18.5 6.75 18.5 5.5 19.6 5.5 19.6 -0.4 22.7 -0.4 22.7 5.5 26.55 5.5 26.55 -0.75 24.9 -0.75 M32.05 -6.3 L35.15 -6.3 35.15 2.2 32.05 2.2 32.05 -6.3 M33.9 -5.05 L33.3 -5.05 33.3 0.95 33.9 0.95 33.9 -5.05 M69.45 -6.3 L72.55 -6.3 72.55 2.2 69.45 2.2 69.45 -6.3 M76.4 -8.1 L74.6 -8.1 74.6 -9.45 65.6 -9.45 65.6 5.5 74.6 5.5 74.6 3.95 76.4 3.95 76.4 -8.1 M51.5 -9.45 L47.65 -9.45 47.65 2.2 44.45 2.2 44.45 -9.45 40.65 -9.45 40.65 5.5 49.75 5.5 49.75 5.4 51.5 5.4 51.5 -9.45 M56.95 -6.3 L60.05 -6.3 60.05 5.5 63.9 5.5 63.9 -9.45 53.1 -9.45 53.1 5.5 56.95 5.5 56.95 -6.3 M71.3 -5.05 L70.7 -5.05 70.7 0.95 71.3 0.95 71.3 -5.05 M-30.25 -6.3 L-27.1 -6.3 -27.1 -3.7 -30.25 -3.7 -30.25 -6.3 M-21.55 -9.45 L-21.55 -8.1 -21.65 -8.1 -21.65 5.5 -12.6 5.5 -12.6 5.1 -11.15 5.1 -11.15 3.95 -10.85 3.95 -10.85 -0.75 -14.7 -0.75 -14.7 2.2 -17.8 2.2 -17.8 -6.3 -14.7 -6.3 -14.7 -3.35 -10.85 -3.35 -10.85 -9.45 -21.55 -9.45 M-35.7 -2.2 L-37.5 -2.2 -37.5 -9.45 -46.55 -9.45 -46.55 5.5 -35.7 5.5 -35.7 -2.2 M-42.7 -3.7 L-42.7 -6.3 -41.3 -6.3 -41.3 -3.7 -42.7 -3.7 M-29.0 -4.95 L-28.35 -4.95 -28.35 -5.05 -29.0 -5.05 -29.0 -4.95 M-30.25 -0.4 L-27.1 -0.4 -27.1 5.5 -23.25 5.5 -23.25 -9.45 -34.1 -9.45 -34.1 5.5 -30.25 5.5 -30.25 -0.4 M-15.95 -5.05 L-16.55 -5.05 -16.55 0.95 -15.95 0.95 -15.95 -2.0 -10.45 -2.0 -10.45 -2.1 -15.95 -2.1 -15.95 -5.05 M-42.7 -0.4 L-39.55 -0.4 -39.55 2.2 -42.7 2.2 -42.7 -0.4 M9.0 0.85 L8.35 0.85 8.35 0.95 9.0 0.95 9.0 0.85 M-41.45 0.95 L-40.8 0.95 -40.8 0.85 -41.45 0.85 -41.45 0.95" fill="#d5d5d5" fill-rule="evenodd" stroke="none"/>
    <path d="M8.5 -3.7 L14.1 -3.7 14.1 5.4 12.35 5.4 12.35 5.5 3.3 5.5 3.3 -9.45 14.1 -9.45 14.1 -6.3 7.1 -6.3 7.1 2.2 10.25 2.2 10.25 -0.4 8.5 -0.4 8.5 -3.7 M1.65 -3.35 L-0.1 -3.35 -0.1 -0.75 1.65 -0.75 1.65 5.5 -2.25 5.5 -2.25 -0.4 -5.35 -0.4 -5.35 5.5 -9.2 5.5 -9.2 -9.45 -5.35 -9.45 -5.35 -3.7 -2.25 -3.7 -2.25 -9.45 1.65 -9.45 1.65 -3.35 M19.6 -3.7 L22.7 -3.7 22.7 -6.3 19.6 -6.3 19.6 -3.7 M28.3 -8.1 L28.3 -9.45 39.0 -9.45 39.0 5.4 37.2 5.4 37.2 5.5 28.2 5.5 28.2 -8.1 28.3 -8.1 M24.9 -1.9 L24.8 -1.9 24.8 -0.75 24.9 -0.75 26.55 -0.75 26.55 5.5 22.7 5.5 22.7 -0.4 19.6 -0.4 19.6 5.5 18.5 5.5 18.35 5.5 15.75 5.5 15.75 -9.45 26.55 -9.45 26.55 -1.9 24.9 -1.9 M32.05 -6.3 L32.05 2.2 35.15 2.2 35.15 -6.3 32.05 -6.3 M56.95 -6.3 L56.95 5.5 53.1 5.5 53.1 -9.45 63.9 -9.45 63.9 5.5 60.05 5.5 60.05 -6.3 56.95 -6.3 M51.5 -9.45 L51.5 5.4 49.75 5.4 49.75 5.5 40.65 5.5 40.65 -9.45 44.45 -9.45 44.45 2.2 47.65 2.2 47.65 -9.45 51.5 -9.45 M76.4 -8.1 L76.4 3.95 74.6 3.95 74.6 5.5 65.6 5.5 65.6 -9.45 74.6 -9.45 74.6 -8.1 76.4 -8.1 M69.45 -6.3 L69.45 2.2 72.55 2.2 72.55 -6.3 69.45 -6.3 M-42.7 -3.7 L-41.3 -3.7 -41.3 -6.3 -42.7 -6.3 -42.7 -3.7 M-35.7 -2.2 L-35.7 5.5 -46.55 5.5 -46.55 -9.45 -37.5 -9.45 -37.5 -2.2 -35.7 -2.2 M-21.55 -9.45 L-10.85 -9.45 -10.85 -3.35 -14.7 -3.35 -14.7 -6.3 -17.8 -6.3 -17.8 2.2 -14.7 2.2 -14.7 -0.75 -10.85 -0.75 -10.85 3.95 -11.15 3.95 -11.15 5.1 -12.6 5.1 -12.6 5.5 -21.65 5.5 -21.65 -8.1 -21.55 -8.1 -21.55 -9.45 M-30.25 -6.3 L-30.25 -3.7 -27.1 -3.7 -27.1 -6.3 -30.25 -6.3 M-30.25 -0.4 L-30.25 5.5 -34.1 5.5 -34.1 -9.45 -23.25 -9.45 -23.25 5.5 -27.1 5.5 -27.1 -0.4 -30.25 -0.4 M-42.7 -0.4 L-42.7 2.2 -39.55 2.2 -39.55 -0.4 -42.7 -0.4" fill="url(#gradient2)" fill-rule="evenodd" stroke="none"/>
  </g>
  <defs>
    <linearGradient gradientTransform="matrix(0.0475, -0.0475, 0.0153, 0.0153, 14.75, 2.85)" gradientUnits="userSpaceOnUse" id="gradient0" spreadMethod="pad" x1="-819.2" x2="819.2">
      <stop offset="0.06274509803921569" stop-color="#555555"/>
      <stop offset="0.16470588235294117" stop-color="#888888"/>
      <stop offset="0.32941176470588235" stop-color="#555555"/>
      <stop offset="0.4549019607843137" stop-color="#444444"/>
      <stop offset="0.5490196078431373" stop-color="#444444"/>
      <stop offset="0.6274509803921569" stop-color="#555555"/>
      <stop offset="0.8666666666666667" stop-color="#777777"/>
      <stop offset="0.9333333333333333" stop-color="#4d4d4d"/>
      <stop offset="1.0" stop-color="#555555"/>
    </linearGradient>
    <linearGradient gradientTransform="matrix(3.0E-4, -0.0015, 0.0219, 0.0052, 17.65, 3.8)" gradientUnits="userSpaceOnUse" id="gradient1" spreadMethod="pad" x1="-819.2" x2="819.2">
      <stop offset="0.0" stop-color="#262626"/>
      <stop offset="1.0" stop-color="#999999"/>
    </linearGradient>
    <linearGradient gradientTransform="matrix(0.0, -0.0066, 0.0091, 0.0, 8.65, -1.95)" gradientUnits="userSpaceOnUse" id="gradient2" spreadMethod="pad" x1="-819.2" x2="819.2">
      <stop offset="0.0" stop-color="#484848"/>
      <stop offset="1.0" stop-color="#888888"/>
    </linearGradient>
  </defs>
</svg>
