<?xml version="1.0" encoding="UTF-8" standalone="no"?>
<svg xmlns:xlink="http://www.w3.org/1999/xlink" height="36.5px" width="104.15px" xmlns="http://www.w3.org/2000/svg">
  <g transform="matrix(1.0, 0.0, 0.0, 1.0, 1.0, 1.0)">
    <path d="M5.1 9.5 Q9.1 2.95 16.35 0.0 L102.15 0.0 102.15 33.65 0.05 33.65 Q-0.35 18.55 4.9 9.8 L1.1 20.0 Q9.35 21.45 13.65 21.15 L11.2 26.05 21.35 18.9 11.2 11.75 14.0 17.3 Q8.8 16.05 5.1 9.5" fill="#5faefe" fill-rule="evenodd" stroke="none"/>
    <path d="M4.9 9.8 L4.9 9.15 5.1 9.5 Q8.8 16.05 14.0 17.3 L11.2 11.75 21.35 18.9 11.2 26.05 13.65 21.15 Q9.35 21.45 1.1 20.0 L4.9 9.8" fill="#ffffff" fill-rule="evenodd" stroke="none"/>
    <path d="M5.1 9.5 Q9.1 2.95 16.35 0.0 L102.15 0.0 102.15 33.65 0.05 33.65 Q-0.35 18.55 4.9 9.8" fill="none" stroke="#ffffff" stroke-linecap="square" stroke-linejoin="miter-clip" stroke-miterlimit="3.0" stroke-width="1.5"/>
  </g>
</svg>
