<?xml version="1.0" encoding="UTF-8" standalone="no"?>
<svg xmlns:xlink="http://www.w3.org/1999/xlink" height="36.55px" width="104.15px" xmlns="http://www.w3.org/2000/svg">
  <g transform="matrix(1.0, 0.0, 0.0, 1.0, 1.0, 1.0)">
    <path d="M96.9 9.2 L96.75 9.5 Q93.05 16.05 87.85 17.3 L90.65 11.75 80.5 18.9 90.65 26.05 88.2 21.15 Q92.5 21.45 100.75 20.0 L101.05 19.95 Q102.3 26.0 102.1 33.65 L0.0 33.65 0.0 0.0 85.8 0.0 Q92.9 2.9 96.9 9.2" fill="#5faefe" fill-rule="evenodd" stroke="none"/>
    <path d="M100.75 20.0 L96.95 9.8 96.95 9.3 97.2 9.7 Q99.8 14.0 101.05 19.95 L100.75 20.0" fill="#01498f" fill-rule="evenodd" stroke="none"/>
    <path d="M96.9 9.2 L96.95 9.15 96.95 9.3 96.95 9.8 100.75 20.0 Q92.5 21.45 88.2 21.15 L90.65 26.05 80.5 18.9 90.65 11.75 87.85 17.3 Q93.05 16.05 96.75 9.5 L96.9 9.2" fill="#ffffff" fill-rule="evenodd" stroke="none"/>
    <path d="M96.95 9.3 L97.2 9.7 Q99.8 14.0 101.05 19.95 102.3 26.0 102.1 33.65 L0.0 33.65 0.0 0.0 85.8 0.0 Q92.9 2.9 96.9 9.2" fill="none" stroke="#ffffff" stroke-linecap="square" stroke-linejoin="miter-clip" stroke-miterlimit="3.0" stroke-width="1.5"/>
  </g>
</svg>
