<?xml version="1.0" encoding="UTF-8" standalone="no"?>
<svg xmlns:xlink="http://www.w3.org/1999/xlink" height="91.9px" width="61.9px" xmlns="http://www.w3.org/2000/svg">
  <g transform="matrix(1.0, 0.0, 0.0, 1.0, 30.95, 45.95)">
    <path d="M25.35 -41.7 Q29.95 -37.9 29.95 -29.45 L29.95 29.45 Q29.95 37.9 25.35 41.75 21.7 44.8 15.15 44.95 L-14.45 44.95 Q-29.95 44.95 -29.95 29.45 L-29.95 -29.45 Q-29.95 -44.95 -14.45 -44.95 L15.15 -44.95 Q21.7 -44.8 25.35 -41.7 M13.7 -14.3 L13.7 14.65 20.15 14.65 20.15 -14.3 13.7 -14.3 M10.65 -16.35 L10.65 -37.0 -11.45 -37.0 -11.45 -16.35 10.65 -16.35 M-21.0 -14.3 L-21.0 14.65 -14.55 14.65 -14.55 -14.3 -21.0 -14.3 M-11.45 18.8 L-11.45 37.4 -2.15 37.4 -2.15 18.8 -11.45 18.8 M1.3 37.4 L10.65 37.4 10.65 18.8 1.3 18.8 1.3 37.4 M10.2 16.7 L10.2 -14.3 -11.05 -14.3 -11.05 16.7 10.2 16.7" fill="#01498f" fill-rule="evenodd" stroke="none"/>
    <path d="M13.7 -14.3 L20.15 -14.3 20.15 14.65 13.7 14.65 13.7 -14.3 M10.65 -16.35 L-11.45 -16.35 -11.45 -37.0 10.65 -37.0 10.65 -16.35 M-21.0 -14.3 L-14.55 -14.3 -14.55 14.65 -21.0 14.65 -21.0 -14.3 M-11.45 18.8 L-2.15 18.8 -2.15 37.4 -11.45 37.4 -11.45 18.8 M1.3 37.4 L1.3 18.8 10.65 18.8 10.65 37.4 1.3 37.4 M10.2 16.7 L-11.05 16.7 -11.05 -14.3 10.2 -14.3 10.2 16.7" fill="#5faefe" fill-rule="evenodd" stroke="none"/>
    <path d="M25.35 -41.7 Q21.7 -44.8 15.15 -44.95 L-14.45 -44.95 Q-29.95 -44.95 -29.95 -29.45 L-29.95 29.45 Q-29.95 44.95 -14.45 44.95 L15.15 44.95 Q21.7 44.8 25.35 41.75 29.95 37.9 29.95 29.45 L29.95 -29.45 Q29.95 -37.9 25.35 -41.7 Z" fill="none" stroke="#5faefe" stroke-linecap="round" stroke-linejoin="round" stroke-width="2.0"/>
  </g>
</svg>
