<?xml version="1.0" encoding="UTF-8" standalone="no"?>
<svg xmlns:xlink="http://www.w3.org/1999/xlink" height="8.35px" width="23.45px" xmlns="http://www.w3.org/2000/svg">
  <g transform="matrix(1.0, 0.0, 0.0, 1.0, 11.75, 4.15)">
    <path d="M-10.4 -0.05 L-10.4 -1.4 -9.0 -1.4 -9.0 -2.8 -7.65 -2.8 -7.65 -4.15 -6.2 -4.15 -6.2 -2.8 -4.8 -2.8 -4.8 -1.4 -3.45 -1.4 -3.45 -0.05 -2.05 -0.05 -2.05 4.15 -3.5 4.15 -3.5 2.8 -4.9 2.8 -4.9 1.4 -6.25 1.4 -6.25 0.05 -7.55 0.05 -7.55 1.4 -8.95 1.4 -8.95 2.8 -10.3 2.8 -10.3 4.15 -11.75 4.15 -11.75 -0.05 -10.4 -0.05 M4.75 -2.75 L6.1 -2.75 6.1 -4.1 7.55 -4.1 7.55 -2.75 8.95 -2.75 8.95 -1.35 10.3 -1.35 10.3 0.0 11.7 0.0 11.7 4.2 10.25 4.2 10.25 2.85 8.85 2.85 8.85 1.45 7.5 1.45 7.5 0.1 6.2 0.1 6.2 1.45 4.8 1.45 4.8 2.85 3.45 2.85 3.45 4.2 2.0 4.2 2.0 0.0 3.35 0.0 3.35 -1.35 4.75 -1.35 4.75 -2.75" fill="#ffffff" fill-rule="evenodd" stroke="none"/>
  </g>
</svg>
