<?xml version="1.0" encoding="UTF-8" standalone="no"?>
<svg xmlns:xlink="http://www.w3.org/1999/xlink" height="8.3px" width="37.3px" xmlns="http://www.w3.org/2000/svg">
  <g transform="matrix(1.0, 0.0, 0.0, 1.0, 18.65, 4.15)">
    <path d="M-18.65 -0.05 L-17.3 -0.05 -17.3 -1.4 -15.9 -1.4 -15.9 -2.8 -14.55 -2.8 -14.55 -4.15 -13.1 -4.15 -13.1 -2.8 -11.7 -2.8 -11.7 -1.4 -10.35 -1.4 -10.35 -0.05 -8.95 -0.05 -8.95 4.15 -10.4 4.15 -10.4 2.8 -11.8 2.8 -11.8 1.4 -13.15 1.4 -13.15 0.05 -14.45 0.05 -14.45 1.4 -15.85 1.4 -15.85 2.8 -17.2 2.8 -17.2 4.15 -18.65 4.15 -18.65 -0.05 M13.05 -2.8 L13.05 -4.15 14.5 -4.15 14.5 -2.8 15.9 -2.8 15.9 -1.4 17.25 -1.4 17.25 -0.05 18.65 -0.05 18.65 4.15 17.2 4.15 17.2 2.8 15.8 2.8 15.8 1.4 14.45 1.4 14.45 0.05 13.15 0.05 13.15 1.4 11.75 1.4 11.75 2.8 10.4 2.8 10.4 4.15 8.95 4.15 8.95 -0.05 10.3 -0.05 10.3 -1.4 11.7 -1.4 11.7 -2.8 13.05 -2.8 M0.7 -4.15 L0.7 -2.8 2.1 -2.8 2.1 -1.4 3.45 -1.4 3.45 -0.05 4.85 -0.05 4.85 4.15 3.4 4.15 3.4 2.8 2.0 2.8 2.0 1.4 0.65 1.4 0.65 0.05 -0.65 0.05 -0.65 1.4 -2.05 1.4 -2.05 2.8 -3.4 2.8 -3.4 4.15 -4.85 4.15 -4.85 -0.05 -3.5 -0.05 -3.5 -1.4 -2.1 -1.4 -2.1 -2.8 -0.75 -2.8 -0.75 -4.15 0.7 -4.15" fill="#ffffff" fill-rule="evenodd" stroke="none"/>
  </g>
</svg>
