<?xml version="1.0" encoding="UTF-8" standalone="no"?>
<svg xmlns:xlink="http://www.w3.org/1999/xlink" height="21.35px" width="21.35px" xmlns="http://www.w3.org/2000/svg">
  <g transform="matrix(1.0, 0.0, 0.0, 1.0, 10.65, 10.7)">
    <path d="M4.4 -8.3 L5.0 -8.9 8.9 -5.0 8.3 -4.4 4.4 -8.3 M5.3 -9.2 L6.8 -10.7 Q9.4 -9.4 10.7 -6.8 L9.2 -5.3 5.3 -9.2 M2.0 -5.9 L5.9 -2.0 5.45 -1.55 1.55 -5.45 2.0 -5.9 M6.15 -2.25 L2.25 -6.15 4.1 -8.0 8.0 -4.1 6.15 -2.25 M5.15 -1.25 L-3.3 7.2 -5.35 7.15 -5.35 5.35 -7.2 5.3 -7.2 3.3 1.25 -5.15 5.15 -1.25 M-9.45 5.55 L-7.75 3.85 -7.75 5.85 -6.0 5.9 -5.9 5.8 -5.9 5.9 -5.8 5.9 -5.9 6.0 -5.9 7.7 -3.85 7.75 -5.55 9.45 -8.4 10.1 -10.15 8.35 -9.45 5.55 M-10.15 8.95 L-8.95 10.15 -10.45 10.55 -10.55 10.65 -10.55 10.55 -10.65 10.55 -10.55 10.45 -10.15 8.95" fill="#5faefe" fill-rule="evenodd" stroke="none"/>
  </g>
</svg>
