<?xml version="1.0" encoding="UTF-8" standalone="no"?>
<svg xmlns:xlink="http://www.w3.org/1999/xlink" height="21.85px" width="17.6px" xmlns="http://www.w3.org/2000/svg">
  <g transform="matrix(1.0, 0.0, 0.0, 1.0, 8.8, 10.95)">
    <path d="M0.3 -9.25 Q-0.35 -10.15 -1.15 -10.35 -2.1 -10.45 -3.35 -8.8 -4.65 -7.2 -3.5 -3.55 L-0.55 -5.4 1.2 -6.05 1.15 -6.6 Q0.85 -8.45 0.3 -9.25 M2.45 -5.8 L2.35 -5.65 Q-2.55 -5.15 -8.0 1.8 L-6.45 -0.55 -5.3 -1.95 -4.1 -3.0 Q-5.15 -5.25 -4.5 -7.55 -3.85 -9.75 -2.2 -10.4 L-1.75 -10.65 Q-0.2 -11.45 0.9 -10.15 1.7 -9.2 2.3 -7.4 L2.4 -6.55 2.45 -6.15 2.45 -5.8 2.35 -6.15 2.3 -6.15 2.45 -5.8 M2.9 -5.3 L8.25 3.85 Q5.85 9.2 0.55 10.15 L0.5 10.2 -7.35 2.55 Q-1.2 1.5 1.65 -2.9 L2.9 -5.2 2.9 -5.3 M0.0 -2.15 Q-2.05 0.65 -7.4 1.7 -3.3 -3.15 1.85 -4.75 L0.0 -2.15 M-6.05 7.1 L-6.15 7.7 Q-6.4 9.15 -7.5 9.1 -8.6 9.05 -8.8 7.6 L-8.8 7.15 Q-8.8 5.5 -7.35 3.25 -6.05 5.5 -6.05 7.1 M0.8 10.45 Q6.1 9.5 8.45 4.15 L8.8 4.75 Q7.7 7.55 5.5 9.15 3.8 10.35 1.3 10.9 L0.8 10.45" fill="#5faefe" fill-rule="evenodd" stroke="none"/>
    <path d="M2.45 -5.8 L2.3 -6.15 2.35 -6.15 2.45 -5.8" fill="#01498f" fill-rule="evenodd" stroke="none"/>
  </g>
</svg>
