<?xml version="1.0" encoding="UTF-8" standalone="no"?>
<svg xmlns:xlink="http://www.w3.org/1999/xlink" height="20.05px" width="19.6px" xmlns="http://www.w3.org/2000/svg">
  <g transform="matrix(1.0, 0.0, 0.0, 1.0, 9.8, 10.05)">
    <path d="M1.6 -1.4 Q0.75 -2.15 0.35 -3.15 L1.7 -4.55 Q2.7 -2.85 4.4 -1.9 L-5.05 7.85 -6.5 6.9 -7.75 5.2 -6.55 3.95 Q-6.1 4.95 -5.3 5.65 L-4.8 5.15 -6.05 3.45 -5.25 2.6 Q-4.85 3.65 -4.0 4.35 L-3.55 3.85 -4.8 2.15 -3.95 1.3 Q-3.55 2.3 -2.7 3.0 L-2.25 2.55 -3.5 0.8 -2.7 0.0 -1.45 1.7 -1.0 1.2 Q-1.8 0.5 -2.2 -0.5 L-1.4 -1.35 Q-1.0 -0.35 -0.15 0.4 L0.3 -0.1 Q-0.55 -0.8 -0.95 -1.8 L-0.15 -2.65 Q0.25 -1.65 1.1 -0.95 L1.6 -1.4 M8.7 -9.9 L9.25 -9.6 9.6 -9.05 9.75 -8.6 Q9.95 -7.5 8.95 -6.6 L8.15 -5.75 6.75 -4.35 6.05 -3.6 6.65 -3.0 6.65 -2.9 6.0 -1.75 Q3.2 -3.35 1.55 -6.05 L2.7 -6.7 2.75 -6.8 3.35 -6.25 4.05 -7.0 5.45 -8.4 6.25 -9.25 Q7.15 -10.2 8.3 -10.0 L8.7 -9.9 M-8.25 5.7 Q-7.85 6.7 -7.0 7.4 L-5.55 8.35 -5.9 8.75 Q-6.55 8.05 -8.6 10.0 L-9.8 8.85 Q-7.9 6.75 -8.6 6.1 L-8.25 5.7" fill="#5faefe" fill-rule="evenodd" stroke="none"/>
  </g>
</svg>
