<?xml version="1.0" encoding="UTF-8" standalone="no"?>
<svg xmlns:xlink="http://www.w3.org/1999/xlink" height="315.75px" width="533.3px" xmlns="http://www.w3.org/2000/svg">
  <g transform="matrix(1.0, 0.0, 0.0, 1.0, 1.25, 1.25)">
    <path d="M498.2 0.0 L32.65 0.0 Q19.15 0.0 9.55 9.6 0.0 19.15 0.0 32.65 L0.0 280.65 Q0.0 294.1 9.55 303.7 19.15 313.25 32.65 313.25 L498.2 313.25 Q511.65 313.25 521.25 303.7 530.8 294.1 530.8 280.65 L530.8 32.65 Q530.8 19.15 521.25 9.6 511.65 0.0 498.2 0.0 Z" fill="none" stroke="url(#gradient0)" stroke-linecap="round" stroke-linejoin="round" stroke-width="2.5"/>
    <path d="M498.2 0.0 Q511.65 0.0 521.25 9.6 530.8 19.15 530.8 32.65 L530.8 280.65 Q530.8 294.1 521.25 303.7 511.65 313.25 498.2 313.25 L32.65 313.25 Q19.15 313.25 9.55 303.7 0.0 294.1 0.0 280.65 L0.0 32.65 Q0.0 19.15 9.55 9.6 19.15 0.0 32.65 0.0 L498.2 0.0" fill="url(#gradient1)" fill-rule="evenodd" stroke="none"/>
  </g>
  <defs>
    <linearGradient gradientTransform="matrix(0.0109, -0.019, 0.1665, 0.0964, 264.85, 157.85)" gradientUnits="userSpaceOnUse" id="gradient0" spreadMethod="pad" x1="-819.2" x2="819.2">
      <stop offset="0.0" stop-color="#262626"/>
      <stop offset="1.0" stop-color="#999999"/>
    </linearGradient>
    <radialGradient cx="0" cy="0" gradientTransform="matrix(0.5969, -0.3446, 0.389, 0.6738, 23.9, 294.85)" gradientUnits="userSpaceOnUse" id="gradient1" r="819.2" spreadMethod="pad">
      <stop offset="0.0" stop-color="#333333"/>
      <stop offset="0.32941176470588235" stop-color="#555555"/>
      <stop offset="0.4549019607843137" stop-color="#444444"/>
      <stop offset="0.5490196078431373" stop-color="#444444"/>
      <stop offset="0.6274509803921569" stop-color="#555555"/>
      <stop offset="0.8666666666666667" stop-color="#777777"/>
      <stop offset="0.9333333333333333" stop-color="#4d4d4d"/>
      <stop offset="1.0" stop-color="#555555"/>
    </radialGradient>
  </defs>
</svg>
