<?xml version="1.0" encoding="UTF-8" standalone="no"?>
<svg xmlns:xlink="http://www.w3.org/1999/xlink" height="38.55px" width="78.05px" xmlns="http://www.w3.org/2000/svg">
  <g transform="matrix(1.0, 0.0, 0.0, 1.0, 39.0, 19.25)">
    <path d="M31.75 -18.25 Q38.05 -18.25 38.05 -10.2 L38.05 10.3 Q38.05 18.3 31.75 18.3 L-31.7 18.3 Q-38.0 18.3 -38.0 10.3 L-38.0 -10.2 Q-38.0 -18.25 -31.7 -18.25 L31.75 -18.25 M-0.95 -11.45 L-12.3 -11.45 -12.3 -11.4 -14.45 -11.4 -14.45 -9.2 -14.55 -9.2 -14.55 11.15 -3.2 11.15 -3.2 11.1 -0.95 11.1 -0.95 -11.45 M-9.95 -6.85 L-5.55 -6.85 -5.55 6.55 -9.95 6.55 -9.95 -6.85 M10.2 -11.45 L10.2 -2.45 5.8 -2.45 5.8 -11.45 1.2 -11.45 1.2 11.15 5.8 11.15 5.8 2.15 10.2 2.15 10.2 11.15 14.8 11.15 14.8 2.05 12.55 2.05 12.55 -2.35 14.8 -2.35 14.8 -11.45 10.2 -11.45" fill="#5faefe" fill-rule="evenodd" stroke="none"/>
    <path d="M10.2 -11.45 L14.8 -11.45 14.8 -2.35 12.55 -2.35 12.55 2.05 14.8 2.05 14.8 11.15 10.2 11.15 10.2 2.15 5.8 2.15 5.8 11.15 1.2 11.15 1.2 -11.45 5.8 -11.45 5.8 -2.45 10.2 -2.45 10.2 -11.45 M-9.95 -6.85 L-9.95 6.55 -5.55 6.55 -5.55 -6.85 -9.95 -6.85 M-0.95 -11.45 L-0.95 11.1 -3.2 11.1 -3.2 11.15 -14.55 11.15 -14.55 -9.2 -14.45 -9.2 -14.45 -11.4 -12.3 -11.4 -12.3 -11.45 -0.95 -11.45" fill="#ffffff" fill-rule="evenodd" stroke="none"/>
    <path d="M31.75 -18.25 L-31.7 -18.25 Q-38.0 -18.25 -38.0 -10.2 L-38.0 10.3 Q-38.0 18.3 -31.7 18.3 L31.75 18.3 Q38.05 18.3 38.05 10.3 L38.05 -10.2 Q38.05 -18.25 31.75 -18.25 Z" fill="none" stroke="#ffffff" stroke-linecap="square" stroke-linejoin="miter-clip" stroke-miterlimit="3.0" stroke-width="1.5"/>
  </g>
</svg>
