<?xml version="1.0" encoding="UTF-8" standalone="no"?>
<svg xmlns:xlink="http://www.w3.org/1999/xlink" height="46.85px" width="397.45px" xmlns="http://www.w3.org/2000/svg">
  <g transform="matrix(1.0, 0.0, 0.0, 1.0, 1.3, 1.3)">
    <path d="M11.4 26.8 Q0.15 15.25 0.0 0.0 L394.85 0.0 Q394.7 18.25 378.55 31.15 362.35 44.25 339.4 44.25 L55.45 44.25 Q37.65 44.25 23.9 36.4 29.15 25.95 30.5 20.05 L36.3 25.5 30.65 8.4 16.4 19.45 25.3 17.9 Q21.5 24.45 11.4 26.8 M47.15 13.5 L43.55 13.5 43.55 31.1 52.4 31.1 52.4 31.05 54.15 31.05 54.15 13.5 50.55 13.5 50.55 27.5 47.15 27.5 47.15 13.5 M71.65 13.5 L68.05 13.5 68.05 31.1 76.9 31.1 76.9 27.5 71.65 27.5 71.65 13.5 M62.8 17.1 L62.8 20.5 59.4 20.5 59.4 17.1 62.8 17.1 M64.65 24.1 L64.65 24.05 66.4 24.05 66.4 13.5 55.8 13.5 55.8 31.1 59.4 31.1 59.4 24.1 64.65 24.1 M87.4 31.05 L89.15 31.05 89.15 13.5 80.3 13.5 80.3 13.55 78.65 13.55 78.65 15.25 78.55 15.25 78.55 31.1 87.4 31.1 87.4 31.05 M94.4 17.1 L97.8 17.1 97.8 20.5 94.4 20.5 94.4 17.1 M82.15 17.1 L85.55 17.1 85.55 27.5 82.15 27.5 82.15 17.1 M94.4 24.1 L97.8 24.1 97.8 31.1 101.4 31.1 101.4 13.5 90.8 13.5 90.8 31.1 94.4 31.1 94.4 24.1 M106.65 17.1 L110.05 17.1 110.05 27.5 106.65 27.5 106.65 17.1 M111.9 13.5 L103.05 13.5 103.05 31.1 111.9 31.1 111.9 29.35 113.65 29.35 113.65 15.25 111.9 15.25 111.9 13.5 M124.15 17.1 L131.15 17.1 131.15 13.5 122.3 13.5 122.3 13.55 120.65 13.55 120.65 15.25 120.55 15.25 120.55 24.1 127.55 24.1 127.55 27.5 120.55 27.5 120.55 31.1 129.4 31.1 129.4 31.05 131.15 31.05 131.15 20.5 124.15 20.5 124.15 17.1 M143.4 20.6 L143.4 13.5 139.8 13.5 139.8 20.5 136.4 20.5 136.4 13.5 132.8 13.5 132.8 31.1 136.4 31.1 136.4 24.1 139.8 24.1 139.8 31.1 143.4 31.1 143.4 24.0 141.65 24.0 141.65 20.6 143.4 20.6 M148.65 13.5 L145.05 13.5 145.05 31.1 148.65 31.1 148.65 13.5 M153.9 17.1 L157.3 17.1 157.3 31.1 160.9 31.1 160.9 13.5 150.3 13.5 150.3 31.1 153.9 31.1 153.9 17.1 M180.15 13.55 L180.15 15.25 180.05 15.25 180.05 31.1 188.9 31.1 188.9 31.05 190.65 31.05 190.65 13.5 181.8 13.5 181.8 13.55 180.15 13.55 M167.8 17.1 L171.3 17.1 171.3 31.1 174.9 31.1 174.9 17.1 178.4 17.1 178.4 13.5 167.8 13.5 167.8 17.1 M183.65 17.1 L187.05 17.1 187.05 27.5 183.65 27.5 183.65 17.1 M208.15 17.1 L211.55 17.1 211.55 31.1 215.15 31.1 215.15 13.5 197.55 13.5 197.55 31.1 201.15 31.1 201.15 17.1 204.55 17.1 204.55 31.1 208.15 31.1 208.15 17.1 M220.4 13.5 L216.8 13.5 216.8 31.1 220.4 31.1 220.4 13.5 M225.65 17.1 L229.05 17.1 229.05 31.1 232.65 31.1 232.65 13.5 222.05 13.5 222.05 31.1 225.65 31.1 225.65 17.1 M243.15 24.1 L243.15 20.5 237.9 20.5 237.9 17.1 243.15 17.1 243.15 13.5 234.3 13.5 234.3 31.1 243.15 31.1 243.15 27.5 237.9 27.5 237.9 24.1 243.15 24.1 M248.4 17.1 L251.8 17.1 251.8 20.6 255.4 20.6 255.4 13.55 253.65 13.55 253.65 13.5 246.55 13.5 246.55 13.55 244.9 13.55 244.9 15.25 244.8 15.25 244.8 31.1 253.65 31.1 253.65 31.05 255.4 31.05 255.4 24.0 251.8 24.0 251.8 27.5 248.4 27.5 248.4 17.1 M279.9 13.5 L269.3 13.5 269.3 31.1 272.9 31.1 272.9 24.1 276.3 24.1 276.3 31.1 279.9 31.1 279.9 13.5 M272.9 20.5 L272.9 17.1 276.3 17.1 276.3 20.5 272.9 20.5 M264.05 17.1 L264.05 20.5 260.65 20.5 260.65 17.1 264.05 17.1 M267.65 22.35 L267.65 13.5 257.05 13.5 257.05 31.1 260.65 31.1 260.65 24.1 264.05 24.1 264.05 31.1 267.65 31.1 267.65 24.0 265.9 24.0 265.9 22.35 267.65 22.35 M307.9 31.1 L307.9 27.5 304.3 27.5 304.3 31.1 307.9 31.1 M290.4 20.5 L285.15 20.5 285.15 17.1 290.4 17.1 290.4 13.5 281.55 13.5 281.55 31.1 285.15 31.1 285.15 24.1 290.4 24.1 290.4 20.5 M292.05 13.5 L292.05 17.1 295.55 17.1 295.55 31.1 299.15 31.1 299.15 17.1 302.65 17.1 302.65 13.5 292.05 13.5 M313.15 17.1 L316.55 17.1 316.55 31.1 320.15 31.1 320.15 13.5 309.55 13.5 309.55 31.1 313.15 31.1 313.15 17.1 M348.15 31.1 L348.15 27.5 344.55 27.5 344.55 31.1 348.15 31.1 M330.65 17.1 L330.65 13.5 321.8 13.5 321.8 31.1 330.65 31.1 330.65 27.5 325.4 27.5 325.4 24.1 330.65 24.1 330.65 20.5 325.4 20.5 325.4 17.1 330.65 17.1 M332.3 13.5 L332.3 17.1 335.8 17.1 335.8 31.1 339.4 31.1 339.4 17.1 342.9 17.1 342.9 13.5 332.3 13.5 M348.15 13.5 L344.55 13.5 344.55 25.85 348.15 25.85 348.15 13.5 M382.9 27.1 L382.3 26.95 Q371.65 24.65 367.7 17.9 L376.6 19.45 362.35 8.4 356.7 25.5 362.5 20.05 Q363.9 26.1 369.4 36.95 L382.0 27.4 382.9 27.1" fill="#01498f" fill-rule="evenodd" stroke="none"/>
    <path d="M11.4 26.8 Q21.5 24.45 25.3 17.9 L16.4 19.45 30.65 8.4 36.3 25.5 30.5 20.05 Q29.15 25.95 23.9 36.4 L23.6 36.95 11.0 27.4 10.1 27.1 10.7 26.95 11.4 26.8 M382.9 27.1 L382.0 27.4 369.4 36.95 Q363.9 26.1 362.5 20.05 L356.7 25.5 362.35 8.4 376.6 19.45 367.7 17.9 Q371.65 24.65 382.3 26.95 L382.9 27.1 M348.15 13.5 L348.15 25.85 344.55 25.85 344.55 13.5 348.15 13.5 M332.3 13.5 L342.9 13.5 342.9 17.1 339.4 17.1 339.4 31.1 335.8 31.1 335.8 17.1 332.3 17.1 332.3 13.5 M330.65 17.1 L325.4 17.1 325.4 20.5 330.65 20.5 330.65 24.1 325.4 24.1 325.4 27.5 330.65 27.5 330.65 31.1 321.8 31.1 321.8 13.5 330.65 13.5 330.65 17.1 M348.15 31.1 L344.55 31.1 344.55 27.5 348.15 27.5 348.15 31.1 M313.15 17.1 L313.15 31.1 309.55 31.1 309.55 13.5 320.15 13.5 320.15 31.1 316.55 31.1 316.55 17.1 313.15 17.1 M292.05 13.5 L302.65 13.5 302.65 17.1 299.15 17.1 299.15 31.1 295.55 31.1 295.55 17.1 292.05 17.1 292.05 13.5 M290.4 20.5 L290.4 24.1 285.15 24.1 285.15 31.1 281.55 31.1 281.55 13.5 290.4 13.5 290.4 17.1 285.15 17.1 285.15 20.5 290.4 20.5 M307.9 31.1 L304.3 31.1 304.3 27.5 307.9 27.5 307.9 31.1 M267.65 22.35 L265.9 22.35 265.9 24.0 267.65 24.0 267.65 31.1 264.05 31.1 264.05 24.1 260.65 24.1 260.65 31.1 257.05 31.1 257.05 13.5 267.65 13.5 267.65 22.35 M264.05 17.1 L260.65 17.1 260.65 20.5 264.05 20.5 264.05 17.1 M272.9 20.5 L276.3 20.5 276.3 17.1 272.9 17.1 272.9 20.5 M279.9 13.5 L279.9 31.1 276.3 31.1 276.3 24.1 272.9 24.1 272.9 31.1 269.3 31.1 269.3 13.5 279.9 13.5 M248.4 17.1 L248.4 27.5 251.8 27.5 251.8 24.0 255.4 24.0 255.4 31.05 253.65 31.05 253.65 31.1 244.8 31.1 244.8 15.25 244.9 15.25 244.9 13.55 246.55 13.55 246.55 13.5 253.65 13.5 253.65 13.55 255.4 13.55 255.4 20.6 251.8 20.6 251.8 17.1 248.4 17.1 M243.15 24.1 L237.9 24.1 237.9 27.5 243.15 27.5 243.15 31.1 234.3 31.1 234.3 13.5 243.15 13.5 243.15 17.1 237.9 17.1 237.9 20.5 243.15 20.5 243.15 24.1 M225.65 17.1 L225.65 31.1 222.05 31.1 222.05 13.5 232.65 13.5 232.65 31.1 229.05 31.1 229.05 17.1 225.65 17.1 M220.4 13.5 L220.4 31.1 216.8 31.1 216.8 13.5 220.4 13.5 M208.15 17.1 L208.15 31.1 204.55 31.1 204.55 17.1 201.15 17.1 201.15 31.1 197.55 31.1 197.55 13.5 215.15 13.5 215.15 31.1 211.55 31.1 211.55 17.1 208.15 17.1 M183.65 17.1 L183.65 27.5 187.05 27.5 187.05 17.1 183.65 17.1 M167.8 17.1 L167.8 13.5 178.4 13.5 178.4 17.1 174.9 17.1 174.9 31.1 171.3 31.1 171.3 17.1 167.8 17.1 M180.15 13.55 L181.8 13.55 181.8 13.5 190.65 13.5 190.65 31.05 188.9 31.05 188.9 31.1 180.05 31.1 180.05 15.25 180.15 15.25 180.15 13.55 M153.9 17.1 L153.9 31.1 150.3 31.1 150.3 13.5 160.9 13.5 160.9 31.1 157.3 31.1 157.3 17.1 153.9 17.1 M148.65 13.5 L148.65 31.1 145.05 31.1 145.05 13.5 148.65 13.5 M143.4 20.6 L141.65 20.6 141.65 24.0 143.4 24.0 143.4 31.1 139.8 31.1 139.8 24.1 136.4 24.1 136.4 31.1 132.8 31.1 132.8 13.5 136.4 13.5 136.4 20.5 139.8 20.5 139.8 13.5 143.4 13.5 143.4 20.6 M124.15 17.1 L124.15 20.5 131.15 20.5 131.15 31.05 129.4 31.05 129.4 31.1 120.55 31.1 120.55 27.5 127.55 27.5 127.55 24.1 120.55 24.1 120.55 15.25 120.65 15.25 120.65 13.55 122.3 13.55 122.3 13.5 131.15 13.5 131.15 17.1 124.15 17.1 M111.9 13.5 L111.9 15.25 113.65 15.25 113.65 29.35 111.9 29.35 111.9 31.1 103.05 31.1 103.05 13.5 111.9 13.5 M106.65 17.1 L106.65 27.5 110.05 27.5 110.05 17.1 106.65 17.1 M94.4 24.1 L94.4 31.1 90.8 31.1 90.8 13.5 101.4 13.5 101.4 31.1 97.8 31.1 97.8 24.1 94.4 24.1 M82.15 17.1 L82.15 27.5 85.55 27.5 85.55 17.1 82.15 17.1 M94.4 17.1 L94.4 20.5 97.8 20.5 97.8 17.1 94.4 17.1 M87.4 31.05 L87.4 31.1 78.55 31.1 78.55 15.25 78.65 15.25 78.65 13.55 80.3 13.55 80.3 13.5 89.15 13.5 89.15 31.05 87.4 31.05 M64.65 24.1 L59.4 24.1 59.4 31.1 55.8 31.1 55.8 13.5 66.4 13.5 66.4 24.05 64.65 24.05 64.65 24.1 M62.8 17.1 L59.4 17.1 59.4 20.5 62.8 20.5 62.8 17.1 M71.65 13.5 L71.65 27.5 76.9 27.5 76.9 31.1 68.05 31.1 68.05 13.5 71.65 13.5 M47.15 13.5 L47.15 27.5 50.55 27.5 50.55 13.5 54.15 13.5 54.15 31.05 52.4 31.05 52.4 31.1 43.55 31.1 43.55 13.5 47.15 13.5" fill="#5faefe" fill-rule="evenodd" stroke="none"/>
    <path d="M23.9 36.4 Q37.65 44.25 55.45 44.25 L339.4 44.25 Q362.35 44.25 378.55 31.15 394.7 18.25 394.85 0.0 L0.0 0.0 Q0.15 15.25 11.4 26.8" fill="none" stroke="#5faefe" stroke-linecap="square" stroke-linejoin="miter-clip" stroke-miterlimit="3.0" stroke-width="2.0"/>
  </g>
</svg>
