<?xml version="1.0" encoding="UTF-8" standalone="no"?>
<svg xmlns:xlink="http://www.w3.org/1999/xlink" height="48.5px" width="211.7px" xmlns="http://www.w3.org/2000/svg">
  <g transform="matrix(1.0, 0.0, 0.0, 1.0, -84.45, 2.95)">
    <path d="M264.4 9.1 L264.4 7.35 260.8 7.35 260.8 10.95 262.55 10.95 262.55 24.85 260.8 24.85 260.8 28.45 264.4 28.45 264.4 26.7 266.15 26.7 266.15 9.1 264.4 9.1 M255.55 19.6 L253.9 19.6 253.9 17.95 255.55 17.95 255.55 19.6 M245.05 14.35 L245.05 23.1 243.4 23.1 243.4 14.35 239.8 14.35 239.8 26.7 246.9 26.7 246.9 26.65 248.65 26.65 248.65 14.35 245.05 14.35 M250.4 14.4 L250.4 16.1 250.3 16.1 250.3 26.7 259.15 26.7 259.15 23.1 253.9 23.1 253.9 21.45 259.15 21.45 259.15 14.35 252.05 14.35 252.05 14.4 250.4 14.4 M282.9 27.1 L282.3 26.95 282.4 27.3 282.9 27.1 M278.55 31.15 Q274.25 34.6 269.5 37.2 256.25 44.25 239.4 44.25 L141.2 44.25 Q124.35 44.25 111.1 37.2 106.35 34.6 102.05 31.15 99.65 29.25 97.6 27.2 L97.55 27.2 Q85.9 15.5 85.75 0.0 L294.85 0.0 Q294.7 15.5 283.05 27.2 L283.0 27.2 278.55 31.15 M115.65 10.95 L115.65 7.35 112.05 7.35 112.05 9.1 110.3 9.1 110.3 26.7 112.05 26.7 112.05 28.45 115.65 28.45 115.65 24.85 113.9 24.85 113.9 10.95 115.65 10.95 M124.4 26.7 L124.4 26.65 126.15 26.65 126.15 14.35 119.05 14.35 119.05 14.4 117.4 14.4 117.4 16.1 117.3 16.1 117.3 26.7 124.4 26.7 M131.4 17.95 L134.9 17.95 134.9 14.35 127.8 14.35 127.8 26.7 131.4 26.7 131.4 17.95 M122.55 17.95 L122.55 23.1 120.9 23.1 120.9 17.95 122.55 17.95 M154.05 23.1 L152.4 23.1 152.4 14.35 148.8 14.35 148.8 26.7 155.9 26.7 155.9 26.65 157.65 26.65 157.65 14.35 154.05 14.35 154.05 23.1 M147.15 14.35 L143.55 14.35 143.55 28.35 141.8 28.35 141.8 31.95 145.4 31.95 145.4 31.9 147.15 31.9 147.15 14.35 M147.15 9.1 L143.55 9.1 143.55 12.7 147.15 12.7 147.15 9.1 M173.4 23.1 L173.4 17.95 176.9 17.95 176.9 14.35 173.4 14.35 173.4 10.85 169.8 10.85 169.8 26.7 176.9 26.7 176.9 23.1 173.4 23.1 M168.15 19.6 L162.9 19.6 162.9 17.95 168.15 17.95 168.15 14.35 161.05 14.35 161.05 14.4 159.4 14.4 159.4 16.1 159.3 16.1 159.3 19.7 159.4 19.7 159.4 21.45 164.55 21.45 164.55 23.1 159.3 23.1 159.3 26.7 166.4 26.7 166.4 26.65 168.15 26.65 168.15 19.6 M197.9 17.95 L199.55 17.95 199.55 23.1 197.9 23.1 197.9 17.95 M187.4 17.95 L189.05 17.95 189.05 19.7 192.65 19.7 192.65 14.4 190.9 14.4 190.9 14.35 185.55 14.35 185.55 14.4 183.9 14.4 183.9 16.1 183.8 16.1 183.8 26.7 190.9 26.7 190.9 26.65 192.65 26.65 192.65 21.35 189.05 21.35 189.05 23.1 187.4 23.1 187.4 17.95 M203.15 26.65 L203.15 14.35 196.05 14.35 196.05 14.4 194.4 14.4 194.4 16.1 194.3 16.1 194.3 26.7 201.4 26.7 201.4 26.65 203.15 26.65 M208.4 17.95 L210.05 17.95 210.05 26.7 213.65 26.7 213.65 14.35 204.8 14.35 204.8 26.7 208.4 26.7 208.4 17.95 M218.9 10.85 L215.3 10.85 215.3 26.7 222.4 26.7 222.4 23.1 218.9 23.1 218.9 17.95 222.4 17.95 222.4 14.35 218.9 14.35 218.9 10.85 M232.9 17.95 L234.55 17.95 234.55 26.7 238.15 26.7 238.15 14.35 229.3 14.35 229.3 26.7 232.9 26.7 232.9 17.95 M224.05 12.7 L227.65 12.7 227.65 9.1 224.05 9.1 224.05 12.7 M227.65 14.35 L224.05 14.35 224.05 26.7 227.65 26.7 227.65 14.35 M98.2 27.3 L98.3 26.95 97.7 27.1 98.2 27.3" fill="#01498f" fill-rule="evenodd" stroke="none"/>
    <path d="M264.4 9.1 L266.15 9.1 266.15 26.7 264.4 26.7 264.4 28.45 260.8 28.45 260.8 24.85 262.55 24.85 262.55 10.95 260.8 10.95 260.8 7.35 264.4 7.35 264.4 9.1 M250.4 14.4 L252.05 14.4 252.05 14.35 259.15 14.35 259.15 21.45 253.9 21.45 253.9 23.1 259.15 23.1 259.15 26.7 250.3 26.7 250.3 16.1 250.4 16.1 250.4 14.4 M245.05 14.35 L248.65 14.35 248.65 26.65 246.9 26.65 246.9 26.7 239.8 26.7 239.8 14.35 243.4 14.35 243.4 23.1 245.05 23.1 245.05 14.35 M255.55 19.6 L255.55 17.95 253.9 17.95 253.9 19.6 255.55 19.6 M227.65 14.35 L227.65 26.7 224.05 26.7 224.05 14.35 227.65 14.35 M224.05 12.7 L224.05 9.1 227.65 9.1 227.65 12.7 224.05 12.7 M232.9 17.95 L232.9 26.7 229.3 26.7 229.3 14.35 238.15 14.35 238.15 26.7 234.55 26.7 234.55 17.95 232.9 17.95 M218.9 10.85 L218.9 14.35 222.4 14.35 222.4 17.95 218.9 17.95 218.9 23.1 222.4 23.1 222.4 26.7 215.3 26.7 215.3 10.85 218.9 10.85 M208.4 17.95 L208.4 26.7 204.8 26.7 204.8 14.35 213.65 14.35 213.65 26.7 210.05 26.7 210.05 17.95 208.4 17.95 M203.15 26.65 L201.4 26.65 201.4 26.7 194.3 26.7 194.3 16.1 194.4 16.1 194.4 14.4 196.05 14.4 196.05 14.35 203.15 14.35 203.15 26.65 M187.4 17.95 L187.4 23.1 189.05 23.1 189.05 21.35 192.65 21.35 192.65 26.65 190.9 26.65 190.9 26.7 183.8 26.7 183.8 16.1 183.9 16.1 183.9 14.4 185.55 14.4 185.55 14.35 190.9 14.35 190.9 14.4 192.65 14.4 192.65 19.7 189.05 19.7 189.05 17.95 187.4 17.95 M197.9 17.95 L197.9 23.1 199.55 23.1 199.55 17.95 197.9 17.95 M168.15 19.6 L168.15 26.65 166.4 26.65 166.4 26.7 159.3 26.7 159.3 23.1 164.55 23.1 164.55 21.45 159.4 21.45 159.4 19.7 159.3 19.7 159.3 16.1 159.4 16.1 159.4 14.4 161.05 14.4 161.05 14.35 168.15 14.35 168.15 17.95 162.9 17.95 162.9 19.6 168.15 19.6 M173.4 23.1 L176.9 23.1 176.9 26.7 169.8 26.7 169.8 10.85 173.4 10.85 173.4 14.35 176.9 14.35 176.9 17.95 173.4 17.95 173.4 23.1 M147.15 9.1 L147.15 12.7 143.55 12.7 143.55 9.1 147.15 9.1 M147.15 14.35 L147.15 31.9 145.4 31.9 145.4 31.95 141.8 31.95 141.8 28.35 143.55 28.35 143.55 14.35 147.15 14.35 M154.05 23.1 L154.05 14.35 157.65 14.35 157.65 26.65 155.9 26.65 155.9 26.7 148.8 26.7 148.8 14.35 152.4 14.35 152.4 23.1 154.05 23.1 M122.55 17.95 L120.9 17.95 120.9 23.1 122.55 23.1 122.55 17.95 M131.4 17.95 L131.4 26.7 127.8 26.7 127.8 14.35 134.9 14.35 134.9 17.95 131.4 17.95 M124.4 26.7 L117.3 26.7 117.3 16.1 117.4 16.1 117.4 14.4 119.05 14.4 119.05 14.35 126.15 14.35 126.15 26.65 124.4 26.65 124.4 26.7 M115.65 10.95 L113.9 10.95 113.9 24.85 115.65 24.85 115.65 28.45 112.05 28.45 112.05 26.7 110.3 26.7 110.3 9.1 112.05 9.1 112.05 7.35 115.65 7.35 115.65 10.95" fill="#5daefc" fill-rule="evenodd" stroke="none"/>
    <path d="M278.55 31.15 L283.0 27.2 283.05 27.2 Q294.7 15.5 294.85 0.0 L85.75 0.0 Q85.9 15.5 97.55 27.2 L97.6 27.2 Q99.65 29.25 102.05 31.15 106.35 34.6 111.1 37.2 124.35 44.25 141.2 44.25 L239.4 44.25 Q256.25 44.25 269.5 37.2 274.25 34.6 278.55 31.15 Z" fill="none" stroke="#5daefc" stroke-linecap="square" stroke-linejoin="miter-clip" stroke-miterlimit="3.0" stroke-width="2.0"/>
  </g>
</svg>
