<?xml version="1.0" encoding="UTF-8" standalone="no"?>
<svg xmlns:xlink="http://www.w3.org/1999/xlink" height="22.0px" width="22.0px" xmlns="http://www.w3.org/2000/svg">
  <g transform="matrix(1.0, 0.0, 0.0, 1.0, 0.0, 0.0)">
    <path d="M19.0 19.0 L14.05 19.0 3.0 19.0 3.0 16.05 3.0 3.0 14.05 3.0 19.0 3.0 19.0 16.05 19.0 19.0" fill="#333333" fill-opacity="0.0" fill-rule="evenodd" stroke="none"/>
    <path d="M19.0 3.0 L14.05 3.0 3.0 3.0 3.0 16.05 3.0 19.0 2.95 19.0 2.0 19.0 2.0 16.05 2.0 2.95 2.0 2.0 2.95 2.0 14.05 2.0 19.0 2.0 19.0 2.95 19.0 3.0 M21.0 1.0 L21.0 0.0 22.0 0.0 22.0 2.95 22.0 16.05 22.0 22.0 14.05 22.0 2.95 22.0 0.0 22.0 0.0 21.0 1.0 21.0 2.95 21.0 14.05 21.0 21.0 21.0 21.0 16.05 21.0 2.95 21.0 1.0" fill="#9a9b9d" fill-rule="evenodd" stroke="none"/>
    <path d="M14.0 19.0 L14.0 16.05 14.0 16.0 14.05 16.0 19.0 16.0 20.0 16.0 20.0 2.95 20.0 2.0 19.0 2.0 14.05 2.0 2.95 2.0 2.0 2.0 2.0 2.95 2.0 16.05 2.0 19.0 2.0 20.0 2.95 20.0 14.0 20.0 14.0 19.0 M1.0 21.0 L1.0 16.05 1.0 2.95 1.0 1.0 2.95 1.0 14.05 1.0 21.0 1.0 21.0 2.95 21.0 16.05 21.0 21.0 14.05 21.0 2.95 21.0 1.0 21.0" fill="#e5e6e7" fill-rule="evenodd" stroke="none"/>
    <path d="M19.0 16.0 L19.0 3.0 19.0 2.95 19.0 2.0 20.0 2.0 20.0 2.95 20.0 16.0 19.0 16.0 M3.0 19.0 L14.0 19.0 14.0 20.0 2.95 20.0 2.0 20.0 2.0 19.0 2.95 19.0 3.0 19.0 M21.0 1.0 L14.05 1.0 2.95 1.0 1.0 1.0 1.0 2.95 1.0 16.05 1.0 21.0 0.0 21.0 0.0 16.05 0.0 2.95 0.0 0.0 2.95 0.0 14.05 0.0 21.0 0.0 21.0 1.0" fill="#ffffff" fill-rule="evenodd" stroke="none"/>
    <path d="M19.5 17.55 L17.5 19.55 15.45 17.55 19.5 17.55" fill="#000000" fill-rule="evenodd" stroke="none"/>
  </g>
</svg>
