<?xml version="1.0" encoding="UTF-8" standalone="no"?>
<svg xmlns:xlink="http://www.w3.org/1999/xlink" height="38.55px" width="98.55px" xmlns="http://www.w3.org/2000/svg">
  <g transform="matrix(1.0, 0.0, 0.0, 1.0, 4.2, 1.85)">
    <path d="M80.25 12.1 L71.4 12.1 71.4 16.4 80.25 16.4 80.25 29.7 78.05 29.7 78.05 29.8 66.85 29.8 66.85 25.2 75.7 25.2 75.7 20.9 66.85 20.9 66.85 9.75 67.0 9.75 67.0 7.65 69.1 7.65 69.1 7.55 80.25 7.55 80.25 12.1 M64.8 12.1 L58.15 12.1 58.15 16.4 64.8 16.4 64.8 20.9 58.15 20.9 58.15 25.2 64.8 25.2 64.8 29.8 53.65 29.8 53.65 7.55 64.8 7.55 64.8 12.1 M51.55 20.9 L47.15 20.9 47.15 29.8 42.6 29.8 42.6 20.9 38.2 20.9 38.2 7.55 42.7 7.55 42.7 16.4 47.0 16.4 47.0 7.55 51.55 7.55 51.55 20.9 M25.4 22.1 L29.9 22.1 29.9 26.6 27.7 26.6 27.7 28.8 5.5 28.8 5.5 26.6 3.3 26.6 3.3 22.1 7.85 22.1 7.85 24.3 25.4 24.3 25.4 22.1 M25.05 14.25 L19.65 14.25 19.65 8.85 25.05 8.85 25.05 14.25 M13.15 8.85 L13.15 14.25 7.75 14.25 7.75 8.85 13.15 8.85" fill="#5faefe" fill-rule="evenodd" stroke="none"/>
    <path d="M4.8 -0.85 L85.35 -0.85 Q93.35 -0.85 93.35 7.2 L93.35 27.7 Q93.35 35.7 85.35 35.7 L4.8 35.7 Q-3.2 35.7 -3.2 27.7 L-3.2 7.2 Q-3.2 -0.85 4.8 -0.85 M51.55 20.9 L51.55 7.55 47.0 7.55 47.0 16.4 42.7 16.4 42.7 7.55 38.2 7.55 38.2 20.9 42.6 20.9 42.6 29.8 47.15 29.8 47.15 20.9 51.55 20.9 M64.8 12.1 L64.8 7.55 53.65 7.55 53.65 29.8 64.8 29.8 64.8 25.2 58.15 25.2 58.15 20.9 64.8 20.9 64.8 16.4 58.15 16.4 58.15 12.1 64.8 12.1 M80.25 12.1 L80.25 7.55 69.1 7.55 69.1 7.65 67.0 7.65 67.0 9.75 66.85 9.75 66.85 20.9 75.7 20.9 75.7 25.2 66.85 25.2 66.85 29.8 78.05 29.8 78.05 29.7 80.25 29.7 80.25 16.4 71.4 16.4 71.4 12.1 80.25 12.1 M25.4 22.1 L25.4 24.3 7.85 24.3 7.85 22.1 3.3 22.1 3.3 26.6 5.5 26.6 5.5 28.8 27.7 28.8 27.7 26.6 29.9 26.6 29.9 22.1 25.4 22.1 M13.15 8.85 L7.75 8.85 7.75 14.25 13.15 14.25 13.15 8.85 M25.05 14.25 L25.05 8.85 19.65 8.85 19.65 14.25 25.05 14.25" fill="#01498f" fill-rule="evenodd" stroke="none"/>
    <path d="M4.8 -0.85 Q-3.2 -0.85 -3.2 7.2 L-3.2 27.7 Q-3.2 35.7 4.8 35.7 L85.35 35.7 Q93.35 35.7 93.35 27.7 L93.35 7.2 Q93.35 -0.85 85.35 -0.85 L4.8 -0.85 Z" fill="none" stroke="#5faefe" stroke-linecap="square" stroke-linejoin="miter-clip" stroke-miterlimit="3.0" stroke-width="1.5"/>
  </g>
</svg>
