<?xml version="1.0" encoding="UTF-8" standalone="no"?>
<svg xmlns:xlink="http://www.w3.org/1999/xlink" height="38.55px" width="98.55px" xmlns="http://www.w3.org/2000/svg">
  <g transform="matrix(1.0, 0.0, 0.0, 1.0, 4.2, 1.85)">
    <path d="M63.55 11.55 L63.55 24.95 67.95 24.95 67.95 11.55 63.55 11.55 M72.6 6.95 L72.6 29.55 70.35 29.55 70.35 29.6 58.95 29.6 58.95 9.2 59.05 9.2 59.05 7.0 61.2 7.0 61.2 6.95 72.6 6.95 M56.8 6.95 L56.8 29.6 52.15 29.6 52.15 11.55 47.75 11.55 47.75 29.6 43.15 29.6 43.15 6.95 56.8 6.95 M20.45 6.65 L20.45 4.9 23.15 4.9 23.15 3.1 26.45 3.1 26.45 8.85 23.75 8.85 23.75 10.6 21.05 10.6 21.05 12.4 18.35 12.4 18.35 14.15 15.05 14.15 15.05 12.4 12.4 12.4 12.4 10.6 9.7 10.6 9.7 8.85 6.95 8.85 6.95 3.1 10.25 3.1 10.25 4.9 12.95 4.9 12.95 6.65 15.65 6.65 15.65 8.45 17.75 8.45 17.75 6.65 20.45 6.65 M25.05 19.65 L19.65 19.65 19.65 14.25 25.05 14.25 25.05 19.65 M7.75 14.25 L13.15 14.25 13.15 19.65 7.75 19.65 7.75 14.25 M3.3 30.2 L3.3 25.7 5.5 25.7 5.5 23.5 27.7 23.5 27.7 25.7 29.9 25.7 29.9 30.2 25.35 30.2 25.35 28.0 7.8 28.0 7.8 30.2 3.3 30.2" fill="#5faefe" fill-rule="evenodd" stroke="none"/>
    <path d="M4.8 -0.85 L85.35 -0.85 Q93.35 -0.85 93.35 7.2 L93.35 27.7 Q93.35 35.7 85.35 35.7 L4.8 35.7 Q-3.2 35.7 -3.2 27.7 L-3.2 7.2 Q-3.2 -0.85 4.8 -0.85 M56.8 6.95 L43.15 6.95 43.15 29.6 47.75 29.6 47.75 11.55 52.15 11.55 52.15 29.6 56.8 29.6 56.8 6.95 M72.6 6.95 L61.2 6.95 61.2 7.0 59.05 7.0 59.05 9.2 58.95 9.2 58.95 29.6 70.35 29.6 70.35 29.55 72.6 29.55 72.6 6.95 M63.55 11.55 L67.95 11.55 67.95 24.95 63.55 24.95 63.55 11.55 M20.45 6.65 L17.75 6.65 17.75 8.45 15.65 8.45 15.65 6.65 12.95 6.65 12.95 4.9 10.25 4.9 10.25 3.1 6.95 3.1 6.95 8.85 9.7 8.85 9.7 10.6 12.4 10.6 12.4 12.4 15.05 12.4 15.05 14.15 18.35 14.15 18.35 12.4 21.05 12.4 21.05 10.6 23.75 10.6 23.75 8.85 26.45 8.85 26.45 3.1 23.15 3.1 23.15 4.9 20.45 4.9 20.45 6.65 M7.75 14.25 L7.75 19.65 13.15 19.65 13.15 14.25 7.75 14.25 M25.05 19.65 L25.05 14.25 19.65 14.25 19.65 19.65 25.05 19.65 M3.3 30.2 L7.8 30.2 7.8 28.0 25.35 28.0 25.35 30.2 29.9 30.2 29.9 25.7 27.7 25.7 27.7 23.5 5.5 23.5 5.5 25.7 3.3 25.7 3.3 30.2" fill="#01498f" fill-rule="evenodd" stroke="none"/>
    <path d="M4.8 -0.85 Q-3.2 -0.85 -3.2 7.2 L-3.2 27.7 Q-3.2 35.7 4.8 35.7 L85.35 35.7 Q93.35 35.7 93.35 27.7 L93.35 7.2 Q93.35 -0.85 85.35 -0.85 L4.8 -0.85 Z" fill="none" stroke="#5faefe" stroke-linecap="square" stroke-linejoin="miter-clip" stroke-miterlimit="3.0" stroke-width="1.5"/>
  </g>
</svg>
