<?xml version="1.0" encoding="UTF-8" standalone="no"?>
<svg xmlns:xlink="http://www.w3.org/1999/xlink" height="36.0px" width="76.0px" xmlns="http://www.w3.org/2000/svg">
  <g transform="matrix(1.0, 0.0, 0.0, 1.0, 0.5, 0.5)">
    <path d="M0.5 5.65 L0.5 26.85 0.5 33.95 7.15 33.95 66.2 33.95 73.9 33.95 73.9 26.85 73.9 5.65 73.9 0.5 66.2 0.5 7.15 0.5 0.5 0.5 0.5 5.65 M-0.5 34.45 L-0.5 26.85 -0.5 5.65 -0.5 0.0 -0.35 -0.35 0.0 -0.5 7.15 -0.5 66.2 -0.5 74.4 -0.5 74.75 -0.35 74.9 0.0 74.9 5.65 74.9 26.85 74.9 34.45 74.75 34.8 74.4 34.95 66.2 34.95 7.15 34.95 0.0 34.95 -0.35 34.8 -0.5 34.45" fill="url(#gradient0)" fill-rule="evenodd" stroke="none"/>
    <path d="M0.1 35.0 L0.1 26.85 0.1 5.65 0.1 0.55 Q0.1 0.35 0.25 0.2 0.4 0.05 0.6 0.05 L7.15 0.05 66.2 0.05 75.0 0.05 Q74.8 0.05 74.65 0.2 74.5 0.35 74.5 0.55 L74.5 1.05 66.2 1.05 7.15 1.05 1.1 1.05 1.1 5.65 1.1 26.85 1.1 34.5 0.6 34.5 Q0.4 34.5 0.25 34.65 0.1 34.8 0.1 35.0" fill="url(#gradient1)" fill-rule="evenodd" stroke="none"/>
    <path d="M0.1 35.0 Q0.1 34.8 0.25 34.65 0.4 34.5 0.6 34.5 L1.1 34.5 7.15 34.5 66.2 34.5 74.5 34.5 74.5 26.85 74.5 5.65 74.5 1.05 74.5 0.55 Q74.5 0.35 74.65 0.2 74.8 0.05 75.0 0.05 L75.35 0.2 75.5 0.55 75.5 5.65 75.5 26.85 75.5 35.0 75.35 35.35 75.0 35.5 66.2 35.5 7.15 35.5 0.6 35.5 0.25 35.35 0.1 35.0" fill="url(#gradient2)" fill-rule="evenodd" stroke="none"/>
  </g>
  <defs>
    <linearGradient gradientTransform="matrix(0.046, 0.0, 0.0, 0.0216, 37.2, 17.2)" gradientUnits="userSpaceOnUse" id="gradient0" spreadMethod="pad" x1="-819.2" x2="819.2">
      <stop offset="0.0" stop-color="#0075bf"/>
      <stop offset="0.0" stop-color="#0075bf"/>
      <stop offset="0.9921568627450981" stop-color="#009dff"/>
      <stop offset="1.0" stop-color="#009dff"/>
      <stop offset="1.0" stop-color="#009dff"/>
    </linearGradient>
    <linearGradient gradientTransform="matrix(0.0457, 0.0, 0.0, 0.0213, 37.55, 17.5)" gradientUnits="userSpaceOnUse" id="gradient1" spreadMethod="pad" x1="-819.2" x2="819.2">
      <stop offset="0.0" stop-color="#0075bf"/>
      <stop offset="0.0" stop-color="#0075bf"/>
      <stop offset="0.9921568627450981" stop-color="#009dff"/>
      <stop offset="1.0" stop-color="#009dff"/>
      <stop offset="1.0" stop-color="#009dff"/>
    </linearGradient>
    <linearGradient gradientTransform="matrix(0.046, 0.0, 0.0, 0.0216, 37.8, 17.75)" gradientUnits="userSpaceOnUse" id="gradient2" spreadMethod="pad" x1="-819.2" x2="819.2">
      <stop offset="0.0" stop-color="#0075bf"/>
      <stop offset="0.0" stop-color="#0075bf"/>
      <stop offset="0.9921568627450981" stop-color="#009dff"/>
      <stop offset="1.0" stop-color="#009dff"/>
      <stop offset="1.0" stop-color="#009dff"/>
    </linearGradient>
  </defs>
</svg>
