<?xml version="1.0" encoding="UTF-8" standalone="no"?>
<svg xmlns:xlink="http://www.w3.org/1999/xlink" height="28.0px" width="321.6px" xmlns="http://www.w3.org/2000/svg">
  <g transform="matrix(1.0, 0.0, 0.0, 1.0, -155.45, -299.5)">
    <path d="M155.45 299.5 L183.45 299.5 183.45 327.5 155.45 327.5 155.45 299.5" fill="#ffffff" fill-rule="evenodd" stroke="none"/>
    <path d="M220.15 327.5 L192.15 327.5 192.15 299.5 220.15 299.5 220.15 327.5" fill="#000000" fill-rule="evenodd" stroke="none"/>
    <path d="M228.85 299.5 L256.85 299.5 256.85 327.5 228.85 327.5 228.85 299.5" fill="#ff0000" fill-rule="evenodd" stroke="none"/>
    <path d="M293.55 327.5 L265.55 327.5 265.55 299.5 293.55 299.5 293.55 327.5" fill="#00ff00" fill-rule="evenodd" stroke="none"/>
    <path d="M330.25 327.5 L302.25 327.5 302.25 299.5 330.25 299.5 330.25 327.5" fill="#0000ff" fill-rule="evenodd" stroke="none"/>
    <path d="M366.95 327.5 L338.95 327.5 338.95 299.5 366.95 299.5 366.95 327.5" fill="#ffff00" fill-rule="evenodd" stroke="none"/>
    <path d="M375.65 327.5 L375.65 299.5 403.65 299.5 403.65 327.5 375.65 327.5" fill="#cccccc" fill-rule="evenodd" stroke="none"/>
    <path d="M412.35 299.5 L440.35 299.5 440.35 327.5 412.35 327.5 412.35 299.5" fill="#663300" fill-rule="evenodd" stroke="none"/>
    <path d="M449.05 327.5 L449.05 299.5 477.05 299.5 477.05 327.5 449.05 327.5" fill="#ffcc66" fill-rule="evenodd" stroke="none"/>
  </g>
</svg>
