<?xml version="1.0" encoding="UTF-8" standalone="no"?>
<svg xmlns:xlink="http://www.w3.org/1999/xlink" height="26.95px" width="139.95px" xmlns="http://www.w3.org/2000/svg">
  <g transform="matrix(1.0, 0.0, 0.0, 1.0, 1.0, 1.0)">
    <path d="M22.6 7.0 L22.6 14.15 19.7 14.15 19.7 10.5 19.0 10.5 19.0 14.4 19.3 14.4 19.3 21.9 14.5 21.9 14.5 16.45 13.85 16.45 13.85 21.9 9.0 21.9 9.0 14.4 9.3 14.4 9.3 10.5 8.65 10.5 8.65 14.15 5.75 14.15 5.75 7.0 9.55 7.0 9.55 2.0 18.75 2.0 18.75 7.0 22.6 7.0" fill="#5faefe" fill-rule="evenodd" stroke="none"/>
    <path d="M137.95 21.95 Q137.95 24.95 134.95 24.95 L3.0 24.95 Q0.0 24.95 0.0 21.95 L0.0 3.0 Q0.0 0.0 3.0 0.0 L134.95 0.0 Q137.95 0.0 137.95 3.0 L137.95 21.95 M39.25 5.7 L30.95 5.7 30.95 19.55 33.75 19.55 33.75 8.55 36.45 8.55 36.45 19.55 39.25 19.55 39.25 5.7 M47.55 11.2 L43.4 11.2 43.4 8.55 47.55 8.55 47.55 5.7 40.6 5.7 40.6 19.55 47.55 19.55 47.55 16.7 43.4 16.7 43.4 14.05 47.55 14.05 47.55 11.2 M59.9 5.7 L57.1 5.7 57.1 16.7 55.8 16.7 55.8 5.7 52.95 5.7 52.95 16.7 51.65 16.7 51.65 5.7 48.85 5.7 48.85 19.55 58.55 19.55 58.55 19.5 59.9 19.5 59.9 5.7 M73.7 8.55 L73.7 5.7 66.75 5.7 66.75 5.75 65.45 5.75 65.45 7.1 65.4 7.1 65.4 14.05 70.9 14.05 70.9 16.7 65.4 16.7 65.4 19.55 72.35 19.55 72.35 19.5 73.7 19.5 73.7 11.2 68.2 11.2 68.2 8.55 73.7 8.55 M87.5 5.7 L84.7 5.7 84.7 19.55 87.5 19.55 87.5 5.7 M82.0 11.3 L83.35 11.3 83.35 5.7 80.55 5.7 80.55 11.2 77.85 11.2 77.85 5.7 75.05 5.7 75.05 19.55 77.85 19.55 77.85 14.05 80.55 14.05 80.55 19.55 83.35 19.55 83.35 13.95 82.0 13.95 82.0 11.3 M91.65 8.55 L94.35 8.55 94.35 19.55 97.15 19.55 97.15 5.7 88.85 5.7 88.85 19.55 91.65 19.55 91.65 8.55 M22.6 7.0 L18.75 7.0 18.75 2.0 9.55 2.0 9.55 7.0 5.75 7.0 5.75 14.15 8.65 14.15 8.65 10.5 9.3 10.5 9.3 14.4 9.0 14.4 9.0 21.9 13.85 21.9 13.85 16.45 14.5 16.45 14.5 21.9 19.3 21.9 19.3 14.4 19.0 14.4 19.0 10.5 19.7 10.5 19.7 14.15 22.6 14.15 22.6 7.0" fill="#01498f" fill-rule="evenodd" stroke="none"/>
    <path d="M137.95 21.95 L137.95 3.0 Q137.95 0.0 134.95 0.0 L3.0 0.0 Q0.0 0.0 0.0 3.0 L0.0 21.95 Q0.0 24.95 3.0 24.95 L134.95 24.95 Q137.95 24.95 137.95 21.95 Z" fill="none" stroke="#5faefe" stroke-linecap="square" stroke-linejoin="miter-clip" stroke-miterlimit="3.0" stroke-width="1.5"/>
    <path d="M91.65 8.55 L91.65 19.55 88.85 19.55 88.85 5.7 97.15 5.7 97.15 19.55 94.35 19.55 94.35 8.55 91.65 8.55 M83.35 11.3 L82.0 11.3 82.0 13.95 83.35 13.95 83.35 19.55 80.55 19.55 80.55 14.05 77.85 14.05 77.85 19.55 75.05 19.55 75.05 5.7 77.85 5.7 77.85 11.2 80.55 11.2 80.55 5.7 83.35 5.7 83.35 11.3 M87.5 5.7 L87.5 19.55 84.7 19.55 84.7 5.7 87.5 5.7 M73.7 8.55 L68.2 8.55 68.2 11.2 73.7 11.2 73.7 19.5 72.35 19.5 72.35 19.55 65.4 19.55 65.4 16.7 70.9 16.7 70.9 14.05 65.4 14.05 65.4 7.1 65.45 7.1 65.45 5.75 66.75 5.75 66.75 5.7 73.7 5.7 73.7 8.55 M59.9 5.7 L59.9 19.5 58.55 19.5 58.55 19.55 48.85 19.55 48.85 5.7 51.65 5.7 51.65 16.7 52.95 16.7 52.95 5.7 55.8 5.7 55.8 16.7 57.1 16.7 57.1 5.7 59.9 5.7 M47.55 11.2 L47.55 14.05 43.4 14.05 43.4 16.7 47.55 16.7 47.55 19.55 40.6 19.55 40.6 5.7 47.55 5.7 47.55 8.55 43.4 8.55 43.4 11.2 47.55 11.2 M30.95 5.7 L39.25 5.7 39.25 19.55 36.45 19.55 36.45 8.55 33.75 8.55 33.75 19.55 30.95 19.55 30.95 5.7" fill="#5faefe" fill-rule="evenodd" stroke="none"/>
  </g>
</svg>
