<?xml version="1.0" encoding="UTF-8" standalone="no"?>
<svg xmlns:xlink="http://www.w3.org/1999/xlink" height="13.85px" width="155.7px" xmlns="http://www.w3.org/2000/svg">
  <g transform="matrix(1.0, 0.0, 0.0, 1.0, 4.35, -5.7)">
    <path d="M151.35 5.7 L151.35 15.4 148.55 15.4 148.55 5.7 151.35 5.7 M151.35 16.7 L151.35 19.55 148.55 19.55 148.55 16.7 151.35 16.7 M143.1 16.7 L147.25 16.7 147.25 19.55 140.3 19.55 140.3 11.2 140.35 11.2 140.35 9.9 141.65 9.9 141.65 9.85 147.25 9.85 147.25 15.4 143.1 15.4 143.1 16.7 M143.1 13.95 L144.4 13.95 144.4 12.65 143.1 12.65 143.1 13.95 M138.95 9.85 L138.95 12.65 136.2 12.65 136.2 19.55 133.4 19.55 133.4 9.85 138.95 9.85 M125.2 11.2 L125.2 9.9 126.5 9.9 126.5 9.85 132.1 9.85 132.1 15.4 127.95 15.4 127.95 16.7 132.1 16.7 132.1 19.55 125.15 19.55 125.15 11.2 125.2 11.2 M129.25 12.65 L127.95 12.65 127.95 13.95 129.25 13.95 129.25 12.65 M123.85 19.55 L121.0 19.55 121.0 12.65 119.7 12.65 119.7 19.55 116.9 19.55 116.9 5.7 119.7 5.7 119.7 9.85 123.85 9.85 123.85 19.55 M103.15 8.55 L100.35 8.55 100.35 5.7 103.15 5.7 103.15 8.55 M108.6 12.65 L107.3 12.65 107.3 19.55 104.5 19.55 104.5 9.85 111.45 9.85 111.45 19.55 108.6 19.55 108.6 12.65 M103.15 19.55 L100.35 19.55 100.35 9.85 103.15 9.85 103.15 19.55 M94.9 5.7 L94.9 12.6 96.2 12.6 96.2 9.85 99.05 9.85 99.05 12.65 97.65 12.65 97.65 14.0 99.05 14.0 99.05 19.55 96.2 19.55 96.2 15.4 94.9 15.4 94.9 19.55 92.1 19.55 92.1 5.7 94.9 5.7 M85.2 9.85 L90.8 9.85 90.8 12.65 86.65 12.65 86.65 13.95 90.8 13.95 90.8 19.5 89.4 19.5 89.4 19.55 83.85 19.55 83.85 16.7 87.95 16.7 87.95 15.4 83.9 15.4 83.9 14.05 83.85 14.05 83.85 11.2 83.9 11.2 83.9 9.9 85.2 9.9 85.2 9.85 M74.25 9.85 L74.25 16.7 75.55 16.7 75.55 9.85 78.35 9.85 78.35 19.5 77.0 19.5 77.0 19.55 67.3 19.55 67.3 9.85 70.1 9.85 70.1 16.7 71.4 16.7 71.4 9.85 74.25 9.85 M61.85 15.4 L61.85 16.7 66.0 16.7 66.0 19.55 59.05 19.55 59.05 11.2 59.1 11.2 59.1 9.9 60.4 9.9 60.4 9.85 66.0 9.85 66.0 15.4 61.85 15.4 M63.15 12.65 L61.85 12.65 61.85 13.95 63.15 13.95 63.15 12.65 M57.75 9.85 L57.75 19.55 54.9 19.55 54.9 12.65 53.6 12.65 53.6 19.55 50.8 19.55 50.8 9.85 57.75 9.85 M42.5 15.4 L41.2 15.4 41.2 16.7 42.5 16.7 42.5 15.4 M42.5 12.65 L38.4 12.65 38.4 9.85 45.35 9.85 45.35 19.55 38.4 19.55 38.4 13.95 42.5 13.95 42.5 12.65 M30.15 9.85 L32.9 9.85 32.9 12.65 30.15 12.65 30.15 16.7 32.9 16.7 32.9 19.55 27.35 19.55 27.35 7.1 30.15 7.1 30.15 9.85 M26.0 9.85 L26.0 12.65 23.25 12.65 23.25 19.55 20.45 19.55 20.45 9.85 26.0 9.85 M19.15 9.85 L19.15 19.55 12.2 19.55 12.2 13.95 16.3 13.95 16.3 12.65 12.2 12.65 12.2 9.85 19.15 9.85 M8.1 9.85 L10.85 9.85 10.85 12.65 8.1 12.65 8.1 16.7 10.85 16.7 10.85 19.55 5.3 19.55 5.3 7.1 8.1 7.1 8.1 9.85 M3.95 8.55 L-1.55 8.55 -1.55 11.2 3.95 11.2 3.95 19.5 2.6 19.5 2.6 19.55 -4.35 19.55 -4.35 16.7 1.15 16.7 1.15 14.05 -4.35 14.05 -4.35 7.1 -4.3 7.1 -4.3 5.75 -3.0 5.75 -3.0 5.7 3.95 5.7 3.95 8.55 M16.3 15.4 L15.0 15.4 15.0 16.7 16.3 16.7 16.3 15.4" fill="#5faefe" fill-rule="evenodd" stroke="none"/>
  </g>
</svg>
