<?xml version="1.0" encoding="UTF-8" standalone="no"?>
<svg xmlns:xlink="http://www.w3.org/1999/xlink" height="9.7px" width="22.1px" xmlns="http://www.w3.org/2000/svg">
  <g transform="matrix(1.0, 0.0, 0.0, 1.0, 11.05, 4.85)">
    <path d="M-11.05 -3.4 L-11.05 -4.85 -6.85 -4.85 -6.85 -3.5 -5.5 -3.5 -5.5 -2.1 -4.1 -2.1 -4.1 -0.75 -2.75 -0.75 -2.75 0.7 -4.1 0.7 -4.1 2.1 -5.5 2.1 -5.5 3.45 -6.85 3.45 -6.85 4.85 -11.05 4.85 -11.05 3.4 -9.7 3.4 -9.7 2.0 -8.3 2.0 -8.3 0.65 -6.95 0.65 -6.95 -0.65 -8.3 -0.65 -8.3 -2.05 -9.7 -2.05 -9.7 -3.4 -11.05 -3.4 M2.75 -3.4 L2.75 -4.85 6.95 -4.85 6.95 -3.5 8.3 -3.5 8.3 -2.1 9.7 -2.1 9.7 -0.75 11.05 -0.75 11.05 0.7 9.7 0.7 9.7 2.1 8.3 2.1 8.3 3.45 6.95 3.45 6.95 4.85 2.75 4.85 2.75 3.4 4.1 3.4 4.1 2.0 5.5 2.0 5.5 0.65 6.85 0.65 6.85 -0.65 5.5 -0.65 5.5 -2.05 4.1 -2.05 4.1 -3.4 2.75 -3.4" fill="#ffffff" fill-rule="evenodd" stroke="none"/>
  </g>
</svg>
