<?xml version="1.0" encoding="UTF-8" standalone="no"?>
<svg xmlns:xlink="http://www.w3.org/1999/xlink" height="9.7px" width="35.9px" xmlns="http://www.w3.org/2000/svg">
  <g transform="matrix(1.0, 0.0, 0.0, 1.0, 17.95, 4.85)">
    <path d="M-15.2 -0.65 L-15.2 -2.05 -16.6 -2.05 -16.6 -3.4 -17.95 -3.4 -17.95 -4.85 -13.75 -4.85 -13.75 -3.5 -12.4 -3.5 -12.4 -2.1 -11.0 -2.1 -11.0 -0.75 -9.65 -0.75 -9.65 0.7 -11.0 0.7 -11.0 2.1 -12.4 2.1 -12.4 3.45 -13.75 3.45 -13.75 4.85 -17.95 4.85 -17.95 3.4 -16.6 3.4 -16.6 2.0 -15.2 2.0 -15.2 0.65 -13.85 0.65 -13.85 -0.65 -15.2 -0.65 M9.65 -3.4 L9.65 -4.85 13.85 -4.85 13.85 -3.5 15.2 -3.5 15.2 -2.1 16.6 -2.1 16.6 -0.75 17.95 -0.75 17.95 0.7 16.6 0.7 16.6 2.1 15.2 2.1 15.2 3.45 13.85 3.45 13.85 4.85 9.65 4.85 9.65 3.4 11.0 3.4 11.0 2.0 12.4 2.0 12.4 0.65 13.75 0.65 13.75 -0.65 12.4 -0.65 12.4 -2.05 11.0 -2.05 11.0 -3.4 9.65 -3.4 M2.8 -0.75 L4.15 -0.75 4.15 0.7 2.8 0.7 2.8 2.1 1.4 2.1 1.4 3.45 0.05 3.45 0.05 4.85 -4.15 4.85 -4.15 3.4 -2.8 3.4 -2.8 2.0 -1.4 2.0 -1.4 0.65 -0.05 0.65 -0.05 -0.65 -1.4 -0.65 -1.4 -2.05 -2.8 -2.05 -2.8 -3.4 -4.15 -3.4 -4.15 -4.85 0.05 -4.85 0.05 -3.5 1.4 -3.5 1.4 -2.1 2.8 -2.1 2.8 -0.75" fill="#ffffff" fill-rule="evenodd" stroke="none"/>
  </g>
</svg>
