<?xml version="1.0" encoding="UTF-8" standalone="no"?>
<svg xmlns:xlink="http://www.w3.org/1999/xlink" height="26.95px" width="139.95px" xmlns="http://www.w3.org/2000/svg">
  <g transform="matrix(1.0, 0.0, 0.0, 1.0, 1.0, 1.0)">
    <path d="M121.95 8.5 L121.95 19.5 124.75 19.5 124.75 5.65 116.45 5.65 116.45 19.5 119.25 19.5 119.25 8.5 121.95 8.5 M137.95 21.95 Q137.95 24.95 134.95 24.95 L3.0 24.95 Q0.0 24.95 0.0 21.95 L0.0 3.0 Q0.0 0.0 3.0 0.0 L134.95 0.0 Q137.95 0.0 137.95 3.0 L137.95 21.95 M33.75 19.5 L33.75 5.65 30.95 5.65 30.95 19.5 33.75 19.5 M57.2 13.95 L58.55 13.95 58.55 5.65 50.25 5.65 50.25 19.5 53.05 19.5 53.05 14.0 57.2 14.0 57.2 13.95 M43.4 8.5 L46.1 8.5 46.1 19.5 48.9 19.5 48.9 5.65 35.1 5.65 35.1 19.5 37.9 19.5 37.9 8.5 40.6 8.5 40.6 19.5 43.4 19.5 43.4 8.5 M55.75 8.5 L55.75 11.15 53.05 11.15 53.05 8.5 55.75 8.5 M72.35 19.5 L72.35 14.0 75.05 14.0 75.05 19.5 77.85 19.5 77.85 13.9 76.5 13.9 76.5 12.6 77.85 12.6 77.85 5.65 69.55 5.65 69.55 19.5 72.35 19.5 M62.7 8.5 L65.4 8.5 65.4 16.65 62.7 16.65 62.7 8.5 M68.2 5.65 L61.25 5.65 61.25 5.7 59.95 5.7 59.95 7.05 59.9 7.05 59.9 19.5 66.85 19.5 66.85 19.45 68.2 19.45 68.2 5.65 M72.35 11.15 L72.35 8.5 75.05 8.5 75.05 11.15 72.35 11.15 M84.75 8.5 L87.5 8.5 87.5 5.65 79.2 5.65 79.2 8.5 81.95 8.5 81.95 19.5 84.75 19.5 84.75 8.5 M109.6 11.25 L110.95 11.25 110.95 5.65 108.15 5.65 108.15 11.15 105.45 11.15 105.45 5.65 102.65 5.65 102.65 19.5 105.45 19.5 105.45 14.0 108.15 14.0 108.15 19.5 110.95 19.5 110.95 13.9 109.6 13.9 109.6 11.25 M101.3 8.5 L101.3 5.65 94.35 5.65 94.35 5.7 93.05 5.7 93.05 7.05 93.0 7.05 93.0 14.0 98.5 14.0 98.5 16.65 93.0 16.65 93.0 19.5 99.95 19.5 99.95 19.45 101.3 19.45 101.3 11.15 95.8 11.15 95.8 8.5 101.3 8.5 M115.1 5.65 L112.3 5.65 112.3 19.5 115.1 19.5 115.1 5.65 M5.05 10.5 L13.55 22.6 22.05 10.5 15.45 13.85 Q17.0 7.5 25.15 3.05 L14.05 3.05 Q10.55 8.35 10.9 13.45 L5.05 10.5" fill="#5faefe" fill-rule="evenodd" stroke="none"/>
    <path d="M121.95 8.5 L119.25 8.5 119.25 19.5 116.45 19.5 116.45 5.65 124.75 5.65 124.75 19.5 121.95 19.5 121.95 8.5 M115.1 5.65 L115.1 19.5 112.3 19.5 112.3 5.65 115.1 5.65 M101.3 8.5 L95.8 8.5 95.8 11.15 101.3 11.15 101.3 19.45 99.95 19.45 99.95 19.5 93.0 19.5 93.0 16.65 98.5 16.65 98.5 14.0 93.0 14.0 93.0 7.05 93.05 7.05 93.05 5.7 94.35 5.7 94.35 5.65 101.3 5.65 101.3 8.5 M109.6 11.25 L109.6 13.9 110.95 13.9 110.95 19.5 108.15 19.5 108.15 14.0 105.45 14.0 105.45 19.5 102.65 19.5 102.65 5.65 105.45 5.65 105.45 11.15 108.15 11.15 108.15 5.65 110.95 5.65 110.95 11.25 109.6 11.25 M84.75 8.5 L84.75 19.5 81.95 19.5 81.95 8.5 79.2 8.5 79.2 5.65 87.5 5.65 87.5 8.5 84.75 8.5 M72.35 11.15 L75.05 11.15 75.05 8.5 72.35 8.5 72.35 11.15 M68.2 5.65 L68.2 19.45 66.85 19.45 66.85 19.5 59.9 19.5 59.9 7.05 59.95 7.05 59.95 5.7 61.25 5.7 61.25 5.65 68.2 5.65 M62.7 8.5 L62.7 16.65 65.4 16.65 65.4 8.5 62.7 8.5 M72.35 19.5 L69.55 19.5 69.55 5.65 77.85 5.65 77.85 12.6 76.5 12.6 76.5 13.9 77.85 13.9 77.85 19.5 75.05 19.5 75.05 14.0 72.35 14.0 72.35 19.5 M55.75 8.5 L53.05 8.5 53.05 11.15 55.75 11.15 55.75 8.5 M43.4 8.5 L43.4 19.5 40.6 19.5 40.6 8.5 37.9 8.5 37.9 19.5 35.1 19.5 35.1 5.65 48.9 5.65 48.9 19.5 46.1 19.5 46.1 8.5 43.4 8.5 M57.2 13.95 L57.2 14.0 53.05 14.0 53.05 19.5 50.25 19.5 50.25 5.65 58.55 5.65 58.55 13.95 57.2 13.95 M33.75 19.5 L30.95 19.5 30.95 5.65 33.75 5.65 33.75 19.5 M5.05 10.5 L10.9 13.45 Q10.55 8.35 14.05 3.05 L25.15 3.05 Q17.0 7.5 15.45 13.85 L22.05 10.5 13.55 22.6 5.05 10.5" fill="#ffffff" fill-rule="evenodd" stroke="none"/>
    <path d="M137.95 21.95 L137.95 3.0 Q137.95 0.0 134.95 0.0 L3.0 0.0 Q0.0 0.0 0.0 3.0 L0.0 21.95 Q0.0 24.95 3.0 24.95 L134.95 24.95 Q137.95 24.95 137.95 21.95 Z" fill="none" stroke="#ffffff" stroke-linecap="square" stroke-linejoin="miter-clip" stroke-miterlimit="3.0" stroke-width="1.5"/>
  </g>
</svg>
