<?xml version="1.0" encoding="UTF-8" standalone="no"?>
<svg xmlns:xlink="http://www.w3.org/1999/xlink" height="17.95px" width="173.65px" xmlns="http://www.w3.org/2000/svg">
  <g transform="matrix(1.0, 0.0, 0.0, 1.0, 4.35, -5.7)">
    <path d="M163.7 9.85 L169.3 9.85 169.3 15.4 165.15 15.4 165.15 16.7 169.3 16.7 169.3 19.55 162.35 19.55 162.35 11.2 162.4 11.2 162.4 9.9 163.7 9.9 163.7 9.85 M165.15 12.65 L165.15 13.95 166.45 13.95 166.45 12.65 165.15 12.65 M161.0 5.7 L161.0 19.55 158.2 19.55 158.2 5.7 161.0 5.7 M156.85 9.85 L156.85 19.55 154.05 19.55 154.05 9.85 156.85 9.85 M152.7 8.55 L149.95 8.55 149.95 9.85 152.7 9.85 152.7 12.65 149.95 12.65 149.95 19.55 147.15 19.55 147.15 7.1 147.2 7.1 147.2 5.75 148.5 5.75 148.5 5.7 152.7 5.7 152.7 8.55 M154.05 5.7 L156.85 5.7 156.85 8.55 154.05 8.55 154.05 5.7 M134.7 5.7 L141.65 5.7 141.65 8.55 136.15 8.55 136.15 16.7 138.85 16.7 138.85 14.05 137.45 14.05 137.45 11.2 141.65 11.2 141.65 19.5 140.3 19.5 140.3 19.55 133.35 19.55 133.35 7.1 133.4 7.1 133.4 5.75 134.7 5.75 134.7 5.7 M126.5 8.55 L126.5 19.55 123.7 19.55 123.7 5.7 132.0 5.7 132.0 19.55 129.2 19.55 129.2 8.55 126.5 8.55 M122.35 14.0 L121.0 14.0 121.0 14.05 116.85 14.05 116.85 19.55 114.05 19.55 114.05 5.7 122.35 5.7 122.35 14.0 M116.85 11.2 L119.55 11.2 119.55 8.55 116.85 8.55 116.85 11.2 M108.6 9.85 L108.6 23.65 101.7 23.65 101.7 20.9 103.0 20.9 103.0 20.85 105.75 20.85 105.75 19.55 101.65 19.55 101.65 11.2 101.7 11.2 101.7 9.9 103.0 9.9 103.0 9.85 108.6 9.85 M104.45 12.65 L104.45 16.7 105.75 16.7 105.75 12.65 104.45 12.65 M100.35 9.85 L100.35 19.55 97.5 19.55 97.5 12.65 96.2 12.65 96.2 19.55 93.4 19.55 93.4 9.85 100.35 9.85 M92.05 8.55 L89.25 8.55 89.25 5.7 92.05 5.7 92.05 8.55 M85.15 7.1 L85.15 9.85 87.9 9.85 87.9 12.65 85.15 12.65 85.15 16.7 87.9 16.7 87.9 19.55 82.35 19.55 82.35 7.1 85.15 7.1 M81.05 19.5 L79.65 19.5 79.65 19.55 74.1 19.55 74.1 16.7 78.2 16.7 78.2 15.4 74.15 15.4 74.15 14.05 74.1 14.05 74.1 11.2 74.15 11.2 74.15 9.9 75.45 9.9 75.45 9.85 81.05 9.85 81.05 12.65 76.9 12.65 76.9 13.95 81.05 13.95 81.05 19.5 M92.05 19.55 L89.25 19.55 89.25 9.85 92.05 9.85 92.05 19.55 M72.75 8.55 L69.95 8.55 69.95 5.7 72.75 5.7 72.75 8.55 M64.5 9.85 L64.5 12.6 65.8 12.6 65.8 9.85 68.65 9.85 68.65 14.0 67.25 14.0 67.25 15.35 68.65 15.35 68.65 19.55 65.8 19.55 65.8 16.75 64.5 16.75 64.5 19.55 61.7 19.55 61.7 15.35 63.05 15.35 63.05 14.0 61.7 14.0 61.7 9.85 64.5 9.85 M72.75 19.55 L69.95 19.55 69.95 9.85 72.75 9.85 72.75 19.55 M54.8 9.85 L60.4 9.85 60.4 15.4 56.25 15.4 56.25 16.7 60.4 16.7 60.4 19.55 53.45 19.55 53.45 11.2 53.5 11.2 53.5 9.9 54.8 9.9 54.8 9.85 M48.0 9.85 L48.0 19.55 45.15 19.55 45.15 12.65 43.85 12.65 43.85 19.55 41.05 19.55 41.05 9.85 48.0 9.85 M56.25 12.65 L56.25 13.95 57.55 13.95 57.55 12.65 56.25 12.65 M39.75 9.85 L39.75 19.55 32.8 19.55 32.8 13.95 36.9 13.95 36.9 12.65 32.8 12.65 32.8 9.85 39.75 9.85 M27.35 5.7 L27.35 19.55 20.4 19.55 20.4 11.2 20.45 11.2 20.45 9.9 21.75 9.9 21.75 9.85 24.5 9.85 24.5 5.7 27.35 5.7 M24.5 12.65 L23.2 12.65 23.2 16.7 24.5 16.7 24.5 12.65 M35.6 16.7 L36.9 16.7 36.9 15.4 35.6 15.4 35.6 16.7 M19.1 9.85 L19.1 19.55 12.15 19.55 12.15 13.95 16.25 13.95 16.25 12.65 12.15 12.65 12.15 9.85 19.1 9.85 M5.25 9.85 L10.85 9.85 10.85 19.5 9.45 19.5 9.45 19.55 3.9 19.55 3.9 11.2 3.95 11.2 3.95 9.9 5.25 9.9 5.25 9.85 M2.6 19.55 L-4.35 19.55 -4.35 5.7 -1.55 5.7 -1.55 16.7 2.6 16.7 2.6 19.55 M8.0 12.65 L6.7 12.65 6.7 16.7 8.0 16.7 8.0 12.65 M16.25 15.4 L14.95 15.4 14.95 16.7 16.25 16.7 16.25 15.4" fill="#5faefe" fill-rule="evenodd" stroke="none"/>
  </g>
</svg>
