<?xml version="1.0" encoding="UTF-8" standalone="no"?>
<svg xmlns:xlink="http://www.w3.org/1999/xlink" height="26.95px" width="139.95px" xmlns="http://www.w3.org/2000/svg">
  <g transform="matrix(1.0, 0.0, 0.0, 1.0, 1.0, 1.0)">
    <path d="M137.95 3.0 L137.95 21.95 Q137.95 24.95 134.95 24.95 L3.0 24.95 Q0.0 24.95 0.0 21.95 L0.0 3.0 Q0.0 0.0 3.0 0.0 L134.95 0.0 Q137.95 0.0 137.95 3.0 M16.05 4.75 L16.05 9.0 20.35 9.0 16.05 4.75 M20.75 19.85 L20.75 9.75 15.1 9.75 15.1 4.3 7.5 4.3 7.5 19.85 20.75 19.85 M33.75 5.65 L30.95 5.65 30.95 19.5 37.9 19.5 37.9 16.65 33.75 16.65 33.75 5.65 M54.35 19.5 L57.15 19.5 57.15 5.65 48.85 5.65 48.85 19.5 51.65 19.5 51.65 14.0 54.35 14.0 54.35 19.5 M42.0 8.5 L44.7 8.5 44.7 16.65 42.0 16.65 42.0 8.5 M47.5 5.65 L40.55 5.65 40.55 5.7 39.25 5.7 39.25 7.05 39.2 7.05 39.2 19.5 46.15 19.5 46.15 19.45 47.5 19.45 47.5 5.65 M54.35 8.5 L54.35 11.15 51.65 11.15 51.65 8.5 54.35 8.5 M61.3 8.5 L64.0 8.5 64.0 16.65 61.3 16.65 61.3 8.5 M66.8 7.05 L65.45 7.05 65.45 5.65 58.5 5.65 58.5 19.5 65.45 19.5 65.45 18.1 66.8 18.1 66.8 7.05 M75.1 8.5 L77.8 8.5 77.8 16.65 75.1 16.65 75.1 8.5 M80.6 7.05 L79.25 7.05 79.25 5.65 72.3 5.65 72.3 19.5 79.25 19.5 79.25 18.1 80.6 18.1 80.6 7.05 M84.75 8.5 L87.45 8.5 87.45 11.15 84.75 11.15 84.75 8.5 M90.25 5.65 L81.95 5.65 81.95 19.5 84.75 19.5 84.75 14.0 87.45 14.0 87.45 19.5 90.25 19.5 90.25 5.65 M91.6 8.5 L94.35 8.5 94.35 19.5 97.15 19.5 97.15 8.5 99.9 8.5 99.9 5.65 91.6 5.65 91.6 8.5 M104.05 8.5 L106.75 8.5 106.75 11.15 104.05 11.15 104.05 8.5 M109.55 5.65 L101.25 5.65 101.25 19.5 104.05 19.5 104.05 14.0 106.75 14.0 106.75 19.5 109.55 19.5 109.55 5.65" fill="#01498f" fill-rule="evenodd" stroke="none"/>
    <path d="M109.55 5.65 L109.55 19.5 106.75 19.5 106.75 14.0 104.05 14.0 104.05 19.5 101.25 19.5 101.25 5.65 109.55 5.65 M104.05 8.5 L104.05 11.15 106.75 11.15 106.75 8.5 104.05 8.5 M91.6 8.5 L91.6 5.65 99.9 5.65 99.9 8.5 97.15 8.5 97.15 19.5 94.35 19.5 94.35 8.5 91.6 8.5 M90.25 5.65 L90.25 19.5 87.45 19.5 87.45 14.0 84.75 14.0 84.75 19.5 81.95 19.5 81.95 5.65 90.25 5.65 M84.75 8.5 L84.75 11.15 87.45 11.15 87.45 8.5 84.75 8.5 M80.6 7.05 L80.6 18.1 79.25 18.1 79.25 19.5 72.3 19.5 72.3 5.65 79.25 5.65 79.25 7.05 80.6 7.05 M75.1 8.5 L75.1 16.65 77.8 16.65 77.8 8.5 75.1 8.5 M66.8 7.05 L66.8 18.1 65.45 18.1 65.45 19.5 58.5 19.5 58.5 5.65 65.45 5.65 65.45 7.05 66.8 7.05 M61.3 8.5 L61.3 16.65 64.0 16.65 64.0 8.5 61.3 8.5 M54.35 8.5 L51.65 8.5 51.65 11.15 54.35 11.15 54.35 8.5 M47.5 5.65 L47.5 19.45 46.15 19.45 46.15 19.5 39.2 19.5 39.2 7.05 39.25 7.05 39.25 5.7 40.55 5.7 40.55 5.65 47.5 5.65 M42.0 8.5 L42.0 16.65 44.7 16.65 44.7 8.5 42.0 8.5 M54.35 19.5 L54.35 14.0 51.65 14.0 51.65 19.5 48.85 19.5 48.85 5.65 57.15 5.65 57.15 19.5 54.35 19.5 M33.75 5.65 L33.75 16.65 37.9 16.65 37.9 19.5 30.95 19.5 30.95 5.65 33.75 5.65 M20.75 19.85 L7.5 19.85 7.5 4.3 15.1 4.3 15.1 9.75 20.75 9.75 20.75 19.85 M16.05 4.75 L20.35 9.0 16.05 9.0 16.05 4.75" fill="#5faefe" fill-rule="evenodd" stroke="none"/>
    <path d="M137.95 3.0 Q137.95 0.0 134.95 0.0 L3.0 0.0 Q0.0 0.0 0.0 3.0 L0.0 21.95 Q0.0 24.95 3.0 24.95 L134.95 24.95 Q137.95 24.95 137.95 21.95 L137.95 3.0 Z" fill="none" stroke="#5faefe" stroke-linecap="square" stroke-linejoin="miter-clip" stroke-miterlimit="3.0" stroke-width="1.5"/>
  </g>
</svg>
