<?xml version="1.0" encoding="UTF-8" standalone="no"?>
<svg xmlns:xlink="http://www.w3.org/1999/xlink" height="26.95px" width="139.95px" xmlns="http://www.w3.org/2000/svg">
  <g transform="matrix(1.0, 0.0, 0.0, 1.0, 1.0, 1.0)">
    <path d="M134.95 0.0 Q137.95 0.0 137.95 3.0 L137.95 21.95 Q137.95 24.95 134.95 24.95 L3.0 24.95 Q0.0 24.95 0.0 21.95 L0.0 3.0 Q0.0 0.0 3.0 0.0 L134.95 0.0 M36.2 5.75 L33.2 5.75 33.2 15.2 31.85 15.2 31.85 16.55 30.8 16.55 30.8 5.75 27.85 5.75 27.85 19.55 33.5 19.55 33.5 18.2 34.85 18.2 34.85 16.85 36.2 16.85 36.2 5.75 M40.5 19.55 L40.5 5.75 37.55 5.75 37.55 19.55 40.5 19.55 M44.7 11.15 L44.7 8.75 48.75 8.75 48.75 5.75 41.75 5.75 41.75 19.55 48.75 19.55 48.75 16.55 44.7 16.55 44.7 14.15 48.75 14.15 48.75 11.15 44.7 11.15 M61.1 19.5 L61.1 5.75 58.1 5.75 58.1 16.55 57.05 16.55 57.05 5.75 54.05 5.75 54.05 16.55 53.0 16.55 53.0 5.75 50.05 5.75 50.05 19.55 59.75 19.55 59.75 19.5 61.1 19.5 M75.05 5.75 L72.05 5.75 72.05 16.55 69.65 16.55 69.65 5.75 66.7 5.75 66.7 19.55 73.7 19.55 73.7 19.5 75.05 19.5 75.05 5.75 M83.4 14.1 L84.75 14.1 84.75 5.75 76.4 5.75 76.4 19.55 79.35 19.55 79.35 14.15 83.4 14.15 83.4 14.1 M81.75 8.75 L81.75 11.15 79.35 11.15 79.35 8.75 81.75 8.75 M89.05 5.75 L86.1 5.75 86.1 19.55 93.1 19.55 93.1 16.55 89.05 16.55 89.05 5.75 M97.35 8.75 L99.75 8.75 99.75 16.55 97.35 16.55 97.35 8.75 M107.05 14.15 L109.45 14.15 109.45 19.55 112.45 19.55 112.45 5.75 104.1 5.75 104.1 19.55 107.05 19.55 107.05 14.15 M101.4 19.5 L102.75 19.5 102.75 5.75 95.75 5.75 95.75 5.8 94.45 5.8 94.45 7.1 94.4 7.1 94.4 19.55 101.4 19.55 101.4 19.5 M107.05 8.75 L109.45 8.75 109.45 11.15 107.05 11.15 107.05 8.75 M116.75 8.75 L119.15 8.75 119.15 16.55 116.75 16.55 116.75 8.75 M122.15 18.2 L122.15 7.1 120.8 7.1 120.8 5.75 113.8 5.75 113.8 19.55 120.8 19.55 120.8 18.2 122.15 18.2 M131.85 8.75 L131.85 5.75 124.85 5.75 124.85 5.8 123.55 5.8 123.55 7.1 123.5 7.1 123.5 14.15 128.85 14.15 128.85 16.55 123.5 16.55 123.5 19.55 130.5 19.55 130.5 19.5 131.85 19.5 131.85 11.15 126.45 11.15 126.45 8.75 131.85 8.75 M22.7 8.1 L20.0 8.1 20.0 14.55 22.7 14.55 22.7 8.1 M13.15 8.1 L10.45 8.1 10.45 14.55 13.15 14.55 13.15 8.1 M12.95 7.35 L12.95 3.2 10.05 3.2 10.05 7.35 12.95 7.35 M13.65 8.1 L13.65 14.55 19.55 14.55 19.55 8.1 13.65 8.1 M13.65 7.7 L19.55 7.7 19.55 3.2 13.65 3.2 13.65 7.7 M9.35 3.2 L7.65 3.2 7.65 7.35 9.35 7.35 9.35 3.2 M3.7 8.1 L3.25 8.1 3.25 14.55 3.7 14.55 3.7 8.1 M6.9 3.2 L6.45 3.2 6.45 7.35 6.9 7.35 6.9 3.2 M9.55 8.1 L6.85 8.1 6.85 14.55 9.55 14.55 9.55 8.1 M9.4 15.25 L7.7 15.25 7.7 21.45 9.4 21.45 9.4 15.25 M6.15 8.1 L4.45 8.1 4.45 14.55 6.15 14.55 6.15 8.1 M7.0 15.25 L6.5 15.25 6.5 21.45 7.0 21.45 7.0 15.25 M10.1 21.45 L12.8 21.45 12.8 15.25 10.1 15.25 10.1 21.45 M16.95 14.95 L16.95 21.45 19.65 21.45 19.65 14.95 16.95 14.95 M13.75 21.45 L16.45 21.45 16.45 14.95 13.75 14.95 13.75 21.45" fill="#01498f" fill-rule="evenodd" stroke="none"/>
    <path d="M131.85 8.75 L126.45 8.75 126.45 11.15 131.85 11.15 131.85 19.5 130.5 19.5 130.5 19.55 123.5 19.55 123.5 16.55 128.85 16.55 128.85 14.15 123.5 14.15 123.5 7.1 123.55 7.1 123.55 5.8 124.85 5.8 124.85 5.75 131.85 5.75 131.85 8.75 M122.15 18.2 L120.8 18.2 120.8 19.55 113.8 19.55 113.8 5.75 120.8 5.75 120.8 7.1 122.15 7.1 122.15 18.2 M116.75 8.75 L116.75 16.55 119.15 16.55 119.15 8.75 116.75 8.75 M107.05 8.75 L107.05 11.15 109.45 11.15 109.45 8.75 107.05 8.75 M101.4 19.5 L101.4 19.55 94.4 19.55 94.4 7.1 94.45 7.1 94.45 5.8 95.75 5.8 95.75 5.75 102.75 5.75 102.75 19.5 101.4 19.5 M107.05 14.15 L107.05 19.55 104.1 19.55 104.1 5.75 112.45 5.75 112.45 19.55 109.45 19.55 109.45 14.15 107.05 14.15 M97.35 8.75 L97.35 16.55 99.75 16.55 99.75 8.75 97.35 8.75 M89.05 5.75 L89.05 16.55 93.1 16.55 93.1 19.55 86.1 19.55 86.1 5.75 89.05 5.75 M81.75 8.75 L79.35 8.75 79.35 11.15 81.75 11.15 81.75 8.75 M83.4 14.1 L83.4 14.15 79.35 14.15 79.35 19.55 76.4 19.55 76.4 5.75 84.75 5.75 84.75 14.1 83.4 14.1 M75.05 5.75 L75.05 19.5 73.7 19.5 73.7 19.55 66.7 19.55 66.7 5.75 69.65 5.75 69.65 16.55 72.05 16.55 72.05 5.75 75.05 5.75 M61.1 19.5 L59.75 19.5 59.75 19.55 50.05 19.55 50.05 5.75 53.0 5.75 53.0 16.55 54.05 16.55 54.05 5.75 57.05 5.75 57.05 16.55 58.1 16.55 58.1 5.75 61.1 5.75 61.1 19.5 M44.7 11.15 L48.75 11.15 48.75 14.15 44.7 14.15 44.7 16.55 48.75 16.55 48.75 19.55 41.75 19.55 41.75 5.75 48.75 5.75 48.75 8.75 44.7 8.75 44.7 11.15 M40.5 19.55 L37.55 19.55 37.55 5.75 40.5 5.75 40.5 19.55 M36.2 5.75 L36.2 16.85 34.85 16.85 34.85 18.2 33.5 18.2 33.5 19.55 27.85 19.55 27.85 5.75 30.8 5.75 30.8 16.55 31.85 16.55 31.85 15.2 33.2 15.2 33.2 5.75 36.2 5.75 M22.7 8.1 L22.7 14.55 20.0 14.55 20.0 8.1 22.7 8.1 M13.15 8.1 L13.15 14.55 10.45 14.55 10.45 8.1 13.15 8.1 M13.65 8.1 L19.55 8.1 19.55 14.55 13.65 14.55 13.65 8.1 M13.65 7.7 L13.65 3.2 19.55 3.2 19.55 7.7 13.65 7.7 M13.75 21.45 L13.75 14.95 16.45 14.95 16.45 21.45 13.75 21.45 M16.95 14.95 L19.65 14.95 19.65 21.45 16.95 21.45 16.95 14.95" fill="#5faefe" fill-rule="evenodd" stroke="none"/>
    <path d="M12.95 7.35 L10.05 7.35 10.05 3.2 12.95 3.2 12.95 7.35 M9.55 8.1 L9.55 14.55 6.85 14.55 6.85 8.1 9.55 8.1 M10.1 21.45 L10.1 15.25 12.8 15.25 12.8 21.45 10.1 21.45" fill="#45a2fe" fill-rule="evenodd" stroke="none"/>
    <path d="M9.35 3.2 L9.35 7.35 7.65 7.35 7.65 3.2 9.35 3.2 M6.15 8.1 L6.15 14.55 4.45 14.55 4.45 8.1 6.15 8.1 M9.4 15.25 L9.4 21.45 7.7 21.45 7.7 15.25 9.4 15.25" fill="#1c8cfd" fill-rule="evenodd" stroke="none"/>
    <path d="M6.9 3.2 L6.9 7.35 6.45 7.35 6.45 3.2 6.9 3.2 M3.7 8.1 L3.7 14.55 3.25 14.55 3.25 8.1 3.7 8.1 M7.0 15.25 L7.0 21.45 6.5 21.45 6.5 15.25 7.0 15.25" fill="#026fdb" fill-rule="evenodd" stroke="none"/>
    <path d="M134.95 0.0 L3.0 0.0 Q0.0 0.0 0.0 3.0 L0.0 21.95 Q0.0 24.95 3.0 24.95 L134.95 24.95 Q137.95 24.95 137.95 21.95 L137.95 3.0 Q137.95 0.0 134.95 0.0 Z" fill="none" stroke="#5faefe" stroke-linecap="square" stroke-linejoin="miter-clip" stroke-miterlimit="3.0" stroke-width="1.5"/>
  </g>
</svg>
