<?xml version="1.0" encoding="UTF-8" standalone="no"?>
<svg xmlns:xlink="http://www.w3.org/1999/xlink" height="13.8px" width="202.4px" xmlns="http://www.w3.org/2000/svg">
  <g transform="matrix(1.0, 0.0, 0.0, 1.0, 50.85, -4.75)">
    <path d="M151.55 8.8 L151.55 11.8 147.5 11.8 147.5 12.85 151.55 12.85 151.55 18.5 150.2 18.5 150.2 18.55 144.55 18.55 144.55 15.55 148.55 15.55 148.55 14.5 145.9 14.5 145.9 14.25 144.85 14.25 144.85 13.15 144.55 13.15 144.55 10.15 144.6 10.15 144.6 8.85 145.9 8.85 145.9 8.8 151.55 8.8 M143.25 18.55 L140.25 18.55 140.25 11.8 139.2 11.8 139.2 18.55 136.25 18.55 136.25 8.8 143.25 8.8 143.25 18.55 M135.0 8.8 L135.0 18.55 132.05 18.55 132.05 8.8 135.0 8.8 M132.05 7.75 L132.05 4.75 135.0 4.75 135.0 7.75 132.05 7.75 M122.45 11.8 L118.4 11.8 118.4 12.85 122.45 12.85 122.45 18.5 121.1 18.5 121.1 18.55 115.45 18.55 115.45 15.55 119.45 15.55 119.45 14.5 116.8 14.5 116.8 14.25 115.75 14.25 115.75 13.15 115.45 13.15 115.45 10.15 115.5 10.15 115.5 8.85 116.8 8.85 116.8 8.8 122.45 8.8 122.45 11.8 M126.7 4.75 L126.7 11.5 127.75 11.5 127.75 8.8 130.75 8.8 130.75 11.8 129.4 11.8 129.4 12.9 130.75 12.9 130.75 18.55 127.75 18.55 127.75 14.5 126.7 14.5 126.7 18.55 123.75 18.55 123.75 4.75 126.7 4.75 M105.9 11.8 L105.9 12.85 106.95 12.85 106.95 11.8 105.9 11.8 M109.95 8.8 L109.95 14.5 105.9 14.5 105.9 15.55 109.95 15.55 109.95 18.55 102.95 18.55 102.95 10.15 103.0 10.15 103.0 8.85 104.3 8.85 104.3 8.8 109.95 8.8 M101.65 18.55 L94.65 18.55 94.65 10.15 94.7 10.15 94.7 8.85 96.0 8.85 96.0 8.8 98.65 8.8 98.65 4.75 101.65 4.75 101.65 18.55 M97.6 11.8 L97.6 15.55 98.65 15.55 98.65 11.8 97.6 11.8 M86.35 11.8 L86.35 8.8 93.35 8.8 93.35 18.55 86.35 18.55 86.35 12.85 90.35 12.85 90.35 11.8 86.35 11.8 M90.35 15.55 L90.35 14.5 89.3 14.5 89.3 15.55 90.35 15.55 M81.95 18.55 L81.95 11.8 80.9 11.8 80.9 18.55 77.9 18.55 77.9 11.8 76.85 11.8 76.85 18.55 73.9 18.55 73.9 8.8 84.95 8.8 84.95 18.55 81.95 18.55 M64.3 11.8 L61.6 11.8 61.6 18.55 58.65 18.55 58.65 8.8 64.3 8.8 64.3 11.8 M65.6 14.55 L65.6 11.55 72.6 11.55 72.6 14.55 65.6 14.55 M53.3 11.8 L53.3 12.85 54.35 12.85 54.35 11.8 53.3 11.8 M51.7 8.8 L57.35 8.8 57.35 14.5 53.3 14.5 53.3 15.55 57.35 15.55 57.35 18.55 50.35 18.55 50.35 10.15 50.4 10.15 50.4 8.85 51.7 8.85 51.7 8.8 M43.4 8.8 L49.05 8.8 49.05 11.8 45.0 11.8 45.0 12.85 49.05 12.85 49.05 18.5 47.7 18.5 47.7 18.55 42.05 18.55 42.05 15.55 46.05 15.55 46.05 14.5 43.4 14.5 43.4 14.25 42.35 14.25 42.35 13.15 42.05 13.15 42.05 10.15 42.1 10.15 42.1 8.85 43.4 8.85 43.4 8.8 M40.75 18.5 L39.4 18.5 39.4 18.55 33.75 18.55 33.75 8.8 36.7 8.8 36.7 15.55 37.75 15.55 37.75 8.8 40.75 8.8 40.75 18.5 M28.25 11.8 L25.55 11.8 25.55 18.55 22.6 18.55 22.6 8.8 28.25 8.8 28.25 11.8 M21.3 18.5 L19.95 18.5 19.95 18.55 14.3 18.55 14.3 10.15 14.6 10.15 14.6 9.05 15.65 9.05 15.65 8.8 21.3 8.8 21.3 18.5 M13.0 11.8 L10.3 11.8 10.3 18.55 7.35 18.55 7.35 6.1 7.4 6.1 7.4 4.8 8.7 4.8 8.7 4.75 13.0 4.75 13.0 7.75 10.3 7.75 10.3 8.8 13.0 8.8 13.0 11.8 M17.25 11.8 L17.25 15.55 18.3 15.55 18.3 11.8 17.25 11.8 M1.85 18.55 L-5.15 18.55 -5.15 10.15 -5.1 10.15 -5.1 8.85 -3.8 8.85 -3.8 8.8 1.85 8.8 1.85 14.5 -2.2 14.5 -2.2 15.55 1.85 15.55 1.85 18.55 M-6.45 11.8 L-10.5 11.8 -10.5 12.85 -6.45 12.85 -6.45 18.5 -7.8 18.5 -7.8 18.55 -13.45 18.55 -13.45 15.55 -9.45 15.55 -9.45 14.5 -12.1 14.5 -12.1 14.25 -13.15 14.25 -13.15 13.15 -13.45 13.15 -13.45 10.15 -13.4 10.15 -13.4 8.85 -12.1 8.85 -12.1 8.8 -6.45 8.8 -6.45 11.8 M-2.2 11.8 L-2.2 12.85 -1.15 12.85 -1.15 11.8 -2.2 11.8 M-14.85 8.8 L-14.85 18.5 -16.2 18.5 -16.2 18.55 -25.9 18.55 -25.9 8.8 -22.95 8.8 -22.95 15.55 -21.9 15.55 -21.9 8.8 -18.9 8.8 -18.9 15.55 -17.85 15.55 -17.85 8.8 -14.85 8.8 M-38.2 11.8 L-38.2 18.55 -41.15 18.55 -41.15 8.8 -35.5 8.8 -35.5 11.8 -38.2 11.8 M-32.85 8.8 L-27.2 8.8 -27.2 18.5 -28.55 18.5 -28.55 18.55 -34.2 18.55 -34.2 10.15 -33.9 10.15 -33.9 9.05 -32.85 9.05 -32.85 8.8 M-30.2 15.55 L-30.2 11.8 -31.25 11.8 -31.25 15.55 -30.2 15.55 M-47.9 7.75 L-47.9 10.15 -46.85 10.15 -46.85 7.75 -47.9 7.75 M-43.85 11.5 L-42.5 11.5 -42.5 18.55 -50.85 18.55 -50.85 4.75 -43.85 4.75 -43.85 11.5 M-47.9 15.55 L-45.5 15.55 -45.5 13.15 -47.9 13.15 -47.9 15.55" fill="#5faefe" fill-rule="evenodd" stroke="none"/>
  </g>
</svg>
