<?xml version="1.0" encoding="UTF-8" standalone="no"?>
<svg xmlns:xlink="http://www.w3.org/1999/xlink" height="383.75px" width="392.3px" xmlns="http://www.w3.org/2000/svg">
  <g transform="matrix(1.0, 0.0, 0.0, 1.0, 89.25, 45.25)">
    <path d="M292.25 -34.4 Q301.8 -24.85 301.8 -11.35 L301.8 304.65 Q301.8 318.1 292.25 327.7 282.65 337.25 269.2 337.25 L-55.35 337.25 Q-68.85 337.25 -78.45 327.7 -88.0 318.1 -88.0 304.65 L-88.0 -11.35 Q-88.0 -24.85 -78.45 -34.4 -68.85 -44.0 -55.35 -44.0 L269.2 -44.0 Q282.65 -44.0 292.25 -34.4" fill="url(#gradient0)" fill-rule="evenodd" stroke="none"/>
    <path d="M292.25 -34.4 Q282.65 -44.0 269.2 -44.0 L-55.35 -44.0 Q-68.85 -44.0 -78.45 -34.4 -88.0 -24.85 -88.0 -11.35 L-88.0 304.65 Q-88.0 318.1 -78.45 327.7 -68.85 337.25 -55.35 337.25 L269.2 337.25 Q282.65 337.25 292.25 327.7 301.8 318.1 301.8 304.65 L301.8 -11.35 Q301.8 -24.85 292.25 -34.4 Z" fill="none" stroke="url(#gradient1)" stroke-linecap="round" stroke-linejoin="round" stroke-width="2.5"/>
  </g>
  <defs>
    <radialGradient cx="0" cy="0" fx="9.600000000000001" fy="0" gradientTransform="matrix(0.4858, -0.1967, 0.2645, 0.6532, -72.35, 244.35)" gradientUnits="userSpaceOnUse" id="gradient0" r="819.2" spreadMethod="pad">
      <stop offset="0.0" stop-color="#333333"/>
      <stop offset="0.32941176470588235" stop-color="#555555"/>
      <stop offset="0.4549019607843137" stop-color="#444444"/>
      <stop offset="0.5490196078431373" stop-color="#444444"/>
      <stop offset="0.6274509803921569" stop-color="#555555"/>
      <stop offset="0.8666666666666667" stop-color="#777777"/>
      <stop offset="0.9333333333333333" stop-color="#4d4d4d"/>
      <stop offset="1.0" stop-color="#555555"/>
    </radialGradient>
    <linearGradient gradientTransform="matrix(0.0072, -0.0072, 0.1656, 0.1656, 107.65, 146.5)" gradientUnits="userSpaceOnUse" id="gradient1" spreadMethod="pad" x1="-819.2" x2="819.2">
      <stop offset="0.0" stop-color="#262626"/>
      <stop offset="1.0" stop-color="#999999"/>
    </linearGradient>
  </defs>
</svg>
