<?xml version="1.0" encoding="UTF-8" standalone="no"?>
<svg xmlns:xlink="http://www.w3.org/1999/xlink" height="33.2px" width="130.75px" xmlns="http://www.w3.org/2000/svg">
  <g transform="matrix(1.0, 0.0, 0.0, 1.0, -3.25, 0.6)">
    <path d="M133.0 0.4 L133.0 31.55 54.35 31.55 Q26.45 32.35 16.3 23.3 6.1 14.2 4.25 0.4 L133.0 0.4 M71.05 13.5 L69.35 13.5 69.35 9.55 71.05 9.55 71.05 13.5 M78.15 15.7 L75.95 15.7 75.95 4.65 64.45 4.65 64.45 27.2 78.15 27.2 78.15 15.7 M69.35 22.3 L69.35 18.4 73.25 18.4 73.25 22.3 69.35 22.3 M85.15 18.4 L89.05 18.4 89.05 27.2 93.95 27.2 93.95 4.65 80.25 4.65 80.25 27.2 85.15 27.2 85.15 18.4 M85.15 9.55 L89.05 9.55 89.05 13.5 85.15 13.5 85.15 9.55 M109.75 4.75 L107.55 4.75 107.55 4.65 98.25 4.65 98.25 4.75 96.15 4.75 96.15 6.85 96.05 6.85 96.05 27.2 107.55 27.2 107.55 26.8 109.4 26.8 109.4 25.0 109.75 25.0 109.75 17.9 104.85 17.9 104.85 22.3 100.95 22.3 100.95 9.55 104.85 9.55 104.85 13.95 109.75 13.95 109.75 4.75 M125.55 13.95 L125.55 4.65 120.65 4.65 120.65 13.5 116.75 13.5 116.75 4.65 111.85 4.65 111.85 27.2 116.75 27.2 116.75 18.4 120.65 18.4 120.65 27.2 125.55 27.2 125.55 17.9 123.35 17.9 123.35 13.95 125.55 13.95 M46.85 5.55 L42.65 14.3 42.65 15.9 47.2 25.6 48.8 25.6 48.8 5.55 46.85 5.55 M55.2 5.55 L51.0 14.3 51.0 15.9 55.55 25.6 57.15 25.6 57.15 5.55 55.2 5.55 M40.5 5.55 L38.5 5.55 34.3 14.35 34.3 15.9 38.85 25.55 40.5 25.55 40.5 5.55" fill="#5faefe" fill-rule="evenodd" stroke="none"/>
    <path d="M125.55 13.95 L123.35 13.95 123.35 17.9 125.55 17.9 125.55 27.2 120.65 27.2 120.65 18.4 116.75 18.4 116.75 27.2 111.85 27.2 111.85 4.65 116.75 4.65 116.75 13.5 120.65 13.5 120.65 4.65 125.55 4.65 125.55 13.95 M109.75 4.75 L109.75 13.95 104.85 13.95 104.85 9.55 100.95 9.55 100.95 22.3 104.85 22.3 104.85 17.9 109.75 17.9 109.75 25.0 109.4 25.0 109.4 26.8 107.55 26.8 107.55 27.2 96.05 27.2 96.05 6.85 96.15 6.85 96.15 4.75 98.25 4.75 98.25 4.65 107.55 4.65 107.55 4.75 109.75 4.75 M85.15 9.55 L85.15 13.5 89.05 13.5 89.05 9.55 85.15 9.55 M85.15 18.4 L85.15 27.2 80.25 27.2 80.25 4.65 93.95 4.65 93.95 27.2 89.05 27.2 89.05 18.4 85.15 18.4 M69.35 22.3 L73.25 22.3 73.25 18.4 69.35 18.4 69.35 22.3 M78.15 15.7 L78.15 27.2 64.45 27.2 64.45 4.65 75.95 4.65 75.95 15.7 78.15 15.7 M71.05 13.5 L71.05 9.55 69.35 9.55 69.35 13.5 71.05 13.5 M40.5 5.55 L40.5 25.55 38.85 25.55 34.3 15.9 34.3 14.35 38.5 5.55 40.5 5.55 M55.2 5.55 L57.15 5.55 57.15 25.6 55.55 25.6 51.0 15.9 51.0 14.3 55.2 5.55 M46.85 5.55 L48.8 5.55 48.8 25.6 47.2 25.6 42.65 15.9 42.65 14.3 46.85 5.55" fill="#ffffff" fill-rule="evenodd" stroke="none"/>
    <path d="M133.0 0.4 L4.25 0.4 Q6.1 14.2 16.3 23.3 26.45 32.35 54.35 31.55 L133.0 31.55 133.0 0.4 Z" fill="none" stroke="#ffffff" stroke-linecap="square" stroke-linejoin="miter-clip" stroke-miterlimit="3.0" stroke-width="1.5"/>
  </g>
</svg>
