<?xml version="1.0" encoding="UTF-8" standalone="no"?>
<svg xmlns:xlink="http://www.w3.org/1999/xlink" height="48.9px" width="84.65px" xmlns="http://www.w3.org/2000/svg">
  <g transform="matrix(1.0, 0.0, 0.0, 1.0, 42.3, 24.45)">
    <path d="M3.05 -18.55 L3.05 -14.9 2.85 -14.9 2.85 19.05 21.8 19.05 21.8 18.95 25.55 18.95 25.55 -18.65 6.6 -18.65 6.6 -18.55 3.05 -18.55 M10.55 -10.95 L17.85 -10.95 17.85 11.35 10.55 11.35 10.55 -10.95 M39.2 -23.45 Q41.35 -23.45 41.35 -17.8 L41.35 17.8 Q41.35 23.45 39.2 23.45 L-39.1 23.45 Q-41.3 23.45 -41.3 17.8 L-41.3 -17.8 Q-41.3 -23.45 -39.1 -23.45 L39.2 -23.45 M-0.7 -10.95 L-0.7 -18.65 -19.65 -18.65 -19.65 -18.55 -23.2 -18.55 -23.2 -14.9 -23.4 -14.9 -23.4 19.05 -4.45 19.05 -4.45 18.95 -0.7 18.95 -0.7 -3.65 -12.15 -3.65 -12.15 4.05 -8.4 4.05 -8.4 11.35 -15.7 11.35 -15.7 -10.95 -0.7 -10.95" fill="#01498f" fill-rule="evenodd" stroke="none"/>
    <path d="M10.55 -10.95 L10.55 11.35 17.85 11.35 17.85 -10.95 10.55 -10.95 M3.05 -18.55 L6.6 -18.55 6.6 -18.65 25.55 -18.65 25.55 18.95 21.8 18.95 21.8 19.05 2.85 19.05 2.85 -14.9 3.05 -14.9 3.05 -18.55 M-0.7 -10.95 L-15.7 -10.95 -15.7 11.35 -8.4 11.35 -8.4 4.05 -12.15 4.05 -12.15 -3.65 -0.7 -3.65 -0.7 18.95 -4.45 18.95 -4.45 19.05 -23.4 19.05 -23.4 -14.9 -23.2 -14.9 -23.2 -18.55 -19.65 -18.55 -19.65 -18.65 -0.7 -18.65 -0.7 -10.95" fill="#5faefe" fill-rule="evenodd" stroke="none"/>
    <path d="M39.2 -23.45 L-39.1 -23.45 Q-41.3 -23.45 -41.3 -17.8 L-41.3 17.8 Q-41.3 23.45 -39.1 23.45 L39.2 23.45 Q41.35 23.45 41.35 17.8 L41.35 -17.8 Q41.35 -23.45 39.2 -23.45 Z" fill="none" stroke="#5faefe" stroke-linecap="square" stroke-linejoin="miter-clip" stroke-miterlimit="3.0" stroke-width="1.5"/>
  </g>
</svg>
