<?xml version="1.0" encoding="UTF-8" standalone="no"?>
<svg xmlns:xlink="http://www.w3.org/1999/xlink" height="26.95px" width="98.95px" xmlns="http://www.w3.org/2000/svg">
  <g transform="matrix(1.0, 0.0, 0.0, 1.0, 49.5, 13.5)">
    <path d="M17.15 -8.9 L13.45 -8.9 13.45 9.05 17.15 9.05 17.15 1.9 20.6 1.9 20.6 9.05 24.3 9.05 24.3 1.8 22.5 1.8 22.5 -1.65 24.3 -1.65 24.3 -8.9 20.6 -8.9 20.6 -1.75 17.15 -1.75 17.15 -8.9 M1.05 -7.15 L0.95 -7.15 0.95 9.05 10.0 9.05 10.0 9.0 11.8 9.0 11.8 1.8 8.1 1.8 8.1 5.4 4.65 5.4 4.65 -5.2 8.1 -5.2 8.1 -1.65 11.8 -1.65 11.8 -8.85 10.0 -8.85 10.0 -8.9 2.75 -8.9 2.75 -8.85 1.05 -8.85 1.05 -7.15 M45.9 -12.5 Q48.45 -12.5 48.45 -9.5 L48.45 9.45 Q48.45 12.45 45.9 12.45 L-45.9 12.45 Q-48.5 12.45 -48.5 9.45 L-48.5 -9.5 Q-48.5 -12.5 -45.9 -12.5 L45.9 -12.5 M-16.9 1.9 L-16.9 5.4 -20.35 5.4 -20.35 1.9 -16.9 1.9 M-15.0 -8.9 L-24.05 -8.9 -24.05 9.05 -13.2 9.05 -13.2 0.0 -15.0 0.0 -15.0 -8.9 M-7.85 -1.75 L-7.85 -5.2 -4.4 -5.2 -4.4 -1.75 -7.85 -1.75 M-0.7 -8.9 L-11.55 -8.9 -11.55 9.05 -7.85 9.05 -7.85 1.9 -4.4 1.9 -4.4 9.05 -0.7 9.05 -0.7 -8.9 M-20.35 -1.75 L-20.35 -5.2 -18.7 -5.2 -18.7 -1.75 -20.35 -1.75" fill="#01498f" fill-rule="evenodd" stroke="none"/>
    <path d="M1.05 -7.15 L1.05 -8.85 2.75 -8.85 2.75 -8.9 10.0 -8.9 10.0 -8.85 11.8 -8.85 11.8 -1.65 8.1 -1.65 8.1 -5.2 4.65 -5.2 4.65 5.4 8.1 5.4 8.1 1.8 11.8 1.8 11.8 9.0 10.0 9.0 10.0 9.05 0.95 9.05 0.95 -7.15 1.05 -7.15 M17.15 -8.9 L17.15 -1.75 20.6 -1.75 20.6 -8.9 24.3 -8.9 24.3 -1.65 22.5 -1.65 22.5 1.8 24.3 1.8 24.3 9.05 20.6 9.05 20.6 1.9 17.15 1.9 17.15 9.05 13.45 9.05 13.45 -8.9 17.15 -8.9 M-20.35 -1.75 L-18.7 -1.75 -18.7 -5.2 -20.35 -5.2 -20.35 -1.75 M-0.7 -8.9 L-0.7 9.05 -4.4 9.05 -4.4 1.9 -7.85 1.9 -7.85 9.05 -11.55 9.05 -11.55 -8.9 -0.7 -8.9 M-7.85 -1.75 L-4.4 -1.75 -4.4 -5.2 -7.85 -5.2 -7.85 -1.75 M-15.0 -8.9 L-15.0 0.0 -13.2 0.0 -13.2 9.05 -24.05 9.05 -24.05 -8.9 -15.0 -8.9 M-16.9 1.9 L-20.35 1.9 -20.35 5.4 -16.9 5.4 -16.9 1.9" fill="#5faefe" fill-rule="evenodd" stroke="none"/>
    <path d="M45.9 -12.5 L-45.9 -12.5 Q-48.5 -12.5 -48.5 -9.5 L-48.5 9.45 Q-48.5 12.45 -45.9 12.45 L45.9 12.45 Q48.45 12.45 48.45 9.45 L48.45 -9.5 Q48.45 -12.5 45.9 -12.5 Z" fill="none" stroke="#5faefe" stroke-linecap="square" stroke-linejoin="miter-clip" stroke-miterlimit="3.0" stroke-width="1.5"/>
  </g>
</svg>
