<?xml version="1.0" encoding="UTF-8" standalone="no"?>
<svg xmlns:xlink="http://www.w3.org/1999/xlink" height="26.95px" width="136.95px" xmlns="http://www.w3.org/2000/svg">
  <g transform="matrix(1.0, 0.0, 0.0, 1.0, 68.45, 13.45)">
    <path d="M24.8 -1.85 L24.8 -5.25 30.05 -5.25 30.05 -8.85 21.2 -8.85 21.2 8.75 24.8 8.75 24.8 1.75 30.05 1.75 30.05 -1.85 24.8 -1.85 M35.3 -8.85 L31.7 -8.85 31.7 8.75 35.3 8.75 35.3 -8.85 M3.8 -5.25 L3.8 -8.85 -5.05 -8.85 -5.05 -8.8 -6.7 -8.8 -6.7 -7.1 -6.8 -7.1 -6.8 1.75 0.2 1.75 0.2 5.15 -6.8 5.15 -6.8 8.75 2.05 8.75 2.05 8.7 3.8 8.7 3.8 -1.85 -3.2 -1.85 -3.2 -5.25 3.8 -5.25 M14.3 -8.85 L5.45 -8.85 5.45 8.75 14.3 8.75 14.3 5.15 9.05 5.15 9.05 1.75 14.3 1.75 14.3 -1.85 9.05 -1.85 9.05 -5.25 14.3 -5.25 14.3 -8.85 M64.0 -12.45 Q67.5 -12.45 67.5 -9.45 L67.5 9.5 Q67.5 12.5 64.0 12.5 L-63.8 12.5 Q-67.45 12.5 -67.45 9.5 L-67.45 -9.45 Q-67.45 -12.45 -63.8 -12.45 L64.0 -12.45 M-18.95 -8.8 L-18.95 -7.1 -19.05 -7.1 -19.05 8.75 -10.2 8.75 -10.2 8.7 -8.45 8.7 -8.45 -8.85 -17.3 -8.85 -17.3 -8.8 -18.95 -8.8 M-15.45 -5.25 L-12.05 -5.25 -12.05 5.15 -15.45 5.15 -15.45 -5.25 M-27.7 -5.25 L-24.3 -5.25 -24.3 5.15 -27.7 5.15 -27.7 -5.25 M-31.2 -8.8 L-31.2 -7.1 -31.3 -7.1 -31.3 8.75 -22.45 8.75 -22.45 8.7 -20.7 8.7 -20.7 -8.85 -29.55 -8.85 -29.55 -8.8 -31.2 -8.8 M-36.55 -1.85 L-39.95 -1.85 -39.95 -8.85 -43.55 -8.85 -43.55 8.75 -39.95 8.75 -39.95 1.75 -36.55 1.75 -36.55 8.75 -32.95 8.75 -32.95 -8.85 -36.55 -8.85 -36.55 -1.85 M-54.05 -8.8 L-55.7 -8.8 -55.7 -7.1 -55.8 -7.1 -55.8 8.75 -46.95 8.75 -46.95 8.7 -45.2 8.7 -45.2 1.65 -48.8 1.65 -48.8 5.15 -52.2 5.15 -52.2 -5.25 -48.8 -5.25 -48.8 -1.75 -45.2 -1.75 -45.2 -8.8 -46.95 -8.8 -46.95 -8.85 -54.05 -8.85 -54.05 -8.8 M40.55 -8.85 L36.95 -8.85 36.95 8.75 45.8 8.75 45.8 5.15 40.55 5.15 40.55 -8.85 M56.3 -8.85 L47.45 -8.85 47.45 8.75 56.3 8.75 56.3 5.15 51.05 5.15 51.05 1.75 56.3 1.75 56.3 -1.85 51.05 -1.85 51.05 -5.25 56.3 -5.25 56.3 -8.85" fill="#01498f" fill-rule="evenodd" stroke="none"/>
    <path d="M14.3 -8.85 L14.3 -5.25 9.05 -5.25 9.05 -1.85 14.3 -1.85 14.3 1.75 9.05 1.75 9.05 5.15 14.3 5.15 14.3 8.75 5.45 8.75 5.45 -8.85 14.3 -8.85 M3.8 -5.25 L-3.2 -5.25 -3.2 -1.85 3.8 -1.85 3.8 8.7 2.05 8.7 2.05 8.75 -6.8 8.75 -6.8 5.15 0.2 5.15 0.2 1.75 -6.8 1.75 -6.8 -7.1 -6.7 -7.1 -6.7 -8.8 -5.05 -8.8 -5.05 -8.85 3.8 -8.85 3.8 -5.25 M35.3 -8.85 L35.3 8.75 31.7 8.75 31.7 -8.85 35.3 -8.85 M24.8 -1.85 L30.05 -1.85 30.05 1.75 24.8 1.75 24.8 8.75 21.2 8.75 21.2 -8.85 30.05 -8.85 30.05 -5.25 24.8 -5.25 24.8 -1.85 M56.3 -8.85 L56.3 -5.25 51.05 -5.25 51.05 -1.85 56.3 -1.85 56.3 1.75 51.05 1.75 51.05 5.15 56.3 5.15 56.3 8.75 47.45 8.75 47.45 -8.85 56.3 -8.85 M40.55 -8.85 L40.55 5.15 45.8 5.15 45.8 8.75 36.95 8.75 36.95 -8.85 40.55 -8.85 M-54.05 -8.8 L-54.05 -8.85 -46.95 -8.85 -46.95 -8.8 -45.2 -8.8 -45.2 -1.75 -48.8 -1.75 -48.8 -5.25 -52.2 -5.25 -52.2 5.15 -48.8 5.15 -48.8 1.65 -45.2 1.65 -45.2 8.7 -46.95 8.7 -46.95 8.75 -55.8 8.75 -55.8 -7.1 -55.7 -7.1 -55.7 -8.8 -54.05 -8.8 M-36.55 -1.85 L-36.55 -8.85 -32.95 -8.85 -32.95 8.75 -36.55 8.75 -36.55 1.75 -39.95 1.75 -39.95 8.75 -43.55 8.75 -43.55 -8.85 -39.95 -8.85 -39.95 -1.85 -36.55 -1.85 M-31.2 -8.8 L-29.55 -8.8 -29.55 -8.85 -20.7 -8.85 -20.7 8.7 -22.45 8.7 -22.45 8.75 -31.3 8.75 -31.3 -7.1 -31.2 -7.1 -31.2 -8.8 M-27.7 -5.25 L-27.7 5.15 -24.3 5.15 -24.3 -5.25 -27.7 -5.25 M-15.45 -5.25 L-15.45 5.15 -12.05 5.15 -12.05 -5.25 -15.45 -5.25 M-18.95 -8.8 L-17.3 -8.8 -17.3 -8.85 -8.45 -8.85 -8.45 8.7 -10.2 8.7 -10.2 8.75 -19.05 8.75 -19.05 -7.1 -18.95 -7.1 -18.95 -8.8" fill="#5faefe" fill-rule="evenodd" stroke="none"/>
    <path d="M64.0 -12.45 L-63.8 -12.45 Q-67.45 -12.45 -67.45 -9.45 L-67.45 9.5 Q-67.45 12.5 -63.8 12.5 L64.0 12.5 Q67.5 12.5 67.5 9.5 L67.5 -9.45 Q67.5 -12.45 64.0 -12.45 Z" fill="none" stroke="#5faefe" stroke-linecap="square" stroke-linejoin="miter-clip" stroke-miterlimit="3.0" stroke-width="1.5"/>
  </g>
</svg>
