<?xml version="1.0" encoding="UTF-8" standalone="no"?>
<svg xmlns:xlink="http://www.w3.org/1999/xlink" height="26.95px" width="98.95px" xmlns="http://www.w3.org/2000/svg">
  <g transform="matrix(1.0, 0.0, 0.0, 1.0, 49.5, 13.5)">
    <path d="M14.85 -5.35 L18.25 -5.35 18.25 5.05 14.85 5.05 14.85 -5.35 M21.85 -7.2 L20.1 -7.2 20.1 -8.95 11.25 -8.95 11.25 8.65 20.1 8.65 20.1 6.9 21.85 6.9 21.85 -7.2 M2.6 -5.35 L6.0 -5.35 6.0 -1.95 2.6 -1.95 2.6 -5.35 M45.9 -12.5 Q48.45 -12.5 48.45 -9.5 L48.45 9.45 Q48.45 12.45 45.9 12.45 L-45.9 12.45 Q-48.5 12.45 -48.5 9.45 L-48.5 -9.5 Q-48.5 -12.5 -45.9 -12.5 L45.9 -12.5 M-20.15 -8.95 L-23.75 -8.95 -23.75 8.65 -14.9 8.65 -14.9 5.05 -20.15 5.05 -20.15 -8.95 M-9.65 -5.35 L-6.25 -5.35 -6.25 5.05 -9.65 5.05 -9.65 -5.35 M-13.15 -8.9 L-13.15 -7.2 -13.25 -7.2 -13.25 8.65 -4.4 8.65 -4.4 8.6 -2.65 8.6 -2.65 -8.95 -11.5 -8.95 -11.5 -8.9 -13.15 -8.9 M2.6 8.65 L2.6 1.65 6.0 1.65 6.0 8.65 9.6 8.65 9.6 -8.95 -1.0 -8.95 -1.0 8.65 2.6 8.65" fill="#01498f" fill-rule="evenodd" stroke="none"/>
    <path d="M2.6 -5.35 L2.6 -1.95 6.0 -1.95 6.0 -5.35 2.6 -5.35 M21.85 -7.2 L21.85 6.9 20.1 6.9 20.1 8.65 11.25 8.65 11.25 -8.95 20.1 -8.95 20.1 -7.2 21.85 -7.2 M14.85 -5.35 L14.85 5.05 18.25 5.05 18.25 -5.35 14.85 -5.35 M2.6 8.65 L-1.0 8.65 -1.0 -8.95 9.6 -8.95 9.6 8.65 6.0 8.65 6.0 1.65 2.6 1.65 2.6 8.65 M-13.15 -8.9 L-11.5 -8.9 -11.5 -8.95 -2.65 -8.95 -2.65 8.6 -4.4 8.6 -4.4 8.65 -13.25 8.65 -13.25 -7.2 -13.15 -7.2 -13.15 -8.9 M-9.65 -5.35 L-9.65 5.05 -6.25 5.05 -6.25 -5.35 -9.65 -5.35 M-20.15 -8.95 L-20.15 5.05 -14.9 5.05 -14.9 8.65 -23.75 8.65 -23.75 -8.95 -20.15 -8.95" fill="#5faefe" fill-rule="evenodd" stroke="none"/>
    <path d="M45.9 -12.5 L-45.9 -12.5 Q-48.5 -12.5 -48.5 -9.5 L-48.5 9.45 Q-48.5 12.45 -45.9 12.45 L45.9 12.45 Q48.45 12.45 48.45 9.45 L48.45 -9.5 Q48.45 -12.5 45.9 -12.5 Z" fill="none" stroke="#5faefe" stroke-linecap="square" stroke-linejoin="miter-clip" stroke-miterlimit="3.0" stroke-width="1.5"/>
  </g>
</svg>
