<?xml version="1.0" encoding="UTF-8" standalone="no"?>
<svg xmlns:xlink="http://www.w3.org/1999/xlink" height="33.5px" width="102.8px" xmlns="http://www.w3.org/2000/svg">
  <g transform="matrix(1.0, 0.0, 0.0, 1.0, 1.1, 1.0)">
    <path d="M97.0 10.6 Q97.0 7.85 95.05 5.85 93.1 3.95 90.4 3.95 87.65 3.95 85.65 5.85 83.75 7.85 83.75 10.6 83.75 13.3 85.65 15.25 L85.9 15.45 Q87.25 16.7 89.0 17.1 L90.4 17.2 Q93.1 17.2 95.05 15.25 97.0 13.3 97.0 10.6 M95.55 10.45 Q95.55 12.6 94.0 14.1 92.5 15.65 90.4 15.65 88.25 15.65 86.65 14.1 85.2 12.6 85.2 10.45 85.2 8.3 86.65 6.75 88.25 5.25 90.4 5.25 92.5 5.25 94.0 6.75 95.55 8.3 95.55 10.45 M94.75 10.4 Q94.75 8.65 93.45 7.3 92.2 6.1 90.35 6.1 88.55 6.1 87.3 7.3 86.0 8.65 86.0 10.4 86.0 12.3 87.3 13.5 88.55 14.8 90.35 14.8 92.2 14.8 93.45 13.5 94.75 12.3 94.75 10.4 M88.1 31.5 L85.55 31.5 -0.1 31.3 -0.1 0.0 95.9 0.0 Q100.7 0.1 100.7 5.0 L100.7 26.5 Q100.7 30.5 97.5 31.3 L88.1 31.5 M85.95 22.55 L88.45 17.25 Q87.0 16.95 85.85 15.9 L83.3 21.2 Q84.4 22.4 85.95 22.55 M85.2 24.25 Q83.4 24.05 82.5 23.0 L81.0 26.0 Q81.8 27.3 83.85 27.25 L85.2 24.25 M85.65 22.75 Q84.25 22.65 83.5 21.75 L82.9 22.7 Q83.7 23.75 85.25 23.8 L85.65 22.75 M31.5 10.8 L34.9 10.8 34.9 14.2 31.5 14.2 31.5 10.8 M43.75 17.8 L47.15 17.8 47.15 24.8 50.75 24.8 50.75 17.7 49.0 17.7 49.0 16.05 50.75 16.05 50.75 7.2 40.15 7.2 40.15 24.8 43.75 24.8 43.75 17.8 M43.75 10.8 L47.15 10.8 47.15 14.2 43.75 14.2 43.75 10.8 M61.25 7.25 L61.25 7.2 54.15 7.2 54.15 7.25 52.5 7.25 52.5 8.95 52.4 8.95 52.4 24.8 61.25 24.8 61.25 24.75 63.0 24.75 63.0 17.7 59.4 17.7 59.4 21.2 56.0 21.2 56.0 10.8 59.4 10.8 59.4 14.3 63.0 14.3 63.0 7.25 61.25 7.25 M75.25 7.2 L71.65 7.2 71.65 14.2 68.25 14.2 68.25 7.2 64.65 7.2 64.65 24.8 68.25 24.8 68.25 17.8 71.65 17.8 71.65 24.8 75.25 24.8 75.25 7.2 M21.0 10.8 L26.25 10.8 26.25 7.2 17.4 7.2 17.4 24.8 26.25 24.8 26.25 21.2 21.0 21.2 21.0 17.8 26.25 17.8 26.25 14.2 21.0 14.2 21.0 10.8 M15.75 10.8 L15.75 7.2 6.9 7.2 6.9 7.25 5.25 7.25 5.25 8.95 5.15 8.95 5.15 17.8 12.15 17.8 12.15 21.2 5.15 21.2 5.15 24.8 14.0 24.8 14.0 24.75 15.75 24.75 15.75 14.2 8.75 14.2 8.75 10.8 15.75 10.8 M31.5 17.8 L34.9 17.8 34.9 24.8 38.5 24.8 38.5 7.2 27.9 7.2 27.9 24.8 31.5 24.8 31.5 17.8" fill="#01498f" fill-rule="evenodd" stroke="none"/>
    <path d="M97.0 10.6 Q97.0 13.3 95.05 15.25 93.1 17.2 90.4 17.2 L89.0 17.1 Q87.25 16.7 85.9 15.45 L85.65 15.25 Q83.75 13.3 83.75 10.6 83.75 7.85 85.65 5.85 87.65 3.95 90.4 3.95 93.1 3.95 95.05 5.85 97.0 7.85 97.0 10.6 M95.55 10.45 Q95.55 8.3 94.0 6.75 92.5 5.25 90.4 5.25 88.25 5.25 86.65 6.75 85.2 8.3 85.2 10.45 85.2 12.6 86.65 14.1 88.25 15.65 90.4 15.65 92.5 15.65 94.0 14.1 95.55 12.6 95.55 10.45 M94.75 10.4 Q94.75 12.3 93.45 13.5 92.2 14.8 90.35 14.8 88.55 14.8 87.3 13.5 86.0 12.3 86.0 10.4 86.0 8.65 87.3 7.3 88.55 6.1 90.35 6.1 92.2 6.1 93.45 7.3 94.75 8.65 94.75 10.4 M85.95 22.55 Q84.4 22.4 83.3 21.2 L85.85 15.9 Q87.0 16.95 88.45 17.25 L85.95 22.55 M85.2 24.25 L83.85 27.25 Q81.8 27.3 81.0 26.0 L82.5 23.0 Q83.4 24.05 85.2 24.25 M85.65 22.75 L85.25 23.8 Q83.7 23.75 82.9 22.7 L83.5 21.75 Q84.25 22.65 85.65 22.75 M75.25 7.2 L75.25 24.8 71.65 24.8 71.65 17.8 68.25 17.8 68.25 24.8 64.65 24.8 64.65 7.2 68.25 7.2 68.25 14.2 71.65 14.2 71.65 7.2 75.25 7.2 M61.25 7.25 L63.0 7.25 63.0 14.3 59.4 14.3 59.4 10.8 56.0 10.8 56.0 21.2 59.4 21.2 59.4 17.7 63.0 17.7 63.0 24.75 61.25 24.75 61.25 24.8 52.4 24.8 52.4 8.95 52.5 8.95 52.5 7.25 54.15 7.25 54.15 7.2 61.25 7.2 61.25 7.25 M43.75 10.8 L43.75 14.2 47.15 14.2 47.15 10.8 43.75 10.8 M43.75 17.8 L43.75 24.8 40.15 24.8 40.15 7.2 50.75 7.2 50.75 16.05 49.0 16.05 49.0 17.7 50.75 17.7 50.75 24.8 47.15 24.8 47.15 17.8 43.75 17.8 M31.5 10.8 L31.5 14.2 34.9 14.2 34.9 10.8 31.5 10.8 M21.0 10.8 L21.0 14.2 26.25 14.2 26.25 17.8 21.0 17.8 21.0 21.2 26.25 21.2 26.25 24.8 17.4 24.8 17.4 7.2 26.25 7.2 26.25 10.8 21.0 10.8 M31.5 17.8 L31.5 24.8 27.9 24.8 27.9 7.2 38.5 7.2 38.5 24.8 34.9 24.8 34.9 17.8 31.5 17.8 M15.75 10.8 L8.75 10.8 8.75 14.2 15.75 14.2 15.75 24.75 14.0 24.75 14.0 24.8 5.15 24.8 5.15 21.2 12.15 21.2 12.15 17.8 5.15 17.8 5.15 8.95 5.25 8.95 5.25 7.25 6.9 7.25 6.9 7.2 15.75 7.2 15.75 10.8" fill="#5faefe" fill-rule="evenodd" stroke="none"/>
    <path d="M97.5 31.3 Q100.7 30.5 100.7 26.5 L100.7 5.0 Q100.7 0.1 95.9 0.0 L-0.1 0.0 -0.1 31.3 85.55 31.5 88.1 31.5 95.7 31.5 97.5 31.3 Z" fill="none" stroke="#5faefe" stroke-linecap="square" stroke-linejoin="miter-clip" stroke-miterlimit="3.0" stroke-width="1.5"/>
  </g>
</svg>
