<?xml version="1.0" encoding="UTF-8" standalone="no"?>
<svg xmlns:xlink="http://www.w3.org/1999/xlink" height="33.0px" width="255.0px" xmlns="http://www.w3.org/2000/svg">
  <g transform="matrix(1.0, 0.0, 0.0, 1.0, 4.9, 3.2)">
    <path d="M250.1 -3.2 L250.1 29.8 -4.9 29.8 -4.9 -3.2 250.1 -3.2" fill="#6633ff" fill-opacity="0.0" fill-rule="evenodd" stroke="none"/>
    <path d="M244.95 23.8 L242.55 23.8 242.55 23.85 232.95 23.85 232.95 19.0 240.05 19.0 240.05 16.75 233.05 16.75 233.05 14.35 232.95 14.35 232.95 9.5 233.05 9.5 233.05 7.2 235.3 7.2 235.3 7.1 244.95 7.1 244.95 12.0 237.8 12.0 237.8 14.25 244.95 14.25 244.95 23.8 M230.65 12.0 L225.9 12.0 225.9 19.0 230.65 19.0 230.65 23.85 221.05 23.85 221.05 2.35 225.9 2.35 225.9 7.1 230.65 7.1 230.65 12.0 M218.75 0.0 L218.75 23.85 213.9 23.85 213.9 0.0 218.75 0.0 M211.65 7.1 L211.65 23.8 209.25 23.8 209.25 23.85 199.65 23.85 199.65 7.1 204.5 7.1 204.5 19.0 206.75 19.0 206.75 7.1 211.65 7.1 M197.4 12.0 L190.25 12.0 190.25 14.25 197.4 14.25 197.4 23.8 195.0 23.8 195.0 23.85 185.4 23.85 185.4 19.0 192.5 19.0 192.5 16.75 185.5 16.75 185.5 14.35 185.4 14.35 185.4 9.5 185.5 9.5 185.5 7.2 187.75 7.2 187.75 7.1 197.4 7.1 197.4 12.0 M183.15 23.85 L171.15 23.85 171.15 9.5 171.25 9.5 171.25 7.2 173.5 7.2 173.5 7.1 183.15 7.1 183.15 16.75 176.0 16.75 176.0 19.0 183.15 19.0 183.15 23.85 M176.0 12.0 L176.0 14.25 178.25 14.25 178.25 12.0 176.0 12.0 M168.85 12.0 L164.1 12.0 164.1 23.85 159.25 23.85 159.25 7.1 168.85 7.1 168.85 12.0 M142.7 12.0 L142.7 23.85 137.85 23.85 137.85 0.0 142.7 0.0 142.7 7.1 149.85 7.1 149.85 23.85 144.95 23.85 144.95 12.0 142.7 12.0 M133.2 7.2 L135.6 7.2 135.6 14.35 130.7 14.35 130.7 12.0 128.45 12.0 128.45 19.0 130.7 19.0 130.7 16.6 135.6 16.6 135.6 23.8 133.2 23.8 133.2 23.85 123.6 23.85 123.6 9.5 123.7 9.5 123.7 7.2 125.95 7.2 125.95 7.1 133.2 7.1 133.2 7.2 M116.55 12.0 L116.55 23.85 111.7 23.85 111.7 7.1 121.3 7.1 121.3 12.0 116.55 12.0 M102.3 16.75 L102.3 19.0 104.55 19.0 104.55 16.75 102.3 16.75 M104.55 12.0 L97.45 12.0 97.45 7.1 109.45 7.1 109.45 23.85 97.45 23.85 97.45 14.25 104.55 14.25 104.55 12.0 M83.3 9.5 L83.3 7.2 85.55 7.2 85.55 7.1 95.2 7.1 95.2 16.75 88.05 16.75 88.05 19.0 95.2 19.0 95.2 23.85 83.2 23.85 83.2 9.5 83.3 9.5 M88.05 12.0 L88.05 14.25 90.3 14.25 90.3 12.0 88.05 12.0 M80.95 7.1 L80.95 12.0 73.8 12.0 73.8 14.25 80.95 14.25 80.95 23.8 78.55 23.8 78.55 23.85 68.95 23.85 68.95 19.0 76.05 19.0 76.05 16.75 69.05 16.75 69.05 14.35 68.95 14.35 68.95 9.5 69.05 9.5 69.05 7.2 71.3 7.2 71.3 7.1 80.95 7.1 M59.5 12.0 L54.75 12.0 54.75 23.85 49.9 23.85 49.9 7.1 59.5 7.1 59.5 12.0 M42.75 19.0 L42.75 16.75 40.5 16.75 40.5 19.0 42.75 19.0 M42.75 12.0 L35.65 12.0 35.65 7.1 47.65 7.1 47.65 23.85 35.65 23.85 35.65 14.25 42.75 14.25 42.75 12.0 M26.25 12.0 L26.25 14.25 28.5 14.25 28.5 12.0 26.25 12.0 M21.5 9.5 L21.5 7.2 23.75 7.2 23.75 7.1 33.4 7.1 33.4 16.75 26.25 16.75 26.25 19.0 33.4 19.0 33.4 23.85 21.4 23.85 21.4 9.5 21.5 9.5 M19.1 0.0 L19.1 23.85 14.25 23.85 14.25 0.0 19.1 0.0 M9.6 7.2 L12.0 7.2 12.0 14.35 7.1 14.35 7.1 12.0 4.85 12.0 4.85 19.0 7.1 19.0 7.1 16.6 12.0 16.6 12.0 23.8 9.6 23.8 9.6 23.85 0.0 23.85 0.0 9.5 0.1 9.5 0.1 7.2 2.35 7.2 2.35 7.1 9.6 7.1 9.6 7.2" fill="#ffffff" fill-rule="evenodd" stroke="none"/>
  </g>
</svg>
