<?xml version="1.0" encoding="UTF-8" standalone="no"?>
<svg xmlns:xlink="http://www.w3.org/1999/xlink" height="357.0px" width="380.0px" xmlns="http://www.w3.org/2000/svg">
  <g transform="matrix(1.0, 0.0, 0.0, 1.0, 0.0, 0.0)">
    <path d="M375.0 0.0 Q380.0 0.0 380.0 5.0 L380.0 352.0 Q380.0 357.0 375.0 357.0 L5.0 357.0 Q0.0 357.0 0.0 352.0 L0.0 5.0 Q0.0 0.0 5.0 0.0 L375.0 0.0" fill="#000000" fill-opacity="0.49803922" fill-rule="evenodd" stroke="none"/>
    <path d="M375.0 0.0 Q380.0 0.0 380.0 5.0 L380.0 350.0 Q380.0 355.0 375.0 355.0 L5.0 355.0 Q0.0 355.0 0.0 350.0 L0.0 5.0 Q0.0 0.0 5.0 0.0 L375.0 0.0" fill="url(#gradient0)" fill-rule="evenodd" stroke="none"/>
  </g>
  <defs>
    <linearGradient gradientTransform="matrix(0.2161, -0.2007, 0.2139, 0.2304, 190.45, 177.05)" gradientUnits="userSpaceOnUse" id="gradient0" spreadMethod="pad" x1="-819.2" x2="819.2">
      <stop offset="0.0" stop-color="#000000"/>
      <stop offset="1.0" stop-color="#202020"/>
    </linearGradient>
  </defs>
</svg>
