<?xml version="1.0" encoding="UTF-8" standalone="no"?>
<svg xmlns:xlink="http://www.w3.org/1999/xlink" height="355.0px" width="380.0px" xmlns="http://www.w3.org/2000/svg">
  <g transform="matrix(1.0, 0.0, 0.0, 1.0, 0.0, 0.0)">
    <path d="M39.15 0.0 L42.35 0.0 42.35 355.0 39.15 355.0 39.15 0.0 M5.0 0.0 L9.05 0.0 9.05 355.0 5.0 355.0 5.0 0.0 M17.6 0.0 L19.8 0.0 19.8 355.0 17.6 355.0 17.6 0.0 M21.05 0.0 L22.45 0.0 22.45 355.0 21.05 355.0 21.05 0.0 M67.85 0.0 L70.3 0.0 70.3 355.0 67.85 355.0 67.85 0.0 M83.65 0.0 L89.75 0.0 89.75 355.0 83.65 355.0 83.65 0.0 M94.4 0.0 L97.6 0.0 97.6 355.0 94.4 355.0 94.4 0.0 M112.35 0.0 L114.2 0.0 114.2 355.0 112.35 355.0 112.35 0.0 M157.85 0.0 L159.7 0.0 159.7 355.0 157.85 355.0 157.85 0.0 M146.3 0.0 L149.65 0.0 149.65 355.0 146.3 355.0 146.3 0.0 M164.05 0.0 L168.3 0.0 168.3 355.0 164.05 355.0 164.05 0.0 M185.9 0.0 L187.85 0.0 187.85 355.0 185.9 355.0 185.9 0.0 M198.75 0.0 L201.25 0.0 201.25 355.0 198.75 355.0 198.75 0.0 M202.95 0.0 L205.25 0.0 205.25 355.0 202.95 355.0 202.95 0.0 M216.55 0.0 L217.9 0.0 217.9 355.0 216.55 355.0 216.55 0.0 M232.9 0.0 L239.0 0.0 239.0 355.0 232.9 355.0 232.9 0.0 M257.75 0.0 L259.55 0.0 259.55 355.0 257.75 355.0 257.75 0.0 M268.85 0.0 L270.9 0.0 270.9 355.0 268.85 355.0 268.85 0.0 M274.2 0.0 L277.5 0.0 277.5 355.0 274.2 355.0 274.2 0.0 M316.55 0.0 L317.9 0.0 317.9 355.0 316.55 355.0 316.55 0.0 M303.1 0.0 L305.0 0.0 305.0 355.0 303.1 355.0 303.1 0.0 M357.15 0.0 L360.35 0.0 360.35 355.0 357.15 355.0 357.15 0.0 M347.85 0.0 L349.7 0.0 349.7 355.0 347.85 355.0 347.85 0.0 M372.35 0.0 L374.2 0.0 374.2 355.0 372.35 355.0 372.35 0.0" fill="#000000" fill-opacity="0.08627451" fill-rule="evenodd" stroke="none"/>
    <path d="M10.75 0.0 L11.85 0.0 11.85 355.0 10.75 355.0 10.75 0.0 M24.4 0.0 L25.4 0.0 25.4 355.0 24.4 355.0 24.4 0.0 M30.45 0.0 L31.75 0.0 31.75 355.0 30.45 355.0 30.45 0.0 M56.3 0.0 L57.6 0.0 57.6 355.0 56.3 355.0 56.3 0.0 M73.5 0.0 L75.35 0.0 75.35 355.0 73.5 355.0 73.5 0.0 M91.4 0.0 L92.5 0.0 92.5 355.0 91.4 355.0 91.4 0.0 M105.3 0.0 L107.25 0.0 107.25 355.0 105.3 355.0 105.3 0.0 M134.05 0.0 L135.4 0.0 135.4 355.0 134.05 355.0 134.05 0.0 M140.9 0.0 L142.05 0.0 142.05 355.0 140.9 355.0 140.9 0.0 M170.7 0.0 L172.05 0.0 172.05 355.0 170.7 355.0 170.7 0.0 M210.6 0.0 L211.75 0.0 211.75 355.0 210.6 355.0 210.6 0.0 M224.4 0.0 L225.65 0.0 225.65 355.0 224.4 355.0 224.4 0.0 M228.05 0.0 L230.35 0.0 230.35 355.0 228.05 355.0 228.05 0.0 M246.6 0.0 L249.0 0.0 249.0 355.0 246.6 355.0 246.6 0.0 M253.3 0.0 L254.3 0.0 254.3 355.0 253.3 355.0 253.3 0.0 M266.25 0.0 L267.1 0.0 267.1 355.0 266.25 355.0 266.25 0.0 M291.7 0.0 L294.95 0.0 294.95 355.0 291.7 355.0 291.7 0.0 M296.95 0.0 L298.25 0.0 298.25 355.0 296.95 355.0 296.95 0.0 M322.6 0.0 L323.7 0.0 323.7 355.0 322.6 355.0 322.6 0.0 M342.3 0.0 L343.6 0.0 343.6 355.0 342.3 355.0 342.3 0.0 M336.25 0.0 L337.25 0.0 337.25 355.0 336.25 355.0 336.25 0.0 M366.15 0.0 L367.45 0.0 367.45 355.0 366.15 355.0 366.15 0.0" fill="#ffffff" fill-opacity="0.02745098" fill-rule="evenodd" stroke="none"/>
    <path d="M376.9 15.5 Q373.8 14.5 370.4 14.35 360.8 13.9 353.7 20.4 346.6 26.95 346.35 36.55 346.2 40.0 347.05 43.15 L347.05 43.25 Q347.9 46.65 349.85 49.8 L349.9 49.85 350.05 50.0 352.65 53.25 352.65 53.3 353.55 54.3 353.65 54.3 Q356.1 56.65 359.05 58.25 363.5 60.6 369.0 60.85 375.0 61.15 380.0 58.75 L380.0 64.8 377.8 65.65 Q376.05 69.1 372.95 70.65 369.8 72.2 369.9 80.25 369.95 88.25 368.9 96.4 L367.95 96.65 Q366.7 96.1 366.7 94.5 L366.6 72.75 Q366.55 71.3 365.1 70.9 L363.95 69.85 Q362.85 68.3 358.9 67.1 354.9 65.9 351.65 61.95 L351.4 61.75 Q351.1 61.4 350.8 61.3 L346.9 57.75 Q344.85 55.55 343.45 53.25 341.05 49.5 339.95 45.3 339.3 42.15 339.2 39.3 L339.15 35.75 Q336.15 41.4 336.55 46.65 L304.85 68.4 Q304.35 66.4 304.3 64.4 L304.3 64.3 Q304.1 62.15 304.35 60.25 304.45 58.5 304.95 56.9 L305.05 56.85 305.05 56.8 305.1 56.8 305.1 56.65 Q305.6 55.0 306.3 53.5 307.6 50.8 309.8 48.3 L310.2 47.8 318.1 41.05 332.25 29.15 Q336.1 25.45 335.35 22.3 334.6 19.1 335.85 15.9 L337.85 13.85 Q338.8 13.1 340.05 12.65 343.1 12.05 344.85 13.55 L344.9 13.35 Q346.35 10.5 349.5 10.5 L350.95 10.75 Q352.8 11.55 353.7 12.9 L353.65 13.0 Q360.55 9.5 368.65 9.9 374.85 10.1 380.0 12.6 L380.0 16.9 378.4 16.1 376.9 15.5 M380.0 19.05 L380.0 36.3 355.95 50.1 Q353.15 47.0 352.1 43.1 L378.2 19.0 380.0 19.05 M329.8 22.15 Q330.35 21.65 331.1 21.65 331.85 21.65 332.4 22.15 332.9 22.7 332.9 23.5 332.9 24.2 332.4 24.75 331.85 25.35 331.1 25.35 330.35 25.35 329.8 24.75 329.25 24.2 329.25 23.5 329.25 22.7 329.8 22.15 M359.4 53.25 L380.0 43.55 380.0 50.75 363.65 55.5 Q361.4 54.65 359.4 53.25 M357.2 181.45 Q364.8 186.8 370.9 196.45 375.05 202.85 378.2 209.8 L319.2 204.2 Q317.1 190.6 308.05 181.45 301.85 175.1 292.4 171.0 L291.35 170.5 290.65 170.2 291.35 170.2 291.45 170.2 291.7 170.2 292.7 170.25 Q326.95 171.75 347.05 176.35 352.4 178.05 357.2 181.45 M334.95 219.95 Q333.4 216.65 336.7 215.55 338.45 215.85 340.05 216.5 341.65 217.2 341.45 219.05 341.3 220.85 339.4 221.6 336.3 222.9 334.95 219.95 M346.6 240.6 L346.6 240.7 346.2 245.9 Q346.2 246.45 346.55 246.85 346.9 247.25 347.45 247.3 L364.3 248.45 Q363.75 261.4 361.3 274.25 L361.05 274.2 342.85 273.15 Q342.4 273.05 342.05 273.4 341.65 273.65 341.5 274.1 L341.2 275.4 341.15 275.45 340.05 279.9 Q339.85 280.2 340.1 280.55 L340.05 280.55 340.45 281.25 341.2 281.45 359.35 282.55 Q356.2 294.55 351.3 305.75 L350.9 305.7 332.15 304.8 331.4 305.0 330.9 305.55 330.4 306.7 330.4 306.75 Q330.2 306.9 330.15 307.2 L329.95 307.65 328.2 311.15 Q327.95 311.6 328.1 312.0 L328.55 312.75 328.6 312.75 Q328.9 313.0 329.35 313.05 L347.35 313.95 346.4 315.75 342.3 322.95 Q338.35 329.4 333.65 335.15 333.3 334.75 332.85 334.75 L314.4 334.5 313.8 334.65 313.35 334.95 310.1 338.95 310.05 339.1 309.95 339.15 308.6 340.65 Q308.2 341.05 308.2 341.65 308.2 342.15 308.65 342.5 L309.55 342.8 326.2 343.05 Q319.4 349.7 311.15 355.0 L261.6 355.0 269.15 348.15 276.9 339.8 Q287.2 327.55 294.3 313.0 L295.7 310.1 Q302.85 295.05 306.85 278.9 L307.65 275.7 Q312.35 256.05 313.05 236.0 L313.1 235.5 313.05 227.6 Q310.75 222.65 312.15 220.5 313.6 218.4 313.45 216.05 313.25 213.6 317.0 211.75 320.7 209.85 326.05 211.85 331.25 213.85 331.05 223.85 L363.65 226.85 Q364.15 231.1 364.3 235.5 L364.35 236.8 364.4 240.0 348.05 238.95 347.15 239.15 Q346.65 239.55 346.65 240.05 L346.6 240.6 M320.45 29.15 L320.0 29.35 319.55 29.15 Q319.4 28.95 319.4 28.75 L319.55 28.25 320.0 28.05 320.45 28.25 320.65 28.75 320.45 29.15 M251.05 63.75 Q251.05 64.45 250.4 65.3 249.65 66.4 248.3 66.4 246.85 66.4 246.15 65.1 L245.7 63.7 Q245.7 61.0 248.35 61.15 251.05 61.35 251.05 63.75 M300.2 64.55 Q300.35 67.5 301.1 70.15 301.95 73.4 303.65 76.3 L216.9 129.1 216.7 128.6 Q216.1 127.05 215.95 125.35 L215.95 123.5 216.1 122.6 Q216.65 119.9 218.5 117.8 219.4 116.65 220.7 115.9 L220.75 115.8 300.2 60.75 300.2 64.55 M166.85 94.8 Q164.25 95.85 162.4 98.3 165.15 107.55 166.0 113.85 L166.85 120.5 167.2 125.1 167.35 134.0 167.35 134.6 167.25 134.6 148.1 132.25 148.6 132.4 141.5 131.45 Q138.65 131.2 136.75 128.95 L136.6 127.8 Q136.35 126.95 136.7 125.85 137.85 122.9 140.5 123.3 L139.85 118.05 139.2 113.85 137.75 106.75 137.1 104.15 Q133.6 90.5 129.25 79.75 129.2 78.85 129.4 78.15 130.0 75.85 133.5 76.1 L240.95 91.55 242.75 92.8 229.5 102.05 170.45 94.0 Q168.5 94.1 166.85 94.8 M235.4 59.5 L236.95 61.2 Q238.0 62.35 238.05 63.0 238.45 64.6 238.45 66.25 L238.45 66.65 238.45 67.55 Q238.45 69.1 237.9 70.45 L237.1 71.85 236.45 72.55 Q233.55 75.8 227.15 75.8 223.45 75.8 221.85 73.8 220.85 72.55 220.85 71.15 L220.4 68.45 Q219.9 66.9 219.9 66.35 219.9 61.1 222.75 58.5 225.4 56.2 229.2 56.75 L230.65 57.05 Q233.1 56.35 234.3 57.45 L235.4 59.5 M214.65 58.9 Q211.05 58.9 209.85 56.85 209.2 55.9 209.3 54.7 209.3 52.95 210.85 51.65 212.25 50.45 214.2 50.2 219.0 49.7 219.0 54.55 219.0 58.9 214.65 58.9 M212.65 113.75 Q211.2 115.75 206.25 131.55 L206.3 131.5 Q204.9 136.7 208.1 139.55 208.95 143.95 206.6 146.65 L287.95 156.5 288.2 162.65 279.3 162.4 Q275.85 162.3 273.65 165.2 L268.9 171.05 203.75 164.35 203.65 164.3 203.15 163.7 202.9 163.45 Q200.9 161.35 198.6 159.6 L194.85 156.95 Q191.4 154.6 187.4 152.75 L187.15 152.6 Q179.5 149.35 166.95 147.5 L160.9 146.6 160.85 146.6 150.4 145.6 150.2 145.6 150.15 145.6 144.85 145.25 138.95 144.8 139.15 138.5 193.2 145.0 Q192.2 143.25 192.2 140.85 L189.1 140.95 Q187.7 140.1 187.75 138.9 187.75 137.65 185.55 136.9 L178.45 136.0 179.15 134.7 Q183.1 126.85 182.6 117.35 182.1 109.65 176.2 101.7 L177.0 101.4 221.9 107.5 212.65 113.75 M212.6 145.35 Q212.1 144.75 212.1 144.05 212.1 143.25 212.6 142.7 213.2 142.2 213.95 142.2 214.7 142.2 215.25 142.7 215.8 143.25 215.8 144.05 215.8 144.75 215.25 145.35 214.7 145.85 213.95 145.85 213.2 145.85 212.6 145.35 M231.2 142.0 L231.55 140.85 251.65 130.35 251.85 134.35 251.5 139.05 251.5 139.2 251.0 141.9 251.0 141.85 250.45 143.4 250.4 143.65 250.3 144.15 250.05 144.85 250.05 145.0 231.2 142.55 231.2 142.0 M189.95 162.8 Q192.7 164.7 195.15 167.0 L199.2 171.25 202.15 175.1 202.15 175.2 Q205.5 180.0 207.95 185.25 L209.2 188.5 Q210.1 190.6 211.05 193.95 210.25 196.6 206.4 196.35 202.45 196.1 201.1 200.5 201.0 204.5 201.4 208.4 L201.35 211.6 201.35 229.4 201.3 229.4 201.15 236.4 201.0 238.1 198.55 263.0 198.25 264.8 198.1 264.8 197.95 264.8 197.0 271.05 196.6 273.25 196.7 273.25 196.7 273.4 Q195.05 284.65 194.05 296.6 193.1 308.5 189.2 299.8 L170.7 298.75 Q170.2 298.75 169.85 299.0 L169.25 299.75 166.8 305.3 Q166.65 305.75 166.8 306.25 166.85 306.8 167.2 307.05 L168.1 307.3 185.75 308.3 185.25 309.2 Q182.5 315.1 179.35 320.8 175.9 326.95 171.7 332.5 L170.75 332.3 152.15 331.95 151.55 332.05 151.0 332.5 146.45 338.2 Q146.05 338.65 146.15 339.2 146.15 339.7 146.5 340.15 146.9 340.5 147.5 340.55 L164.25 340.8 Q160.5 344.45 156.45 347.55 150.45 351.9 143.95 355.0 L81.65 355.0 Q97.35 343.9 108.9 326.9 122.85 306.0 130.15 282.45 L131.75 276.95 Q137.45 256.7 138.95 235.5 L139.0 234.0 139.55 225.95 139.95 207.05 195.6 210.65 195.3 206.1 194.8 205.65 Q194.5 203.85 194.55 199.95 194.6 196.05 192.0 194.95 189.35 193.7 184.1 193.6 178.85 193.45 174.35 190.75 L137.7 187.55 Q132.65 170.35 122.55 162.8 119.35 160.55 115.8 159.1 111.25 160.1 106.1 161.85 84.0 169.3 48.2 188.5 L36.25 195.05 45.3 188.5 Q69.8 171.55 92.45 161.3 101.75 157.15 110.7 154.1 L119.75 151.2 127.85 151.8 136.7 152.5 149.65 153.25 150.35 153.3 153.2 153.5 166.85 155.05 Q175.5 156.35 182.15 158.7 184.25 159.4 186.2 160.25 188.15 161.35 189.95 162.8 M219.3 195.75 L219.25 195.45 Q218.5 191.85 217.4 188.5 L216.65 186.3 Q213.95 179.05 209.85 172.85 L268.45 178.55 Q272.8 179.75 276.75 181.45 287.3 186.0 293.95 193.95 L294.05 193.95 Q303.1 205.35 301.35 223.95 L301.35 224.1 Q300.85 231.25 300.75 238.45 L300.55 238.85 300.55 248.1 300.95 248.9 Q302.25 254.15 300.5 258.95 L300.05 259.1 298.6 258.95 298.3 258.55 Q297.0 255.65 297.8 252.5 L297.8 232.3 Q297.75 228.9 295.85 226.1 295.2 225.2 294.15 224.6 292.15 223.45 289.95 223.05 L287.25 222.8 283.5 223.3 Q282.95 224.1 282.0 224.55 277.0 226.7 272.9 223.0 272.15 222.25 272.0 221.4 L272.5 221.35 206.6 215.3 206.45 209.55 218.6 197.85 219.25 196.65 219.3 196.35 219.3 196.05 219.3 195.75 M301.8 122.85 Q301.8 123.85 301.15 124.7 300.45 125.6 299.2 125.6 297.4 125.6 296.75 124.1 L296.45 122.7 Q296.45 120.15 299.15 119.95 301.8 119.7 301.8 122.85 M308.6 124.65 Q310.25 124.65 310.25 126.35 L309.9 127.3 Q309.45 128.0 308.55 128.0 307.5 128.0 307.05 127.1 L306.9 126.35 Q306.9 124.65 308.6 124.65 M267.1 123.5 Q269.1 128.4 270.45 133.85 L271.4 137.45 271.75 139.6 272.55 145.25 272.8 147.85 256.95 145.85 257.45 144.3 257.95 142.75 258.45 139.55 258.55 139.2 Q258.85 136.75 258.8 134.0 L258.15 126.9 Q262.45 124.65 266.7 122.35 L267.1 123.5 M127.8 20.1 Q128.25 23.2 126.9 27.35 L126.9 27.4 126.25 28.65 123.1 28.55 123.0 28.25 122.45 26.5 122.4 26.35 122.0 25.4 122.0 25.35 Q121.45 24.15 120.55 24.15 L120.5 24.15 117.0 23.85 Q115.9 23.75 115.2 24.95 L114.15 26.25 114.0 26.4 113.45 27.15 Q112.5 27.8 110.9 27.8 L102.4 27.15 Q101.7 26.85 101.4 23.0 L101.4 22.9 Q101.15 20.4 101.55 17.4 101.8 17.25 102.2 17.05 L102.45 16.9 102.85 16.8 Q115.75 15.5 127.25 18.9 L127.8 20.1 M121.95 31.8 L122.75 32.05 123.1 32.2 123.5 32.35 123.9 32.85 123.5 34.5 123.2 35.6 123.1 36.1 122.4 38.15 122.0 39.1 121.35 39.8 119.7 40.7 117.3 41.3 116.6 41.35 116.0 41.35 114.85 41.35 114.2 41.3 112.25 40.75 110.4 39.75 Q109.4 39.25 108.75 38.4 L108.0 36.4 107.75 35.6 107.45 34.4 107.45 34.0 107.45 33.9 107.45 33.8 107.4 33.65 107.45 33.05 Q107.5 32.65 107.7 32.3 107.85 31.95 109.05 31.8 L109.4 31.8 110.85 31.6 113.15 31.25 115.5 30.6 115.65 30.55 115.95 29.9 116.45 29.15 117.0 28.45 117.4 27.85 117.5 27.75 117.7 27.65 119.95 27.9 120.0 28.35 120.4 29.15 120.65 30.1 120.9 30.8 121.0 31.35 121.1 31.5 121.95 31.8 M134.6 32.0 Q134.6 31.55 134.9 31.3 135.15 31.0 135.55 31.0 136.0 31.0 136.25 31.3 L136.5 32.0 136.25 32.65 135.55 32.9 Q135.15 32.9 134.9 32.65 134.6 32.35 134.6 32.0 M95.2 49.1 L97.7 51.75 100.2 53.65 Q102.9 55.65 106.15 57.0 110.7 58.75 115.5 58.75 120.65 58.65 124.4 55.55 L126.4 51.65 Q129.4 52.4 132.1 53.75 131.85 57.55 132.4 62.85 L133.35 67.9 133.2 67.9 Q123.5 67.25 114.45 71.1 112.15 72.1 109.9 73.25 L103.1 76.55 103.3 76.5 Q99.3 78.9 98.75 82.35 98.1 85.75 95.55 84.7 92.95 83.65 92.6 92.2 L92.6 106.85 Q93.45 108.5 92.0 111.65 90.45 114.75 90.45 107.15 L90.45 90.4 Q90.4 81.8 86.7 75.4 L86.05 74.4 84.45 71.85 90.45 75.55 Q90.75 68.65 90.4 65.4 L89.5 58.65 Q89.0 55.1 87.0 49.25 L94.5 48.1 95.2 49.1 M94.45 259.15 Q94.95 259.15 95.3 259.5 L95.55 260.35 95.3 261.15 94.45 261.45 Q93.9 261.45 93.65 261.15 93.3 260.85 93.3 260.35 93.3 259.8 93.65 259.5 93.9 259.15 94.45 259.15 M96.55 247.6 L97.45 247.55 Q98.65 248.1 98.75 249.45 L98.55 250.1 97.25 250.65 Q97.7 252.15 96.7 253.0 93.35 255.85 90.75 252.2 L90.7 251.6 Q90.4 249.3 92.25 247.75 94.5 247.55 95.95 248.25 L96.55 247.6 M110.25 247.15 Q110.25 246.65 110.65 246.25 110.95 245.85 111.5 245.85 112.1 245.85 112.5 246.25 L112.8 247.15 112.5 248.0 Q112.1 248.4 111.5 248.4 110.95 248.4 110.65 248.0 110.25 247.6 110.25 247.15 M117.05 194.35 L117.95 195.95 Q125.9 208.8 126.75 225.95 L126.85 231.35 126.75 235.5 Q126.05 249.3 121.5 260.8 119.6 265.7 117.0 270.15 L114.95 273.2 113.75 275.0 112.3 276.95 Q101.1 291.35 86.8 291.55 L86.55 291.55 Q72.45 291.5 62.9 277.7 L62.4 276.95 61.15 275.0 Q53.9 263.05 52.55 247.55 L52.25 243.1 52.25 240.0 58.15 235.75 Q57.95 239.2 58.15 242.5 58.2 244.75 58.5 246.8 L70.25 247.2 Q71.0 251.6 72.25 255.6 L59.95 255.25 61.4 259.8 73.95 260.2 Q75.2 263.05 76.8 265.85 81.5 273.65 87.7 276.95 L89.75 277.95 Q80.0 280.0 74.15 277.15 83.2 283.75 95.2 279.25 L95.25 279.25 97.4 278.0 99.0 276.95 99.15 276.75 Q103.7 273.45 107.7 267.8 113.85 259.1 116.45 248.15 L116.4 248.2 Q112.35 246.85 112.45 242.25 108.65 242.8 106.8 239.8 L106.8 239.4 Q106.6 235.5 110.5 234.1 L112.05 234.25 Q112.4 228.85 118.35 227.85 L118.2 225.95 Q117.25 212.75 111.2 202.6 L109.35 199.8 117.05 194.35 M107.1 103.95 Q107.4 104.25 107.4 104.7 L107.1 105.45 Q106.8 105.8 106.3 105.8 105.85 105.8 105.6 105.45 105.3 105.1 105.3 104.7 105.3 104.25 105.6 103.95 105.85 103.55 106.3 103.55 106.8 103.55 107.1 103.95 M122.9 135.35 Q122.9 134.6 123.4 134.15 123.9 133.7 124.55 133.7 125.25 133.7 125.8 134.15 126.2 134.6 126.2 135.35 126.2 136.0 125.8 136.55 L124.55 137.0 Q123.9 137.0 123.4 136.55 122.9 136.0 122.9 135.35 M133.95 127.7 Q134.3 128.1 134.3 128.6 L133.95 129.45 Q133.55 129.85 133.05 129.85 132.6 129.85 132.25 129.45 131.85 129.05 131.85 128.6 131.85 128.1 132.25 127.7 132.6 127.3 133.05 127.3 L133.95 127.7 M151.75 122.85 L150.95 123.55 Q150.0 124.6 150.1 126.05 150.1 127.0 150.45 127.7 L151.2 128.65 151.45 128.85 151.85 129.2 Q152.5 129.65 153.4 129.65 154.8 129.55 155.7 128.55 156.6 127.45 156.55 125.95 156.55 124.5 155.6 123.4 154.65 122.3 153.2 122.35 152.4 122.35 151.75 122.85 M153.95 105.35 Q153.9 104.0 153.0 102.9 L152.65 102.6 Q151.75 101.8 150.65 101.8 149.55 101.8 148.7 102.65 L148.4 103.05 Q147.45 104.1 147.45 105.5 L147.45 105.75 Q147.5 107.1 148.5 108.15 149.5 109.15 150.85 109.1 L151.3 109.1 Q152.35 108.85 153.15 108.05 154.0 106.95 153.95 105.35 M145.4 83.1 Q144.0 83.1 143.1 84.3 142.15 85.35 142.2 86.85 142.25 88.35 143.25 89.4 144.25 90.4 145.5 90.4 L146.5 90.25 Q147.2 89.95 147.9 89.3 148.65 88.3 148.7 87.05 L148.7 86.75 Q148.65 85.25 147.7 84.15 146.7 83.05 145.4 83.1 M147.55 64.3 Q148.45 64.3 149.1 64.95 149.8 65.6 149.8 66.5 149.8 67.4 149.1 68.05 148.45 68.7 147.55 68.7 146.65 68.7 146.05 68.05 145.35 67.4 145.35 66.5 145.35 65.6 146.05 64.95 146.65 64.3 147.55 64.3 M102.55 96.25 L103.3 96.1 Q104.85 96.2 105.95 97.1 L106.25 100.95 105.2 102.05 Q102.5 102.9 100.55 101.05 L100.45 100.85 Q99.9 97.85 102.55 96.25 M7.9 283.25 Q4.3 278.75 0.35 276.45 L41.8 247.3 Q42.0 258.0 44.0 263.45 L24.05 276.95 10.15 286.45 7.9 283.25 M37.2 286.65 L38.15 287.8 40.05 289.5 26.2 296.3 25.25 290.5 35.45 284.3 35.5 284.45 35.7 284.3 37.2 286.65 M78.7 305.2 L81.15 308.65 Q85.05 315.75 84.45 325.55 L84.3 327.5 Q83.55 334.15 81.15 339.55 80.05 341.95 78.65 344.05 L77.7 345.55 76.95 346.4 76.25 347.3 Q70.55 354.2 63.75 354.25 L63.65 354.25 Q56.9 354.2 52.7 347.65 L52.45 347.3 51.95 346.4 Q48.75 340.7 48.55 333.3 L48.5 331.15 48.8 327.5 49.05 325.55 49.95 321.2 Q51.75 314.05 56.05 308.65 60.0 303.45 64.75 301.75 L68.05 300.9 69.45 300.8 Q74.8 300.8 78.55 305.05 L78.7 305.2 M68.5 308.05 L67.7 307.95 Q62.45 307.95 58.15 313.7 56.6 315.55 55.65 317.8 53.9 321.3 53.15 325.65 L53.0 327.4 52.8 330.5 52.8 332.3 57.8 332.4 Q58.0 334.25 58.45 335.95 L53.3 335.8 53.75 337.7 59.0 337.8 60.0 340.25 Q61.9 343.55 64.5 344.95 L65.25 345.25 64.45 345.45 Q60.9 346.05 58.7 345.0 62.4 347.75 67.5 345.85 L68.45 345.3 Q68.8 345.15 69.2 344.95 L69.25 344.9 Q71.2 343.45 73.05 341.05 77.4 335.4 78.3 327.4 L78.4 325.65 Q78.7 318.75 76.0 313.7 73.6 309.3 70.05 308.35 L68.5 308.05 M26.75 311.0 Q31.15 310.95 34.25 314.4 L34.5 314.5 36.45 317.3 Q39.75 323.15 39.5 331.15 L39.3 332.75 Q38.8 338.15 36.95 342.55 36.2 344.45 35.05 346.25 L34.25 347.45 33.75 348.15 33.15 348.95 Q28.65 354.45 23.05 354.55 L23.0 354.55 Q17.5 354.55 13.95 349.2 L13.75 348.95 13.25 348.15 Q10.7 343.5 10.35 337.45 L10.25 335.75 10.45 332.75 10.6 331.15 11.2 327.55 Q12.65 321.8 16.0 317.3 19.25 313.0 23.0 311.7 L25.7 311.05 26.75 311.0 M27.4 317.05 L26.2 316.95 25.5 316.85 Q21.2 316.85 17.75 321.45 16.55 323.0 15.8 324.8 14.4 327.7 14.0 331.2 13.85 331.9 13.85 332.65 L13.75 335.2 13.8 336.65 17.9 336.75 Q18.0 338.25 18.4 339.65 L14.2 339.5 14.65 341.05 18.95 341.2 19.8 343.15 Q21.4 345.8 23.5 347.0 L24.2 347.25 23.45 347.45 Q20.55 347.9 18.8 347.0 21.8 349.25 26.05 347.7 L26.75 347.3 27.3 347.0 27.4 346.95 Q28.95 345.75 30.4 343.8 33.8 339.2 34.5 332.65 L34.55 331.2 Q34.7 325.55 32.4 321.45 30.3 317.9 27.4 317.05 M0.0 333.4 L0.0 292.8 Q4.7 302.45 4.05 315.45 3.6 324.4 0.7 331.75 L0.0 333.4 M243.95 214.55 Q245.4 214.55 246.45 213.55 L246.45 213.5 Q247.5 212.45 247.6 210.95 247.5 209.45 246.45 208.45 245.4 207.3 243.95 207.3 242.45 207.3 241.35 208.45 240.2 209.45 240.2 210.95 240.2 212.5 241.35 213.55 L241.35 213.5 Q242.45 214.55 243.95 214.55 M270.55 210.35 Q269.75 209.75 268.65 209.8 267.15 209.75 266.15 210.85 265.1 211.9 265.1 213.45 265.1 214.95 266.15 216.0 267.15 217.0 268.65 217.0 269.85 217.0 270.7 216.4 269.8 216.25 269.05 215.55 268.2 214.65 268.2 213.35 268.2 212.05 269.05 211.15 269.75 210.5 270.55 210.35 M283.75 238.55 L284.35 239.1 Q284.05 241.9 281.75 240.75 L281.6 239.2 Q282.5 238.2 283.75 238.55 M293.6 213.25 Q292.45 212.1 290.95 212.1 289.45 212.1 288.45 213.25 287.3 214.25 287.3 215.75 287.3 217.3 288.45 218.35 L288.45 218.3 Q289.45 219.35 290.95 219.45 292.45 219.35 293.45 218.35 L293.6 218.3 Q294.55 217.25 294.6 215.75 294.55 214.25 293.45 213.25 L293.6 213.25 M278.25 270.75 L277.8 273.35 276.95 276.35 275.8 277.6 273.7 278.8 268.2 279.95 Q263.75 279.95 261.45 275.35 259.9 272.35 259.9 269.8 259.9 266.75 261.8 264.6 264.55 261.6 270.35 261.6 275.05 262.45 276.95 265.65 278.25 267.8 278.25 270.75 M252.7 278.45 Q252.7 276.7 254.0 275.7 255.25 274.65 256.95 274.7 261.3 274.8 261.3 279.65 261.3 281.3 261.0 281.75 260.2 283.0 257.6 283.0 254.1 283.0 253.05 280.8 L252.7 278.45 M184.1 205.1 L183.9 205.6 Q183.75 205.8 183.4 205.8 L182.9 205.6 182.7 205.1 182.9 204.6 183.4 204.4 Q183.75 204.4 183.9 204.6 L184.1 205.1 M187.75 198.3 Q188.25 198.75 188.25 199.5 188.25 200.25 187.75 200.8 187.2 201.3 186.45 201.3 185.7 201.3 185.2 200.8 184.65 200.25 184.65 199.5 184.65 198.75 185.2 198.3 185.7 197.7 186.45 197.7 187.2 197.7 187.75 198.3 M221.75 205.85 Q220.7 204.75 219.15 204.75 217.65 204.75 216.65 205.85 215.6 206.95 215.6 208.45 215.6 209.95 216.65 211.0 L216.65 210.95 Q217.65 211.95 219.15 211.95 220.7 211.95 221.75 211.0 L221.75 210.95 Q222.7 209.95 222.8 208.45 222.8 206.95 221.75 205.85 M181.9 235.5 Q181.9 235.9 182.25 236.35 182.65 236.8 183.25 236.85 L195.3 237.6 Q197.65 234.6 197.25 231.45 L197.2 229.1 197.2 229.0 183.85 228.1 Q183.2 228.1 182.75 228.5 182.25 228.85 182.25 229.5 L181.9 235.3 181.9 235.5 M226.4 276.9 Q226.0 276.45 226.0 275.9 226.0 275.25 226.4 274.8 226.9 274.4 227.5 274.4 228.05 274.4 228.55 274.8 229.0 275.25 229.0 275.9 L228.55 276.9 Q228.05 277.4 227.5 277.4 226.9 277.4 226.4 276.9 M239.1 270.05 L238.8 269.6 Q238.0 267.4 239.75 265.8 L240.45 265.75 Q241.95 265.5 242.95 266.55 243.35 267.65 243.0 268.8 242.1 271.45 239.1 270.05 M178.2 271.3 L178.7 271.95 179.45 272.3 192.35 273.0 Q194.95 270.1 194.5 264.5 L180.75 263.7 Q180.2 263.6 179.75 263.95 179.35 264.25 179.25 264.75 L178.15 270.55 Q178.0 270.95 178.2 271.3" fill="#ffffff" fill-opacity="0.09019608" fill-rule="evenodd" stroke="none"/>
  </g>
</svg>
