<?xml version="1.0" encoding="UTF-8" standalone="no"?>
<svg xmlns:xlink="http://www.w3.org/1999/xlink" height="316.0px" width="370.0px" xmlns="http://www.w3.org/2000/svg">
  <g transform="matrix(1.0, 0.0, 0.0, 1.0, -5.0, -1.0)">
    <path d="M365.0 47.0 L365.0 307.0 15.0 307.0 15.0 47.0 365.0 47.0" fill="#000000" fill-opacity="0.2509804" fill-rule="evenodd" stroke="none"/>
    <path d="M365.0 47.0 L375.0 37.0 375.0 317.0 365.0 307.0 365.0 47.0" fill="url(#gradient0)" fill-rule="evenodd" stroke="none"/>
    <path d="M375.0 37.0 L365.0 47.0 15.0 47.0 5.0 37.0 375.0 37.0" fill="url(#gradient1)" fill-rule="evenodd" stroke="none"/>
    <path d="M365.0 307.0 L375.0 317.0 5.0 317.0 15.0 307.0 365.0 307.0" fill="url(#gradient2)" fill-rule="evenodd" stroke="none"/>
    <path d="M5.0 37.0 L15.0 47.0 15.0 307.0 5.0 317.0 5.0 37.0" fill="url(#gradient3)" fill-rule="evenodd" stroke="none"/>
    <path d="M305.0 1.0 L305.0 2.1 5.0 2.1 5.0 1.0 305.0 1.0" fill="url(#gradient4)" fill-rule="evenodd" stroke="none"/>
  </g>
  <defs>
    <linearGradient gradientTransform="matrix(0.0061, 0.0, 0.0, 0.1526, 370.0, 162.0)" gradientUnits="userSpaceOnUse" id="gradient0" spreadMethod="pad" x1="-819.2" x2="819.2">
      <stop offset="0.0" stop-color="#000000" stop-opacity="0.2509804"/>
      <stop offset="1.0" stop-color="#000000"/>
    </linearGradient>
    <linearGradient gradientTransform="matrix(0.0, -0.0061, 0.1831, 0.0, 152.0, 42.0)" gradientUnits="userSpaceOnUse" id="gradient1" spreadMethod="pad" x1="-819.2" x2="819.2">
      <stop offset="0.0" stop-color="#000000" stop-opacity="0.2509804"/>
      <stop offset="1.0" stop-color="#000000"/>
    </linearGradient>
    <linearGradient gradientTransform="matrix(0.0, 0.0061, -0.1831, 0.0, 152.0, 312.0)" gradientUnits="userSpaceOnUse" id="gradient2" spreadMethod="pad" x1="-819.2" x2="819.2">
      <stop offset="0.0" stop-color="#000000" stop-opacity="0.2509804"/>
      <stop offset="1.0" stop-color="#000000"/>
    </linearGradient>
    <linearGradient gradientTransform="matrix(-0.0061, 0.0, 0.0, -0.1526, 10.0, 162.0)" gradientUnits="userSpaceOnUse" id="gradient3" spreadMethod="pad" x1="-819.2" x2="819.2">
      <stop offset="0.0" stop-color="#000000" stop-opacity="0.2509804"/>
      <stop offset="1.0" stop-color="#000000"/>
    </linearGradient>
    <linearGradient gradientTransform="matrix(0.1832, 0.0, 0.0, 7.0E-4, 155.0, 1.55)" gradientUnits="userSpaceOnUse" id="gradient4" spreadMethod="pad" x1="-819.2" x2="819.2">
      <stop offset="0.0" stop-color="#ffffff" stop-opacity="0.0"/>
      <stop offset="0.33725490196078434" stop-color="#ffffff" stop-opacity="0.29803923"/>
      <stop offset="1.0" stop-color="#ffffff" stop-opacity="0.0"/>
    </linearGradient>
  </defs>
</svg>
