<?xml version="1.0" encoding="UTF-8" standalone="no"?>
<svg xmlns:xlink="http://www.w3.org/1999/xlink" height="20.0px" width="22.0px" xmlns="http://www.w3.org/2000/svg">
  <g transform="matrix(1.0, 0.0, 0.0, 1.0, 0.0, 0.0)">
    <path d="M22.0 2.0 L22.0 18.0 Q22.0 18.85 21.4 19.4 20.85 20.0 20.0 20.0 L2.0 20.0 Q1.15 20.0 0.6 19.4 0.0 18.85 0.0 18.0 L0.0 2.0 Q0.0 1.15 0.6 0.55 1.15 0.0 2.0 0.0 L20.0 0.0 Q20.85 0.0 21.4 0.55 22.0 1.15 22.0 2.0" fill="url(#gradient0)" fill-rule="evenodd" stroke="none"/>
    <path d="M6.0 11.0 L16.0 11.0 11.0 14.0 6.0 11.0" fill="#ffffff" fill-rule="evenodd" stroke="none"/>
    <path d="M6.0 9.0 L11.0 6.0 16.0 9.0 6.0 9.0" fill="#eeb211" fill-rule="evenodd" stroke="none"/>
  </g>
  <defs>
    <linearGradient gradientTransform="matrix(0.0, 0.0102, -0.0134, 0.0, 11.0, 9.95)" gradientUnits="userSpaceOnUse" id="gradient0" spreadMethod="pad" x1="-819.2" x2="819.2">
      <stop offset="0.0" stop-color="#4f280e"/>
      <stop offset="1.0" stop-color="#9d4f18"/>
    </linearGradient>
  </defs>
</svg>
