<?xml version="1.0" encoding="UTF-8" standalone="no"?>
<svg xmlns:xlink="http://www.w3.org/1999/xlink" height="20.0px" width="22.0px" xmlns="http://www.w3.org/2000/svg">
  <g transform="matrix(1.0, 0.0, 0.0, 1.0, 0.0, -1.0)">
    <path d="M21.4 1.55 Q22.0 2.15 22.0 3.0 L22.0 19.0 Q22.0 19.85 21.4 20.4 20.85 21.0 20.0 21.0 L2.0 21.0 Q1.15 21.0 0.6 20.4 0.0 19.85 0.0 19.0 L0.0 3.0 Q0.0 2.15 0.6 1.55 1.15 1.0 2.0 1.0 L20.0 1.0 Q20.85 1.0 21.4 1.55" fill="#ffffff" fill-rule="evenodd" stroke="none"/>
    <path d="M6.0 12.0 L16.0 12.0 11.0 15.0 6.0 12.0 M11.0 7.0 L16.0 10.0 6.0 10.0 11.0 7.0" fill="#000000" fill-rule="evenodd" stroke="none"/>
  </g>
</svg>
