<?xml version="1.0" encoding="UTF-8" standalone="no"?>
<svg xmlns:xlink="http://www.w3.org/1999/xlink" height="21.0px" width="80.0px" xmlns="http://www.w3.org/2000/svg">
  <g transform="matrix(1.0, 0.0, 0.0, 1.0, 0.0, 0.0)">
    <path d="M80.0 20.0 L80.0 21.0 2.0 21.0 Q1.15 21.0 0.6 20.4 0.0 19.85 0.0 19.0 L0.0 18.3 Q0.0 18.85 0.6 19.4 1.15 20.0 2.0 20.0 L21.95 20.0 80.0 20.0" fill="#000000" fill-rule="evenodd" stroke="none"/>
    <path d="M0.0 18.3 L0.0 2.0 Q0.0 1.15 0.6 0.55 1.15 0.0 2.0 0.0 L21.95 0.0 21.95 20.0 2.0 20.0 Q1.15 20.0 0.6 19.4 0.0 18.85 0.0 18.3" fill="url(#gradient0)" fill-rule="evenodd" stroke="none"/>
    <path d="M21.95 0.0 L80.0 0.0 80.0 20.0 21.95 20.0 21.95 0.0" fill="url(#gradient1)" fill-rule="evenodd" stroke="none"/>
  </g>
  <defs>
    <linearGradient gradientTransform="matrix(0.0, 0.0103, -0.0549, 0.0, 45.0, 9.85)" gradientUnits="userSpaceOnUse" id="gradient0" spreadMethod="pad" x1="-819.2" x2="819.2">
      <stop offset="0.0" stop-color="#353535"/>
      <stop offset="1.0" stop-color="#454545"/>
    </linearGradient>
    <linearGradient gradientTransform="matrix(0.0, 0.0103, -0.0549, 0.0, 35.0, 9.85)" gradientUnits="userSpaceOnUse" id="gradient1" spreadMethod="pad" x1="-819.2" x2="819.2">
      <stop offset="0.0" stop-color="#353535"/>
      <stop offset="1.0" stop-color="#454545"/>
    </linearGradient>
  </defs>
</svg>
