<?xml version="1.0" encoding="UTF-8" standalone="no"?>
<svg xmlns:xlink="http://www.w3.org/1999/xlink" height="18.0px" width="18.0px" xmlns="http://www.w3.org/2000/svg">
  <g transform="matrix(1.0, 0.0, 0.0, 1.0, 9.0, 9.0)">
    <path d="M0.0 -9.0 Q3.7 -9.0 6.35 -6.35 9.0 -3.7 9.0 0.0 9.0 3.7 6.35 6.35 3.7 9.0 0.0 9.0 -3.7 9.0 -6.35 6.35 -9.0 3.7 -9.0 0.0 -9.0 -3.7 -6.35 -6.35 -3.7 -9.0 0.0 -9.0 M0.0 -3.5 Q1.45 -3.5 2.5 -2.45 3.5 -1.45 3.5 0.0 3.5 1.45 2.5 2.5 1.45 3.5 0.0 3.5 -1.45 3.5 -2.45 2.5 -3.5 1.45 -3.5 0.0 -3.5 -1.45 -2.45 -2.45 -1.45 -3.5 0.0 -3.5 -1.45 -3.5 -2.45 -2.45 -3.5 -1.45 -3.5 0.0 -3.5 1.45 -2.45 2.5 -1.45 3.5 0.0 3.5 1.45 3.5 2.5 2.5 3.5 1.45 3.5 0.0 3.5 -1.45 2.5 -2.45 1.45 -3.5 0.0 -3.5" fill="#000000" fill-rule="evenodd" stroke="none"/>
    <path d="M0.0 -3.5 Q-1.45 -3.5 -2.45 -2.45 -3.5 -1.45 -3.5 0.0 -3.5 1.45 -2.45 2.5 -1.45 3.5 0.0 3.5 1.45 3.5 2.5 2.5 3.5 1.45 3.5 0.0 3.5 -1.45 2.5 -2.45 1.45 -3.5 0.0 -3.5 Z" fill="none" stroke="#ffffff" stroke-linecap="round" stroke-linejoin="round" stroke-opacity="0.49803922" stroke-width="1.0"/>
  </g>
</svg>
