<?xml version="1.0" encoding="UTF-8" standalone="no"?>
<svg xmlns:xlink="http://www.w3.org/1999/xlink" height="14.0px" width="14.0px" xmlns="http://www.w3.org/2000/svg">
  <g transform="matrix(1.0, 0.0, 0.0, 1.0, 7.0, 7.0)">
    <path d="M4.9 -1.0 L6.95 -1.0 7.0 0.0 6.95 1.0 4.9 1.0 5.0 0.0 4.9 -1.0 M-6.9 -1.0 L-4.9 -1.0 -5.0 0.0 -4.9 1.0 -6.9 1.0 -7.0 0.0 -6.9 -1.0" fill="#ffffff" fill-opacity="0.0" fill-rule="evenodd" stroke="none"/>
    <path d="M6.95 -1.0 L4.9 -1.0 Q4.65 -2.45 3.55 -3.55 2.1 -5.0 0.0 -5.0 -2.1 -5.0 -3.55 -3.55 -4.65 -2.45 -4.9 -1.0 L-6.9 -1.0 Q-6.65 -3.25 -4.95 -4.95 -2.9 -7.0 0.0 -7.0 2.9 -7.0 4.95 -4.95 6.65 -3.25 6.95 -1.0 M4.9 1.0 L6.95 1.0 Q6.65 3.25 4.95 4.95 2.9 7.0 0.0 7.0 -2.9 7.0 -4.95 4.95 -6.65 3.25 -6.9 1.0 L-4.9 1.0 Q-4.65 2.45 -3.55 3.55 -2.1 5.0 0.0 5.0 2.1 5.0 3.55 3.55 4.65 2.45 4.9 1.0" fill="#eeb211" fill-rule="evenodd" stroke="none"/>
  </g>
</svg>
