<?xml version="1.0" encoding="UTF-8" standalone="no"?>
<svg xmlns:xlink="http://www.w3.org/1999/xlink" height="122.0px" width="174.0px" xmlns="http://www.w3.org/2000/svg">
  <g transform="matrix(1.0, 0.0, 0.0, 1.0, 87.0, 5.0)">
    <path d="M82.0 15.0 Q84.05 15.0 85.55 16.5 87.0 17.95 87.0 20.0 L87.0 112.0 Q87.0 114.05 85.55 115.55 84.05 117.0 82.0 117.0 L-82.0 117.0 Q-84.05 117.0 -85.5 115.55 -87.0 114.05 -87.0 112.0 L-87.0 20.0 Q-87.0 17.95 -85.5 16.5 -84.05 15.0 -82.0 15.0 L82.0 15.0" fill="#000000" fill-opacity="0.49803922" fill-rule="evenodd" stroke="none"/>
    <path d="M82.0 15.0 Q84.05 15.0 85.55 16.5 87.0 17.95 87.0 20.0 L87.0 110.0 Q87.0 112.05 85.55 113.55 84.05 115.0 82.0 115.0 L-82.0 115.0 Q-84.05 115.0 -85.5 113.55 -87.0 112.05 -87.0 110.0 L-87.0 20.0 Q-87.0 17.95 -85.5 16.5 -84.05 15.0 -82.0 15.0 L0.0 15.0 82.0 15.0 M82.0 38.0 L-82.0 38.0 82.0 38.0" fill="url(#gradient0)" fill-rule="evenodd" stroke="none"/>
    <path d="M-82.0 38.0 L82.0 38.0" fill="none" stroke="#ffffff" stroke-linecap="round" stroke-linejoin="round" stroke-opacity="0.2509804" stroke-width="0.05"/>
    <path d="M2.85 -2.8 Q4.0 -1.65 4.0 0.0 4.0 1.65 2.85 2.85 1.65 4.0 0.0 4.0 -1.65 4.0 -2.8 2.85 -4.0 1.65 -4.0 0.0 -4.0 -1.65 -2.8 -2.8 -1.65 -4.0 0.0 -4.0 1.65 -4.0 2.85 -2.8 M0.0 15.0 L0.0 5.0" fill="none" stroke="#000000" stroke-linecap="round" stroke-linejoin="round" stroke-width="2.0"/>
  </g>
  <defs>
    <linearGradient gradientTransform="matrix(0.0, 0.0549, -0.1062, 0.0, 0.0, 64.0)" gradientUnits="userSpaceOnUse" id="gradient0" spreadMethod="pad" x1="-819.2" x2="819.2">
      <stop offset="0.0" stop-color="#000000"/>
      <stop offset="1.0" stop-color="#333333"/>
    </linearGradient>
  </defs>
</svg>
