<?xml version="1.0" encoding="UTF-8" standalone="no"?>
<svg xmlns:xlink="http://www.w3.org/1999/xlink" height="25.25px" width="28.0px" xmlns="http://www.w3.org/2000/svg">
  <g transform="matrix(1.0, 0.0, 0.0, 1.0, 14.0, 11.6)">
    <path d="M-11.3 -5.35 L-11.3 -5.4 -11.35 -5.3 -11.3 -5.35 M1.85 8.2 L1.85 8.55 1.7 8.8 -4.1 13.55 -4.45 13.65 Q-4.75 13.65 -4.85 13.45 L-5.0 13.1 -5.0 10.55 Q-8.6 10.3 -11.2 7.75 L-11.25 7.65 Q-14.0 4.95 -14.0 1.05 -14.0 -2.9 -11.2 -5.7 L-11.15 -5.75 Q-8.4 -8.5 -4.45 -8.5 L-4.1 -8.35 -3.95 -8.0 -3.95 -4.7 Q-3.95 -4.5 -4.1 -4.3 L-4.45 -4.15 Q-6.6 -4.15 -8.15 -2.65 L-8.15 -2.6 Q-9.7 -1.15 -9.7 1.05 -9.7 3.2 -8.1 4.7 -6.75 6.0 -5.0 6.25 L-5.0 3.6 -4.85 3.25 Q-4.75 3.1 -4.45 3.1 L-4.1 3.25 1.7 8.0 1.85 8.2 M10.95 7.85 L10.8 7.85 10.75 7.9 10.95 7.85 M4.5 -11.6 L4.9 -11.45 5.0 -11.1 5.0 -8.5 Q8.6 -8.3 11.2 -5.75 L11.35 -5.55 Q14.0 -2.85 14.0 1.0 14.0 4.95 11.2 7.7 L11.15 7.75 Q8.4 10.55 4.45 10.55 L4.1 10.4 Q3.95 10.2 3.95 10.0 L3.95 6.75 4.1 6.4 4.45 6.25 Q6.6 6.25 8.15 4.65 9.7 3.2 9.7 1.0 9.7 -1.15 8.1 -2.65 L8.1 -2.7 Q6.8 -4.0 5.0 -4.1 L5.0 -1.65 4.9 -1.3 4.5 -1.1 4.15 -1.2 -1.65 -5.95 -1.8 -6.2 -1.8 -6.55 -1.65 -6.75 4.15 -11.45 Q4.3 -11.6 4.5 -11.6" fill="#000000" fill-rule="evenodd" stroke="none"/>
  </g>
</svg>
