<?xml version="1.0" encoding="UTF-8" standalone="no"?>
<svg xmlns:xlink="http://www.w3.org/1999/xlink" height="25.25px" width="28.0px" xmlns="http://www.w3.org/2000/svg">
  <g transform="matrix(1.0, 0.0, 0.0, 1.0, 14.0, 12.6)">
    <path d="M10.95 6.85 L10.8 6.85 10.75 6.9 10.95 6.85 M-11.3 -6.35 L-11.3 -6.4 -11.35 -6.3 -11.3 -6.35 M-11.2 -6.7 L-11.15 -6.75 Q-8.4 -9.5 -4.45 -9.5 L-4.1 -9.35 -3.95 -9.0 -3.95 -5.7 Q-3.95 -5.5 -4.1 -5.3 L-4.45 -5.15 Q-6.6 -5.15 -8.15 -3.65 L-8.15 -3.6 Q-9.7 -2.15 -9.7 0.05 -9.7 2.2 -8.1 3.7 -6.75 5.0 -5.0 5.25 L-5.0 2.6 -4.85 2.25 Q-4.75 2.1 -4.45 2.1 L-4.1 2.25 1.7 7.0 1.85 7.2 1.85 7.55 1.7 7.8 -4.1 12.55 -4.45 12.65 Q-4.75 12.65 -4.85 12.45 L-5.0 12.1 -5.0 9.55 Q-8.6 9.3 -11.2 6.75 L-11.25 6.65 Q-14.0 3.95 -14.0 0.05 -14.0 -3.9 -11.2 -6.7 M4.15 -12.45 Q4.3 -12.6 4.5 -12.6 L4.9 -12.45 5.0 -12.1 5.0 -9.5 Q8.6 -9.3 11.2 -6.75 L11.35 -6.55 Q14.0 -3.85 14.0 0.0 14.0 3.95 11.2 6.7 L11.15 6.75 Q8.4 9.55 4.45 9.55 L4.1 9.4 Q3.95 9.2 3.95 9.0 L3.95 5.75 4.1 5.4 4.45 5.25 Q6.6 5.25 8.15 3.65 9.7 2.2 9.7 0.0 9.7 -2.15 8.1 -3.65 L8.1 -3.7 Q6.8 -5.0 5.0 -5.1 L5.0 -2.65 4.9 -2.3 4.5 -2.1 4.15 -2.2 -1.65 -6.95 -1.8 -7.2 -1.8 -7.55 -1.65 -7.75 4.15 -12.45" fill="#ffffff" fill-rule="evenodd" stroke="none"/>
  </g>
</svg>
