<?xml version="1.0" encoding="UTF-8" standalone="no"?>
<svg xmlns:xlink="http://www.w3.org/1999/xlink" height="116.0px" width="130.0px" xmlns="http://www.w3.org/2000/svg">
  <g transform="matrix(1.0, 0.0, 0.0, 1.0, 65.0, 58.0)">
    <path d="M29.65 -29.75 Q17.4 -42.0 0.0 -42.0 -13.25 -42.0 -23.55 -34.85 L34.85 23.55 Q42.0 13.25 42.0 0.0 42.0 -17.4 29.65 -29.75 M40.95 -41.05 Q58.0 -24.0 58.0 0.0 58.0 23.95 41.1 40.85 L40.8 41.15 Q23.9 58.0 0.0 58.0 -24.0 58.0 -41.0 41.0 L-41.0 40.95 Q-58.0 24.0 -58.0 0.0 -58.0 -23.5 -41.7 -40.3 L-41.0 -41.05 Q-24.0 -58.0 0.0 -58.0 24.0 -58.0 40.95 -41.05 M0.0 42.0 Q13.25 42.0 23.55 34.85 L-34.85 -23.55 Q-42.0 -13.25 -42.0 0.0 -42.0 17.35 -29.7 29.65 L-29.65 29.65 Q-17.4 42.0 0.0 42.0" fill="#a52e2e" fill-opacity="0.49803922" fill-rule="evenodd" stroke="none"/>
    <path d="M15.45 -19.65 Q13.95 -19.2 13.25 -17.85 12.4 -16.6 12.15 -14.25 12.0 -12.05 12.0 -8.45 12.0 -4.85 12.15 -2.5 12.4 -0.3 13.25 1.05 13.95 2.35 15.45 2.85 L19.7 3.4 23.7 2.85 Q25.35 2.35 26.05 1.05 26.8 -0.3 27.1 -2.5 L27.25 -8.45 27.1 -14.25 Q26.8 -16.6 26.05 -17.85 25.35 -19.2 23.7 -19.65 L19.7 -20.15 15.45 -19.65 M19.7 -23.6 L25.35 -22.9 Q27.4 -22.4 28.65 -20.6 29.75 -18.9 30.25 -15.95 30.65 -13.15 30.65 -8.45 30.65 -3.75 30.25 -0.85 29.75 2.15 28.65 3.85 27.4 5.6 25.35 6.2 L19.7 6.8 13.85 6.2 Q11.75 5.6 10.55 3.85 9.3 2.15 8.95 -0.85 8.6 -3.75 8.6 -8.45 8.6 -13.15 8.95 -16.05 9.3 -18.9 10.55 -20.6 11.75 -22.4 13.85 -22.9 L19.7 -23.6 M5.4 -14.6 Q5.4 -10.7 3.65 -8.55 1.9 -6.45 -0.8 -6.1 L-0.05 -5.6 0.65 -4.65 1.55 -2.9 2.3 -0.2 Q2.8 2.5 3.5 4.2 4.2 5.95 5.4 6.7 L1.3 6.7 Q0.45 6.2 -0.2 4.6 -0.8 2.85 -1.15 -0.1 -1.55 -2.35 -2.25 -3.7 -2.9 -5.0 -4.05 -5.6 L-9.3 -5.6 -9.3 6.7 -12.75 6.7 -12.75 -23.45 -3.9 -23.45 Q-1.4 -23.45 0.35 -22.75 2.0 -22.1 3.15 -21.05 4.2 -19.9 4.85 -18.3 5.4 -16.7 5.4 -14.6 M38.4 -9.1 L44.55 -9.1 Q49.95 -9.1 49.95 -14.5 49.95 -19.9 44.55 -19.9 L38.4 -19.9 38.4 -9.1 M53.05 -14.6 Q53.05 -10.7 51.3 -8.55 49.65 -6.45 46.9 -6.1 L47.6 -5.6 48.35 -4.65 49.25 -2.9 49.95 -0.2 Q50.45 2.5 51.15 4.2 51.95 5.95 53.05 6.7 L48.95 6.7 Q48.15 6.2 47.5 4.6 46.9 2.85 46.5 -0.1 46.15 -2.35 45.4 -3.7 44.8 -5.0 43.7 -5.6 L38.4 -5.6 38.4 6.7 34.95 6.7 34.95 -23.45 43.8 -23.45 Q46.3 -23.45 48.0 -22.75 49.7 -22.1 50.85 -21.05 51.95 -19.9 52.55 -18.3 53.05 -16.7 53.05 -14.6 M65.0 -26.9 L65.0 10.25 57.4 10.25 57.4 6.7 61.6 6.7 61.6 -23.45 57.4 -23.45 57.4 -26.9 65.0 -26.9 M61.45 19.65 L61.45 21.0 60.7 20.75 59.95 20.75 59.35 20.75 58.8 21.0 Q58.6 21.05 58.45 21.3 L58.35 21.9 58.5 22.4 59.1 23.1 59.8 23.85 60.55 24.5 61.2 25.1 61.6 25.55 61.95 26.25 62.05 27.05 Q62.05 28.05 61.2 28.7 60.4 29.3 58.6 29.3 L57.6 29.3 56.85 29.15 56.85 27.8 57.1 27.9 57.45 27.95 58.0 27.95 58.8 28.05 Q59.85 28.05 60.25 27.65 L60.7 26.85 Q60.7 26.45 60.3 26.1 L59.1 24.95 58.2 24.2 57.55 23.55 57.1 22.8 56.95 21.8 Q56.95 21.05 57.25 20.6 L58.05 19.85 59.1 19.55 60.1 19.5 60.9 19.55 61.45 19.65 M42.15 16.5 Q42.45 16.2 42.85 16.2 43.2 16.2 43.45 16.5 L43.75 17.1 43.45 17.75 42.85 18.0 42.15 17.75 Q41.85 17.45 41.85 17.1 41.85 16.7 42.15 16.5 M40.6 17.3 L40.35 17.3 39.9 17.3 39.55 17.55 39.25 18.05 Q39.1 18.35 39.1 18.9 L39.1 19.65 40.8 19.65 40.8 20.6 39.1 20.6 39.1 29.15 37.75 29.15 37.75 20.6 36.75 20.6 36.75 19.65 37.75 19.65 37.75 18.9 Q37.75 18.05 38.05 17.45 L38.65 16.65 39.45 16.2 40.3 16.1 40.5 16.1 40.8 16.1 40.8 17.3 40.6 17.3 M43.5 19.65 L43.5 29.15 42.1 29.15 42.1 19.65 43.5 19.65 M49.95 24.05 L54.3 24.05 54.1 22.35 53.7 21.35 53.05 21.0 52.2 20.85 Q51.45 20.85 51.1 21.15 L50.4 21.75 50.1 22.8 49.95 24.05 M49.6 20.55 Q50.65 19.5 52.2 19.5 L53.65 19.7 54.7 20.55 55.35 21.9 55.6 24.05 55.6 25.1 50.05 25.1 Q50.05 26.7 50.7 27.2 51.4 27.8 52.75 27.8 L53.65 27.75 54.6 27.6 54.6 29.15 52.75 29.25 52.35 29.25 50.65 28.95 Q49.95 28.7 49.5 28.05 49.05 27.45 48.85 26.4 48.6 25.25 48.6 23.7 48.6 21.65 49.6 20.55 M46.9 15.8 L46.9 29.15 45.45 29.15 45.45 16.2 46.9 15.8 M64.15 27.5 L64.75 27.75 64.95 28.4 64.75 29.0 64.15 29.25 Q63.6 29.25 63.4 29.0 L63.15 28.4 63.4 27.75 Q63.6 27.5 64.15 27.5 M24.6 21.9 Q24.9 21.0 25.35 20.45 L26.3 19.7 27.6 19.55 Q28.8 19.55 29.85 20.1 L29.85 16.55 31.3 16.2 31.3 29.15 30.6 29.15 30.25 28.35 Q29.3 29.25 27.65 29.25 L26.25 29.0 Q25.65 28.8 25.2 28.25 24.8 27.75 24.6 26.75 24.3 25.85 24.3 24.45 24.3 22.85 24.6 21.9 M21.0 24.2 L20.55 24.15 20.0 24.15 19.2 24.15 Q17.25 24.15 17.25 26.15 17.25 26.75 17.4 27.05 L17.9 27.6 18.5 27.8 19.25 27.9 20.0 27.8 20.75 27.6 21.3 27.2 21.45 26.75 21.45 24.35 21.0 24.2 M21.5 22.5 Q21.5 21.75 20.75 21.3 20.0 20.85 18.65 20.85 L17.9 20.9 17.4 21.0 17.4 19.55 19.25 19.5 Q20.85 19.5 21.9 20.3 22.85 21.15 22.85 22.7 L22.85 29.15 22.05 29.15 21.35 28.4 Q20.4 29.25 18.9 29.25 L17.7 29.1 16.7 28.55 Q16.25 28.2 16.1 27.65 L15.9 26.25 Q15.9 24.5 16.7 23.7 17.55 22.85 18.9 22.85 L20.15 22.95 21.5 23.25 21.5 22.5 M25.8 23.25 L25.7 24.95 Q25.7 25.85 25.85 26.4 L26.25 27.3 Q26.55 27.6 27.0 27.75 L28.1 27.8 Q29.4 27.8 29.9 26.7 L30.0 26.7 30.0 22.1 Q29.3 21.0 27.75 21.0 L26.6 21.2 Q26.15 21.5 26.0 21.95 L25.8 23.25 M7.95 21.9 Q8.15 20.9 8.6 20.4 9.05 19.85 9.75 19.65 L11.25 19.5 12.75 19.7 Q13.35 19.85 13.8 20.4 L14.45 21.9 14.7 24.35 14.45 26.85 Q14.25 27.8 13.85 28.35 13.4 28.85 12.75 29.0 L11.25 29.25 9.75 29.0 Q9.05 28.85 8.6 28.35 8.15 27.75 7.95 26.85 7.7 25.85 7.7 24.35 7.7 22.85 7.95 21.9 M9.2 22.4 Q9.05 23.15 9.05 24.45 9.05 25.65 9.2 26.3 9.35 27.0 9.65 27.35 L10.35 27.75 11.25 27.8 12.05 27.75 12.75 27.3 13.2 26.3 13.35 24.45 13.2 22.55 12.8 21.45 12.15 21.0 11.25 20.85 10.35 20.9 9.65 21.35 Q9.35 21.75 9.2 22.4 M5.9 15.8 L5.9 29.15 4.5 29.15 4.5 16.2 5.9 15.8 M-61.55 -23.45 L-61.55 6.7 -57.35 6.7 -57.35 10.1 -65.0 10.1 -65.0 -27.0 -57.35 -27.0 -57.35 -23.45 -61.55 -23.45 M-49.6 -10.55 L-42.8 -10.55 -42.8 -7.1 -49.6 -7.1 -49.6 3.25 -38.5 3.25 -38.5 6.7 -53.05 6.7 -53.05 -23.45 -38.5 -23.45 -38.5 -19.9 -49.6 -19.9 -49.6 -10.55 M-21.35 -22.75 Q-19.65 -22.1 -18.55 -21.05 -17.45 -19.9 -16.8 -18.3 -16.3 -16.7 -16.3 -14.6 -16.3 -10.7 -18.05 -8.55 -19.75 -6.45 -22.45 -6.1 L-21.75 -5.6 -21.05 -4.65 -20.15 -2.9 -19.4 -0.2 Q-18.9 2.5 -18.2 4.2 -17.45 5.95 -16.3 6.7 L-20.4 6.7 Q-21.2 6.2 -21.9 4.6 -22.45 2.85 -22.85 -0.1 -23.25 -2.35 -23.95 -3.7 -24.6 -5.0 -25.7 -5.6 L-30.95 -5.6 -30.95 6.7 -34.4 6.7 -34.4 -23.45 -25.6 -23.45 Q-23.1 -23.45 -21.35 -22.75 M-30.95 -9.1 L-24.8 -9.1 Q-19.4 -9.1 -19.4 -14.5 -19.4 -19.9 -24.8 -19.9 L-30.95 -19.9 -30.95 -9.1 M-9.3 -19.9 L-9.3 -9.1 -3.15 -9.1 Q2.3 -9.1 2.3 -14.5 2.3 -19.9 -3.15 -19.9 L-9.3 -19.9 M-11.5 19.65 L-9.85 19.65 -9.85 20.6 -11.5 20.6 -11.5 25.95 -11.35 26.9 -11.05 27.5 -10.6 27.8 -10.0 27.9 -9.75 27.9 -9.55 27.8 -9.55 29.15 -10.35 29.25 -11.1 29.1 -11.95 28.65 -12.55 27.65 -12.85 26.1 -12.85 20.6 -13.8 20.6 -13.8 19.65 -12.85 19.65 -12.85 16.8 -11.5 16.4 -11.5 19.65 M-19.2 21.9 L-19.0 24.05 -19.0 25.1 -24.55 25.1 Q-24.55 26.7 -23.85 27.2 -23.2 27.8 -21.85 27.8 L-20.95 27.75 -19.95 27.6 -19.95 29.15 -21.85 29.25 -22.2 29.25 -23.95 28.95 -25.05 28.05 -25.75 26.4 -25.95 23.7 Q-25.95 21.65 -25.0 20.55 -23.95 19.5 -22.35 19.5 L-20.95 19.7 Q-20.35 19.95 -19.9 20.55 -19.45 21.05 -19.2 21.9 M-7.0 24.45 L-6.85 26.3 -6.4 27.35 -5.7 27.75 -4.8 27.8 -4.0 27.75 -3.3 27.3 Q-3.0 27.0 -2.85 26.3 -2.7 25.65 -2.7 24.45 -2.7 23.25 -2.85 22.55 -3.0 21.8 -3.25 21.45 L-3.9 21.0 -4.8 20.85 -5.7 20.9 Q-6.15 21.0 -6.4 21.35 L-6.85 22.4 -7.0 24.45 M-7.45 20.4 Q-7.0 19.85 -6.3 19.65 L-4.8 19.5 -3.3 19.7 Q-2.7 19.85 -2.25 20.4 -1.8 21.0 -1.6 21.9 -1.35 22.85 -1.35 24.35 -1.35 25.85 -1.6 26.85 -1.8 27.8 -2.2 28.35 -2.65 28.85 -3.3 29.0 L-4.8 29.25 -6.3 29.0 Q-7.0 28.85 -7.45 28.35 L-8.1 26.85 -8.35 24.35 -8.1 21.9 -7.45 20.4 M-36.25 16.2 L-36.25 20.3 Q-35.45 19.5 -33.95 19.5 L-32.6 19.65 Q-32.0 19.85 -31.6 20.4 -31.15 20.9 -30.95 21.8 -30.7 22.8 -30.7 24.3 -30.7 25.85 -31.0 26.85 -31.3 27.8 -31.75 28.35 -32.2 28.85 -32.9 29.0 L-34.15 29.25 Q-35.6 29.25 -36.65 28.35 L-37.25 29.15 -37.7 29.15 -37.7 16.55 -36.25 16.2 M-39.4 22.7 L-39.4 29.15 -40.25 29.15 -40.9 28.4 Q-41.9 29.25 -43.4 29.25 L-44.6 29.1 Q-45.2 28.95 -45.55 28.55 L-46.15 27.65 -46.4 26.25 Q-46.4 24.5 -45.55 23.7 -44.75 22.85 -43.4 22.85 L-42.1 22.95 -40.75 23.25 -40.75 22.5 Q-40.75 21.75 -41.5 21.3 -42.25 20.85 -43.6 20.85 L-44.35 20.9 -44.9 21.0 -44.9 19.55 -43.0 19.5 Q-41.45 19.5 -40.4 20.3 -39.4 21.15 -39.4 22.7 M-36.35 21.9 L-36.35 26.7 -36.25 26.7 Q-35.6 27.75 -34.25 27.75 L-33.25 27.65 -32.6 27.2 -32.2 26.15 Q-32.05 25.5 -32.05 24.3 -32.05 23.1 -32.2 22.4 -32.35 21.65 -32.65 21.35 -32.9 21.0 -33.35 20.9 L-34.4 20.85 Q-35.6 20.85 -36.25 21.9 L-36.35 21.9 M-27.7 15.8 L-27.7 29.15 -29.15 29.15 -29.15 16.2 -27.7 15.8 M-21.55 21.0 L-22.35 20.85 Q-23.1 20.85 -23.5 21.15 L-24.15 21.75 -24.45 22.8 -24.6 24.05 -20.25 24.05 -20.5 22.35 -20.85 21.35 Q-21.15 21.05 -21.55 21.0 M-53.5 22.85 L-53.5 29.15 -54.85 29.15 -54.85 19.65 -53.45 19.65 -53.45 20.3 Q-53.05 19.85 -52.4 19.7 L-50.6 19.5 -49.55 19.7 Q-49.0 19.85 -48.7 20.25 L-48.1 21.15 -47.9 22.4 -47.9 29.15 -49.25 29.15 -49.25 22.85 Q-49.25 22.25 -49.4 21.9 L-49.85 21.3 -50.5 21.0 -51.35 20.85 Q-52.3 20.85 -52.9 21.3 -53.5 21.75 -53.5 22.85 M-56.75 16.95 L-56.75 25.2 -56.95 27.05 Q-57.2 27.8 -57.7 28.25 -58.25 28.8 -59.0 29.0 L-60.8 29.15 Q-62.8 29.15 -63.85 28.25 -65.0 27.35 -65.0 25.25 L-65.0 16.95 -63.55 16.95 -63.55 25.4 -63.35 26.55 -62.8 27.3 -61.9 27.65 -60.8 27.8 -59.6 27.65 -58.85 27.3 -58.3 26.55 Q-58.15 26.1 -58.15 25.4 L-58.15 16.95 -56.75 16.95 M-42.25 24.15 L-43.1 24.15 Q-45.05 24.15 -45.05 26.15 L-44.9 27.05 -44.35 27.6 -43.75 27.8 -43.0 27.9 -42.25 27.8 -41.5 27.6 -41.0 27.2 -40.85 26.75 -40.85 24.35 -41.3 24.2 -41.75 24.15 -42.25 24.15" fill="#000000" fill-rule="evenodd" stroke="none"/>
    <path d="M61.45 20.0 L60.7 19.75 59.95 19.75 59.35 19.75 58.8 20.0 Q58.6 20.05 58.45 20.3 L58.35 20.9 58.5 21.4 59.1 22.1 59.8 22.85 60.55 23.5 61.2 24.1 61.6 24.55 61.95 25.25 62.05 26.05 Q62.05 27.05 61.2 27.7 60.4 28.3 58.6 28.3 L57.6 28.3 56.85 28.15 56.85 26.8 57.1 26.9 57.45 26.95 58.0 26.95 58.8 27.05 Q59.85 27.05 60.25 26.65 L60.7 25.85 Q60.7 25.45 60.3 25.1 L59.1 23.95 58.2 23.2 57.55 22.55 57.1 21.8 56.95 20.8 Q56.95 20.05 57.25 19.6 L58.05 18.85 59.1 18.55 60.1 18.5 60.9 18.55 61.45 18.65 61.45 20.0 M40.8 15.1 L40.8 16.3 40.6 16.3 40.35 16.3 39.9 16.3 39.55 16.55 39.25 17.05 Q39.1 17.35 39.1 17.9 L39.1 18.65 40.8 18.65 40.8 19.6 39.1 19.6 39.1 28.15 37.75 28.15 37.75 19.6 36.75 19.6 36.75 18.65 37.75 18.65 37.75 17.9 Q37.75 17.05 38.05 16.45 L38.65 15.65 39.45 15.2 40.3 15.1 40.5 15.1 40.8 15.1 M42.15 16.75 Q41.85 16.45 41.85 16.1 41.85 15.7 42.15 15.5 42.45 15.2 42.85 15.2 43.2 15.2 43.45 15.5 L43.75 16.1 43.45 16.75 42.85 17.0 42.15 16.75 M43.5 18.65 L43.5 28.15 42.1 28.15 42.1 18.65 43.5 18.65 M50.1 21.8 L49.95 23.05 54.3 23.05 54.1 21.35 53.7 20.35 53.05 20.0 52.2 19.85 Q51.45 19.85 51.1 20.15 L50.4 20.75 50.1 21.8 M49.6 19.55 Q50.65 18.5 52.2 18.5 L53.65 18.7 54.7 19.55 55.35 20.9 55.6 23.05 55.6 24.1 50.05 24.1 Q50.05 25.7 50.7 26.2 51.4 26.8 52.75 26.8 L53.65 26.75 54.6 26.6 54.6 28.15 52.75 28.25 52.35 28.25 50.65 27.95 Q49.95 27.7 49.5 27.05 49.05 26.45 48.85 25.4 48.6 24.25 48.6 22.7 48.6 20.65 49.6 19.55 M46.9 14.8 L46.9 28.15 45.45 28.15 45.45 15.2 46.9 14.8 M64.75 26.75 L64.95 27.4 64.75 28.0 64.15 28.25 Q63.6 28.25 63.4 28.0 L63.15 27.4 63.4 26.75 Q63.6 26.5 64.15 26.5 L64.75 26.75 M24.6 20.9 Q24.9 20.0 25.35 19.45 L26.3 18.7 27.6 18.55 Q28.8 18.55 29.85 19.1 L29.85 15.55 31.3 15.2 31.3 28.15 30.6 28.15 30.25 27.35 Q29.3 28.25 27.65 28.25 L26.25 28.0 Q25.65 27.8 25.2 27.25 24.8 26.75 24.6 25.75 24.3 24.85 24.3 23.45 24.3 21.85 24.6 20.9 M20.75 20.3 Q20.0 19.85 18.65 19.85 L17.9 19.9 17.4 20.0 17.4 18.55 19.25 18.5 Q20.85 18.5 21.9 19.3 22.85 20.15 22.85 21.7 L22.85 28.15 22.05 28.15 21.35 27.4 Q20.4 28.25 18.9 28.25 L17.7 28.1 16.7 27.55 Q16.25 27.2 16.1 26.65 L15.9 25.25 Q15.9 23.5 16.7 22.7 17.55 21.85 18.9 21.85 L20.15 21.95 21.5 22.25 21.5 21.5 Q21.5 20.75 20.75 20.3 M21.0 23.2 L20.55 23.15 20.0 23.15 19.2 23.15 Q17.25 23.15 17.25 25.15 17.25 25.75 17.4 26.05 L17.9 26.6 18.5 26.8 19.25 26.9 20.0 26.8 20.75 26.6 21.3 26.2 21.45 25.75 21.45 23.35 21.0 23.2 M25.7 23.95 Q25.7 24.85 25.85 25.4 L26.25 26.3 Q26.55 26.6 27.0 26.75 L28.1 26.8 Q29.4 26.8 29.9 25.7 L30.0 25.7 30.0 21.1 Q29.3 20.0 27.75 20.0 L26.6 20.2 Q26.15 20.5 26.0 20.95 L25.8 22.25 25.7 23.95 M9.05 23.45 Q9.05 24.65 9.2 25.3 9.35 26.0 9.65 26.35 L10.35 26.75 11.25 26.8 12.05 26.75 12.75 26.3 13.2 25.3 13.35 23.45 13.2 21.55 12.8 20.45 12.15 20.0 11.25 19.85 10.35 19.9 9.65 20.35 Q9.35 20.75 9.2 21.4 9.05 22.15 9.05 23.45 M7.95 20.9 Q8.15 19.9 8.6 19.4 9.05 18.85 9.75 18.65 L11.25 18.5 12.75 18.7 Q13.35 18.85 13.8 19.4 L14.45 20.9 14.7 23.35 14.45 25.85 Q14.25 26.8 13.85 27.35 13.4 27.85 12.75 28.0 L11.25 28.25 9.75 28.0 Q9.05 27.85 8.6 27.35 8.15 26.75 7.95 25.85 7.7 24.85 7.7 23.35 7.7 21.85 7.95 20.9 M5.9 14.8 L5.9 28.15 4.5 28.15 4.5 15.2 5.9 14.8 M-11.5 15.4 L-11.5 18.65 -9.85 18.65 -9.85 19.6 -11.5 19.6 -11.5 24.95 -11.35 25.9 -11.05 26.5 -10.6 26.8 -10.0 26.9 -9.75 26.9 -9.55 26.8 -9.55 28.15 -10.35 28.25 -11.1 28.1 -11.95 27.65 -12.55 26.65 -12.85 25.1 -12.85 19.6 -13.8 19.6 -13.8 18.65 -12.85 18.65 -12.85 15.8 -11.5 15.4 M-19.0 23.05 L-19.0 24.1 -24.55 24.1 Q-24.55 25.7 -23.85 26.2 -23.2 26.8 -21.85 26.8 L-20.95 26.75 -19.95 26.6 -19.95 28.15 -21.85 28.25 -22.2 28.25 -23.95 27.95 -25.05 27.05 -25.75 25.4 -25.95 22.7 Q-25.95 20.65 -25.0 19.55 -23.95 18.5 -22.35 18.5 L-20.95 18.7 Q-20.35 18.95 -19.9 19.55 -19.45 20.05 -19.2 20.9 L-19.0 23.05 M-7.0 23.45 L-6.85 25.3 -6.4 26.35 -5.7 26.75 -4.8 26.8 -4.0 26.75 -3.3 26.3 Q-3.0 26.0 -2.85 25.3 -2.7 24.65 -2.7 23.45 -2.7 22.25 -2.85 21.55 -3.0 20.8 -3.25 20.45 L-3.9 20.0 -4.8 19.85 -5.7 19.9 Q-6.15 20.0 -6.4 20.35 L-6.85 21.4 -7.0 23.45 M-7.45 19.4 Q-7.0 18.85 -6.3 18.65 L-4.8 18.5 -3.3 18.7 Q-2.7 18.85 -2.25 19.4 -1.8 20.0 -1.6 20.9 -1.35 21.85 -1.35 23.35 -1.35 24.85 -1.6 25.85 -1.8 26.8 -2.2 27.35 -2.65 27.85 -3.3 28.0 L-4.8 28.25 -6.3 28.0 Q-7.0 27.85 -7.45 27.35 L-8.1 25.85 -8.35 23.35 -8.1 20.9 -7.45 19.4 M-36.25 15.2 L-36.25 19.3 Q-35.45 18.5 -33.95 18.5 L-32.6 18.65 Q-32.0 18.85 -31.6 19.4 -31.15 19.9 -30.95 20.8 -30.7 21.8 -30.7 23.3 -30.7 24.85 -31.0 25.85 -31.3 26.8 -31.75 27.35 -32.2 27.85 -32.9 28.0 L-34.15 28.25 Q-35.6 28.25 -36.65 27.35 L-37.25 28.15 -37.7 28.15 -37.7 15.55 -36.25 15.2 M-39.4 21.7 L-39.4 28.15 -40.25 28.15 -40.9 27.4 Q-41.9 28.25 -43.4 28.25 L-44.6 28.1 Q-45.2 27.95 -45.55 27.55 L-46.15 26.65 -46.4 25.25 Q-46.4 23.5 -45.55 22.7 -44.75 21.85 -43.4 21.85 L-42.1 21.95 -40.75 22.25 -40.75 21.5 Q-40.75 20.75 -41.5 20.3 -42.25 19.85 -43.6 19.85 L-44.35 19.9 -44.9 20.0 -44.9 18.55 -43.0 18.5 Q-41.45 18.5 -40.4 19.3 -39.4 20.15 -39.4 21.7 M-36.35 20.9 L-36.35 25.7 -36.25 25.7 Q-35.6 26.75 -34.25 26.75 L-33.25 26.65 -32.6 26.2 -32.2 25.15 Q-32.05 24.5 -32.05 23.3 -32.05 22.1 -32.2 21.4 -32.35 20.65 -32.65 20.35 -32.9 20.0 -33.35 19.9 L-34.4 19.85 Q-35.6 19.85 -36.25 20.9 L-36.35 20.9 M-27.7 14.8 L-27.7 28.15 -29.15 28.15 -29.15 15.2 -27.7 14.8 M-24.45 21.8 L-24.6 23.05 -20.25 23.05 -20.5 21.35 -20.85 20.35 Q-21.15 20.05 -21.55 20.0 L-22.35 19.85 Q-23.1 19.85 -23.5 20.15 L-24.15 20.75 -24.45 21.8 M-58.15 15.95 L-56.75 15.95 -56.75 24.2 -56.95 26.05 Q-57.2 26.8 -57.7 27.25 -58.25 27.8 -59.0 28.0 L-60.8 28.15 Q-62.8 28.15 -63.85 27.25 -65.0 26.35 -65.0 24.25 L-65.0 15.95 -63.55 15.95 -63.55 24.4 -63.35 25.55 -62.8 26.3 -61.9 26.65 -60.8 26.8 -59.6 26.65 -58.85 26.3 -58.3 25.55 Q-58.15 25.1 -58.15 24.4 L-58.15 15.95 M-52.9 20.3 Q-53.5 20.75 -53.5 21.85 L-53.5 28.15 -54.85 28.15 -54.85 18.65 -53.45 18.65 -53.45 19.3 Q-53.05 18.85 -52.4 18.7 L-50.6 18.5 -49.55 18.7 Q-49.0 18.85 -48.7 19.25 L-48.1 20.15 -47.9 21.4 -47.9 28.15 -49.25 28.15 -49.25 21.85 Q-49.25 21.25 -49.4 20.9 L-49.85 20.3 -50.5 20.0 -51.35 19.85 Q-52.3 19.85 -52.9 20.3 M-42.25 23.15 L-43.1 23.15 Q-45.05 23.15 -45.05 25.15 L-44.9 26.05 -44.35 26.6 -43.75 26.8 -43.0 26.9 -42.25 26.8 -41.5 26.6 -41.0 26.2 -40.85 25.75 -40.85 23.35 -41.3 23.2 -41.75 23.15 -42.25 23.15" fill="#ffffff" fill-rule="evenodd" stroke="none"/>
    <path d="M65.0 -27.9 L65.0 9.25 57.4 9.25 57.4 5.7 61.6 5.7 61.6 -24.45 57.4 -24.45 57.4 -27.9 65.0 -27.9 M-61.55 -24.45 L-61.55 5.7 -57.35 5.7 -57.35 9.1 -65.0 9.1 -65.0 -28.0 -57.35 -28.0 -57.35 -24.45 -61.55 -24.45" fill="#a52e2e" fill-rule="evenodd" stroke="none"/>
    <path d="M12.15 -15.25 Q12.0 -13.05 12.0 -9.45 12.0 -5.85 12.15 -3.5 12.4 -1.3 13.25 0.05 13.95 1.35 15.45 1.85 L19.7 2.4 23.7 1.85 Q25.35 1.35 26.05 0.05 26.8 -1.3 27.1 -3.5 L27.25 -9.45 27.1 -15.25 Q26.8 -17.6 26.05 -18.85 25.35 -20.2 23.7 -20.65 L19.7 -21.15 15.45 -20.65 Q13.95 -20.2 13.25 -18.85 12.4 -17.6 12.15 -15.25 M13.85 -23.9 L19.7 -24.6 25.35 -23.9 Q27.4 -23.4 28.65 -21.6 29.75 -19.9 30.25 -16.95 30.65 -14.15 30.65 -9.45 30.65 -4.75 30.25 -1.85 29.75 1.15 28.65 2.85 27.4 4.6 25.35 5.2 L19.7 5.8 13.85 5.2 Q11.75 4.6 10.55 2.85 9.3 1.15 8.95 -1.85 8.6 -4.75 8.6 -9.45 8.6 -14.15 8.95 -17.05 9.3 -19.9 10.55 -21.6 11.75 -23.4 13.85 -23.9 M3.15 -22.05 Q4.2 -20.9 4.85 -19.3 5.4 -17.7 5.4 -15.6 5.4 -11.7 3.65 -9.55 1.9 -7.45 -0.8 -7.1 L-0.05 -6.6 0.65 -5.65 1.55 -3.9 2.3 -1.2 Q2.8 1.5 3.5 3.2 4.2 4.95 5.4 5.7 L1.3 5.7 Q0.45 5.2 -0.2 3.6 -0.8 1.85 -1.15 -1.1 -1.55 -3.35 -2.25 -4.7 -2.9 -6.0 -4.05 -6.6 L-9.3 -6.6 -9.3 5.7 -12.75 5.7 -12.75 -24.45 -3.9 -24.45 Q-1.4 -24.45 0.35 -23.75 2.0 -23.1 3.15 -22.05 M38.4 -10.1 L44.55 -10.1 Q49.95 -10.1 49.95 -15.5 49.95 -20.9 44.55 -20.9 L38.4 -20.9 38.4 -10.1 M52.55 -19.3 Q53.05 -17.7 53.05 -15.6 53.05 -11.7 51.3 -9.55 49.65 -7.45 46.9 -7.1 L47.6 -6.6 48.35 -5.65 49.25 -3.9 49.95 -1.2 Q50.45 1.5 51.15 3.2 51.95 4.95 53.05 5.7 L48.95 5.7 Q48.15 5.2 47.5 3.6 46.9 1.85 46.5 -1.1 46.15 -3.35 45.4 -4.7 44.8 -6.0 43.7 -6.6 L38.4 -6.6 38.4 5.7 34.95 5.7 34.95 -24.45 43.8 -24.45 Q46.3 -24.45 48.0 -23.75 49.7 -23.1 50.85 -22.05 51.95 -20.9 52.55 -19.3 M-49.6 -11.55 L-42.8 -11.55 -42.8 -8.1 -49.6 -8.1 -49.6 2.25 -38.5 2.25 -38.5 5.7 -53.05 5.7 -53.05 -24.45 -38.5 -24.45 -38.5 -20.9 -49.6 -20.9 -49.6 -11.55 M-21.35 -23.75 Q-19.65 -23.1 -18.55 -22.05 -17.45 -20.9 -16.8 -19.3 -16.3 -17.7 -16.3 -15.6 -16.3 -11.7 -18.05 -9.55 -19.75 -7.45 -22.45 -7.1 L-21.75 -6.6 -21.05 -5.65 -20.15 -3.9 -19.4 -1.2 Q-18.9 1.5 -18.2 3.2 -17.45 4.95 -16.3 5.7 L-20.4 5.7 Q-21.2 5.2 -21.9 3.6 -22.45 1.85 -22.85 -1.1 -23.25 -3.35 -23.95 -4.7 -24.6 -6.0 -25.7 -6.6 L-30.95 -6.6 -30.95 5.7 -34.4 5.7 -34.4 -24.45 -25.6 -24.45 Q-23.1 -24.45 -21.35 -23.75 M-30.95 -10.1 L-24.8 -10.1 Q-19.4 -10.1 -19.4 -15.5 -19.4 -20.9 -24.8 -20.9 L-30.95 -20.9 -30.95 -10.1 M-9.3 -20.9 L-9.3 -10.1 -3.15 -10.1 Q2.3 -10.1 2.3 -15.5 2.3 -20.9 -3.15 -20.9 L-9.3 -20.9" fill="#f74040" fill-rule="evenodd" stroke="none"/>
  </g>
</svg>
