<?xml version="1.0" encoding="UTF-8" standalone="no"?>
<svg xmlns:xlink="http://www.w3.org/1999/xlink" height="116.0px" width="129.95px" xmlns="http://www.w3.org/2000/svg">
  <g transform="matrix(1.0, 0.0, 0.0, 1.0, 65.0, 58.0)">
    <path d="M12.65 16.0 Q13.15 16.0 13.65 16.35 14.0 16.7 14.0 17.25 L14.0 28.4 Q14.0 29.35 13.65 29.65 13.45 30.0 12.75 30.0 L-12.75 30.0 Q-13.45 30.0 -13.65 29.65 -14.0 29.35 -14.0 28.4 L-14.0 17.25 Q-14.0 16.7 -13.65 16.35 -13.15 16.0 -12.65 16.0 L12.65 16.0 M0.0 -58.0 Q24.0 -58.0 41.0 -41.0 58.0 -24.0 58.0 0.0 58.0 24.0 41.0 41.0 24.0 58.0 0.0 58.0 -24.0 58.0 -41.0 41.0 -58.0 24.0 -58.0 0.0 -58.0 -24.0 -41.0 -41.0 -24.0 -58.0 0.0 -58.0 M29.7 -29.7 Q17.4 -42.0 0.0 -42.0 -17.4 -42.0 -29.7 -29.7 -42.0 -17.4 -42.0 0.0 -42.0 17.4 -29.7 29.7 -17.4 42.0 0.0 42.0 17.4 42.0 29.7 29.7 42.0 17.4 42.0 0.0 42.0 -17.4 29.7 -29.7 M15.25 -30.0 Q17.15 -29.95 17.0 -28.05 L13.4 13.0 -13.4 13.0 -17.0 -28.05 Q-17.15 -29.95 -15.25 -30.0 L15.25 -30.0" fill="#a52e2e" fill-opacity="0.49803922" fill-rule="evenodd" stroke="none"/>
    <path d="M6.75 -4.75 L8.1 -4.75 8.1 -5.75 Q8.1 -6.9 8.5 -7.75 L9.35 -8.9 Q9.85 -9.3 10.5 -9.5 L11.65 -9.6 11.95 -9.6 12.35 -9.6 12.35 -7.95 12.05 -7.95 11.75 -7.95 11.1 -7.95 10.6 -7.65 10.15 -6.9 9.95 -5.75 9.95 -4.75 12.35 -4.75 12.35 -3.4 9.95 -3.4 9.95 8.45 8.1 8.45 8.1 -3.4 6.75 -3.4 6.75 -4.75 M15.05 -3.7 Q15.65 -4.4 16.6 -4.75 L18.65 -4.95 20.75 -4.65 22.2 -3.7 23.15 -1.65 23.45 1.8 23.15 5.2 22.3 7.3 Q21.7 8.0 20.75 8.2 L18.65 8.55 16.6 8.2 Q15.65 8.0 15.05 7.3 14.4 6.45 14.1 5.2 13.8 3.85 13.8 1.8 13.8 -0.3 14.1 -1.65 14.4 -2.95 15.05 -3.7 M16.5 -2.35 Q16.1 -1.85 15.9 -0.9 15.65 0.15 15.65 1.9 15.65 3.55 15.9 4.5 16.1 5.4 16.5 5.95 16.9 6.35 17.45 6.45 L18.65 6.55 19.8 6.45 Q20.35 6.35 20.75 5.85 L21.35 4.5 21.6 1.9 21.35 -0.7 20.85 -2.25 Q20.45 -2.65 19.9 -2.85 L18.65 -3.1 17.45 -2.95 Q16.8 -2.85 16.5 -2.35 M39.9 -4.75 L39.9 -3.8 41.35 -4.65 43.85 -4.95 45.3 -4.65 46.4 -3.9 47.25 -2.65 47.55 -0.9 47.55 8.45 45.7 8.45 45.7 -0.3 45.45 -1.65 44.9 -2.45 Q44.5 -2.75 43.95 -2.85 L42.8 -3.1 Q41.5 -3.1 40.65 -2.45 39.8 -1.85 39.8 -0.3 L39.8 8.45 37.95 8.45 37.95 -4.75 39.9 -4.75 M35.15 -4.75 L35.15 8.45 33.4 8.45 33.4 7.2 Q32.55 8.55 30.3 8.55 27.9 8.55 26.75 7.4 25.5 6.25 25.5 4.2 L25.5 -4.75 27.5 -4.75 27.5 3.85 Q27.5 4.7 27.8 5.2 L28.4 6.15 29.35 6.55 30.4 6.65 31.4 6.45 Q31.95 6.35 32.35 6.05 L33.1 5.2 33.4 3.85 33.4 -4.75 35.15 -4.75 M54.5 -2.85 L52.95 -2.55 52.1 -1.5 Q51.8 -0.8 51.8 0.25 L51.7 2.6 51.9 4.6 52.4 5.85 53.45 6.45 55.0 6.55 Q56.75 6.55 57.5 5.0 L57.6 5.0 57.6 -1.3 Q56.65 -2.85 54.5 -2.85 M57.4 -9.0 L59.35 -9.5 59.35 8.45 58.4 8.45 57.9 7.3 Q56.65 8.55 54.4 8.55 L52.4 8.2 Q51.6 7.9 50.95 7.2 50.45 6.45 50.15 5.1 49.7 3.85 49.7 1.9 49.7 -0.3 50.15 -1.65 L51.15 -3.6 52.5 -4.65 54.3 -4.85 Q55.95 -4.85 57.4 -4.1 L57.4 -9.0 M62.55 -8.45 L64.55 -8.45 64.0 3.15 63.4 3.15 62.55 -5.35 62.55 -8.45 M63.7 8.55 L62.8 8.2 Q62.35 7.8 62.35 7.4 62.35 6.85 62.8 6.45 63.2 6.15 63.7 6.15 64.25 6.15 64.55 6.45 64.95 6.85 64.95 7.4 64.95 7.8 64.55 8.2 L63.7 8.55 M-62.45 -8.45 L-55.8 6.15 -56.0 -8.45 -54.35 -8.45 -54.35 8.45 -56.65 8.45 -63.25 -6.4 -63.25 8.45 -65.0 8.45 -65.0 -8.45 -62.45 -8.45 M-49.15 -2.35 L-49.8 -0.9 -50.0 1.9 -49.8 4.5 -49.15 5.95 Q-48.75 6.35 -48.25 6.45 L-47.0 6.55 -45.85 6.45 -44.95 5.85 -44.35 4.5 -44.15 1.9 -44.35 -0.7 Q-44.55 -1.75 -44.85 -2.25 L-45.75 -2.85 -47.0 -3.1 -48.25 -2.95 Q-48.85 -2.85 -49.15 -2.35 M-47.0 -4.95 L-44.95 -4.65 -43.5 -3.7 Q-42.9 -2.85 -42.6 -1.65 -42.25 -0.3 -42.25 1.8 -42.25 3.85 -42.6 5.2 -42.9 6.55 -43.4 7.3 -44.05 8.0 -44.95 8.2 L-47.0 8.55 -49.05 8.2 Q-50.0 8.0 -50.6 7.3 -51.25 6.45 -51.55 5.2 L-51.85 1.8 -51.55 -1.65 Q-51.25 -2.95 -50.6 -3.7 L-49.05 -4.75 -47.0 -4.95 M-31.4 -9.5 L-30.25 -9.6 -29.95 -9.6 -29.5 -9.6 -29.5 -7.95 -29.85 -7.95 -30.15 -7.95 -30.75 -7.95 -31.3 -7.65 -31.7 -6.9 -31.9 -5.75 -31.9 -4.75 -29.5 -4.75 -29.5 -3.4 -31.9 -3.4 -31.9 8.45 -33.75 8.45 -33.75 -3.4 -35.1 -3.4 -35.1 -4.75 -33.75 -4.75 -33.75 -5.75 Q-33.75 -6.9 -33.35 -7.75 L-32.55 -8.9 -31.4 -9.5 M-21.15 -10.0 L-21.15 8.45 -23.1 8.45 -23.1 -9.5 -21.15 -10.0 M-27.65 -7.35 Q-28.05 -7.75 -28.05 -8.25 -28.05 -8.8 -27.65 -9.1 -27.25 -9.5 -26.7 -9.5 -26.2 -9.5 -25.9 -9.1 -25.5 -8.8 -25.5 -8.25 -25.5 -7.75 -25.9 -7.35 -26.2 -7.0 -26.7 -7.0 -27.25 -7.0 -27.65 -7.35 M-25.8 -4.75 L-25.8 8.45 -27.75 8.45 -27.75 -4.75 -25.8 -4.75 M-16.25 -1.85 L-16.65 -0.4 -16.9 1.4 -10.85 1.4 Q-10.95 -0.15 -11.2 -1.0 L-11.7 -2.35 Q-12.1 -2.75 -12.65 -2.85 L-13.75 -3.1 Q-14.8 -3.1 -15.3 -2.65 L-16.25 -1.85 M-10.35 -3.5 Q-9.75 -2.75 -9.4 -1.65 -9.1 -0.4 -9.1 1.4 L-9.1 2.85 -16.75 2.85 Q-16.75 5.0 -15.85 5.75 -14.9 6.55 -13.05 6.55 L-11.8 6.45 -10.45 6.25 -10.45 8.45 -13.05 8.55 -13.55 8.55 -15.95 8.1 Q-16.9 7.8 -17.5 6.85 L-18.45 4.6 -18.75 0.85 Q-18.75 -1.95 -17.4 -3.5 -15.95 -4.95 -13.75 -4.95 L-11.8 -4.65 Q-10.95 -4.3 -10.35 -3.5 M-5.7 -4.4 L-4.25 -4.85 -2.9 -4.95 -1.75 -4.85 -1.0 -4.75 -1.0 -2.85 -2.05 -3.2 -3.1 -3.2 -3.9 -3.2 -4.65 -2.85 -5.15 -2.45 -5.25 -1.65 -5.05 -0.9 -4.25 0.05 -3.3 1.05 -2.25 2.0 -1.35 2.85 -0.8 3.45 -0.3 4.4 -0.2 5.55 Q-0.2 6.85 -1.35 7.8 -2.45 8.65 -4.95 8.65 L-6.3 8.65 -7.35 8.45 -7.35 6.55 -7.05 6.65 -6.5 6.75 -5.8 6.75 -4.65 6.85 Q-3.2 6.85 -2.7 6.35 -2.05 5.85 -2.05 5.2 -2.05 4.7 -2.55 4.2 L-4.25 2.6 -5.5 1.6 -6.4 0.65 -7.05 -0.4 -7.25 -1.75 Q-7.25 -2.75 -6.8 -3.4 L-5.7 -4.4" fill="#000000" fill-rule="evenodd" stroke="none"/>
    <path d="M6.75 -4.4 L6.75 -5.75 8.1 -5.75 8.1 -6.75 Q8.1 -7.9 8.5 -8.75 L9.35 -9.9 Q9.85 -10.3 10.5 -10.5 L11.65 -10.6 11.95 -10.6 12.35 -10.6 12.35 -8.95 12.05 -8.95 11.75 -8.95 11.1 -8.95 10.6 -8.65 10.15 -7.9 9.95 -6.75 9.95 -5.75 12.35 -5.75 12.35 -4.4 9.95 -4.4 9.95 7.45 8.1 7.45 8.1 -4.4 6.75 -4.4 M15.05 -4.7 Q15.65 -5.4 16.6 -5.75 L18.65 -5.95 20.75 -5.65 22.2 -4.7 23.15 -2.65 23.45 0.8 23.15 4.2 22.3 6.3 Q21.7 7.0 20.75 7.2 L18.65 7.55 16.6 7.2 Q15.65 7.0 15.05 6.3 14.4 5.45 14.1 4.2 13.8 2.85 13.8 0.8 13.8 -1.3 14.1 -2.65 14.4 -3.95 15.05 -4.7 M15.9 -1.9 Q15.65 -0.85 15.65 0.9 15.65 2.55 15.9 3.5 16.1 4.4 16.5 4.95 16.9 5.35 17.45 5.45 L18.65 5.55 19.8 5.45 Q20.35 5.35 20.75 4.85 L21.35 3.5 21.6 0.9 21.35 -1.7 20.85 -3.25 Q20.45 -3.65 19.9 -3.85 L18.65 -4.1 17.45 -3.95 Q16.8 -3.85 16.5 -3.35 16.1 -2.85 15.9 -1.9 M39.9 -4.8 L41.35 -5.65 43.85 -5.95 45.3 -5.65 46.4 -4.9 47.25 -3.65 47.55 -1.9 47.55 7.45 45.7 7.45 45.7 -1.3 45.45 -2.65 44.9 -3.45 Q44.5 -3.75 43.95 -3.85 L42.8 -4.1 Q41.5 -4.1 40.65 -3.45 39.8 -2.85 39.8 -1.3 L39.8 7.45 37.95 7.45 37.95 -5.75 39.9 -5.75 39.9 -4.8 M35.15 -5.75 L35.15 7.45 33.4 7.45 33.4 6.2 Q32.55 7.55 30.3 7.55 27.9 7.55 26.75 6.4 25.5 5.25 25.5 3.2 L25.5 -5.75 27.5 -5.75 27.5 2.85 Q27.5 3.7 27.8 4.2 L28.4 5.15 29.35 5.55 30.4 5.65 31.4 5.45 Q31.95 5.35 32.35 5.05 L33.1 4.2 33.4 2.85 33.4 -5.75 35.15 -5.75 M59.35 -10.5 L59.35 7.45 58.4 7.45 57.9 6.3 Q56.65 7.55 54.4 7.55 L52.4 7.2 Q51.6 6.9 50.95 6.2 50.45 5.45 50.15 4.1 49.7 2.85 49.7 0.9 49.7 -1.3 50.15 -2.65 L51.15 -4.6 52.5 -5.65 54.3 -5.85 Q55.95 -5.85 57.4 -5.1 L57.4 -10.0 59.35 -10.5 M51.8 -0.75 L51.7 1.6 51.9 3.6 52.4 4.85 53.45 5.45 55.0 5.55 Q56.75 5.55 57.5 4.0 L57.6 4.0 57.6 -2.3 Q56.65 -3.85 54.5 -3.85 L52.95 -3.55 52.1 -2.5 Q51.8 -1.8 51.8 -0.75 M62.55 -9.45 L64.55 -9.45 64.0 2.15 63.4 2.15 62.55 -6.35 62.55 -9.45 M64.55 5.45 Q64.95 5.85 64.95 6.4 64.95 6.8 64.55 7.2 L63.7 7.55 62.8 7.2 Q62.35 6.8 62.35 6.4 62.35 5.85 62.8 5.45 63.2 5.15 63.7 5.15 64.25 5.15 64.55 5.45 M-62.45 -9.45 L-55.8 5.15 -56.0 -9.45 -54.35 -9.45 -54.35 7.45 -56.65 7.45 -63.25 -7.4 -63.25 7.45 -65.0 7.45 -65.0 -9.45 -62.45 -9.45 M-49.05 -5.75 L-47.0 -5.95 -44.95 -5.65 -43.5 -4.7 Q-42.9 -3.85 -42.6 -2.65 -42.25 -1.3 -42.25 0.8 -42.25 2.85 -42.6 4.2 -42.9 5.55 -43.4 6.3 -44.05 7.0 -44.95 7.2 L-47.0 7.55 -49.05 7.2 Q-50.0 7.0 -50.6 6.3 -51.25 5.45 -51.55 4.2 L-51.85 0.8 -51.55 -2.65 Q-51.25 -3.95 -50.6 -4.7 L-49.05 -5.75 M-48.25 -3.95 Q-48.85 -3.85 -49.15 -3.35 L-49.8 -1.9 -50.0 0.9 -49.8 3.5 -49.15 4.95 Q-48.75 5.35 -48.25 5.45 L-47.0 5.55 -45.85 5.45 -44.95 4.85 -44.35 3.5 -44.15 0.9 -44.35 -1.7 Q-44.55 -2.75 -44.85 -3.25 L-45.75 -3.85 -47.0 -4.1 -48.25 -3.95 M-31.3 -8.65 L-31.7 -7.9 -31.9 -6.75 -31.9 -5.75 -29.5 -5.75 -29.5 -4.4 -31.9 -4.4 -31.9 7.45 -33.75 7.45 -33.75 -4.4 -35.1 -4.4 -35.1 -5.75 -33.75 -5.75 -33.75 -6.75 Q-33.75 -7.9 -33.35 -8.75 L-32.55 -9.9 -31.4 -10.5 -30.25 -10.6 -29.95 -10.6 -29.5 -10.6 -29.5 -8.95 -29.85 -8.95 -30.15 -8.95 -30.75 -8.95 -31.3 -8.65 M-21.15 -11.0 L-21.15 7.45 -23.1 7.45 -23.1 -10.5 -21.15 -11.0 M-26.7 -10.5 Q-26.2 -10.5 -25.9 -10.1 -25.5 -9.8 -25.5 -9.25 -25.5 -8.75 -25.9 -8.35 -26.2 -8.0 -26.7 -8.0 -27.25 -8.0 -27.65 -8.35 -28.05 -8.75 -28.05 -9.25 -28.05 -9.8 -27.65 -10.1 -27.25 -10.5 -26.7 -10.5 M-25.8 -5.75 L-25.8 7.45 -27.75 7.45 -27.75 -5.75 -25.8 -5.75 M-16.65 -1.4 L-16.9 0.4 -10.85 0.4 Q-10.95 -1.15 -11.2 -2.0 L-11.7 -3.35 Q-12.1 -3.75 -12.65 -3.85 L-13.75 -4.1 Q-14.8 -4.1 -15.3 -3.65 L-16.25 -2.85 -16.65 -1.4 M-17.4 -4.5 Q-15.95 -5.95 -13.75 -5.95 L-11.8 -5.65 Q-10.95 -5.3 -10.35 -4.5 -9.75 -3.75 -9.4 -2.65 -9.1 -1.4 -9.1 0.4 L-9.1 1.85 -16.75 1.85 Q-16.75 4.0 -15.85 4.75 -14.9 5.55 -13.05 5.55 L-11.8 5.45 -10.45 5.25 -10.45 7.45 -13.05 7.55 -13.55 7.55 -15.95 7.1 Q-16.9 6.8 -17.5 5.85 L-18.45 3.6 -18.75 -0.15 Q-18.75 -2.95 -17.4 -4.5 M-6.8 -4.4 L-5.7 -5.4 -4.25 -5.85 -2.9 -5.95 -1.75 -5.85 -1.0 -5.75 -1.0 -3.85 -2.05 -4.2 -3.1 -4.2 -3.9 -4.2 -4.65 -3.85 -5.15 -3.45 -5.25 -2.65 -5.05 -1.9 -4.25 -0.95 -3.3 0.05 -2.25 1.0 -1.35 1.85 -0.8 2.45 -0.3 3.4 -0.2 4.55 Q-0.2 5.85 -1.35 6.8 -2.45 7.65 -4.95 7.65 L-6.3 7.65 -7.35 7.45 -7.35 5.55 -7.05 5.65 -6.5 5.75 -5.8 5.75 -4.65 5.85 Q-3.2 5.85 -2.7 5.35 -2.05 4.85 -2.05 4.2 -2.05 3.7 -2.55 3.2 L-4.25 1.6 -5.5 0.6 -6.4 -0.35 -7.05 -1.4 -7.25 -2.75 Q-7.25 -3.75 -6.8 -4.4" fill="#ffffff" fill-rule="evenodd" stroke="none"/>
  </g>
</svg>
