<?xml version="1.0" encoding="UTF-8" standalone="no"?>
<svg xmlns:xlink="http://www.w3.org/1999/xlink" height="22.6px" width="58.6px" xmlns="http://www.w3.org/2000/svg">
  <g transform="matrix(1.0, 0.0, 0.0, 1.0, -12.25, -2.05)">
    <path d="M70.85 2.05 L70.85 17.9 66.25 17.9 66.25 2.05 70.85 2.05 M64.1 24.65 L52.75 24.65 52.75 11.05 52.85 11.05 52.85 8.85 55.0 8.85 55.0 8.8 64.1 8.8 64.1 17.9 57.35 17.9 57.35 20.05 64.1 20.05 64.1 24.65 M70.85 20.05 L70.85 24.65 66.25 24.65 66.25 20.05 70.85 20.05 M50.6 8.8 L50.6 13.4 46.1 13.4 46.1 20.05 50.6 20.05 50.6 24.65 41.5 24.65 41.5 4.3 46.1 4.3 46.1 8.8 50.6 8.8 M59.5 13.4 L57.35 13.4 57.35 15.55 59.5 15.55 59.5 13.4 M25.85 2.05 L25.85 20.15 23.6 20.15 23.6 22.4 21.35 22.4 21.35 24.65 12.25 24.65 12.25 2.05 16.85 2.05 16.85 20.05 19.0 20.05 19.0 17.8 21.25 17.8 21.25 2.05 25.85 2.05 M28.1 8.85 L30.25 8.85 30.25 8.8 39.35 8.8 39.35 24.6 37.1 24.6 37.1 24.65 28.0 24.65 28.0 11.05 28.1 11.05 28.1 8.85 M32.6 20.05 L34.75 20.05 34.75 13.4 32.6 13.4 32.6 20.05" fill="#ffffff" fill-rule="evenodd" stroke="none"/>
  </g>
</svg>
