<?xml version="1.0" encoding="UTF-8" standalone="no"?>
<svg xmlns:xlink="http://www.w3.org/1999/xlink" height="40.0px" width="40.0px" xmlns="http://www.w3.org/2000/svg">
  <g transform="matrix(1.0, 0.0, 0.0, 1.0, 0.0, 0.0)">
    <path d="M39.45 0.6 Q40.0 1.15 40.0 2.0 L40.0 38.0 Q40.0 38.85 39.45 39.45 38.85 40.0 38.0 40.0 L2.0 40.0 Q1.15 40.0 0.6 39.45 0.0 38.85 0.0 38.0 L0.0 2.0 Q0.0 1.15 0.6 0.6 1.15 0.0 2.0 0.0 L38.0 0.0 Q38.85 0.0 39.45 0.6 M36.7 3.3 Q36.4 3.0 36.0 3.0 L4.0 3.0 Q3.6 3.0 3.3 3.3 3.0 3.6 3.0 4.0 L3.0 36.0 Q3.0 36.4 3.3 36.7 L4.0 37.0 36.0 37.0 36.7 36.7 37.0 36.0 37.0 4.0 36.7 3.3" fill="url(#gradient0)" fill-rule="evenodd" stroke="none"/>
    <path d="M36.7 3.3 L37.0 4.0 37.0 36.0 36.7 36.7 36.0 37.0 4.0 37.0 3.3 36.7 Q3.0 36.4 3.0 36.0 L3.0 4.0 Q3.0 3.6 3.3 3.3 3.6 3.0 4.0 3.0 L36.0 3.0 Q36.4 3.0 36.7 3.3 M36.0 4.0 L4.0 4.0 4.0 36.0 36.0 36.0 36.0 4.0" fill="#ffffff" fill-opacity="0.2509804" fill-rule="evenodd" stroke="none"/>
    <path d="M36.0 4.0 L36.0 36.0 4.0 36.0 4.0 4.0 36.0 4.0" fill="url(#gradient1)" fill-rule="evenodd" stroke="none"/>
    <path d="M36.0 3.0 L36.0 4.0 4.0 4.0 4.0 3.0 36.0 3.0" fill="url(#gradient2)" fill-rule="evenodd" stroke="none"/>
  </g>
  <defs>
    <linearGradient gradientTransform="matrix(0.0, 0.0229, -0.0244, 0.0, 20.0, 19.8)" gradientUnits="userSpaceOnUse" id="gradient0" spreadMethod="pad" x1="-819.2" x2="819.2">
      <stop offset="0.0" stop-color="#000000" stop-opacity="0.32156864"/>
      <stop offset="1.0" stop-color="#000000" stop-opacity="0.08627451"/>
    </linearGradient>
    <linearGradient gradientTransform="matrix(0.0, -0.0175, 0.0195, 0.0, 20.0, 20.05)" gradientUnits="userSpaceOnUse" id="gradient1" spreadMethod="pad" x1="-819.2" x2="819.2">
      <stop offset="0.0" stop-color="#000000" stop-opacity="0.0"/>
      <stop offset="1.0" stop-color="#000000" stop-opacity="0.2509804"/>
    </linearGradient>
    <linearGradient gradientTransform="matrix(0.0195, 0.0, 0.0, 6.0E-4, 20.0, 3.5)" gradientUnits="userSpaceOnUse" id="gradient2" spreadMethod="pad" x1="-819.2" x2="819.2">
      <stop offset="0.0" stop-color="#ffffff" stop-opacity="0.0"/>
      <stop offset="0.33725490196078434" stop-color="#ffffff" stop-opacity="0.29803923"/>
      <stop offset="1.0" stop-color="#ffffff" stop-opacity="0.0"/>
    </linearGradient>
  </defs>
</svg>
