<?xml version="1.0" encoding="UTF-8" standalone="no"?>
<svg xmlns:xlink="http://www.w3.org/1999/xlink" height="26.95px" width="25.45px" xmlns="http://www.w3.org/2000/svg">
  <g transform="matrix(1.0, 0.0, 0.0, 1.0, -7.35, -6.1)">
    <path d="M29.85 30.15 Q30.35 29.65 31.05 29.65 31.75 29.65 32.3 30.15 32.8 30.65 32.8 31.35 32.8 32.05 32.3 32.55 31.75 33.05 31.05 33.05 30.35 33.05 29.85 32.55 29.3 32.05 29.3 31.35 29.3 30.65 29.85 30.15 M10.1 8.75 Q9.6 9.2 8.95 9.2 8.3 9.2 7.85 8.75 7.35 8.3 7.35 7.65 7.35 7.0 7.85 6.55 8.3 6.1 8.95 6.1 9.6 6.1 10.1 6.55 10.55 7.0 10.55 7.65 10.55 8.3 10.1 8.75 M12.4 10.65 L12.1 11.45 11.3 11.75 Q10.85 11.75 10.55 11.45 10.2 11.1 10.2 10.65 10.2 10.2 10.55 9.9 10.85 9.55 11.3 9.55 11.75 9.55 12.1 9.9 12.4 10.2 12.4 10.65" fill="#000000" fill-opacity="0.12941177" fill-rule="evenodd" stroke="none"/>
    <path d="M23.45 17.0 L23.0 14.8 Q22.7 14.15 22.1 13.85 L22.05 13.8 Q21.3 13.4 20.2 13.4 L18.25 13.8 18.15 13.85 Q17.5 14.15 17.2 14.8 L17.2 14.85 Q16.8 15.7 16.65 17.0 16.5 18.5 16.5 20.4 16.5 22.35 16.65 23.8 16.75 25.05 17.2 26.05 17.5 26.75 18.2 27.1 L20.2 27.45 22.1 27.1 23.0 26.05 23.0 26.1 23.45 23.85 23.55 20.4 23.45 17.0 M23.85 9.75 Q25.5 10.45 26.4 11.85 L26.45 11.95 Q27.2 13.35 27.6 15.5 L27.6 15.55 27.8 20.4 27.6 25.3 27.6 25.35 Q27.3 27.5 26.55 28.95 25.7 30.45 24.05 31.2 22.6 31.8 20.2 31.8 17.7 31.8 16.2 31.15 L16.2 31.1 Q14.45 30.3 13.65 28.8 12.8 27.35 12.45 25.15 12.2 23.1 12.2 20.4 12.2 17.6 12.65 15.55 L12.6 15.6 Q12.95 13.5 13.8 12.05 L13.8 12.0 Q14.75 10.5 16.35 9.8 L16.4 9.8 Q17.85 9.15 20.2 9.15 22.45 9.15 23.85 9.75" fill="#000000" fill-opacity="0.49803922" fill-rule="evenodd" stroke="none"/>
    <path d="M25.55 11.4 Q26.25 12.7 26.6 14.65 L26.8 19.4 26.6 24.2 Q26.35 26.15 25.65 27.45 25.0 28.65 23.65 29.25 L20.2 29.8 Q17.95 29.8 16.6 29.2 15.2 28.55 14.5 27.3 13.75 26.0 13.45 24.0 13.2 22.05 13.2 19.4 13.2 16.7 13.6 14.75 13.9 12.85 14.65 11.55 15.45 10.3 16.75 9.7 18.1 9.15 20.2 9.15 22.2 9.15 23.45 9.65 24.8 10.25 25.55 11.4 M24.55 19.4 L24.45 15.9 Q24.35 14.4 23.9 13.4 23.45 12.4 22.55 11.95 21.65 11.4 20.2 11.4 18.6 11.4 17.7 11.95 16.75 12.4 16.3 13.4 15.8 14.4 15.65 15.9 15.5 17.45 15.5 19.4 15.5 21.4 15.65 22.9 15.8 24.35 16.3 25.45 16.75 26.45 17.7 26.95 18.6 27.45 20.2 27.45 21.65 27.45 22.55 26.95 23.45 26.45 23.9 25.45 24.35 24.35 24.45 22.9 L24.55 19.4" fill="#ffffff" fill-rule="evenodd" stroke="none"/>
  </g>
</svg>
