<?xml version="1.0" encoding="UTF-8" standalone="no"?>
<svg xmlns:xlink="http://www.w3.org/1999/xlink" height="22.55px" width="15.85px" xmlns="http://www.w3.org/2000/svg">
  <g transform="matrix(1.0, 0.0, 0.0, 1.0, -7.25, -9.2)">
    <path d="M8.85 21.1 Q8.1 20.35 8.1 19.3 8.1 18.25 8.85 17.5 9.55 16.75 10.6 16.75 11.65 16.75 12.4 17.5 13.1 18.25 13.1 19.3 13.1 20.35 12.4 21.1 11.65 21.85 10.6 21.85 9.55 21.85 8.85 21.1 M9.55 13.85 Q9.95 14.25 9.95 14.8 9.95 15.35 9.55 15.75 9.15 16.15 8.6 16.15 8.05 16.15 7.65 15.75 7.25 15.35 7.25 14.8 7.25 14.25 7.65 13.85 8.05 13.45 8.6 13.45 9.15 13.45 9.55 13.85" fill="#000000" fill-opacity="0.1254902" fill-rule="evenodd" stroke="none"/>
    <path d="M22.1 9.2 Q22.5 9.2 22.8 9.5 L23.1 10.2 23.1 30.75 22.8 31.45 22.1 31.75 19.8 31.75 Q19.4 31.75 19.1 31.45 18.8 31.15 18.8 30.75 L18.8 13.55 18.0 13.55 17.3 13.25 Q17.0 12.95 17.0 12.55 L17.0 10.2 Q17.0 9.8 17.3 9.5 17.6 9.2 18.0 9.2 L22.1 9.2" fill="#000000" fill-opacity="0.49803922" fill-rule="evenodd" stroke="none"/>
    <path d="M18.0 9.2 L22.1 9.2 22.1 29.75 19.8 29.75 19.8 11.55 18.0 11.55 18.0 9.2" fill="#ffffff" fill-rule="evenodd" stroke="none"/>
  </g>
</svg>
