<?xml version="1.0" encoding="UTF-8" standalone="no"?>
<svg xmlns:xlink="http://www.w3.org/1999/xlink" height="24.5px" width="24.6px" xmlns="http://www.w3.org/2000/svg">
  <g transform="matrix(1.0, 0.0, 0.0, 1.0, -8.5, -9.2)">
    <path d="M33.1 31.7 Q33.1 32.55 32.5 33.15 31.9 33.7 31.05 33.7 30.2 33.7 29.6 33.15 29.0 32.55 29.0 31.7 29.0 30.85 29.6 30.3 30.2 29.7 31.05 29.7 31.9 29.7 32.5 30.3 33.1 30.85 33.1 31.7 M8.85 14.1 Q9.15 13.75 9.6 13.75 10.05 13.75 10.4 14.1 L10.7 14.85 10.4 15.65 9.6 15.95 Q9.15 15.95 8.85 15.65 8.5 15.3 8.5 14.85 8.5 14.4 8.85 14.1" fill="#000000" fill-opacity="0.12156863" fill-rule="evenodd" stroke="none"/>
    <path d="M21.1 9.25 Q22.5 9.4 23.6 10.15 24.65 10.75 25.35 11.95 L25.4 12.0 Q26.05 13.2 26.05 15.35 26.05 17.15 25.3 18.6 24.5 20.0 23.15 21.15 L23.15 21.1 20.65 23.35 20.6 23.35 19.15 24.85 19.2 24.8 Q18.75 25.45 18.55 26.2 L18.35 27.4 25.45 27.4 Q25.85 27.4 26.15 27.7 L26.45 28.4 26.45 30.75 26.15 31.45 25.45 31.75 14.6 31.75 Q14.2 31.75 13.9 31.45 13.6 31.15 13.6 30.75 L13.6 29.45 Q13.6 27.65 13.9 26.25 14.2 24.7 15.05 23.4 L15.05 23.5 Q15.7 22.2 16.95 20.95 L19.65 18.45 19.6 18.5 21.1 16.7 21.05 16.7 Q21.45 15.9 21.45 15.1 L21.3 14.3 21.25 14.25 20.85 13.85 20.7 13.8 19.9 13.5 18.8 13.45 Q17.35 13.45 16.3 14.0 L15.65 14.1 15.1 13.75 14.85 13.1 14.85 10.5 15.05 9.95 Q15.25 9.65 15.55 9.55 L16.85 9.25 16.9 9.25 18.65 9.2 21.05 9.25 21.1 9.25" fill="#000000" fill-opacity="0.49803922" fill-rule="evenodd" stroke="none"/>
    <path d="M24.5 11.45 Q25.05 12.5 25.05 14.35 25.05 15.9 24.4 17.1 L22.5 19.35 19.95 21.6 18.35 23.2 Q17.8 24.0 17.55 24.95 17.3 25.9 17.3 27.4 L25.45 27.4 25.45 29.75 14.6 29.75 14.6 28.45 Q14.6 26.75 14.85 25.45 15.15 24.1 15.9 22.95 16.5 21.8 17.65 20.65 L20.3 18.2 Q21.4 17.15 21.95 16.15 22.45 15.15 22.45 14.1 22.45 13.2 22.1 12.7 L21.25 11.95 Q20.75 11.6 20.05 11.5 L18.8 11.45 Q17.1 11.45 15.85 12.1 L15.85 9.5 17.0 9.25 18.65 9.2 21.0 9.25 Q22.15 9.35 23.05 9.95 23.9 10.45 24.5 11.45" fill="#ffffff" fill-rule="evenodd" stroke="none"/>
  </g>
</svg>
