<?xml version="1.0" encoding="UTF-8" standalone="no"?>
<svg xmlns:xlink="http://www.w3.org/1999/xlink" height="25.8px" width="26.8px" xmlns="http://www.w3.org/2000/svg">
  <g transform="matrix(1.0, 0.0, 0.0, 1.0, -6.5, -7.85)">
    <path d="M8.5 29.8 Q7.65 29.8 7.1 29.25 6.5 28.65 6.5 27.8 6.5 26.95 7.1 26.4 7.65 25.8 8.5 25.8 9.35 25.8 9.95 26.4 10.5 26.95 10.5 27.8 10.5 28.65 9.95 29.25 9.35 29.8 8.5 29.8 M11.1 32.6 L10.8 33.35 10.0 33.65 Q9.55 33.65 9.25 33.35 8.9 33.05 8.9 32.6 8.9 32.15 9.25 31.85 9.55 31.55 10.0 31.55 10.45 31.55 10.8 31.85 L11.1 32.6 M10.95 18.8 L11.25 19.55 10.95 20.35 10.15 20.65 9.4 20.35 Q9.05 20.0 9.05 19.55 9.05 19.1 9.4 18.8 9.7 18.45 10.15 18.45 10.6 18.45 10.95 18.8 M30.15 11.1 Q29.6 10.55 29.6 9.75 29.6 8.95 30.15 8.4 30.7 7.85 31.45 7.85 32.2 7.85 32.75 8.4 33.3 8.95 33.3 9.75 33.3 10.55 32.75 11.1 32.2 11.65 31.45 11.65 30.7 11.65 30.15 11.1" fill="#000000" fill-opacity="0.11764706" fill-rule="evenodd" stroke="none"/>
    <path d="M22.6 9.8 Q23.85 10.4 24.7 11.8 L24.7 11.75 Q25.55 13.0 25.55 15.35 25.55 17.65 24.7 19.0 L23.7 20.1 Q25.7 21.7 25.7 24.45 25.7 26.8 25.1 28.25 L25.05 28.3 Q24.35 29.75 23.3 30.6 22.2 31.45 20.7 31.75 L18.0 32.0 15.2 31.8 14.6 31.45 14.35 30.8 14.35 28.5 Q14.35 28.2 14.5 28.0 L14.95 27.6 15.5 27.5 16.25 27.65 16.45 27.7 16.65 27.7 17.25 27.75 17.9 27.75 19.35 27.6 19.3 27.6 20.4 27.15 20.95 26.4 20.95 26.3 21.25 24.85 21.05 23.45 21.05 23.5 20.5 22.8 19.45 22.45 17.35 22.3 Q16.95 22.3 16.65 22.0 16.35 21.7 16.35 21.3 L16.35 19.1 Q16.35 18.7 16.65 18.4 16.95 18.1 17.35 18.1 L19.55 17.85 19.6 17.85 Q20.25 17.65 20.65 17.3 L20.6 17.3 21.0 16.55 21.0 16.5 21.15 15.45 21.0 14.55 20.95 14.45 20.65 13.95 19.6 13.45 19.65 13.5 17.65 13.3 16.5 13.4 16.4 13.4 15.6 13.55 15.0 13.5 14.55 13.15 14.35 12.55 14.35 10.45 14.55 9.85 15.1 9.5 16.6 9.2 18.2 9.0 20.2 9.15 Q21.4 9.25 22.6 9.8" fill="#000000" fill-opacity="0.49803922" fill-rule="evenodd" stroke="none"/>
    <path d="M23.85 11.3 Q24.55 12.35 24.55 14.35 24.55 16.3 23.85 17.45 23.2 18.5 21.7 19.1 24.7 20.4 24.7 23.45 24.7 25.55 24.15 26.85 23.55 28.1 22.65 28.8 21.75 29.5 20.5 29.75 L18.0 30.0 15.35 29.8 15.35 27.5 16.05 27.6 16.65 27.7 17.15 27.75 17.9 27.75 19.6 27.55 20.95 26.95 21.85 25.75 Q22.25 24.95 22.25 23.85 L21.95 22.05 21.1 21.0 Q20.55 20.6 19.6 20.45 L17.35 20.3 17.35 18.1 19.85 17.8 Q20.8 17.55 21.35 16.95 L21.95 15.8 22.15 14.45 21.9 13.15 21.25 12.15 Q20.7 11.75 19.85 11.5 L17.65 11.3 16.3 11.4 15.35 11.55 15.35 9.45 16.75 9.2 18.2 9.0 20.05 9.15 Q21.1 9.2 22.15 9.7 23.15 10.2 23.85 11.3" fill="#ffffff" fill-rule="evenodd" stroke="none"/>
  </g>
</svg>
