<?xml version="1.0" encoding="UTF-8" standalone="no"?>
<svg xmlns:xlink="http://www.w3.org/1999/xlink" height="26.8px" width="22.1px" xmlns="http://www.w3.org/2000/svg">
  <g transform="matrix(1.0, 0.0, 0.0, 1.0, -8.3, -7.25)">
    <path d="M26.75 34.05 Q26.15 34.05 25.75 33.65 25.3 33.2 25.3 32.6 25.3 32.0 25.75 31.6 26.15 31.15 26.75 31.15 27.35 31.15 27.8 31.6 28.2 32.0 28.2 32.6 28.2 33.2 27.8 33.65 27.35 34.05 26.75 34.05 M30.2 30.6 L29.6 30.8 29.05 30.6 28.8 30.05 29.05 29.55 Q29.25 29.3 29.6 29.3 L30.2 29.55 30.4 30.05 30.2 30.6 M16.8 18.4 Q15.95 18.4 15.35 17.85 14.75 17.25 14.75 16.4 14.75 15.55 15.35 15.0 15.95 14.4 16.8 14.4 17.65 14.4 18.25 15.0 18.85 15.55 18.85 16.4 18.85 17.25 18.25 17.85 17.65 18.4 16.8 18.4 M10.8 7.65 Q11.2 8.05 11.2 8.65 11.2 9.25 10.8 9.65 10.35 10.05 9.75 10.05 9.15 10.05 8.75 9.65 8.3 9.25 8.3 8.65 8.3 8.05 8.75 7.65 9.15 7.25 9.75 7.25 10.35 7.25 10.8 7.65" fill="#000000" fill-opacity="0.11372549" fill-rule="evenodd" stroke="none"/>
    <path d="M20.8 21.85 L20.8 16.5 17.6 21.85 20.8 21.85 M20.25 9.7 L20.6 9.35 Q20.85 9.2 21.1 9.2 L24.15 9.2 Q24.55 9.2 24.85 9.5 L25.15 10.2 25.15 21.85 26.15 21.85 Q26.55 21.85 26.85 22.15 L27.15 22.85 27.15 24.85 26.85 25.55 26.15 25.85 25.15 25.85 25.15 30.75 24.85 31.45 24.15 31.75 21.8 31.75 Q21.4 31.75 21.1 31.45 20.8 31.15 20.8 30.75 L20.8 25.85 13.95 25.85 Q13.55 25.85 13.25 25.55 L12.95 24.85 12.95 22.0 Q12.95 21.7 13.1 21.5 L20.25 9.7" fill="#000000" fill-opacity="0.49803922" fill-rule="evenodd" stroke="none"/>
    <path d="M21.8 11.85 L15.8 21.85 21.8 21.85 21.8 11.85 M24.15 9.2 L24.15 21.85 26.15 21.85 26.15 23.85 24.15 23.85 24.15 29.75 21.8 29.75 21.8 23.85 13.95 23.85 13.95 21.0 21.1 9.2 24.15 9.2" fill="#ffffff" fill-rule="evenodd" stroke="none"/>
  </g>
</svg>
