<?xml version="1.0" encoding="UTF-8" standalone="no"?>
<svg xmlns:xlink="http://www.w3.org/1999/xlink" height="24.1px" width="24.5px" xmlns="http://www.w3.org/2000/svg">
  <g transform="matrix(1.0, 0.0, 0.0, 1.0, -6.35, -9.2)">
    <path d="M6.75 32.95 Q6.35 32.55 6.35 32.0 6.35 31.45 6.75 31.1 7.1 30.7 7.65 30.7 8.2 30.7 8.6 31.1 8.95 31.45 8.95 32.0 8.95 32.55 8.6 32.95 8.2 33.3 7.65 33.3 7.1 33.3 6.75 32.95 M27.85 11.8 Q28.5 11.8 28.95 12.25 29.35 12.65 29.35 13.3 29.35 13.95 28.95 14.4 28.5 14.8 27.85 14.8 27.2 14.8 26.8 14.4 26.35 13.95 26.35 13.3 26.35 12.65 26.8 12.25 27.2 11.8 27.85 11.8 M30.85 10.3 L30.55 11.1 Q30.25 11.4 29.8 11.4 29.35 11.4 29.05 11.1 28.75 10.75 28.75 10.3 28.75 9.85 29.05 9.55 29.35 9.2 29.8 9.2 30.25 9.2 30.55 9.55 L30.85 10.3" fill="#000000" fill-opacity="0.10980392" fill-rule="evenodd" stroke="none"/>
    <path d="M24.0 9.2 Q24.4 9.2 24.7 9.5 L25.0 10.2 25.0 12.55 24.7 13.25 24.0 13.55 17.75 13.55 17.45 17.0 18.05 16.85 18.1 16.85 20.6 16.6 22.75 16.75 22.8 16.8 Q24.0 17.0 25.05 17.9 L25.1 17.95 Q26.0 18.8 26.6 20.4 L26.6 20.45 Q27.15 21.95 27.15 24.65 27.15 26.7 26.45 28.1 25.8 29.55 24.6 30.4 23.5 31.15 21.95 31.5 L21.9 31.5 18.95 31.75 15.1 31.6 14.5 31.25 14.25 30.6 14.25 28.15 14.45 27.6 Q14.6 27.3 14.9 27.2 L15.5 27.2 17.1 27.55 17.0 27.5 18.95 27.6 20.75 27.5 20.8 27.45 21.8 27.1 21.85 27.05 22.55 26.25 22.8 24.3 22.55 22.35 22.55 22.25 22.1 21.35 22.0 21.25 Q21.75 21.0 21.4 20.9 L20.15 20.75 Q18.05 20.75 17.25 21.65 L16.7 22.0 16.05 21.9 13.6 20.8 13.15 20.4 13.0 19.8 13.85 10.1 Q13.9 9.7 14.2 9.45 L14.85 9.2 24.0 9.2" fill="#000000" fill-opacity="0.49803922" fill-rule="evenodd" stroke="none"/>
    <path d="M24.0 11.55 L16.85 11.55 16.25 17.65 Q17.15 17.05 18.25 16.8 L20.6 16.6 22.6 16.75 Q23.55 16.95 24.4 17.65 25.15 18.4 25.65 19.75 26.15 21.15 26.15 23.65 26.15 25.45 25.55 26.65 25.0 27.85 24.0 28.55 23.05 29.2 21.7 29.5 L18.95 29.75 15.25 29.6 15.25 27.15 16.9 27.5 18.95 27.6 20.9 27.45 Q21.8 27.35 22.4 26.9 L23.45 25.6 Q23.8 24.75 23.8 23.3 L23.5 21.0 Q23.3 20.1 22.75 19.6 22.35 19.1 21.6 18.9 L20.15 18.75 Q17.5 18.75 16.45 20.0 L14.0 18.9 14.85 9.2 24.0 9.2 24.0 11.55" fill="#ffffff" fill-rule="evenodd" stroke="none"/>
  </g>
</svg>
