<?xml version="1.0" encoding="UTF-8" standalone="no"?>
<svg xmlns:xlink="http://www.w3.org/1999/xlink" height="20.0px" width="123.9px" xmlns="http://www.w3.org/2000/svg">
  <g transform="matrix(1.0, 0.0, 0.0, 1.0, 0.0, 0.0)">
    <path d="M123.9 9.2 L123.9 10.5 117.35 10.5 Q117.45 12.35 118.2 13.05 118.95 13.75 120.6 13.75 L121.6 13.65 122.75 13.4 122.75 15.2 120.6 15.35 120.1 15.35 118.05 15.05 Q117.25 14.75 116.7 14.0 116.2 13.2 115.95 12.0 115.7 10.75 115.7 8.8 115.7 6.45 116.9 5.15 118.0 3.85 119.95 3.85 L121.6 4.15 Q122.3 4.4 122.85 5.05 L123.7 6.75 123.9 9.2 M122.15 7.25 L121.65 6.1 Q121.4 5.7 120.9 5.6 L119.95 5.5 Q119.1 5.5 118.55 5.8 118.05 6.1 117.8 6.55 117.55 7.1 117.45 7.75 117.3 8.45 117.3 9.25 L122.4 9.25 122.15 7.25 M114.05 5.2 L112.1 5.2 112.1 11.5 112.3 12.7 112.65 13.35 113.25 13.7 113.85 13.75 114.1 13.75 114.4 13.75 114.4 15.3 113.45 15.35 112.55 15.2 111.6 14.65 110.8 13.5 Q110.55 12.8 110.55 11.7 L110.55 5.2 109.4 5.2 109.4 4.0 110.55 4.0 110.55 0.65 112.1 0.25 112.1 4.0 114.05 4.0 114.05 5.2 M104.2 3.85 L106.0 4.05 107.3 4.95 108.05 6.75 108.3 9.6 108.05 12.55 107.3 14.3 106.05 15.15 104.2 15.35 102.45 15.1 101.15 14.3 Q100.6 13.65 100.3 12.5 100.05 11.4 100.05 9.6 100.05 7.8 100.3 6.65 100.6 5.55 101.15 4.9 101.75 4.3 102.5 4.05 L104.2 3.85 M103.15 5.6 Q102.7 5.65 102.35 6.1 L101.85 7.35 Q101.7 8.2 101.7 9.7 101.7 11.15 101.85 11.9 102.05 12.75 102.4 13.15 102.7 13.5 103.2 13.55 L104.2 13.7 105.2 13.55 106.0 13.1 Q106.35 12.7 106.5 11.9 L106.75 9.7 106.55 7.45 106.1 6.2 105.3 5.6 104.2 5.5 103.15 5.6 M98.9 4.0 L96.0 15.3 93.9 15.3 90.95 4.0 92.7 4.0 94.95 13.8 97.2 4.0 98.9 4.0 M85.5 2.3 L85.5 3.2 84.8 3.25 84.35 3.3 84.0 3.5 83.75 3.85 83.3 4.55 Q84.35 5.35 84.35 8.15 L84.15 10.4 Q84.0 11.25 83.45 11.8 83.0 12.35 82.15 12.5 L80.1 12.75 79.25 12.75 78.25 12.55 78.25 13.7 Q78.25 14.05 78.5 14.2 L79.35 14.4 82.0 14.4 83.4 14.5 Q84.0 14.65 84.4 14.95 L84.95 15.8 85.1 17.25 84.85 18.65 Q84.65 19.25 84.05 19.55 L82.45 19.9 79.95 20.0 76.3 19.65 76.3 18.0 77.55 18.25 80.05 18.3 82.0 18.25 83.1 18.05 83.55 17.7 83.65 17.15 Q83.65 16.5 83.2 16.3 82.75 16.0 81.65 16.0 L79.75 16.0 Q78.4 16.0 77.65 15.5 77.05 15.0 77.05 13.85 L77.05 13.05 78.15 12.55 76.95 12.1 76.25 11.2 Q76.0 10.6 75.9 9.75 L75.85 7.5 Q75.85 6.55 76.15 5.85 L76.95 4.7 Q77.55 4.25 78.25 4.05 L79.95 3.85 81.55 3.95 82.75 4.25 83.3 3.4 83.7 2.9 Q83.95 2.65 84.15 2.55 L84.75 2.35 85.5 2.3 M81.4 5.55 L80.15 5.45 79.1 5.5 Q78.55 5.5 78.25 5.8 L77.65 6.65 Q77.5 7.25 77.5 8.3 77.5 9.3 77.65 9.9 L78.2 10.75 79.05 11.05 80.1 11.1 81.15 11.05 82.05 10.75 82.65 9.9 82.8 8.3 82.65 6.9 Q82.5 6.3 82.15 6.0 81.85 5.65 81.4 5.55 M73.15 4.8 L73.85 5.85 74.1 7.3 74.1 15.3 72.5 15.3 72.5 7.85 72.3 6.75 71.8 6.0 71.0 5.6 70.0 5.5 Q68.85 5.5 68.1 6.0 67.45 6.5 67.45 7.85 L67.45 15.3 65.9 15.3 65.9 4.0 67.55 4.0 67.55 4.8 Q68.0 4.3 68.75 4.15 L70.95 3.9 72.15 4.15 73.15 4.8 M63.75 1.05 L63.45 1.75 Q63.15 2.1 62.75 2.1 62.35 2.1 62.0 1.75 61.65 1.45 61.65 1.05 61.65 0.6 61.95 0.3 62.3 0.0 62.75 0.0 63.15 0.0 63.45 0.3 L63.75 1.05 M63.45 4.0 L63.45 15.3 61.8 15.3 61.8 4.0 63.45 4.0 M57.9 4.0 L59.85 4.0 59.85 5.2 57.9 5.2 57.9 11.5 58.1 12.7 58.45 13.35 59.05 13.7 59.65 13.75 59.9 13.75 60.2 13.75 60.2 15.3 59.25 15.35 58.35 15.2 57.4 14.65 56.6 13.5 Q56.3 12.8 56.3 11.7 L56.3 5.2 55.2 5.2 55.2 4.0 56.3 4.0 56.3 0.65 57.9 0.25 57.9 4.0 M52.15 5.2 L52.15 11.5 Q52.15 12.2 52.3 12.7 L52.65 13.35 53.25 13.7 53.85 13.75 54.15 13.75 54.45 13.75 54.45 15.3 53.5 15.35 52.55 15.2 51.6 14.65 50.85 13.5 Q50.55 12.8 50.55 11.7 L50.55 5.2 49.4 5.2 49.4 4.0 50.55 4.0 50.55 0.65 52.15 0.25 52.15 4.0 54.1 4.0 54.1 5.2 52.15 5.2 M47.9 0.3 L48.2 1.05 47.9 1.75 Q47.6 2.1 47.2 2.1 46.75 2.1 46.4 1.75 46.05 1.45 46.05 1.05 46.05 0.6 46.35 0.3 46.7 0.0 47.2 0.0 47.6 0.0 47.9 0.3 M47.9 4.0 L47.9 15.3 46.25 15.3 46.25 4.0 47.9 4.0 M43.65 5.65 Q44.0 6.3 44.0 7.3 L44.0 15.3 42.35 15.3 42.35 7.6 Q42.35 6.5 41.85 5.9 41.45 5.35 40.15 5.35 39.0 5.35 38.55 5.9 38.1 6.5 38.1 7.6 L38.1 15.3 36.4 15.3 36.4 7.6 Q36.4 6.5 36.0 5.9 35.55 5.35 34.35 5.35 33.05 5.35 32.6 5.95 32.15 6.5 32.15 7.6 L32.15 15.3 30.55 15.3 30.55 4.0 32.15 4.0 32.15 4.95 Q32.65 4.35 33.25 4.15 L34.7 3.9 36.2 4.15 37.4 4.9 Q38.45 3.9 40.1 3.9 L41.6 4.05 Q42.3 4.25 42.8 4.6 L43.65 5.65 M25.4 5.55 L24.2 5.5 Q22.75 5.5 22.0 6.75 L22.0 12.4 Q22.8 13.65 24.4 13.65 L25.6 13.5 26.35 13.0 Q26.7 12.55 26.85 11.75 L27.0 9.5 26.85 7.25 26.3 6.1 Q25.95 5.65 25.4 5.55 M27.55 4.9 L28.3 6.65 28.6 9.55 Q28.6 11.4 28.25 12.5 27.9 13.7 27.35 14.3 L26.05 15.15 24.55 15.35 Q22.8 15.35 21.55 14.35 L20.9 15.3 20.35 15.3 20.35 0.4 22.05 0.0 22.05 4.9 Q23.0 3.85 24.75 3.85 L26.3 4.05 Q27.0 4.3 27.55 4.9 M18.1 4.0 L18.1 15.3 16.5 15.3 16.5 14.3 Q15.8 15.4 13.9 15.4 11.85 15.4 10.85 14.4 9.85 13.4 9.85 11.6 L9.85 4.0 11.5 4.0 11.5 11.4 11.75 12.55 12.35 13.25 Q12.7 13.55 13.1 13.65 L14.0 13.75 14.85 13.65 15.7 13.25 16.3 12.55 16.5 11.4 16.5 4.0 18.1 4.0 M6.8 2.65 L4.8 2.3 3.65 2.35 2.7 2.65 2.0 3.25 Q1.7 3.6 1.7 4.15 1.7 4.65 2.4 5.5 3.15 6.3 4.65 7.55 L6.65 9.25 7.65 10.4 8.1 11.15 8.15 11.85 7.95 13.1 7.25 14.15 6.0 15.0 4.2 15.35 3.7 15.35 2.4 15.3 1.55 15.2 0.95 15.15 0.65 15.05 0.65 13.35 1.9 13.55 3.25 13.7 4.4 13.55 5.45 13.35 6.05 12.8 6.35 12.0 6.25 11.45 5.85 10.8 4.85 9.8 3.05 8.25 1.3 6.75 0.4 5.65 0.05 4.9 0.0 4.15 Q0.0 3.35 0.4 2.7 0.75 2.05 1.45 1.65 2.1 1.25 3.15 1.0 L5.25 0.75 6.15 0.75 6.8 0.9 6.8 2.65" fill="#ffffff" fill-rule="evenodd" stroke="none"/>
  </g>
</svg>
