<?xml version="1.0" encoding="UTF-8" standalone="no"?>
<svg xmlns:xlink="http://www.w3.org/1999/xlink" height="2.0px" width="9.2px" xmlns="http://www.w3.org/2000/svg">
  <g transform="matrix(1.0, 0.0, 0.0, 1.0, -125.45, -13.35)">
    <path d="M130.8 13.65 L131.1 14.4 130.8 15.05 Q130.6 15.35 130.1 15.35 129.6 15.35 129.3 15.05 129.0 14.8 129.0 14.4 129.0 13.9 129.3 13.65 129.6 13.35 130.1 13.35 130.6 13.35 130.8 13.65 M127.55 14.4 L127.3 15.05 Q127.05 15.35 126.55 15.35 L125.75 15.05 Q125.45 14.8 125.45 14.4 125.45 13.9 125.75 13.65 126.05 13.35 126.55 13.35 127.05 13.35 127.3 13.65 L127.55 14.4 M132.5 14.4 Q132.5 13.9 132.8 13.65 133.1 13.35 133.65 13.35 134.1 13.35 134.35 13.65 L134.65 14.4 134.35 15.05 133.65 15.35 132.8 15.05 Q132.5 14.8 132.5 14.4" fill="#ffffff" fill-opacity="0.49803922" fill-rule="evenodd" stroke="none"/>
  </g>
</svg>
