<?xml version="1.0" encoding="UTF-8" standalone="no"?>
<svg xmlns:xlink="http://www.w3.org/1999/xlink" height="21.0px" width="64.85px" xmlns="http://www.w3.org/2000/svg">
  <g transform="matrix(1.0, 0.0, 0.0, 1.0, 32.4, 10.0)">
    <path d="M8.85 -4.0 L11.0 -3.65 12.6 -2.45 Q13.3 -1.65 13.65 -0.3 14.05 1.1 14.05 3.0 L14.05 4.6 5.45 4.6 Q5.5 7.0 6.5 7.95 7.55 8.85 9.65 8.85 L11.05 8.75 12.5 8.45 12.5 10.8 9.65 11.0 9.0 11.0 6.4 10.6 Q5.35 10.2 4.65 9.2 3.95 8.25 3.6 6.55 3.25 4.95 3.25 2.4 3.25 -0.7 4.85 -2.3 6.35 -4.0 8.85 -4.0 M1.7 -2.3 L-0.8 -2.3 -0.8 6.0 -0.65 7.5 -0.1 8.35 Q0.2 8.7 0.6 8.8 L1.45 8.9 1.85 8.9 2.2 8.85 2.2 10.9 0.95 10.95 -0.25 10.75 Q-0.95 10.6 -1.5 10.0 -2.1 9.55 -2.5 8.55 -2.9 7.65 -2.9 6.2 L-2.9 -2.3 -4.4 -2.3 -4.4 -3.8 -2.9 -3.8 -2.9 -8.2 -0.8 -8.7 -0.8 -3.8 1.7 -3.8 1.7 -2.3 M6.05 -0.45 Q5.7 0.15 5.5 1.1 L5.4 3.05 11.95 3.05 11.75 0.4 11.05 -1.1 10.15 -1.75 8.8 -1.85 7.0 -1.5 6.05 -0.45 M18.7 -0.15 Q18.4 0.6 18.35 1.75 L18.3 4.4 Q18.3 5.75 18.55 6.6 18.75 7.5 19.15 8.0 L20.25 8.65 22.0 8.8 Q23.95 8.8 24.75 7.1 L24.8 7.1 24.8 0.0 Q23.85 -1.7 21.45 -1.7 L19.65 -1.3 Q19.0 -0.95 18.7 -0.15 M19.3 -3.65 L21.2 -3.95 Q23.05 -3.95 24.7 -3.05 L24.7 -8.5 26.85 -9.0 26.85 10.9 25.85 10.9 25.25 9.65 Q23.85 11.0 21.35 11.0 L19.15 10.65 Q18.25 10.35 17.55 9.5 16.85 8.7 16.5 7.25 16.15 5.8 16.15 3.55 16.15 1.2 16.6 -0.25 17.0 -1.75 17.65 -2.55 18.35 -3.35 19.3 -3.65 M29.8 -7.9 L32.0 -7.9 31.45 5.0 30.7 5.0 29.8 -4.45 29.8 -7.9 M32.05 8.75 Q32.45 9.15 32.45 9.65 32.45 10.25 32.05 10.6 31.65 11.0 31.1 11.0 30.55 11.0 30.1 10.6 29.65 10.25 29.65 9.65 29.65 9.15 30.1 8.75 30.55 8.35 31.1 8.35 31.65 8.35 32.05 8.75 M-29.85 -7.9 L-25.65 9.2 -21.45 -7.9 -18.95 -7.9 -24.1 10.9 -27.35 10.9 -32.4 -7.9 -29.85 -7.9 M-14.2 -3.7 L-11.85 -4.0 -9.65 -3.7 Q-8.65 -3.4 -7.95 -2.55 -7.25 -1.75 -7.0 -0.3 -6.55 1.2 -6.55 3.5 -6.55 5.85 -6.9 7.3 -7.2 8.75 -7.9 9.6 -8.55 10.4 -9.5 10.7 L-11.85 11.0 -14.2 10.65 Q-15.2 10.35 -15.9 9.55 -16.6 8.75 -16.95 7.25 -17.35 5.8 -17.35 3.5 -17.35 1.15 -16.95 -0.35 -16.6 -1.8 -15.85 -2.6 -15.15 -3.4 -14.2 -3.7 M-13.25 -1.75 Q-13.9 -1.65 -14.35 -1.1 L-15.0 0.55 -15.2 3.55 -15.0 6.55 Q-14.75 7.6 -14.3 8.05 -13.9 8.55 -13.25 8.7 L-11.85 8.75 -10.6 8.65 -9.55 8.0 Q-9.15 7.5 -8.9 6.45 -8.65 5.4 -8.65 3.6 -8.65 1.75 -8.8 0.7 -9.05 -0.35 -9.45 -0.95 -9.9 -1.5 -10.5 -1.7 L-11.85 -1.85 -13.25 -1.75" fill="#000000" fill-rule="evenodd" stroke="none"/>
    <path d="M6.05 -1.45 Q5.7 -0.85 5.5 0.1 L5.4 2.05 11.95 2.05 11.75 -0.6 11.05 -2.1 10.15 -2.75 8.8 -2.85 7.0 -2.5 6.05 -1.45 M1.7 -3.3 L-0.8 -3.3 -0.8 5.0 -0.65 6.5 -0.1 7.35 Q0.2 7.7 0.6 7.8 L1.45 7.9 1.85 7.9 2.2 7.85 2.2 9.9 0.95 9.95 -0.25 9.75 Q-0.95 9.6 -1.5 9.0 -2.1 8.55 -2.5 7.55 -2.9 6.65 -2.9 5.2 L-2.9 -3.3 -4.4 -3.3 -4.4 -4.8 -2.9 -4.8 -2.9 -9.2 -0.8 -9.7 -0.8 -4.8 1.7 -4.8 1.7 -3.3 M8.85 -5.0 L11.0 -4.65 12.6 -3.45 Q13.3 -2.65 13.65 -1.3 14.05 0.1 14.05 2.0 L14.05 3.6 5.45 3.6 Q5.5 6.0 6.5 6.95 7.55 7.85 9.65 7.85 L11.05 7.75 12.5 7.45 12.5 9.8 9.65 10.0 9.0 10.0 6.4 9.6 Q5.35 9.2 4.65 8.2 3.95 7.25 3.6 5.55 3.25 3.95 3.25 1.4 3.25 -1.7 4.85 -3.3 6.35 -5.0 8.85 -5.0 M19.3 -4.65 L21.2 -4.95 Q23.05 -4.95 24.7 -4.05 L24.7 -9.5 26.85 -10.0 26.85 9.9 25.85 9.9 25.25 8.65 Q23.85 10.0 21.35 10.0 L19.15 9.65 Q18.25 9.35 17.55 8.5 16.85 7.7 16.5 6.25 16.15 4.8 16.15 2.55 16.15 0.2 16.6 -1.25 17.0 -2.75 17.65 -3.55 18.35 -4.35 19.3 -4.65 M18.7 -1.15 Q18.4 -0.4 18.35 0.75 L18.3 3.4 Q18.3 4.75 18.55 5.6 18.75 6.5 19.15 7.0 L20.25 7.65 22.0 7.8 Q23.95 7.8 24.75 6.1 L24.8 6.1 24.8 -1.0 Q23.85 -2.7 21.45 -2.7 L19.65 -2.3 Q19.0 -1.95 18.7 -1.15 M29.8 -8.9 L32.0 -8.9 31.45 4.0 30.7 4.0 29.8 -5.45 29.8 -8.9 M32.05 7.75 Q32.45 8.15 32.45 8.65 32.45 9.25 32.05 9.6 31.65 10.0 31.1 10.0 30.55 10.0 30.1 9.6 29.65 9.25 29.65 8.65 29.65 8.15 30.1 7.75 30.55 7.35 31.1 7.35 31.65 7.35 32.05 7.75 M-29.85 -8.9 L-25.65 8.2 -21.45 -8.9 -18.95 -8.9 -24.1 9.9 -27.35 9.9 -32.4 -8.9 -29.85 -8.9 M-13.25 -2.75 Q-13.9 -2.65 -14.35 -2.1 L-15.0 -0.45 -15.2 2.55 -15.0 5.55 Q-14.75 6.6 -14.3 7.05 -13.9 7.55 -13.25 7.7 L-11.85 7.75 -10.6 7.65 -9.55 7.0 Q-9.15 6.5 -8.9 5.45 -8.65 4.4 -8.65 2.6 -8.65 0.75 -8.8 -0.3 -9.05 -1.35 -9.45 -1.95 -9.9 -2.5 -10.5 -2.7 L-11.85 -2.85 -13.25 -2.75 M-14.2 -4.7 L-11.85 -5.0 -9.65 -4.7 Q-8.65 -4.4 -7.95 -3.55 -7.25 -2.75 -7.0 -1.3 -6.55 0.2 -6.55 2.5 -6.55 4.85 -6.9 6.3 -7.2 7.75 -7.9 8.6 -8.55 9.4 -9.5 9.7 L-11.85 10.0 -14.2 9.65 Q-15.2 9.35 -15.9 8.55 -16.6 7.75 -16.95 6.25 -17.35 4.8 -17.35 2.5 -17.35 0.15 -16.95 -1.35 -16.6 -2.8 -15.85 -3.6 -15.15 -4.4 -14.2 -4.7" fill="#eeb211" fill-rule="evenodd" stroke="none"/>
  </g>
</svg>
