<?xml version="1.0" encoding="UTF-8" standalone="no"?>
<svg xmlns:xlink="http://www.w3.org/1999/xlink" height="33.2px" width="150.65px" xmlns="http://www.w3.org/2000/svg">
  <g transform="matrix(1.0, 0.0, 0.0, 1.0, -7.35, 0.6)">
    <path d="M122.95 4.25 L122.95 4.15 113.65 4.15 113.65 4.25 111.55 4.25 111.55 6.35 111.45 6.35 111.45 26.7 122.95 26.7 122.95 26.3 124.8 26.3 124.8 24.5 125.15 24.5 125.15 17.4 120.25 17.4 120.25 21.8 116.35 21.8 116.35 9.05 120.25 9.05 120.25 13.45 125.15 13.45 125.15 4.25 122.95 4.25 M132.15 9.05 L138.75 9.05 138.75 4.15 127.25 4.15 127.25 26.7 138.75 26.7 138.75 21.8 132.15 21.8 132.15 17.9 138.75 17.9 138.75 13.0 132.15 13.0 132.15 9.05 M145.7 21.8 L145.7 4.15 140.8 4.15 140.8 26.7 152.3 26.7 152.3 21.8 145.7 21.8 M157.0 0.4 L157.0 31.55 54.35 31.55 Q26.45 32.35 16.55 23.3 6.6 14.2 8.75 0.4 L157.0 0.4 M75.55 4.25 L75.55 4.15 66.25 4.15 66.25 4.25 64.15 4.25 64.15 6.35 64.05 6.35 64.05 26.7 75.55 26.7 75.55 26.3 77.4 26.3 77.4 24.5 77.75 24.5 77.75 17.4 72.85 17.4 72.85 21.8 68.95 21.8 68.95 9.05 72.85 9.05 72.85 13.45 77.75 13.45 77.75 4.25 75.55 4.25 M95.65 26.7 L100.55 26.7 100.55 9.05 104.45 9.05 104.45 26.7 109.35 26.7 109.35 4.15 95.65 4.15 95.65 26.7 M88.65 13.0 L84.75 13.0 84.75 9.05 88.65 9.05 88.65 13.0 M84.75 17.9 L88.65 17.9 88.65 26.7 93.55 26.7 93.55 4.15 79.85 4.15 79.85 26.7 84.75 26.7 84.75 17.9 M46.85 5.55 L42.65 14.3 42.65 15.9 47.2 25.6 48.8 25.6 48.8 5.55 46.85 5.55 M55.2 5.55 L51.0 14.3 51.0 15.9 55.55 25.6 57.15 25.6 57.15 5.55 55.2 5.55 M40.5 5.55 L38.5 5.55 34.3 14.35 34.3 15.9 38.85 25.55 40.5 25.55 40.5 5.55" fill="#5faefe" fill-rule="evenodd" stroke="none"/>
    <path d="M145.7 21.8 L152.3 21.8 152.3 26.7 140.8 26.7 140.8 4.15 145.7 4.15 145.7 21.8 M132.15 9.05 L132.15 13.0 138.75 13.0 138.75 17.9 132.15 17.9 132.15 21.8 138.75 21.8 138.75 26.7 127.25 26.7 127.25 4.15 138.75 4.15 138.75 9.05 132.15 9.05 M122.95 4.25 L125.15 4.25 125.15 13.45 120.25 13.45 120.25 9.05 116.35 9.05 116.35 21.8 120.25 21.8 120.25 17.4 125.15 17.4 125.15 24.5 124.8 24.5 124.8 26.3 122.95 26.3 122.95 26.7 111.45 26.7 111.45 6.35 111.55 6.35 111.55 4.25 113.65 4.25 113.65 4.15 122.95 4.15 122.95 4.25 M84.75 17.9 L84.75 26.7 79.85 26.7 79.85 4.15 93.55 4.15 93.55 26.7 88.65 26.7 88.65 17.9 84.75 17.9 M88.65 13.0 L88.65 9.05 84.75 9.05 84.75 13.0 88.65 13.0 M95.65 26.7 L95.65 4.15 109.35 4.15 109.35 26.7 104.45 26.7 104.45 9.05 100.55 9.05 100.55 26.7 95.65 26.7 M75.55 4.25 L77.75 4.25 77.75 13.45 72.85 13.45 72.85 9.05 68.95 9.05 68.95 21.8 72.85 21.8 72.85 17.4 77.75 17.4 77.75 24.5 77.4 24.5 77.4 26.3 75.55 26.3 75.55 26.7 64.05 26.7 64.05 6.35 64.15 6.35 64.15 4.25 66.25 4.25 66.25 4.15 75.55 4.15 75.55 4.25 M40.5 5.55 L40.5 25.55 38.85 25.55 34.3 15.9 34.3 14.35 38.5 5.55 40.5 5.55 M55.2 5.55 L57.15 5.55 57.15 25.6 55.55 25.6 51.0 15.9 51.0 14.3 55.2 5.55 M46.85 5.55 L48.8 5.55 48.8 25.6 47.2 25.6 42.65 15.9 42.65 14.3 46.85 5.55" fill="#ffffff" fill-rule="evenodd" stroke="none"/>
    <path d="M157.0 0.4 L8.75 0.4 Q6.6 14.2 16.55 23.3 26.45 32.35 54.35 31.55 L157.0 31.55 157.0 0.4 Z" fill="none" stroke="#ffffff" stroke-linecap="square" stroke-linejoin="miter-clip" stroke-miterlimit="3.0" stroke-width="1.5"/>
  </g>
</svg>
