<?xml version="1.0" encoding="UTF-8" standalone="no"?>
<svg xmlns:xlink="http://www.w3.org/1999/xlink" height="309.95px" width="345.45px" xmlns="http://www.w3.org/2000/svg">
  <g transform="matrix(1.0, 0.0, 0.0, 1.0, 1.25, 1.25)">
    <path d="M338.95 1.35 Q336.65 0.0 332.95 0.0 L10.0 0.0 Q0.0 0.0 0.0 10.0 L0.0 307.45 342.95 307.45 342.95 10.0 Q342.95 3.7 338.95 1.35 Z" fill="none" stroke="url(#gradient0)" stroke-linecap="round" stroke-linejoin="round" stroke-width="2.5"/>
    <path d="M333.95 298.95 L333.95 32.0 7.0 32.0 7.0 298.95 333.95 298.95 M332.95 0.0 Q336.65 0.0 338.95 1.35 342.95 3.7 342.95 10.0 L342.95 307.45 0.0 307.45 0.0 10.0 Q0.0 0.0 10.0 0.0 L332.95 0.0" fill="url(#gradient1)" fill-rule="evenodd" stroke="none"/>
    <path d="M316.9 28.2 L311.3 28.2 316.0 27.8 316.9 28.2 M338.95 3.4 L338.95 8.0 319.45 10.65 Q310.3 12.25 302.9 15.35 L304.4 17.2 329.15 28.2 324.35 28.2 Q310.7 24.6 297.9 18.95 294.75 17.55 295.0 14.4 L291.4 13.2 289.2 10.2 Q282.3 11.85 275.9 10.4 264.75 8.0 255.2 14.9 L253.75 15.7 252.6 17.35 251.2 18.0 249.6 20.35 249.55 22.4 Q265.95 26.9 283.1 28.2 L167.85 28.2 214.4 26.55 Q219.65 24.1 223.25 19.8 L225.65 16.35 Q226.25 15.3 226.2 14.2 L220.75 9.95 215.05 7.95 214.2 6.45 169.05 4.2 Q177.65 5.55 184.95 10.1 L185.8 11.0 185.35 13.95 Q156.8 23.8 127.45 28.2 L93.1 28.2 98.0 26.2 Q118.75 25.1 136.1 14.45 139.3 12.5 139.2 8.5 L121.4 3.4 338.95 3.4" fill="url(#gradient2)" fill-rule="evenodd" stroke="none"/>
  </g>
  <defs>
    <linearGradient gradientTransform="matrix(0.0101, -0.0114, 0.1414, 0.1254, 163.05, 148.05)" gradientUnits="userSpaceOnUse" id="gradient0" spreadMethod="pad" x1="-819.2" x2="819.2">
      <stop offset="0.0" stop-color="#262626"/>
      <stop offset="1.0" stop-color="#999999"/>
    </linearGradient>
    <linearGradient gradientTransform="matrix(0.1359, -0.1359, 0.1327, 0.1327, 225.95, 122.05)" gradientUnits="userSpaceOnUse" id="gradient1" spreadMethod="pad" x1="-819.2" x2="819.2">
      <stop offset="0.06274509803921569" stop-color="#555555"/>
      <stop offset="0.16470588235294117" stop-color="#888888"/>
      <stop offset="0.32941176470588235" stop-color="#555555"/>
      <stop offset="0.4549019607843137" stop-color="#444444"/>
      <stop offset="0.5490196078431373" stop-color="#444444"/>
      <stop offset="0.6274509803921569" stop-color="#555555"/>
      <stop offset="0.8666666666666667" stop-color="#777777"/>
      <stop offset="0.9333333333333333" stop-color="#4d4d4d"/>
      <stop offset="1.0" stop-color="#555555"/>
    </linearGradient>
    <radialGradient cx="0" cy="0" gradientTransform="matrix(1.1799, 0.0, 0.0, 0.0495, 176.0, 12.8)" gradientUnits="userSpaceOnUse" id="gradient2" r="819.2" spreadMethod="pad">
      <stop offset="0.4235294117647059" stop-color="#959595" stop-opacity="0.16078432"/>
      <stop offset="1.0" stop-color="#7b7b7b"/>
    </radialGradient>
  </defs>
</svg>
