<?xml version="1.0" encoding="UTF-8" standalone="no"?>
<svg xmlns:xlink="http://www.w3.org/1999/xlink" height="24.2px" width="166.5px" xmlns="http://www.w3.org/2000/svg">
  <g transform="matrix(1.0, 0.0, 0.0, 1.0, 1.0, 0.6)">
    <path d="M164.5 0.4 L164.5 22.6 38.75 22.6 Q22.2 22.6 10.45 13.85 2.55 7.95 0.0 0.4 L164.5 0.4 M47.35 15.7 L47.35 13.05 50.05 13.05 50.05 15.7 47.35 15.7 M47.35 7.55 L48.65 7.55 48.65 10.2 47.35 10.2 47.35 7.55 M59.7 7.55 L59.7 10.2 57.0 10.2 57.0 7.55 59.7 7.55 M52.85 11.6 L51.5 11.6 51.5 4.7 44.55 4.7 44.55 18.55 52.85 18.55 52.85 11.6 M62.5 18.55 L62.5 4.7 54.2 4.7 54.2 18.55 57.0 18.55 57.0 13.05 59.7 13.05 59.7 18.55 62.5 18.55 M72.15 10.3 L72.15 4.75 70.8 4.75 70.8 4.7 65.2 4.7 65.2 4.75 63.9 4.75 63.9 6.1 63.85 6.1 63.85 18.55 70.8 18.55 70.8 18.5 72.15 18.5 72.15 12.95 69.35 12.95 69.35 15.7 66.65 15.7 66.65 7.55 69.35 7.55 69.35 10.3 72.15 10.3 M81.8 10.3 L81.8 4.7 79.0 4.7 79.0 10.2 76.3 10.2 76.3 4.7 73.5 4.7 73.5 18.55 76.3 18.55 76.3 13.05 79.0 13.05 79.0 18.55 81.8 18.55 81.8 12.95 80.45 12.95 80.45 10.3 81.8 10.3 M92.85 7.55 L95.6 7.55 95.6 4.7 87.3 4.7 87.3 7.55 90.05 7.55 90.05 18.55 92.85 18.55 92.85 7.55 M102.45 7.55 L102.45 15.7 99.75 15.7 99.75 7.55 102.45 7.55 M103.9 18.5 L105.25 18.5 105.25 4.7 98.3 4.7 98.3 4.75 97.0 4.75 97.0 6.1 96.95 6.1 96.95 18.55 103.9 18.55 103.9 18.5 M121.75 18.55 L124.55 18.55 124.55 4.7 110.75 4.7 110.75 18.55 113.55 18.55 113.55 7.55 116.25 7.55 116.25 18.55 119.05 18.55 119.05 7.55 121.75 7.55 121.75 18.55 M132.85 7.55 L132.85 4.7 125.9 4.7 125.9 18.55 132.85 18.55 132.85 15.7 128.7 15.7 128.7 13.05 132.85 13.05 132.85 10.2 128.7 10.2 128.7 7.55 132.85 7.55 M142.45 18.55 L142.45 4.7 134.15 4.7 134.15 18.55 136.95 18.55 136.95 7.55 139.65 7.55 139.65 18.55 142.45 18.55 M146.6 4.7 L143.8 4.7 143.8 18.55 150.75 18.55 150.75 18.5 152.1 18.5 152.1 4.7 149.3 4.7 149.3 15.7 146.6 15.7 146.6 4.7 M40.75 4.05 L39.35 4.05 36.35 10.3 36.35 11.45 39.6 18.35 40.75 18.35 40.75 4.05 M33.4 4.05 L30.4 10.3 30.4 11.45 33.65 18.35 34.8 18.35 34.8 4.05 33.4 4.05 M27.45 4.05 L24.45 10.35 24.45 11.45 27.7 18.3 28.85 18.3 28.85 4.05 27.45 4.05" fill="#2e4f63" fill-rule="evenodd" stroke="none"/>
    <path d="M27.45 4.05 L28.85 4.05 28.85 18.3 27.7 18.3 24.45 11.45 24.45 10.35 27.45 4.05 M33.4 4.05 L34.8 4.05 34.8 18.35 33.65 18.35 30.4 11.45 30.4 10.3 33.4 4.05 M40.75 4.05 L40.75 18.35 39.6 18.35 36.35 11.45 36.35 10.3 39.35 4.05 40.75 4.05" fill="#366274" fill-rule="evenodd" stroke="none"/>
    <path d="M146.6 4.7 L146.6 15.7 149.3 15.7 149.3 4.7 152.1 4.7 152.1 18.5 150.75 18.5 150.75 18.55 143.8 18.55 143.8 4.7 146.6 4.7 M142.45 18.55 L139.65 18.55 139.65 7.55 136.95 7.55 136.95 18.55 134.15 18.55 134.15 4.7 142.45 4.7 142.45 18.55 M132.85 7.55 L128.7 7.55 128.7 10.2 132.85 10.2 132.85 13.05 128.7 13.05 128.7 15.7 132.85 15.7 132.85 18.55 125.9 18.55 125.9 4.7 132.85 4.7 132.85 7.55 M121.75 18.55 L121.75 7.55 119.05 7.55 119.05 18.55 116.25 18.55 116.25 7.55 113.55 7.55 113.55 18.55 110.75 18.55 110.75 4.7 124.55 4.7 124.55 18.55 121.75 18.55 M103.9 18.5 L103.9 18.55 96.95 18.55 96.95 6.1 97.0 6.1 97.0 4.75 98.3 4.75 98.3 4.7 105.25 4.7 105.25 18.5 103.9 18.5 M102.45 7.55 L99.75 7.55 99.75 15.7 102.45 15.7 102.45 7.55 M92.85 7.55 L92.85 18.55 90.05 18.55 90.05 7.55 87.3 7.55 87.3 4.7 95.6 4.7 95.6 7.55 92.85 7.55 M81.8 10.3 L80.45 10.3 80.45 12.95 81.8 12.95 81.8 18.55 79.0 18.55 79.0 13.05 76.3 13.05 76.3 18.55 73.5 18.55 73.5 4.7 76.3 4.7 76.3 10.2 79.0 10.2 79.0 4.7 81.8 4.7 81.8 10.3 M72.15 10.3 L69.35 10.3 69.35 7.55 66.65 7.55 66.65 15.7 69.35 15.7 69.35 12.95 72.15 12.95 72.15 18.5 70.8 18.5 70.8 18.55 63.85 18.55 63.85 6.1 63.9 6.1 63.9 4.75 65.2 4.75 65.2 4.7 70.8 4.7 70.8 4.75 72.15 4.75 72.15 10.3 M62.5 18.55 L59.7 18.55 59.7 13.05 57.0 13.05 57.0 18.55 54.2 18.55 54.2 4.7 62.5 4.7 62.5 18.55 M52.85 11.6 L52.85 18.55 44.55 18.55 44.55 4.7 51.5 4.7 51.5 11.6 52.85 11.6 M59.7 7.55 L57.0 7.55 57.0 10.2 59.7 10.2 59.7 7.55 M47.35 7.55 L47.35 10.2 48.65 10.2 48.65 7.55 47.35 7.55 M47.35 15.7 L50.05 15.7 50.05 13.05 47.35 13.05 47.35 15.7" fill="#6389ad" fill-rule="evenodd" stroke="none"/>
    <path d="M164.5 0.4 L0.0 0.4 Q2.55 7.95 10.45 13.85 22.2 22.6 38.75 22.6 L164.5 22.6 164.5 0.4 Z" fill="none" stroke="#6389ad" stroke-linecap="square" stroke-linejoin="miter-clip" stroke-miterlimit="3.0" stroke-width="1.5"/>
  </g>
</svg>
