<?xml version="1.0" encoding="UTF-8" standalone="no"?>
<svg xmlns:xlink="http://www.w3.org/1999/xlink" height="24.2px" width="169.95px" xmlns="http://www.w3.org/2000/svg">
  <g transform="matrix(1.0, 0.0, 0.0, 1.0, 1.0, 0.6)">
    <path d="M123.4 4.0 L126.65 10.9 126.65 12.05 123.65 18.3 122.25 18.3 122.25 4.0 123.4 4.0 M132.6 10.9 L132.6 12.05 129.6 18.3 128.2 18.3 128.2 4.0 129.35 4.0 132.6 10.9 M135.3 4.05 L138.55 10.9 138.55 12.0 135.55 18.3 134.15 18.3 134.15 4.05 135.3 4.05" fill="#366274" fill-rule="evenodd" stroke="none"/>
    <path d="M135.3 4.05 L134.15 4.05 134.15 18.3 135.55 18.3 138.55 12.0 138.55 10.9 135.3 4.05 M132.6 10.9 L129.35 4.0 128.2 4.0 128.2 18.3 129.6 18.3 132.6 12.05 132.6 10.9 M123.4 4.0 L122.25 4.0 122.25 18.3 123.65 18.3 126.65 12.05 126.65 10.9 123.4 4.0 M157.4 13.85 Q145.7 22.6 129.15 22.6 L0.0 22.6 0.0 0.4 167.95 0.4 Q165.35 7.95 157.4 13.85 M22.6 7.55 L22.6 4.7 15.65 4.7 15.65 18.55 22.6 18.55 22.6 15.7 18.45 15.7 18.45 13.05 22.6 13.05 22.6 10.2 18.45 10.2 18.45 7.55 22.6 7.55 M36.35 7.55 L39.05 7.55 39.05 10.2 36.35 10.2 36.35 7.55 M32.2 11.65 L30.85 11.65 30.85 10.3 32.2 10.3 32.2 4.7 29.4 4.7 29.4 10.2 26.7 10.2 26.7 4.7 23.9 4.7 23.9 10.3 25.25 10.3 25.25 11.65 23.95 11.65 23.95 12.95 23.9 12.95 23.9 18.55 26.7 18.55 26.7 13.05 29.4 13.05 29.4 18.55 32.2 18.55 32.2 11.65 M40.5 13.0 L41.85 13.0 41.85 4.7 33.55 4.7 33.55 18.55 36.35 18.55 36.35 13.05 40.5 13.05 40.5 13.0 M46.0 7.55 L48.7 7.55 48.7 15.7 46.0 15.7 46.0 7.55 M44.55 4.7 L44.55 4.75 43.25 4.75 43.25 6.1 43.2 6.1 43.2 18.55 50.15 18.55 50.15 18.5 51.5 18.5 51.5 4.7 44.55 4.7 M55.65 10.2 L55.65 7.55 58.35 7.55 58.35 10.2 55.65 10.2 M68.05 7.55 L70.8 7.55 70.8 4.7 62.5 4.7 62.5 7.55 65.25 7.55 65.25 18.55 68.05 18.55 68.05 7.55 M61.15 11.65 L61.15 4.7 52.85 4.7 52.85 18.55 55.65 18.55 55.65 13.05 58.35 13.05 58.35 18.55 61.15 18.55 61.15 12.95 59.8 12.95 59.8 11.65 61.15 11.65 M77.65 6.1 L76.25 6.1 76.25 8.85 74.9 8.85 74.9 11.6 73.5 11.6 73.5 14.35 72.15 14.35 72.15 18.55 74.95 18.55 74.95 15.8 76.35 15.8 76.35 13.05 77.7 13.05 77.7 10.3 79.1 10.3 79.1 7.55 80.45 7.55 80.45 4.7 77.65 4.7 77.65 6.1 M81.85 4.75 L81.85 6.1 81.8 6.1 81.8 13.05 87.3 13.05 87.3 15.7 81.8 15.7 81.8 18.55 88.75 18.55 88.75 18.5 90.1 18.5 90.1 10.2 84.6 10.2 84.6 7.55 90.1 7.55 90.1 4.7 83.15 4.7 83.15 4.75 81.85 4.75 M99.75 4.7 L91.45 4.7 91.45 18.55 94.25 18.55 94.25 13.05 96.95 13.05 96.95 18.55 99.75 18.55 99.75 4.7 M96.95 7.55 L96.95 10.2 94.25 10.2 94.25 7.55 96.95 7.55 M109.4 4.7 L106.6 4.7 106.6 14.35 105.2 14.35 105.2 15.7 103.9 15.7 103.9 4.7 101.1 4.7 101.1 18.55 106.65 18.55 106.65 17.15 108.05 17.15 108.05 15.8 109.4 15.8 109.4 4.7 M117.7 10.2 L113.55 10.2 113.55 7.55 117.7 7.55 117.7 4.7 110.75 4.7 110.75 18.55 117.7 18.55 117.7 15.7 113.55 15.7 113.55 13.05 117.7 13.05 117.7 10.2" fill="#2e4f63" fill-rule="evenodd" stroke="none"/>
    <path d="M117.7 10.2 L117.7 13.05 113.55 13.05 113.55 15.7 117.7 15.7 117.7 18.55 110.75 18.55 110.75 4.7 117.7 4.7 117.7 7.55 113.55 7.55 113.55 10.2 117.7 10.2 M109.4 4.7 L109.4 15.8 108.05 15.8 108.05 17.15 106.65 17.15 106.65 18.55 101.1 18.55 101.1 4.7 103.9 4.7 103.9 15.7 105.2 15.7 105.2 14.35 106.6 14.35 106.6 4.7 109.4 4.7 M96.95 7.55 L94.25 7.55 94.25 10.2 96.95 10.2 96.95 7.55 M99.75 4.7 L99.75 18.55 96.95 18.55 96.95 13.05 94.25 13.05 94.25 18.55 91.45 18.55 91.45 4.7 99.75 4.7 M81.85 4.75 L83.15 4.75 83.15 4.7 90.1 4.7 90.1 7.55 84.6 7.55 84.6 10.2 90.1 10.2 90.1 18.5 88.75 18.5 88.75 18.55 81.8 18.55 81.8 15.7 87.3 15.7 87.3 13.05 81.8 13.05 81.8 6.1 81.85 6.1 81.85 4.75 M77.65 6.1 L77.65 4.7 80.45 4.7 80.45 7.55 79.1 7.55 79.1 10.3 77.7 10.3 77.7 13.05 76.35 13.05 76.35 15.8 74.95 15.8 74.95 18.55 72.15 18.55 72.15 14.35 73.5 14.35 73.5 11.6 74.9 11.6 74.9 8.85 76.25 8.85 76.25 6.1 77.65 6.1 M61.15 11.65 L59.8 11.65 59.8 12.95 61.15 12.95 61.15 18.55 58.35 18.55 58.35 13.05 55.65 13.05 55.65 18.55 52.85 18.55 52.85 4.7 61.15 4.7 61.15 11.65 M68.05 7.55 L68.05 18.55 65.25 18.55 65.25 7.55 62.5 7.55 62.5 4.7 70.8 4.7 70.8 7.55 68.05 7.55 M55.65 10.2 L58.35 10.2 58.35 7.55 55.65 7.55 55.65 10.2 M44.55 4.7 L51.5 4.7 51.5 18.5 50.15 18.5 50.15 18.55 43.2 18.55 43.2 6.1 43.25 6.1 43.25 4.75 44.55 4.75 44.55 4.7 M46.0 7.55 L46.0 15.7 48.7 15.7 48.7 7.55 46.0 7.55 M40.5 13.0 L40.5 13.05 36.35 13.05 36.35 18.55 33.55 18.55 33.55 4.7 41.85 4.7 41.85 13.0 40.5 13.0 M32.2 11.65 L32.2 18.55 29.4 18.55 29.4 13.05 26.7 13.05 26.7 18.55 23.9 18.55 23.9 12.95 23.95 12.95 23.95 11.65 25.25 11.65 25.25 10.3 23.9 10.3 23.9 4.7 26.7 4.7 26.7 10.2 29.4 10.2 29.4 4.7 32.2 4.7 32.2 10.3 30.85 10.3 30.85 11.65 32.2 11.65 M36.35 7.55 L36.35 10.2 39.05 10.2 39.05 7.55 36.35 7.55 M22.6 7.55 L18.45 7.55 18.45 10.2 22.6 10.2 22.6 13.05 18.45 13.05 18.45 15.7 22.6 15.7 22.6 18.55 15.65 18.55 15.65 4.7 22.6 4.7 22.6 7.55" fill="#6389ad" fill-rule="evenodd" stroke="none"/>
    <path d="M157.4 13.85 Q165.35 7.95 167.95 0.4 L0.0 0.4 0.0 22.6 129.15 22.6 Q145.7 22.6 157.4 13.85 Z" fill="none" stroke="#6389ad" stroke-linecap="square" stroke-linejoin="miter-clip" stroke-miterlimit="3.0" stroke-width="1.5"/>
  </g>
</svg>
