<?xml version="1.0" encoding="UTF-8" standalone="no"?>
<svg xmlns:xlink="http://www.w3.org/1999/xlink" height="26.95px" width="26.95px" xmlns="http://www.w3.org/2000/svg">
  <g transform="matrix(1.0, 0.0, 0.0, 1.0, 1.0, 1.0)">
    <path d="M22.95 13.3 L22.95 13.5 22.9 13.5 Q22.4 15.9 19.95 17.75 16.9 20.05 12.6 20.05 8.3 20.05 5.25 17.75 2.85 15.9 2.35 13.5 L2.3 13.3 Q12.4 7.6 22.95 13.3 L22.9 13.35 22.95 13.3 M16.7 11.8 Q14.8 11.0 12.5 11.0 10.15 11.0 8.3 11.8 8.0 12.5 8.0 13.35 8.0 15.2 9.3 16.5 10.65 17.85 12.5 17.85 14.35 17.85 15.7 16.5 17.0 15.2 17.0 13.35 L16.7 11.8 M20.0 9.0 Q21.95 10.45 22.65 12.35 12.6 5.5 2.6 12.35 3.3 10.45 5.25 9.0 8.3 6.7 12.6 6.7 16.9 6.7 20.0 9.0" fill="#5faefe" fill-rule="evenodd" stroke="none"/>
    <path d="M2.35 13.5 L2.3 13.5 2.3 13.35 2.3 13.3 2.35 13.5 M22.95 13.3 L22.9 13.35 22.95 13.3" fill="#ffffff" fill-rule="evenodd" stroke="none"/>
    <path d="M2.35 13.5 Q2.85 15.9 5.25 17.75 8.3 20.05 12.6 20.05 16.9 20.05 19.95 17.75 22.4 15.9 22.9 13.5 L22.95 13.5 22.95 13.3 Q12.4 7.6 2.3 13.3 L2.3 13.35 2.3 13.5 2.35 13.5 M21.95 0.0 Q24.95 0.0 24.95 3.0 L24.95 21.95 Q24.95 24.95 21.95 24.95 L3.0 24.95 Q0.0 24.95 0.0 21.95 L0.0 3.0 Q0.0 0.0 3.0 0.0 L21.95 0.0 M16.7 11.8 L17.0 13.35 Q17.0 15.2 15.7 16.5 14.35 17.85 12.5 17.85 10.65 17.85 9.3 16.5 8.0 15.2 8.0 13.35 8.0 12.5 8.3 11.8 10.15 11.0 12.5 11.0 14.8 11.0 16.7 11.8 M20.0 9.0 Q16.9 6.7 12.6 6.7 8.3 6.7 5.25 9.0 3.3 10.45 2.6 12.35 12.6 5.5 22.65 12.35 21.95 10.45 20.0 9.0" fill="#01498f" fill-rule="evenodd" stroke="none"/>
    <path d="M21.95 0.0 L3.0 0.0 Q0.0 0.0 0.0 3.0 L0.0 21.95 Q0.0 24.95 3.0 24.95 L21.95 24.95 Q24.95 24.95 24.95 21.95 L24.95 3.0 Q24.95 0.0 21.95 0.0 Z" fill="none" stroke="#5faefe" stroke-linecap="square" stroke-linejoin="miter-clip" stroke-miterlimit="3.0" stroke-width="1.5"/>
  </g>
</svg>
