<?xml version="1.0" encoding="UTF-8" standalone="no"?>
<svg xmlns:xlink="http://www.w3.org/1999/xlink" height="26.95px" width="26.95px" xmlns="http://www.w3.org/2000/svg">
  <g transform="matrix(1.0, 0.0, 0.0, 1.0, 1.0, 1.0)">
    <path d="M20.55 23.5 L21.45 9.55 19.4 9.55 18.6 22.55 17.5 22.55 18.1 9.55 13.05 9.55 13.0 22.55 11.85 22.55 11.8 9.55 6.75 9.55 7.45 22.55 6.3 22.55 5.45 9.55 3.75 9.55 4.7 23.5 20.55 23.5 M21.95 0.0 Q24.95 0.0 24.95 3.0 L24.95 21.95 Q24.95 24.95 21.95 24.95 L3.0 24.95 Q0.0 24.95 0.0 21.95 L0.0 3.0 Q0.0 0.0 3.0 0.0 L21.95 0.0 M23.5 8.6 L21.75 4.0 17.1 4.0 17.1 2.2 8.7 2.2 8.7 4.0 3.75 4.0 2.0 8.6 23.5 8.6 M15.5 4.95 L9.85 4.95 9.85 3.1 15.5 3.1 15.5 4.95" fill="#5faefe" fill-rule="evenodd" stroke="none"/>
    <path d="M20.55 23.5 L4.7 23.5 3.75 9.55 5.45 9.55 6.3 22.55 7.45 22.55 6.75 9.55 11.8 9.55 11.85 22.55 13.0 22.55 13.05 9.55 18.1 9.55 17.5 22.55 18.6 22.55 19.4 9.55 21.45 9.55 20.55 23.5 M23.5 8.6 L2.0 8.6 3.75 4.0 8.7 4.0 8.7 2.2 17.1 2.2 17.1 4.0 21.75 4.0 23.5 8.6 M15.5 4.95 L15.5 3.1 9.85 3.1 9.85 4.95 15.5 4.95" fill="#ffffff" fill-rule="evenodd" stroke="none"/>
    <path d="M21.95 0.0 L3.0 0.0 Q0.0 0.0 0.0 3.0 L0.0 21.95 Q0.0 24.95 3.0 24.95 L21.95 24.95 Q24.95 24.95 24.95 21.95 L24.95 3.0 Q24.95 0.0 21.95 0.0 Z" fill="none" stroke="#ffffff" stroke-linecap="square" stroke-linejoin="miter-clip" stroke-miterlimit="3.0" stroke-width="1.5"/>
  </g>
</svg>
