<?xml version="1.0" encoding="UTF-8" standalone="no"?>
<svg xmlns:xlink="http://www.w3.org/1999/xlink" height="26.95px" width="26.95px" xmlns="http://www.w3.org/2000/svg">
  <g transform="matrix(1.0, 0.0, 0.0, 1.0, 1.0, 1.0)">
    <path d="M21.65 20.45 L6.2 20.45 6.2 2.35 15.05 2.35 15.05 8.7 21.65 8.7 21.65 20.45 M16.15 2.85 L21.2 7.8 16.15 7.8 16.15 2.85 M5.25 4.6 L5.25 21.4 19.15 21.4 19.15 22.75 3.7 22.75 3.7 4.6 5.25 4.6" fill="#5faefe" fill-rule="evenodd" stroke="none"/>
    <path d="M24.95 3.0 L24.95 21.95 Q24.95 24.95 21.95 24.95 L3.0 24.95 Q0.0 24.95 0.0 21.95 L0.0 3.0 Q0.0 0.0 3.0 0.0 L21.95 0.0 Q24.95 0.0 24.95 3.0 M5.25 4.6 L3.7 4.6 3.7 22.75 19.15 22.75 19.15 21.4 5.25 21.4 5.25 4.6 M16.15 2.85 L16.15 7.8 21.2 7.8 16.15 2.85 M21.65 20.45 L21.65 8.7 15.05 8.7 15.05 2.35 6.2 2.35 6.2 20.45 21.65 20.45 M2.35 13.5 L2.3 13.3 2.3 13.35 2.3 13.5 2.35 13.5" fill="#01498f" fill-rule="evenodd" stroke="none"/>
    <path d="M24.95 3.0 Q24.95 0.0 21.95 0.0 L3.0 0.0 Q0.0 0.0 0.0 3.0 L0.0 21.95 Q0.0 24.95 3.0 24.95 L21.95 24.95 Q24.95 24.95 24.95 21.95 L24.95 3.0 Z" fill="none" stroke="#5faefe" stroke-linecap="square" stroke-linejoin="miter-clip" stroke-miterlimit="3.0" stroke-width="1.5"/>
  </g>
</svg>
