<?xml version="1.0" encoding="UTF-8" standalone="no"?>
<svg xmlns:xlink="http://www.w3.org/1999/xlink" height="26.95px" width="114.95px" xmlns="http://www.w3.org/2000/svg">
  <g transform="matrix(1.0, 0.0, 0.0, 1.0, 1.0, 1.0)">
    <path d="M101.7 8.5 L99.0 8.5 99.0 11.15 101.7 11.15 101.7 8.5 M101.7 14.0 L99.0 14.0 99.0 19.5 96.2 19.5 96.2 5.65 104.5 5.65 104.5 12.6 103.15 12.6 103.15 13.9 104.5 13.9 104.5 19.5 101.7 19.5 101.7 14.0 M94.9 8.5 L90.75 8.5 90.75 11.15 94.9 11.15 94.9 14.0 90.75 14.0 90.75 16.65 94.9 16.65 94.9 19.5 87.95 19.5 87.95 5.65 94.9 5.65 94.9 8.5 M86.6 5.65 L86.6 14.0 83.85 14.0 83.85 19.5 81.05 19.5 81.05 14.0 78.3 14.0 78.3 5.65 81.1 5.65 81.1 11.15 83.8 11.15 83.8 5.65 86.6 5.65 M71.45 8.5 L71.45 11.15 74.15 11.15 74.15 8.5 71.45 8.5 M67.35 19.5 L60.4 19.5 60.4 5.65 63.2 5.65 63.2 16.65 67.35 16.65 67.35 19.5 M71.45 19.5 L68.65 19.5 68.65 5.65 76.95 5.65 76.95 19.5 74.15 19.5 74.15 14.0 71.45 14.0 71.45 19.5 M54.9 5.65 L54.9 19.45 53.55 19.45 53.55 19.5 43.85 19.5 43.85 5.65 46.65 5.65 46.65 16.65 47.95 16.65 47.95 5.65 50.8 5.65 50.8 16.65 52.1 16.65 52.1 5.65 54.9 5.65 M42.55 8.5 L38.4 8.5 38.4 11.15 42.55 11.15 42.55 14.0 38.4 14.0 38.4 16.65 42.55 16.65 42.55 19.5 35.6 19.5 35.6 5.65 42.55 5.65 42.55 8.5 M25.95 19.5 L25.95 5.65 34.25 5.65 34.25 19.5 31.45 19.5 31.45 8.5 28.75 8.5 28.75 19.5 25.95 19.5 M20.0 9.05 L20.0 15.95 15.25 15.95 15.25 20.7 8.35 20.7 8.35 15.95 3.6 15.95 3.6 9.05 8.35 9.05 8.35 4.3 15.25 4.3 15.25 9.05 20.0 9.05" fill="#5faefe" fill-rule="evenodd" stroke="none"/>
    <path d="M101.7 14.0 L101.7 19.5 104.5 19.5 104.5 13.9 103.15 13.9 103.15 12.6 104.5 12.6 104.5 5.65 96.2 5.65 96.2 19.5 99.0 19.5 99.0 14.0 101.7 14.0 M101.7 8.5 L101.7 11.15 99.0 11.15 99.0 8.5 101.7 8.5 M109.95 0.0 Q112.95 0.0 112.95 3.0 L112.95 21.95 Q112.95 24.95 109.95 24.95 L3.0 24.95 Q0.0 24.95 0.0 21.95 L0.0 3.0 Q0.0 0.0 3.0 0.0 L109.95 0.0 M20.0 9.05 L15.25 9.05 15.25 4.3 8.35 4.3 8.35 9.05 3.6 9.05 3.6 15.95 8.35 15.95 8.35 20.7 15.25 20.7 15.25 15.95 20.0 15.95 20.0 9.05 M25.95 19.5 L28.75 19.5 28.75 8.5 31.45 8.5 31.45 19.5 34.25 19.5 34.25 5.65 25.95 5.65 25.95 19.5 M42.55 8.5 L42.55 5.65 35.6 5.65 35.6 19.5 42.55 19.5 42.55 16.65 38.4 16.65 38.4 14.0 42.55 14.0 42.55 11.15 38.4 11.15 38.4 8.5 42.55 8.5 M54.9 5.65 L52.1 5.65 52.1 16.65 50.8 16.65 50.8 5.65 47.95 5.65 47.95 16.65 46.65 16.65 46.65 5.65 43.85 5.65 43.85 19.5 53.55 19.5 53.55 19.45 54.9 19.45 54.9 5.65 M71.45 19.5 L71.45 14.0 74.15 14.0 74.15 19.5 76.95 19.5 76.95 5.65 68.65 5.65 68.65 19.5 71.45 19.5 M67.35 19.5 L67.35 16.65 63.2 16.65 63.2 5.65 60.4 5.65 60.4 19.5 67.35 19.5 M71.45 8.5 L74.15 8.5 74.15 11.15 71.45 11.15 71.45 8.5 M86.6 5.65 L83.8 5.65 83.8 11.15 81.1 11.15 81.1 5.65 78.3 5.65 78.3 14.0 81.05 14.0 81.05 19.5 83.85 19.5 83.85 14.0 86.6 14.0 86.6 5.65 M94.9 8.5 L94.9 5.65 87.95 5.65 87.95 19.5 94.9 19.5 94.9 16.65 90.75 16.65 90.75 14.0 94.9 14.0 94.9 11.15 90.75 11.15 90.75 8.5 94.9 8.5" fill="#01498f" fill-rule="evenodd" stroke="none"/>
    <path d="M109.95 0.0 L3.0 0.0 Q0.0 0.0 0.0 3.0 L0.0 21.95 Q0.0 24.95 3.0 24.95 L109.95 24.95 Q112.95 24.95 112.95 21.95 L112.95 3.0 Q112.95 0.0 109.95 0.0 Z" fill="none" stroke="#5faefe" stroke-linecap="square" stroke-linejoin="miter-clip" stroke-miterlimit="3.0" stroke-width="1.5"/>
  </g>
</svg>
