<?xml version="1.0" encoding="UTF-8" standalone="no"?>
<svg xmlns:xlink="http://www.w3.org/1999/xlink" height="17.95px" width="133.65px" xmlns="http://www.w3.org/2000/svg">
  <g transform="matrix(1.0, 0.0, 0.0, 1.0, 99.3, -11.85)">
    <path d="M34.35 21.55 L31.55 21.55 31.55 11.85 34.35 11.85 34.35 21.55 M34.35 22.85 L34.35 25.7 31.55 25.7 31.55 22.85 34.35 22.85 M30.25 16.0 L30.25 25.7 27.4 25.7 27.4 18.8 26.1 18.8 26.1 25.7 23.3 25.7 23.3 16.0 30.25 16.0 M21.95 14.7 L19.15 14.7 19.15 11.85 21.95 11.85 21.95 14.7 M4.0 16.05 L4.0 16.0 9.6 16.0 9.6 21.55 5.45 21.55 5.45 22.85 9.6 22.85 9.6 25.7 2.65 25.7 2.65 17.35 2.7 17.35 2.7 16.05 4.0 16.05 M5.45 18.8 L5.45 20.1 6.75 20.1 6.75 18.8 5.45 18.8 M10.95 16.05 L12.25 16.05 12.25 16.0 17.85 16.0 17.85 29.8 10.95 29.8 10.95 27.05 12.25 27.05 12.25 27.0 15.0 27.0 15.0 25.7 10.9 25.7 10.9 17.35 10.95 17.35 10.95 16.05 M15.0 22.85 L15.0 18.8 13.7 18.8 13.7 22.85 15.0 22.85 M1.35 25.65 L-0.05 25.65 -0.05 25.7 -5.6 25.7 -5.6 11.85 -2.8 11.85 -2.8 16.0 1.35 16.0 1.35 25.65 M19.15 16.0 L21.95 16.0 21.95 25.7 19.15 25.7 19.15 16.0 M-17.95 16.05 L-16.65 16.05 -16.65 16.0 -11.05 16.0 -11.05 25.65 -12.45 25.65 -12.45 25.7 -18.0 25.7 -18.0 17.35 -17.95 17.35 -17.95 16.05 M-15.2 22.85 L-13.9 22.85 -13.9 18.8 -15.2 18.8 -15.2 22.85 M-19.35 18.8 L-22.1 18.8 -22.1 22.85 -19.35 22.85 -19.35 25.7 -24.9 25.7 -24.9 13.25 -22.1 13.25 -22.1 16.0 -19.35 16.0 -19.35 18.8 M-2.8 22.85 L-1.5 22.85 -1.5 18.8 -2.8 18.8 -2.8 22.85 M-35.95 16.0 L-30.35 16.0 -30.35 21.55 -34.5 21.55 -34.5 22.85 -30.35 22.85 -30.35 25.7 -37.3 25.7 -37.3 17.35 -37.25 17.35 -37.25 16.05 -35.95 16.05 -35.95 16.0 M-33.2 18.8 L-34.5 18.8 -34.5 20.1 -33.2 20.1 -33.2 18.8 M-38.65 18.8 L-41.4 18.8 -41.4 25.7 -44.2 25.7 -44.2 16.0 -38.65 16.0 -38.65 18.8 M-57.9 11.85 L-57.9 16.0 -53.75 16.0 -53.75 25.7 -56.6 25.7 -56.6 18.8 -57.9 18.8 -57.9 25.7 -60.7 25.7 -60.7 11.85 -57.9 11.85 M-51.1 16.0 L-45.5 16.0 -45.5 21.55 -49.65 21.55 -49.65 22.85 -45.5 22.85 -45.5 25.7 -52.45 25.7 -52.45 17.35 -52.4 17.35 -52.4 16.05 -51.1 16.05 -51.1 16.0 M-49.65 18.8 L-49.65 20.1 -48.35 20.1 -48.35 18.8 -49.65 18.8 M-74.4 16.05 L-74.4 20.2 -77.25 20.2 -77.25 18.8 -78.55 18.8 -78.55 22.85 -77.25 22.85 -77.25 21.5 -74.4 21.5 -74.4 25.65 -75.8 25.65 -75.8 25.7 -81.35 25.7 -81.35 17.35 -81.3 17.35 -81.3 16.05 -80.0 16.05 -80.0 16.0 -75.8 16.0 -75.8 16.05 -74.4 16.05 M-66.15 18.8 L-67.55 18.8 -67.55 20.15 -66.15 20.15 -66.15 25.7 -69.0 25.7 -69.0 21.55 -70.3 21.55 -70.3 25.7 -73.1 25.7 -73.1 11.85 -70.3 11.85 -70.3 18.75 -69.0 18.75 -69.0 16.0 -66.15 16.0 -66.15 18.8 M-82.7 11.85 L-82.7 14.7 -85.5 14.7 -85.5 11.85 -82.7 11.85 M-86.85 11.85 L-86.85 25.7 -89.65 25.7 -89.65 11.85 -86.85 11.85 M-92.35 11.85 L-92.35 11.9 -91.0 11.9 -91.0 17.45 -93.8 17.45 -93.8 14.7 -96.5 14.7 -96.5 22.85 -93.8 22.85 -93.8 20.1 -91.0 20.1 -91.0 25.65 -92.35 25.65 -92.35 25.7 -99.3 25.7 -99.3 13.25 -99.25 13.25 -99.25 11.9 -97.95 11.9 -97.95 11.85 -92.35 11.85 M-82.7 16.0 L-82.7 25.7 -85.5 25.7 -85.5 16.0 -82.7 16.0" fill="#5faefe" fill-rule="evenodd" stroke="none"/>
  </g>
</svg>
