<?xml version="1.0" encoding="UTF-8" standalone="no"?>
<svg xmlns:xlink="http://www.w3.org/1999/xlink" height="48.55px" width="173.55px" xmlns="http://www.w3.org/2000/svg">
  <g transform="matrix(1.0, 0.0, 0.0, 1.0, 4.2, 1.85)">
    <path d="M145.25 13.65 L145.25 31.8 143.05 31.8 143.05 34.0 131.55 34.0 131.55 11.45 143.05 11.45 143.05 13.65 145.25 13.65 M158.85 11.45 L158.85 16.35 152.25 16.35 152.25 20.3 158.85 20.3 158.85 25.2 152.25 25.2 152.25 29.1 158.85 29.1 158.85 34.0 147.35 34.0 147.35 11.45 158.85 11.45 M124.55 16.35 L120.65 16.35 120.65 20.3 124.55 20.3 124.55 16.35 M136.45 16.35 L136.45 29.1 140.35 29.1 140.35 16.35 136.45 16.35 M124.55 25.2 L120.65 25.2 120.65 34.0 115.75 34.0 115.75 11.45 129.45 11.45 129.45 34.0 124.55 34.0 124.55 25.2 M104.65 16.35 L104.65 34.0 99.75 34.0 99.75 16.35 95.85 16.35 95.85 34.0 90.95 34.0 90.95 11.45 113.5 11.45 113.5 34.0 108.6 34.0 108.6 16.35 104.65 16.35 M88.9 27.45 L77.4 27.45 77.4 22.6 88.9 22.6 88.9 27.45 M61.75 22.95 L59.55 22.95 59.55 24.7 61.75 24.7 61.75 34.0 56.85 34.0 56.85 25.2 52.95 25.2 52.95 34.0 48.05 34.0 48.05 11.45 61.75 11.45 61.75 22.95 M75.35 11.45 L75.35 16.35 68.75 16.35 68.75 20.3 75.35 20.3 75.35 25.2 68.75 25.2 68.75 29.1 75.35 29.1 75.35 34.0 63.85 34.0 63.85 11.45 75.35 11.45 M41.05 16.35 L37.15 16.35 37.15 20.3 41.05 20.3 41.05 16.35 M52.95 20.3 L56.85 20.3 56.85 16.35 52.95 16.35 52.95 20.3 M43.75 25.15 L43.75 25.2 37.15 25.2 37.15 34.0 32.25 34.0 32.25 11.45 45.95 11.45 45.95 25.15 43.75 25.15 M20.55 14.6 L9.5 14.6 9.5 6.2 20.55 6.2 20.55 14.6 M15.65 40.45 L15.65 28.3 20.7 28.3 20.7 40.45 15.65 40.45 M9.65 28.3 L14.7 28.3 14.7 40.45 9.65 40.45 9.65 28.3 M3.5 15.35 L8.55 15.35 8.55 27.5 3.5 27.5 3.5 15.35 M21.45 15.35 L26.5 15.35 26.5 27.5 21.45 27.5 21.45 15.35 M20.55 15.35 L20.55 27.5 9.5 27.5 9.5 15.35 20.55 15.35" fill="#5faefe" fill-rule="evenodd" stroke="none"/>
    <path d="M4.8 -0.85 L160.35 -0.85 Q168.35 -0.85 168.35 7.2 L168.35 37.7 Q168.35 45.7 160.35 45.7 L4.8 45.7 Q-3.2 45.7 -3.2 37.7 L-3.2 7.2 Q-3.2 -0.85 4.8 -0.85 M20.55 14.6 L20.55 6.2 9.5 6.2 9.5 14.6 20.55 14.6 M43.75 25.15 L45.95 25.15 45.95 11.45 32.25 11.45 32.25 34.0 37.15 34.0 37.15 25.2 43.75 25.2 43.75 25.15 M52.95 20.3 L52.95 16.35 56.85 16.35 56.85 20.3 52.95 20.3 M41.05 16.35 L41.05 20.3 37.15 20.3 37.15 16.35 41.05 16.35 M75.35 11.45 L63.85 11.45 63.85 34.0 75.35 34.0 75.35 29.1 68.75 29.1 68.75 25.2 75.35 25.2 75.35 20.3 68.75 20.3 68.75 16.35 75.35 16.35 75.35 11.45 M61.75 22.95 L61.75 11.45 48.05 11.45 48.05 34.0 52.95 34.0 52.95 25.2 56.85 25.2 56.85 34.0 61.75 34.0 61.75 24.7 59.55 24.7 59.55 22.95 61.75 22.95 M88.9 27.45 L88.9 22.6 77.4 22.6 77.4 27.45 88.9 27.45 M104.65 16.35 L108.6 16.35 108.6 34.0 113.5 34.0 113.5 11.45 90.95 11.45 90.95 34.0 95.85 34.0 95.85 16.35 99.75 16.35 99.75 34.0 104.65 34.0 104.65 16.35 M124.55 25.2 L124.55 34.0 129.45 34.0 129.45 11.45 115.75 11.45 115.75 34.0 120.65 34.0 120.65 25.2 124.55 25.2 M136.45 16.35 L140.35 16.35 140.35 29.1 136.45 29.1 136.45 16.35 M124.55 16.35 L124.55 20.3 120.65 20.3 120.65 16.35 124.55 16.35 M158.85 11.45 L147.35 11.45 147.35 34.0 158.85 34.0 158.85 29.1 152.25 29.1 152.25 25.2 158.85 25.2 158.85 20.3 152.25 20.3 152.25 16.35 158.85 16.35 158.85 11.45 M145.25 13.65 L143.05 13.65 143.05 11.45 131.55 11.45 131.55 34.0 143.05 34.0 143.05 31.8 145.25 31.8 145.25 13.65 M21.45 15.35 L21.45 27.5 26.5 27.5 26.5 15.35 21.45 15.35 M3.5 15.35 L3.5 27.5 8.55 27.5 8.55 15.35 3.5 15.35 M9.65 28.3 L9.65 40.45 14.7 40.45 14.7 28.3 9.65 28.3 M15.65 40.45 L20.7 40.45 20.7 28.3 15.65 28.3 15.65 40.45 M20.55 15.35 L9.5 15.35 9.5 27.5 20.55 27.5 20.55 15.35" fill="#01498f" fill-rule="evenodd" stroke="none"/>
    <path d="M4.8 -0.85 Q-3.2 -0.85 -3.2 7.2 L-3.2 37.7 Q-3.2 45.7 4.8 45.7 L160.35 45.7 Q168.35 45.7 168.35 37.7 L168.35 7.2 Q168.35 -0.85 160.35 -0.85 L4.8 -0.85 Z" fill="none" stroke="#5faefe" stroke-linecap="square" stroke-linejoin="miter-clip" stroke-miterlimit="3.0" stroke-width="1.5"/>
  </g>
</svg>
