<?xml version="1.0" encoding="UTF-8" standalone="no"?>
<svg xmlns:xlink="http://www.w3.org/1999/xlink" height="48.55px" width="173.55px" xmlns="http://www.w3.org/2000/svg">
  <g transform="matrix(1.0, 0.0, 0.0, 1.0, 4.2, 1.85)">
    <path d="M4.8 -0.85 L160.35 -0.85 Q168.35 -0.85 168.35 7.2 L168.35 37.7 Q168.35 45.7 160.35 45.7 L4.8 45.7 Q-3.2 45.7 -3.2 37.7 L-3.2 7.2 Q-3.2 -0.85 4.8 -0.85 M56.15 11.55 L56.15 11.45 46.85 11.45 46.85 11.55 44.75 11.55 44.75 13.65 44.65 13.65 44.65 34.0 56.15 34.0 56.15 33.6 58.0 33.6 58.0 31.8 58.35 31.8 58.35 24.7 53.45 24.7 53.45 29.1 49.55 29.1 49.55 16.35 53.45 16.35 53.45 20.75 58.35 20.75 58.35 11.55 56.15 11.55 M74.15 11.45 L69.25 11.45 69.25 29.1 65.35 29.1 65.35 11.45 60.45 11.45 60.45 34.0 71.95 34.0 71.95 33.95 74.15 33.95 74.15 11.45 M89.95 20.3 L81.15 20.3 81.15 16.35 89.95 16.35 89.95 11.45 78.45 11.45 78.45 11.55 76.35 11.55 76.35 13.65 76.25 13.65 76.25 25.2 85.05 25.2 85.05 29.1 76.25 29.1 76.25 34.0 87.75 34.0 87.75 33.95 89.95 33.95 89.95 20.3 M112.75 16.35 L116.65 16.35 116.65 29.1 112.75 29.1 112.75 16.35 M101.35 16.35 L105.75 16.35 105.75 11.45 92.05 11.45 92.05 16.35 96.45 16.35 96.45 34.0 101.35 34.0 101.35 16.35 M121.55 33.95 L121.55 11.45 110.05 11.45 110.05 11.55 107.95 11.55 107.95 13.65 107.85 13.65 107.85 34.0 119.35 34.0 119.35 33.95 121.55 33.95 M128.55 16.35 L132.45 16.35 132.45 34.0 137.35 34.0 137.35 16.35 141.3 16.35 141.3 34.0 146.2 34.0 146.2 11.45 123.65 11.45 123.65 34.0 128.55 34.0 128.55 16.35 M32.45 6.2 L30.2 8.45 36.0 14.25 38.25 12.0 Q36.3 8.15 32.45 6.2 M28.9 9.8 L34.65 15.55 35.55 14.65 29.8 8.9 28.9 9.8 M31.5 18.75 L34.25 16.0 28.45 10.2 25.7 12.95 31.5 18.75 M25.35 13.35 L24.65 14.0 30.45 19.8 31.1 19.1 25.35 13.35 M30.0 20.25 L24.2 14.45 11.7 26.95 11.7 29.95 14.45 30.0 14.45 32.7 17.5 32.75 30.0 20.25 M10.9 30.75 L10.9 27.8 8.35 30.3 7.35 34.45 9.9 37.05 14.15 36.1 16.65 33.55 13.65 33.5 13.65 30.95 13.75 30.8 10.9 30.75 M7.35 35.35 L6.75 37.55 6.75 37.85 6.9 37.7 9.1 37.1 7.35 35.35" fill="#5faefe" fill-rule="evenodd" stroke="none"/>
    <path d="M128.55 16.35 L128.55 34.0 123.65 34.0 123.65 11.45 146.2 11.45 146.2 34.0 141.3 34.0 141.3 16.35 137.35 16.35 137.35 34.0 132.45 34.0 132.45 16.35 128.55 16.35 M121.55 33.95 L119.35 33.95 119.35 34.0 107.85 34.0 107.85 13.65 107.95 13.65 107.95 11.55 110.05 11.55 110.05 11.45 121.55 11.45 121.55 33.95 M101.35 16.35 L101.35 34.0 96.45 34.0 96.45 16.35 92.05 16.35 92.05 11.45 105.75 11.45 105.75 16.35 101.35 16.35 M112.75 16.35 L112.75 29.1 116.65 29.1 116.65 16.35 112.75 16.35 M89.95 20.3 L89.95 33.95 87.75 33.95 87.75 34.0 76.25 34.0 76.25 29.1 85.05 29.1 85.05 25.2 76.25 25.2 76.25 13.65 76.35 13.65 76.35 11.55 78.45 11.55 78.45 11.45 89.95 11.45 89.95 16.35 81.15 16.35 81.15 20.3 89.95 20.3 M74.15 11.45 L74.15 33.95 71.95 33.95 71.95 34.0 60.45 34.0 60.45 11.45 65.35 11.45 65.35 29.1 69.25 29.1 69.25 11.45 74.15 11.45 M56.15 11.55 L58.35 11.55 58.35 20.75 53.45 20.75 53.45 16.35 49.55 16.35 49.55 29.1 53.45 29.1 53.45 24.7 58.35 24.7 58.35 31.8 58.0 31.8 58.0 33.6 56.15 33.6 56.15 34.0 44.65 34.0 44.65 13.65 44.75 13.65 44.75 11.55 46.85 11.55 46.85 11.45 56.15 11.45 56.15 11.55 M28.9 9.8 L29.8 8.9 35.55 14.65 34.65 15.55 28.9 9.8 M32.45 6.2 Q36.3 8.15 38.25 12.0 L36.0 14.25 30.2 8.45 32.45 6.2 M30.0 20.25 L17.5 32.75 14.45 32.7 14.45 30.0 11.7 29.95 11.7 26.95 24.2 14.45 30.0 20.25 M25.35 13.35 L31.1 19.1 30.45 19.8 24.65 14.0 25.35 13.35 M31.5 18.75 L25.7 12.95 28.45 10.2 34.25 16.0 31.5 18.75 M7.35 35.35 L9.1 37.1 6.9 37.7 6.75 37.85 6.75 37.55 7.35 35.35 M10.9 30.75 L13.75 30.8 13.65 30.95 13.65 33.5 16.65 33.55 14.15 36.1 9.9 37.05 7.35 34.45 8.35 30.3 10.9 27.8 10.9 30.75" fill="#ffffff" fill-rule="evenodd" stroke="none"/>
    <path d="M4.8 -0.85 Q-3.2 -0.85 -3.2 7.2 L-3.2 37.7 Q-3.2 45.7 4.8 45.7 L160.35 45.7 Q168.35 45.7 168.35 37.7 L168.35 7.2 Q168.35 -0.85 160.35 -0.85 L4.8 -0.85 Z" fill="none" stroke="#ffffff" stroke-linecap="square" stroke-linejoin="miter-clip" stroke-miterlimit="3.0" stroke-width="1.5"/>
  </g>
</svg>
