<?xml version="1.0" encoding="UTF-8" standalone="no"?>
<svg xmlns:xlink="http://www.w3.org/1999/xlink" height="26.95px" width="98.95px" xmlns="http://www.w3.org/2000/svg">
  <g transform="matrix(1.0, 0.0, 0.0, 1.0, 49.5, 13.5)">
    <path d="M2.6 -5.2 L2.6 5.95 -1.05 5.95 -1.05 -5.2 2.6 -5.2 M11.2 -5.2 L14.85 -5.2 14.85 5.95 11.2 5.95 11.2 -5.2 M16.85 -9.05 L7.35 -9.05 7.35 9.8 16.85 9.8 16.85 7.9 18.7 7.9 18.7 -7.2 16.85 -7.2 16.85 -9.05 M6.45 -7.2 L4.6 -7.2 4.6 -9.05 -4.9 -9.05 -4.9 9.8 4.6 9.8 4.6 7.9 6.45 7.9 6.45 -7.2 M48.45 -9.5 L48.45 9.45 Q48.45 12.45 45.9 12.45 L-45.9 12.45 Q-48.5 12.45 -48.5 9.45 L-48.5 -9.5 Q-48.5 -12.5 -45.9 -12.5 L45.9 -12.5 Q48.45 -12.5 48.45 -9.5 M-6.2 -9.05 L-17.55 -9.05 -17.55 9.8 -13.7 9.8 -13.7 2.3 -10.05 2.3 -10.05 9.8 -6.2 9.8 -6.2 -9.05 M-10.05 -5.2 L-10.05 -1.55 -13.7 -1.55 -13.7 -5.2 -10.05 -5.2" fill="#01498f" fill-rule="evenodd" stroke="none"/>
    <path d="M6.45 -7.2 L6.45 7.9 4.6 7.9 4.6 9.8 -4.9 9.8 -4.9 -9.05 4.6 -9.05 4.6 -7.2 6.45 -7.2 M16.85 -9.05 L16.85 -7.2 18.7 -7.2 18.7 7.9 16.85 7.9 16.85 9.8 7.35 9.8 7.35 -9.05 16.85 -9.05 M11.2 -5.2 L11.2 5.95 14.85 5.95 14.85 -5.2 11.2 -5.2 M2.6 -5.2 L-1.05 -5.2 -1.05 5.95 2.6 5.95 2.6 -5.2 M-10.05 -5.2 L-13.7 -5.2 -13.7 -1.55 -10.05 -1.55 -10.05 -5.2 M-6.2 -9.05 L-6.2 9.8 -10.05 9.8 -10.05 2.3 -13.7 2.3 -13.7 9.8 -17.55 9.8 -17.55 -9.05 -6.2 -9.05" fill="#5faefe" fill-rule="evenodd" stroke="none"/>
    <path d="M48.45 -9.5 Q48.45 -12.5 45.9 -12.5 L-45.9 -12.5 Q-48.5 -12.5 -48.5 -9.5 L-48.5 9.45 Q-48.5 12.45 -45.9 12.45 L45.9 12.45 Q48.45 12.45 48.45 9.45 L48.45 -9.5 Z" fill="none" stroke="#5faefe" stroke-linecap="square" stroke-linejoin="miter-clip" stroke-miterlimit="3.0" stroke-width="1.5"/>
  </g>
</svg>
