<?xml version="1.0" encoding="UTF-8" standalone="no"?>
<svg xmlns:xlink="http://www.w3.org/1999/xlink" height="10.9px" width="7.85px" xmlns="http://www.w3.org/2000/svg">
  <g transform="matrix(1.0, 0.0, 0.0, 1.0, -17.15, 9.05)">
    <path d="M19.4 -5.9 L20.0 -9.05 21.1 -9.05 20.5 -5.9 22.7 -5.9 23.35 -9.05 24.4 -9.05 23.8 -5.9 25.0 -5.9 25.0 -4.85 23.6 -4.85 23.05 -2.25 25.0 -2.25 25.0 -1.2 22.8 -1.2 22.2 1.85 21.15 1.85 21.75 -1.2 19.5 -1.2 18.9 1.85 17.8 1.85 18.4 -1.2 17.15 -1.2 17.15 -2.25 18.65 -2.25 19.15 -4.85 17.15 -4.85 17.15 -5.9 19.4 -5.9 M20.25 -4.85 L19.7 -2.25 21.95 -2.25 22.5 -4.85 20.25 -4.85" fill="#000000" fill-rule="evenodd" stroke="none"/>
  </g>
</svg>
