<?xml version="1.0" encoding="UTF-8" standalone="no"?>
<svg xmlns:xlink="http://www.w3.org/1999/xlink" height="26.95px" width="26.95px" xmlns="http://www.w3.org/2000/svg">
  <g transform="matrix(1.0, 0.0, 0.0, 1.0, 1.0, 1.0)">
    <path d="M14.0 19.25 Q14.0 17.65 15.3 15.4 16.75 17.65 16.75 19.3 L16.75 19.75 Q16.55 21.2 15.45 21.25 14.35 21.3 14.1 19.85 L14.0 19.25" fill="#5faefe" fill-rule="evenodd" stroke="none"/>
    <path d="M22.0 3.15 L21.45 2.85 21.05 2.75 Q19.9 2.55 19.0 3.5 L18.2 4.35 16.8 5.75 16.1 6.5 15.5 5.95 15.45 6.05 14.3 6.7 Q15.95 9.4 18.75 11.0 L19.4 9.85 19.4 9.75 18.8 9.15 19.5 8.4 20.9 7.0 21.7 6.15 Q22.7 5.25 22.5 4.15 L22.35 3.7 22.0 3.15 M21.95 0.0 Q24.95 0.0 24.95 3.0 L24.95 21.95 Q24.95 24.95 21.95 24.95 L3.0 24.95 Q0.0 24.95 0.0 21.95 L0.0 3.0 Q0.0 0.0 3.0 0.0 L21.95 0.0 M14.35 11.35 L13.85 11.8 Q13.0 11.1 12.6 10.1 L11.8 10.95 Q12.2 11.95 13.05 12.65 L12.6 13.15 Q11.75 12.4 11.35 11.4 L10.55 12.25 Q10.95 13.25 11.75 13.95 L11.3 14.45 Q10.45 13.75 10.05 12.75 L9.25 13.55 Q9.65 14.55 10.5 15.3 L10.05 15.75 Q9.2 15.05 8.8 14.05 L7.95 14.9 Q8.35 15.9 9.2 16.6 L8.75 17.1 Q7.9 16.4 7.5 15.35 L6.7 16.2 Q7.1 17.2 7.95 17.9 L7.45 18.4 Q6.65 17.7 6.2 16.7 L5.0 17.95 Q5.4 18.95 6.25 19.65 L7.7 20.6 17.15 10.85 Q15.45 9.9 14.45 8.2 L13.1 9.6 Q13.5 10.6 14.35 11.35 M2.95 21.6 L4.15 22.75 Q6.2 20.8 6.85 21.5 L7.2 21.1 5.75 20.15 Q4.9 19.45 4.5 18.45 L4.15 18.85 Q4.85 19.5 2.95 21.6 M14.0 19.25 L14.1 19.85 Q14.35 21.3 15.45 21.25 16.55 21.2 16.75 19.75 L16.75 19.3 Q16.75 17.65 15.3 15.4 14.0 17.65 14.0 19.25" fill="#01498f" fill-rule="evenodd" stroke="none"/>
    <path d="M21.95 0.0 L3.0 0.0 Q0.0 0.0 0.0 3.0 L0.0 21.95 Q0.0 24.95 3.0 24.95 L21.95 24.95 Q24.95 24.95 24.95 21.95 L24.95 3.0 Q24.95 0.0 21.95 0.0 Z" fill="none" stroke="#5faefe" stroke-linecap="square" stroke-linejoin="miter-clip" stroke-miterlimit="3.0" stroke-width="1.5"/>
    <path d="M13.85 11.8 L14.35 11.35 Q13.5 10.6 13.1 9.6 L14.45 8.2 Q15.45 9.9 17.15 10.85 L7.7 20.6 6.25 19.65 Q5.4 18.95 5.0 17.95 L6.2 16.7 Q6.65 17.7 7.45 18.4 L7.95 17.9 Q7.1 17.2 6.7 16.2 L7.5 15.35 Q7.9 16.4 8.75 17.1 L9.2 16.6 Q8.35 15.9 7.95 14.9 L8.8 14.05 Q9.2 15.05 10.05 15.75 L10.5 15.3 Q9.65 14.55 9.25 13.55 L10.05 12.75 Q10.45 13.75 11.3 14.45 L11.75 13.95 Q10.95 13.25 10.55 12.25 L11.35 11.4 Q11.75 12.4 12.6 13.15 L13.05 12.65 Q12.2 11.95 11.8 10.95 L12.6 10.1 Q13.0 11.1 13.85 11.8 M22.0 3.15 L22.35 3.7 22.5 4.15 Q22.7 5.25 21.7 6.15 L20.9 7.0 19.5 8.4 18.8 9.15 19.4 9.75 19.4 9.85 18.75 11.0 Q15.95 9.4 14.3 6.7 L15.45 6.05 15.5 5.95 16.1 6.5 16.8 5.75 18.2 4.35 19.0 3.5 Q19.9 2.55 21.05 2.75 L21.45 2.85 22.0 3.15 M4.15 18.85 L4.5 18.45 Q4.9 19.45 5.75 20.15 L7.2 21.1 6.85 21.5 Q6.2 20.8 4.15 22.75 L2.95 21.6 Q4.85 19.5 4.15 18.85" fill="#5faefe" fill-rule="evenodd" stroke="none"/>
  </g>
</svg>
