<?xml version="1.0" encoding="UTF-8" standalone="no"?>
<svg xmlns:xlink="http://www.w3.org/1999/xlink" height="38.55px" width="113.55px" xmlns="http://www.w3.org/2000/svg">
  <g transform="matrix(1.0, 0.0, 0.0, 1.0, 4.2, 1.85)">
    <path d="M4.8 -0.85 L100.35 -0.85 Q108.35 -0.85 108.35 7.2 L108.35 27.7 Q108.35 35.7 100.35 35.7 L4.8 35.7 Q-3.2 35.7 -3.2 27.7 L-3.2 7.2 Q-3.2 -0.85 4.8 -0.85 M49.05 5.3 L44.15 5.3 44.15 14.15 40.25 14.15 40.25 5.3 35.35 5.3 35.35 27.85 40.25 27.85 40.25 19.05 44.15 19.05 44.15 27.85 49.05 27.85 49.05 5.3 M73.5 14.15 L69.6 14.15 69.6 10.2 73.5 10.2 73.5 14.15 M69.6 19.05 L73.5 19.05 73.5 27.85 78.4 27.85 78.4 5.3 64.7 5.3 64.7 27.85 69.6 27.85 69.6 19.05 M62.65 19.05 L62.65 14.15 56.05 14.15 56.05 10.2 62.65 10.2 62.65 5.3 51.15 5.3 51.15 27.85 62.65 27.85 62.65 22.95 56.05 22.95 56.05 19.05 62.65 19.05 M94.2 7.5 L92.0 7.5 92.0 5.3 80.5 5.3 80.5 27.85 92.0 27.85 92.0 25.65 94.2 25.65 94.2 7.5 M89.3 10.2 L89.3 22.95 85.4 22.95 85.4 10.2 89.3 10.2 M22.55 16.3 L17.25 16.3 17.25 11.0 19.7 11.0 19.7 13.95 22.55 13.95 22.55 16.3 M21.1 22.7 Q14.35 25.25 8.8 22.7 L8.8 21.5 21.1 21.5 21.1 22.7 M9.3 11.0 L9.3 13.95 12.35 13.95 12.35 16.3 7.05 16.3 7.05 11.0 9.3 11.0 M5.15 7.15 L5.15 26.9 24.9 26.9 24.9 7.15 5.15 7.15" fill="#5faefe" fill-rule="evenodd" stroke="none"/>
    <path d="M89.3 10.2 L85.4 10.2 85.4 22.95 89.3 22.95 89.3 10.2 M94.2 7.5 L94.2 25.65 92.0 25.65 92.0 27.85 80.5 27.85 80.5 5.3 92.0 5.3 92.0 7.5 94.2 7.5 M62.65 19.05 L56.05 19.05 56.05 22.95 62.65 22.95 62.65 27.85 51.15 27.85 51.15 5.3 62.65 5.3 62.65 10.2 56.05 10.2 56.05 14.15 62.65 14.15 62.65 19.05 M69.6 19.05 L69.6 27.85 64.7 27.85 64.7 5.3 78.4 5.3 78.4 27.85 73.5 27.85 73.5 19.05 69.6 19.05 M73.5 14.15 L73.5 10.2 69.6 10.2 69.6 14.15 73.5 14.15 M49.05 5.3 L49.05 27.85 44.15 27.85 44.15 19.05 40.25 19.05 40.25 27.85 35.35 27.85 35.35 5.3 40.25 5.3 40.25 14.15 44.15 14.15 44.15 5.3 49.05 5.3 M9.3 11.0 L7.05 11.0 7.05 16.3 12.35 16.3 12.35 13.95 9.3 13.95 9.3 11.0 M21.1 22.7 L21.1 21.5 8.8 21.5 8.8 22.7 Q14.35 25.25 21.1 22.7 M22.55 16.3 L22.55 13.95 19.7 13.95 19.7 11.0 17.25 11.0 17.25 16.3 22.55 16.3 M5.15 7.15 L24.9 7.15 24.9 26.9 5.15 26.9 5.15 7.15" fill="#ffffff" fill-rule="evenodd" stroke="none"/>
    <path d="M4.8 -0.85 Q-3.2 -0.85 -3.2 7.2 L-3.2 27.7 Q-3.2 35.7 4.8 35.7 L100.35 35.7 Q108.35 35.7 108.35 27.7 L108.35 7.2 Q108.35 -0.85 100.35 -0.85 L4.8 -0.85 Z" fill="none" stroke="#ffffff" stroke-linecap="square" stroke-linejoin="miter-clip" stroke-miterlimit="3.0" stroke-width="1.5"/>
  </g>
</svg>
