<?xml version="1.0" encoding="UTF-8" standalone="no"?>
<svg xmlns:xlink="http://www.w3.org/1999/xlink" height="38.55px" width="113.55px" xmlns="http://www.w3.org/2000/svg">
  <g transform="matrix(1.0, 0.0, 0.0, 1.0, 4.2, 1.85)">
    <path d="M86.5 5.3 L86.5 14.15 90.4 14.15 90.4 5.3 95.3 5.3 95.3 19.05 90.9 19.05 90.9 27.85 86.0 27.85 86.0 19.05 81.6 19.05 81.6 5.3 86.5 5.3 M79.5 7.5 L79.5 25.65 77.3 25.65 77.3 27.85 65.8 27.85 65.8 5.3 77.3 5.3 77.3 7.5 79.5 7.5 M74.6 22.95 L74.6 10.2 70.7 10.2 70.7 22.95 74.6 22.95 M54.9 10.2 L54.9 22.95 58.8 22.95 58.8 10.2 54.9 10.2 M52.2 5.3 L63.7 5.3 63.7 27.8 61.5 27.8 61.5 27.85 50.0 27.85 50.0 7.5 50.1 7.5 50.1 5.4 52.2 5.4 52.2 5.3 M47.9 16.35 L47.9 27.85 34.2 27.85 34.2 5.3 45.7 5.3 45.7 16.35 47.9 16.35 M43.0 19.05 L39.1 19.05 39.1 22.95 43.0 22.95 43.0 19.05 M40.8 10.2 L39.1 10.2 39.1 14.15 40.8 14.15 40.8 10.2 M29.0 15.05 L23.65 15.05 23.65 27.9 6.25 27.9 6.25 15.05 0.9 15.05 0.9 6.85 9.55 6.85 Q10.85 10.35 14.95 11.15 19.05 10.35 20.4 6.85 L29.0 6.85 29.0 15.05" fill="#5faefe" fill-rule="evenodd" stroke="none"/>
    <path d="M4.8 -0.85 L100.35 -0.85 Q108.35 -0.85 108.35 7.2 L108.35 27.7 Q108.35 35.7 100.35 35.7 L4.8 35.7 Q-3.2 35.7 -3.2 27.7 L-3.2 7.2 Q-3.2 -0.85 4.8 -0.85 M40.8 10.2 L40.8 14.15 39.1 14.15 39.1 10.2 40.8 10.2 M43.0 19.05 L43.0 22.95 39.1 22.95 39.1 19.05 43.0 19.05 M47.9 16.35 L45.7 16.35 45.7 5.3 34.2 5.3 34.2 27.85 47.9 27.85 47.9 16.35 M52.2 5.3 L52.2 5.4 50.1 5.4 50.1 7.5 50.0 7.5 50.0 27.85 61.5 27.85 61.5 27.8 63.7 27.8 63.7 5.3 52.2 5.3 M54.9 10.2 L58.8 10.2 58.8 22.95 54.9 22.95 54.9 10.2 M74.6 22.95 L70.7 22.95 70.7 10.2 74.6 10.2 74.6 22.95 M79.5 7.5 L77.3 7.5 77.3 5.3 65.8 5.3 65.8 27.85 77.3 27.85 77.3 25.65 79.5 25.65 79.5 7.5 M86.5 5.3 L81.6 5.3 81.6 19.05 86.0 19.05 86.0 27.85 90.9 27.85 90.9 19.05 95.3 19.05 95.3 5.3 90.4 5.3 90.4 14.15 86.5 14.15 86.5 5.3 M29.0 15.05 L29.0 6.85 20.4 6.85 Q19.05 10.35 14.95 11.15 10.85 10.35 9.55 6.85 L0.9 6.85 0.9 15.05 6.25 15.05 6.25 27.9 23.65 27.9 23.65 15.05 29.0 15.05" fill="#01498f" fill-rule="evenodd" stroke="none"/>
    <path d="M4.8 -0.85 Q-3.2 -0.85 -3.2 7.2 L-3.2 27.7 Q-3.2 35.7 4.8 35.7 L100.35 35.7 Q108.35 35.7 108.35 27.7 L108.35 7.2 Q108.35 -0.85 100.35 -0.85 L4.8 -0.85 Z" fill="none" stroke="#5faefe" stroke-linecap="square" stroke-linejoin="miter-clip" stroke-miterlimit="3.0" stroke-width="1.5"/>
  </g>
</svg>
