<?xml version="1.0" encoding="UTF-8" standalone="no"?>
<svg xmlns:xlink="http://www.w3.org/1999/xlink" height="38.55px" width="113.55px" xmlns="http://www.w3.org/2000/svg">
  <g transform="matrix(1.0, 0.0, 0.0, 1.0, 4.2, 1.85)">
    <path d="M22.7 15.85 L15.8 15.85 15.8 13.6 17.1 13.6 17.1 12.25 14.6 12.25 14.6 9.55 22.7 9.55 22.7 15.85 M22.7 8.2 L19.95 8.2 19.95 2.45 22.7 2.45 22.7 8.2 M18.35 2.45 L18.35 8.2 15.8 8.2 15.8 2.45 18.35 2.45 M14.2 2.45 L14.2 8.2 11.65 8.2 11.65 2.45 14.2 2.45 M9.85 17.1 L20.55 17.1 21.25 30.85 9.15 30.85 9.85 17.1 M14.2 13.7 L14.2 15.85 7.2 15.85 7.2 9.55 13.05 9.55 13.05 13.7 14.2 13.7 M7.2 8.2 L7.2 2.45 10.1 2.45 10.1 8.2 7.2 8.2" fill="#5faefe" fill-rule="evenodd" stroke="none"/>
    <path d="M4.8 -0.85 L100.35 -0.85 Q108.35 -0.85 108.35 7.2 L108.35 27.7 Q108.35 35.7 100.35 35.7 L4.8 35.7 Q-3.2 35.7 -3.2 27.7 L-3.2 7.2 Q-3.2 -0.85 4.8 -0.85 M43.4 27.85 L43.4 5.3 29.7 5.3 29.7 27.85 34.6 27.85 34.6 19.05 38.5 19.05 38.5 27.85 43.4 27.85 M57.0 16.8 L59.2 16.8 59.2 5.3 45.5 5.3 45.5 27.85 50.4 27.85 50.4 19.05 54.3 19.05 54.3 27.85 59.2 27.85 59.2 18.55 57.0 18.55 57.0 16.8 M83.85 27.85 L83.85 5.3 61.3 5.3 61.3 27.85 66.2 27.85 66.2 10.2 70.1 10.2 70.1 27.85 75.0 27.85 75.0 10.2 78.95 10.2 78.95 27.85 83.85 27.85 M99.8 10.2 L99.8 5.3 88.3 5.3 88.3 5.4 86.2 5.4 86.2 7.5 86.1 7.5 86.1 19.05 94.9 19.05 94.9 22.95 86.1 22.95 86.1 27.85 97.6 27.85 97.6 27.8 99.8 27.8 99.8 14.15 91.0 14.15 91.0 10.2 99.8 10.2 M14.2 2.45 L11.65 2.45 11.65 8.2 14.2 8.2 14.2 2.45 M18.35 2.45 L15.8 2.45 15.8 8.2 18.35 8.2 18.35 2.45 M22.7 8.2 L22.7 2.45 19.95 2.45 19.95 8.2 22.7 8.2 M22.7 15.85 L22.7 9.55 14.6 9.55 14.6 12.25 17.1 12.25 17.1 13.6 15.8 13.6 15.8 15.85 22.7 15.85 M7.2 8.2 L10.1 8.2 10.1 2.45 7.2 2.45 7.2 8.2 M14.2 13.7 L13.05 13.7 13.05 9.55 7.2 9.55 7.2 15.85 14.2 15.85 14.2 13.7 M9.85 17.1 L9.15 30.85 21.25 30.85 20.55 17.1 9.85 17.1" fill="#01498f" fill-rule="evenodd" stroke="none"/>
    <path d="M99.8 10.2 L91.0 10.2 91.0 14.15 99.8 14.15 99.8 27.8 97.6 27.8 97.6 27.85 86.1 27.85 86.1 22.95 94.9 22.95 94.9 19.05 86.1 19.05 86.1 7.5 86.2 7.5 86.2 5.4 88.3 5.4 88.3 5.3 99.8 5.3 99.8 10.2 M83.85 27.85 L78.95 27.85 78.95 10.2 75.0 10.2 75.0 27.85 70.1 27.85 70.1 10.2 66.2 10.2 66.2 27.85 61.3 27.85 61.3 5.3 83.85 5.3 83.85 27.85 M57.0 16.8 L57.0 18.55 59.2 18.55 59.2 27.85 54.3 27.85 54.3 19.05 50.4 19.05 50.4 27.85 45.5 27.85 45.5 5.3 59.2 5.3 59.2 16.8 57.0 16.8 M43.4 27.85 L38.5 27.85 38.5 19.05 34.6 19.05 34.6 27.85 29.7 27.85 29.7 5.3 43.4 5.3 43.4 27.85" fill="#01498f" fill-opacity="0.9529412" fill-rule="evenodd" stroke="none"/>
    <path d="M4.8 -0.85 Q-3.2 -0.85 -3.2 7.2 L-3.2 27.7 Q-3.2 35.7 4.8 35.7 L100.35 35.7 Q108.35 35.7 108.35 27.7 L108.35 7.2 Q108.35 -0.85 100.35 -0.85 L4.8 -0.85 Z" fill="none" stroke="#5faefe" stroke-linecap="square" stroke-linejoin="miter-clip" stroke-miterlimit="3.0" stroke-width="1.5"/>
  </g>
</svg>
