<?xml version="1.0" encoding="UTF-8" standalone="no"?>
<svg xmlns:xlink="http://www.w3.org/1999/xlink" height="38.55px" width="113.55px" xmlns="http://www.w3.org/2000/svg">
  <g transform="matrix(1.0, 0.0, 0.0, 1.0, 4.2, 1.85)">
    <path d="M4.8 -0.85 L100.35 -0.85 Q108.35 -0.85 108.35 7.2 L108.35 27.7 Q108.35 35.7 100.35 35.7 L4.8 35.7 Q-3.2 35.7 -3.2 27.7 L-3.2 7.2 Q-3.2 -0.85 4.8 -0.85 M97.55 10.2 L99.8 10.2 99.8 5.3 88.3 5.3 88.3 5.4 86.2 5.4 86.2 6.4 83.85 6.4 83.85 5.3 61.3 5.3 61.3 6.4 59.2 6.4 59.2 5.3 45.5 5.3 45.5 27.85 50.4 27.85 50.4 19.05 52.4 19.05 52.4 25.25 54.3 25.25 54.3 27.85 59.2 27.85 59.2 18.55 57.0 18.55 57.0 17.75 59.9 17.75 59.9 25.25 61.3 25.25 61.3 27.85 66.2 27.85 66.2 25.25 69.4 25.25 69.4 17.75 70.1 17.75 70.1 27.85 75.0 27.85 75.0 25.25 76.9 25.25 76.9 17.65 75.05 17.65 75.05 15.85 76.9 15.85 76.9 10.2 78.7 10.2 78.7 25.25 78.95 25.25 78.95 27.85 83.85 27.85 83.85 10.25 86.1 10.25 86.1 19.05 86.2 19.05 86.2 22.95 86.1 22.95 86.1 27.85 97.6 27.85 97.6 27.8 99.8 27.8 99.8 14.15 97.55 14.15 97.55 10.2 M90.05 19.05 L93.7 19.05 93.7 22.95 90.05 22.95 90.05 19.05 M93.7 14.15 L91.0 14.15 91.0 10.25 93.7 10.25 93.7 14.15 M70.1 13.9 L69.4 13.9 69.4 10.25 70.1 10.25 70.1 13.9 M59.2 10.25 L59.9 10.25 59.9 13.9 59.2 13.9 59.2 10.25 M52.4 10.2 L52.4 14.15 50.4 14.15 50.4 10.2 52.4 10.2 M43.4 25.25 L44.95 25.25 44.95 21.4 43.4 21.4 43.4 5.3 29.7 5.3 29.7 6.4 27.95 6.4 27.95 25.25 29.7 25.25 29.7 27.85 34.6 27.85 34.6 19.05 35.45 19.05 35.45 25.25 38.5 25.25 38.5 27.85 43.4 27.85 43.4 25.25 M34.6 10.25 L35.45 10.25 35.45 13.9 34.6 13.9 34.6 10.25 M22.7 8.2 L22.7 2.45 19.95 2.45 19.95 8.2 22.7 8.2 M14.2 2.45 L11.65 2.45 11.65 8.2 14.2 8.2 14.2 2.45 M18.35 2.45 L15.8 2.45 15.8 8.2 18.35 8.2 18.35 2.45 M22.7 15.85 L22.7 9.55 14.6 9.55 14.6 12.25 17.1 12.25 17.1 13.6 15.8 13.6 15.8 15.85 22.7 15.85 M7.2 8.2 L10.1 8.2 10.1 2.45 7.2 2.45 7.2 8.2 M14.2 13.7 L13.05 13.7 13.05 9.55 7.2 9.55 7.2 15.85 14.2 15.85 14.2 13.7 M9.85 17.1 L9.15 30.85 21.25 30.85 20.55 17.1 9.85 17.1" fill="#5faefe" fill-rule="evenodd" stroke="none"/>
    <path d="M22.7 8.2 L19.95 8.2 19.95 2.45 22.7 2.45 22.7 8.2 M22.7 15.85 L15.8 15.85 15.8 13.6 17.1 13.6 17.1 12.25 14.6 12.25 14.6 9.55 22.7 9.55 22.7 15.85 M18.35 2.45 L18.35 8.2 15.8 8.2 15.8 2.45 18.35 2.45 M14.2 2.45 L14.2 8.2 11.65 8.2 11.65 2.45 14.2 2.45 M9.85 17.1 L20.55 17.1 21.25 30.85 9.15 30.85 9.85 17.1 M14.2 13.7 L14.2 15.85 7.2 15.85 7.2 9.55 13.05 9.55 13.05 13.7 14.2 13.7 M7.2 8.2 L7.2 2.45 10.1 2.45 10.1 8.2 7.2 8.2" fill="#ffffff" fill-rule="evenodd" stroke="none"/>
    <path d="M86.2 6.4 L86.2 5.4 88.3 5.4 88.3 5.3 99.8 5.3 99.8 10.2 97.55 10.2 97.55 6.4 86.2 6.4 M97.55 14.15 L99.8 14.15 99.8 27.8 97.6 27.8 97.6 27.85 86.1 27.85 86.1 22.95 86.2 22.95 86.2 25.25 90.05 25.25 90.05 22.95 93.7 22.95 93.7 25.25 97.55 25.25 97.55 14.15 M86.2 19.05 L86.1 19.05 86.1 10.25 86.2 10.25 86.2 19.05 M83.85 10.25 L83.85 27.85 78.95 27.85 78.95 25.25 82.55 25.25 82.55 10.25 83.85 10.25 M78.7 10.2 L76.9 10.2 76.9 6.4 65.55 6.4 65.55 25.25 66.2 25.25 66.2 27.85 61.3 27.85 61.3 25.25 63.75 25.25 63.75 6.4 61.3 6.4 61.3 5.3 83.85 5.3 83.85 6.4 78.7 6.4 78.7 10.2 M75.0 25.25 L75.0 27.85 70.1 27.85 70.1 17.75 73.05 17.75 73.05 25.25 75.0 25.25 M57.0 17.75 L57.0 18.55 59.2 18.55 59.2 27.85 54.3 27.85 54.3 25.25 56.25 25.25 56.25 17.75 57.0 17.75 M52.4 19.05 L50.4 19.05 50.4 27.85 45.5 27.85 45.5 5.3 59.2 5.3 59.2 6.4 52.4 6.4 52.4 10.2 50.4 10.2 50.4 14.15 52.4 14.15 52.4 19.05 M90.05 19.05 L90.05 10.25 91.0 10.25 91.0 14.15 93.7 14.15 93.7 19.05 90.05 19.05 M70.1 13.9 L70.1 10.25 73.05 10.25 73.05 13.9 70.1 13.9 M59.2 13.9 L56.25 13.9 56.25 10.25 59.2 10.25 59.2 13.9 M43.4 21.4 L41.1 21.4 41.1 25.25 43.4 25.25 43.4 27.85 38.5 27.85 38.5 25.25 39.3 25.25 39.3 17.65 37.45 17.65 37.45 15.85 39.3 15.85 39.3 6.4 29.7 6.4 29.7 5.3 43.4 5.3 43.4 21.4 M35.45 19.05 L34.6 19.05 34.6 27.85 29.7 27.85 29.7 25.25 31.8 25.25 31.8 17.75 35.45 17.75 35.45 19.05 M34.6 13.9 L31.8 13.9 31.8 10.25 34.6 10.25 34.6 13.9" fill="#5faefe" fill-opacity="0.9529412" fill-rule="evenodd" stroke="none"/>
    <path d="M86.2 6.4 L97.55 6.4 97.55 10.2 97.55 14.15 97.55 25.25 93.7 25.25 93.7 22.95 93.7 19.05 93.7 14.15 93.7 10.25 91.0 10.25 90.05 10.25 90.05 19.05 90.05 22.95 90.05 25.25 86.2 25.25 86.2 22.95 86.2 19.05 86.2 10.25 86.1 10.25 83.85 10.25 82.55 10.25 82.55 25.25 78.95 25.25 78.7 25.25 78.7 10.2 78.7 6.4 83.85 6.4 86.2 6.4 M76.9 10.2 L76.9 15.85 75.05 15.85 75.05 17.65 76.9 17.65 76.9 25.25 75.0 25.25 73.05 25.25 73.05 17.75 70.1 17.75 69.4 17.75 69.4 25.25 66.2 25.25 65.55 25.25 65.55 6.4 76.9 6.4 76.9 10.2 M61.3 25.25 L59.9 25.25 59.9 17.75 57.0 17.75 56.25 17.75 56.25 25.25 54.3 25.25 52.4 25.25 52.4 19.05 52.4 14.15 52.4 10.2 52.4 6.4 59.2 6.4 61.3 6.4 63.75 6.4 63.75 25.25 61.3 25.25 M70.1 10.25 L69.4 10.25 69.4 13.9 70.1 13.9 73.05 13.9 73.05 10.25 70.1 10.25 M59.2 13.9 L59.9 13.9 59.9 10.25 59.2 10.25 56.25 10.25 56.25 13.9 59.2 13.9 M43.4 21.4 L44.95 21.4 44.95 25.25 43.4 25.25 41.1 25.25 41.1 21.4 43.4 21.4 M38.5 25.25 L35.45 25.25 35.45 19.05 35.45 17.75 31.8 17.75 31.8 25.25 29.7 25.25 27.95 25.25 27.95 6.4 29.7 6.4 39.3 6.4 39.3 15.85 37.45 15.85 37.45 17.65 39.3 17.65 39.3 25.25 38.5 25.25 M34.6 10.25 L31.8 10.25 31.8 13.9 34.6 13.9 35.45 13.9 35.45 10.25 34.6 10.25" fill="#ffffff" fill-opacity="0.9529412" fill-rule="evenodd" stroke="none"/>
    <path d="M4.8 -0.85 Q-3.2 -0.85 -3.2 7.2 L-3.2 27.7 Q-3.2 35.7 4.8 35.7 L100.35 35.7 Q108.35 35.7 108.35 27.7 L108.35 7.2 Q108.35 -0.85 100.35 -0.85 L4.8 -0.85 Z" fill="none" stroke="#ffffff" stroke-linecap="square" stroke-linejoin="miter-clip" stroke-miterlimit="3.0" stroke-width="1.5"/>
  </g>
</svg>
