<?xml version="1.0" encoding="UTF-8" standalone="no"?>
<svg xmlns:xlink="http://www.w3.org/1999/xlink" height="38.55px" width="113.55px" xmlns="http://www.w3.org/2000/svg">
  <g transform="matrix(1.0, 0.0, 0.0, 1.0, 4.2, 1.85)">
    <path d="M24.15 24.2 Q24.15 26.6 25.0 29.0 L23.05 30.9 18.0 30.9 16.25 29.4 14.65 29.55 12.8 30.9 8.05 30.9 7.9 30.7 6.65 30.1 5.8 30.9 2.15 30.9 0.6 26.45 3.6 25.4 5.45 26.05 14.6 20.7 12.55 4.25 25.1 4.3 Q24.2 14.25 24.15 24.2 M7.5 30.05 L7.5 30.0 7.45 30.0 7.5 30.05" fill="#5faefe" fill-rule="evenodd" stroke="none"/>
    <path d="M4.8 -0.85 L100.35 -0.85 Q108.35 -0.85 108.35 7.2 L108.35 27.7 Q108.35 35.7 100.35 35.7 L4.8 35.7 Q-3.2 35.7 -3.2 27.7 L-3.2 7.2 Q-3.2 -0.85 4.8 -0.85 M47.95 22.95 L41.35 22.95 41.35 5.3 36.45 5.3 36.45 27.85 47.95 27.85 47.95 22.95 M61.5 10.2 L61.5 5.3 50.0 5.3 50.0 27.85 61.5 27.85 61.5 22.95 54.9 22.95 54.9 19.05 61.5 19.05 61.5 14.15 54.9 14.15 54.9 10.2 61.5 10.2 M77.25 10.2 L77.25 5.3 65.75 5.3 65.75 5.4 63.65 5.4 63.65 7.5 63.55 7.5 63.55 27.85 75.05 27.85 75.05 27.8 77.25 27.8 77.25 14.15 70.15 14.15 70.15 19.05 72.35 19.05 72.35 22.95 68.45 22.95 68.45 10.2 77.25 10.2 M93.05 10.2 L93.05 5.3 81.55 5.3 81.55 5.4 79.45 5.4 79.45 7.5 79.35 7.5 79.35 19.05 88.15 19.05 88.15 22.95 79.35 22.95 79.35 27.85 90.85 27.85 90.85 27.8 93.05 27.8 93.05 14.15 84.25 14.15 84.25 10.2 93.05 10.2 M7.5 30.05 L7.45 30.0 7.5 30.0 7.5 30.05 M24.15 24.2 Q24.2 14.25 25.1 4.3 L12.55 4.25 14.6 20.7 5.45 26.05 3.6 25.4 0.6 26.45 2.15 30.9 5.8 30.9 6.65 30.1 7.9 30.7 8.05 30.9 12.8 30.9 14.65 29.55 16.25 29.4 18.0 30.9 23.05 30.9 25.0 29.0 Q24.15 26.6 24.15 24.2" fill="#01498f" fill-rule="evenodd" stroke="none"/>
    <path d="M93.05 10.2 L84.25 10.2 84.25 14.15 93.05 14.15 93.05 27.8 90.85 27.8 90.85 27.85 79.35 27.85 79.35 22.95 88.15 22.95 88.15 19.05 79.35 19.05 79.35 7.5 79.45 7.5 79.45 5.4 81.55 5.4 81.55 5.3 93.05 5.3 93.05 10.2 M77.25 10.2 L68.45 10.2 68.45 22.95 72.35 22.95 72.35 19.05 70.15 19.05 70.15 14.15 77.25 14.15 77.25 27.8 75.05 27.8 75.05 27.85 63.55 27.85 63.55 7.5 63.65 7.5 63.65 5.4 65.75 5.4 65.75 5.3 77.25 5.3 77.25 10.2 M61.5 10.2 L54.9 10.2 54.9 14.15 61.5 14.15 61.5 19.05 54.9 19.05 54.9 22.95 61.5 22.95 61.5 27.85 50.0 27.85 50.0 5.3 61.5 5.3 61.5 10.2 M47.95 22.95 L47.95 27.85 36.45 27.85 36.45 5.3 41.35 5.3 41.35 22.95 47.95 22.95" fill="#01498f" fill-opacity="0.9529412" fill-rule="evenodd" stroke="none"/>
    <path d="M4.8 -0.85 Q-3.2 -0.85 -3.2 7.2 L-3.2 27.7 Q-3.2 35.7 4.8 35.7 L100.35 35.7 Q108.35 35.7 108.35 27.7 L108.35 7.2 Q108.35 -0.85 100.35 -0.85 L4.8 -0.85 Z" fill="none" stroke="#5faefe" stroke-linecap="square" stroke-linejoin="miter-clip" stroke-miterlimit="3.0" stroke-width="1.5"/>
  </g>
</svg>
