<?xml version="1.0" encoding="UTF-8" standalone="no"?>
<svg xmlns:xlink="http://www.w3.org/1999/xlink" height="38.55px" width="113.55px" xmlns="http://www.w3.org/2000/svg">
  <g transform="matrix(1.0, 0.0, 0.0, 1.0, 4.2, 1.85)">
    <path d="M7.45 30.0 L7.5 30.0 7.5 30.05 7.45 30.0" fill="#01498f" fill-rule="evenodd" stroke="none"/>
    <path d="M4.8 -0.85 L100.35 -0.85 Q108.35 -0.85 108.35 7.2 L108.35 27.7 Q108.35 35.7 100.35 35.7 L4.8 35.7 Q-3.2 35.7 -3.2 27.7 L-3.2 7.2 Q-3.2 -0.85 4.8 -0.85 M90.0 14.15 L90.0 10.65 98.5 10.65 98.5 6.3 93.05 6.3 93.05 5.3 81.55 5.3 81.55 5.4 79.45 5.4 79.45 6.3 77.25 6.3 77.25 5.3 65.75 5.3 65.75 5.4 63.65 5.4 63.65 6.3 61.5 6.3 61.5 5.3 50.0 5.3 50.0 23.3 47.95 23.3 47.95 22.95 45.25 22.95 45.25 19.05 43.15 19.05 43.15 17.0 45.25 17.0 45.25 6.3 41.35 6.3 41.35 5.3 36.45 5.3 36.45 6.3 32.4 6.3 32.4 27.65 36.45 27.65 36.45 27.85 47.95 27.85 47.95 27.65 50.0 27.65 50.0 27.85 61.5 27.85 61.5 27.65 63.55 27.65 63.55 27.85 75.05 27.85 75.05 27.8 77.25 27.8 77.25 27.65 79.35 27.65 79.35 27.85 90.85 27.85 90.85 27.8 93.05 27.8 93.05 27.65 96.4 27.65 96.4 27.6 98.5 27.6 98.5 14.8 93.05 14.8 93.05 14.15 90.0 14.15 M85.65 10.2 L85.65 14.15 84.25 14.15 84.25 10.2 85.65 10.2 M85.65 19.05 L85.65 22.95 79.35 22.95 79.35 23.3 77.25 23.3 77.25 19.15 83.4 19.15 83.4 19.05 85.65 19.05 M79.35 10.65 L79.35 14.8 77.25 14.8 77.25 14.15 77.0 14.15 77.0 10.65 79.35 10.65 M93.05 23.3 L93.05 19.15 94.15 19.15 94.15 23.3 93.05 23.3 M72.65 14.15 L70.15 14.15 70.15 19.05 72.35 19.05 72.35 22.95 68.45 22.95 68.45 10.2 72.65 10.2 72.65 14.15 M59.65 14.15 L54.9 14.15 54.9 10.2 59.65 10.2 59.65 14.15 M59.65 22.95 L54.9 22.95 54.9 19.05 59.65 19.05 59.65 22.95 M24.15 24.2 Q24.2 14.25 25.1 4.3 L12.55 4.25 14.6 20.7 5.45 26.05 3.6 25.4 0.6 26.45 2.15 30.9 5.8 30.9 6.65 30.1 7.9 30.7 8.05 30.9 12.8 30.9 14.65 29.55 16.25 29.4 18.0 30.9 23.05 30.9 25.0 29.0 Q24.15 26.6 24.15 24.2" fill="#5faefe" fill-rule="evenodd" stroke="none"/>
    <path d="M24.15 24.2 Q24.15 26.6 25.0 29.0 L23.05 30.9 18.0 30.9 16.25 29.4 14.65 29.55 12.8 30.9 8.05 30.9 7.9 30.7 6.65 30.1 5.8 30.9 2.15 30.9 0.6 26.45 3.6 25.4 5.45 26.05 14.6 20.7 12.55 4.25 25.1 4.3 Q24.2 14.25 24.15 24.2 M7.45 30.0 L7.5 30.05 7.5 30.0 7.45 30.0" fill="#ffffff" fill-rule="evenodd" stroke="none"/>
    <path d="M90.0 14.15 L93.05 14.15 93.05 14.8 92.0 14.8 92.0 19.15 93.05 19.15 93.05 23.3 90.0 23.3 90.0 14.15 M93.05 27.65 L93.05 27.8 90.85 27.8 90.85 27.85 79.35 27.85 79.35 27.65 83.4 27.65 83.4 23.3 79.35 23.3 79.35 22.95 85.65 22.95 85.65 27.65 93.05 27.65 M77.25 27.65 L77.25 27.8 75.05 27.8 75.05 27.85 63.55 27.85 63.55 27.65 70.4 27.65 70.4 23.3 64.0 23.3 64.0 6.3 63.65 6.3 63.65 5.4 65.75 5.4 65.75 5.3 77.25 5.3 77.25 6.3 72.65 6.3 72.65 10.2 68.45 10.2 68.45 22.95 72.35 22.95 72.35 19.05 70.15 19.05 70.15 14.15 72.65 14.15 72.65 27.65 77.25 27.65 M61.5 27.65 L61.5 27.85 50.0 27.85 50.0 27.65 51.15 27.65 51.15 23.3 50.0 23.3 50.0 5.3 61.5 5.3 61.5 6.3 59.65 6.3 59.65 10.2 54.9 10.2 54.9 14.15 59.65 14.15 59.65 19.05 54.9 19.05 54.9 22.95 59.65 22.95 59.65 27.65 61.5 27.65 M47.95 27.65 L47.95 27.85 36.45 27.85 36.45 27.65 36.75 27.65 36.75 19.15 40.9 19.15 40.9 27.65 45.25 27.65 45.25 22.95 47.95 22.95 47.95 23.3 46.8 23.3 46.8 27.65 47.95 27.65 M36.45 6.3 L36.45 5.3 41.35 5.3 41.35 6.3 36.45 6.3 M79.45 6.3 L79.45 5.4 81.55 5.4 81.55 5.3 93.05 5.3 93.05 6.3 87.75 6.3 87.75 6.35 85.75 6.35 85.75 8.4 85.65 8.4 85.65 10.2 84.25 10.2 84.25 14.15 85.65 14.15 85.65 19.05 83.4 19.05 83.4 14.8 79.35 14.8 79.35 10.65 83.4 10.65 83.4 6.3 79.45 6.3 M77.25 19.15 L77.25 23.3 77.0 23.3 77.0 19.15 77.25 19.15 M77.0 14.15 L77.25 14.15 77.25 14.8 77.0 14.8 77.0 14.15 M40.9 10.65 L40.9 14.8 36.75 14.8 36.75 10.65 40.9 10.65" fill="#5faefe" fill-opacity="0.9529412" fill-rule="evenodd" stroke="none"/>
    <path d="M93.05 6.3 L98.5 6.3 98.5 10.65 90.0 10.65 90.0 14.15 90.0 23.3 93.05 23.3 94.15 23.3 94.15 19.15 93.05 19.15 92.0 19.15 92.0 14.8 93.05 14.8 98.5 14.8 98.5 27.6 96.4 27.6 96.4 27.65 93.05 27.65 85.65 27.65 85.65 22.95 85.65 19.05 85.65 14.15 85.65 10.2 85.65 8.4 85.75 8.4 85.75 6.35 87.75 6.35 87.75 6.3 93.05 6.3 M79.35 27.65 L77.25 27.65 72.65 27.65 72.65 14.15 72.65 10.2 72.65 6.3 77.25 6.3 79.45 6.3 83.4 6.3 83.4 10.65 79.35 10.65 77.0 10.65 77.0 14.15 77.0 14.8 77.25 14.8 79.35 14.8 83.4 14.8 83.4 19.05 83.4 19.15 77.25 19.15 77.0 19.15 77.0 23.3 77.25 23.3 79.35 23.3 83.4 23.3 83.4 27.65 79.35 27.65 M63.55 27.65 L61.5 27.65 59.65 27.65 59.65 22.95 59.65 19.05 59.65 14.15 59.65 10.2 59.65 6.3 61.5 6.3 63.65 6.3 64.0 6.3 64.0 23.3 70.4 23.3 70.4 27.65 63.55 27.65 M50.0 27.65 L47.95 27.65 46.8 27.65 46.8 23.3 47.95 23.3 50.0 23.3 51.15 23.3 51.15 27.65 50.0 27.65 M36.45 27.65 L32.4 27.65 32.4 6.3 36.45 6.3 41.35 6.3 45.25 6.3 45.25 17.0 43.15 17.0 43.15 19.05 45.25 19.05 45.25 22.95 45.25 27.65 40.9 27.65 40.9 19.15 36.75 19.15 36.75 27.65 36.45 27.65 M40.9 10.65 L36.75 10.65 36.75 14.8 40.9 14.8 40.9 10.65" fill="#ffffff" fill-opacity="0.9529412" fill-rule="evenodd" stroke="none"/>
    <path d="M4.8 -0.85 Q-3.2 -0.85 -3.2 7.2 L-3.2 27.7 Q-3.2 35.7 4.8 35.7 L100.35 35.7 Q108.35 35.7 108.35 27.7 L108.35 7.2 Q108.35 -0.85 100.35 -0.85 L4.8 -0.85 Z" fill="none" stroke="#ffffff" stroke-linecap="square" stroke-linejoin="miter-clip" stroke-miterlimit="3.0" stroke-width="1.5"/>
  </g>
</svg>
