<?xml version="1.0" encoding="UTF-8" standalone="no"?>
<svg xmlns:xlink="http://www.w3.org/1999/xlink" height="38.55px" width="113.55px" xmlns="http://www.w3.org/2000/svg">
  <g transform="matrix(1.0, 0.0, 0.0, 1.0, 4.2, 1.85)">
    <path d="M85.2 27.85 L73.7 27.85 73.7 5.3 78.6 5.3 78.6 22.95 85.2 22.95 85.2 27.85 M65.05 22.95 L71.65 22.95 71.65 27.85 60.15 27.85 60.15 5.3 65.05 5.3 65.05 22.95 M58.05 5.3 L58.05 27.85 53.15 27.85 53.15 19.05 49.25 19.05 49.25 27.85 44.35 27.85 44.35 5.3 58.05 5.3 M49.25 10.2 L49.25 14.15 53.15 14.15 53.15 10.2 49.25 10.2 M27.7 10.05 L27.7 20.6 23.35 20.6 23.35 10.05 27.7 10.05 M22.55 20.6 L12.95 20.6 12.95 10.05 22.55 10.05 22.55 20.6 M22.55 9.4 L12.95 9.4 12.95 2.1 22.55 2.1 22.55 9.4 M22.65 31.8 L18.3 31.8 18.3 21.25 22.65 21.25 22.65 31.8 M13.1 21.25 L17.45 21.25 17.45 31.8 13.1 31.8 13.1 21.25 M7.75 20.6 L7.75 10.05 12.1 10.05 12.1 20.6 7.75 20.6" fill="#5faefe" fill-rule="evenodd" stroke="none"/>
    <path d="M4.8 -0.85 L100.35 -0.85 Q108.35 -0.85 108.35 7.2 L108.35 27.7 Q108.35 35.7 100.35 35.7 L4.8 35.7 Q-3.2 35.7 -3.2 27.7 L-3.2 7.2 Q-3.2 -0.85 4.8 -0.85 M49.25 10.2 L53.15 10.2 53.15 14.15 49.25 14.15 49.25 10.2 M58.05 5.3 L44.35 5.3 44.35 27.85 49.25 27.85 49.25 19.05 53.15 19.05 53.15 27.85 58.05 27.85 58.05 5.3 M65.05 22.95 L65.05 5.3 60.15 5.3 60.15 27.85 71.65 27.85 71.65 22.95 65.05 22.95 M85.2 27.85 L85.2 22.95 78.6 22.95 78.6 5.3 73.7 5.3 73.7 27.85 85.2 27.85 M27.7 10.05 L23.35 10.05 23.35 20.6 27.7 20.6 27.7 10.05 M22.55 9.4 L22.55 2.1 12.95 2.1 12.95 9.4 22.55 9.4 M22.55 20.6 L22.55 10.05 12.95 10.05 12.95 20.6 22.55 20.6 M7.75 20.6 L12.1 20.6 12.1 10.05 7.75 10.05 7.75 20.6 M13.1 21.25 L13.1 31.8 17.45 31.8 17.45 21.25 13.1 21.25 M22.65 31.8 L22.65 21.25 18.3 21.25 18.3 31.8 22.65 31.8" fill="#01498f" fill-rule="evenodd" stroke="none"/>
    <path d="M4.8 -0.85 Q-3.2 -0.85 -3.2 7.2 L-3.2 27.7 Q-3.2 35.7 4.8 35.7 L100.35 35.7 Q108.35 35.7 108.35 27.7 L108.35 7.2 Q108.35 -0.85 100.35 -0.85 L4.8 -0.85 Z" fill="none" stroke="#5faefe" stroke-linecap="square" stroke-linejoin="miter-clip" stroke-miterlimit="3.0" stroke-width="1.5"/>
  </g>
</svg>
