<?xml version="1.0" encoding="UTF-8" standalone="no"?>
<svg xmlns:xlink="http://www.w3.org/1999/xlink" height="38.55px" width="113.55px" xmlns="http://www.w3.org/2000/svg">
  <g transform="matrix(1.0, 0.0, 0.0, 1.0, 4.2, 1.85)">
    <path d="M4.8 -0.85 L100.35 -0.85 Q108.35 -0.85 108.35 7.2 L108.35 27.7 Q108.35 35.7 100.35 35.7 L4.8 35.7 Q-3.2 35.7 -3.2 27.7 L-3.2 7.2 Q-3.2 -0.85 4.8 -0.85 M97.55 10.2 L99.8 10.2 99.8 5.3 88.3 5.3 88.3 5.4 86.2 5.4 86.2 6.4 83.85 6.4 83.85 5.3 61.3 5.3 61.3 6.4 59.2 6.4 59.2 5.3 45.5 5.3 45.5 14.15 45.5 27.85 50.4 27.85 50.4 19.05 50.5 19.05 50.5 25.25 54.3 25.25 54.3 27.85 59.2 27.85 59.2 25.25 61.3 25.25 61.3 27.85 66.2 27.85 66.2 25.25 67.5 25.25 69.4 25.25 69.4 17.75 70.1 17.75 70.1 27.85 75.0 27.85 75.0 25.25 76.8 25.25 78.95 25.25 78.95 27.85 83.85 27.85 83.85 10.25 84.3 10.25 84.3 25.25 86.1 25.25 86.1 27.85 97.6 27.85 97.6 27.8 99.8 27.8 99.8 14.15 97.55 14.15 97.55 10.2 M91.0 10.25 L91.8 10.25 91.8 14.15 91.0 14.15 91.0 10.25 M91.8 19.05 L91.8 22.95 90.05 22.95 90.05 19.05 91.8 19.05 M69.4 10.25 L70.1 10.25 70.1 13.9 69.4 13.9 69.4 10.25 M76.8 17.65 L75.05 17.65 75.05 15.85 76.8 15.85 76.8 17.65 M50.4 14.15 L50.4 10.2 50.5 10.2 50.5 14.15 50.4 14.15 M37.45 25.25 L38.5 25.25 38.5 27.85 43.4 27.85 43.4 25.25 44.95 25.25 44.95 21.4 43.4 21.4 43.4 5.3 29.7 5.3 29.7 6.4 27.95 6.4 27.95 25.25 29.7 25.25 29.7 27.85 34.6 27.85 34.6 25.25 37.45 25.25 M34.6 10.25 L35.45 10.25 35.45 13.9 34.6 13.9 34.6 10.25 M35.45 19.05 L35.45 21.4 34.6 21.4 34.6 19.05 35.45 19.05 M58.0 18.55 L57.0 18.55 57.0 17.75 58.0 17.75 58.0 18.55 M22.7 8.2 L22.7 2.45 19.95 2.45 19.95 8.2 22.7 8.2 M22.7 15.85 L22.7 9.55 14.6 9.55 14.6 12.25 17.1 12.25 17.1 13.6 15.8 13.6 15.8 15.85 22.7 15.85 M14.2 2.45 L11.65 2.45 11.65 8.2 14.2 8.2 14.2 2.45 M18.35 2.45 L15.8 2.45 15.8 8.2 18.35 8.2 18.35 2.45 M7.2 8.2 L10.1 8.2 10.1 2.45 7.2 2.45 7.2 8.2 M14.2 13.7 L13.05 13.7 13.05 9.55 7.2 9.55 7.2 15.85 14.2 15.85 14.2 13.7 M9.85 17.1 L9.15 30.85 21.25 30.85 20.55 17.1 9.85 17.1" fill="#5faefe" fill-rule="evenodd" stroke="none"/>
    <path d="M22.7 8.2 L19.95 8.2 19.95 2.45 22.7 2.45 22.7 8.2 M22.7 15.85 L15.8 15.85 15.8 13.6 17.1 13.6 17.1 12.25 14.6 12.25 14.6 9.55 22.7 9.55 22.7 15.85 M18.35 2.45 L18.35 8.2 15.8 8.2 15.8 2.45 18.35 2.45 M14.2 2.45 L14.2 8.2 11.65 8.2 11.65 2.45 14.2 2.45 M14.2 13.7 L14.2 15.85 7.2 15.85 7.2 9.55 13.05 9.55 13.05 13.7 14.2 13.7 M7.2 8.2 L7.2 2.45 10.1 2.45 10.1 8.2 7.2 8.2 M9.85 17.1 L20.55 17.1 21.25 30.85 9.15 30.85 9.85 17.1" fill="#ffffff" fill-rule="evenodd" stroke="none"/>
    <path d="M86.2 6.4 L86.2 5.4 88.3 5.4 88.3 5.3 99.8 5.3 99.8 10.2 97.55 10.2 97.55 6.4 95.65 6.4 86.2 6.4 M97.55 14.15 L99.8 14.15 99.8 27.8 97.6 27.8 97.6 27.85 86.1 27.85 86.1 25.25 88.15 25.25 90.05 25.25 90.05 22.95 91.8 22.95 91.8 25.25 95.65 25.25 97.55 25.25 97.55 14.15 M83.85 10.25 L83.85 27.85 78.95 27.85 78.95 25.25 80.65 25.25 82.55 25.25 82.55 10.25 83.85 10.25 M75.0 25.25 L75.0 27.85 70.1 27.85 70.1 17.75 71.15 17.75 71.15 25.25 75.0 25.25 M66.2 25.25 L66.2 27.85 61.3 27.85 61.3 25.25 61.85 25.25 63.65 25.25 66.2 25.25 M59.2 25.25 L59.2 27.85 54.3 27.85 54.3 25.25 54.35 25.25 56.25 25.25 56.25 17.75 57.0 17.75 57.0 18.55 58.0 18.55 58.0 25.25 59.2 25.25 M45.5 14.15 L45.5 5.3 59.2 5.3 59.2 6.4 50.5 6.4 50.5 10.2 50.4 10.2 50.4 14.15 45.5 14.15 M61.3 6.4 L61.3 5.3 83.85 5.3 83.85 6.4 76.8 6.4 75.0 6.4 63.65 6.4 61.85 6.4 61.3 6.4 M90.05 10.25 L91.0 10.25 91.0 14.15 91.8 14.15 91.8 19.05 90.05 19.05 90.05 10.25 M70.1 10.25 L71.15 10.25 71.15 13.9 70.1 13.9 70.1 10.25 M56.25 10.25 L58.0 10.25 58.0 13.9 56.25 13.9 56.25 10.25 M34.6 25.25 L34.6 27.85 29.7 27.85 29.7 25.25 34.6 25.25 M31.8 10.25 L34.6 10.25 34.6 13.9 31.8 13.9 31.8 10.25 M31.8 17.75 L35.45 17.75 35.45 19.05 34.6 19.05 34.6 21.4 31.8 21.4 31.8 17.75" fill="#5faefe" fill-opacity="0.9529412" fill-rule="evenodd" stroke="none"/>
    <path d="M86.2 6.4 L95.65 6.4 95.65 25.25 91.8 25.25 91.8 22.95 91.8 19.05 91.8 14.15 91.8 10.25 91.0 10.25 90.05 10.25 88.15 10.25 88.15 25.25 86.1 25.25 84.3 25.25 84.3 10.25 83.85 10.25 82.55 10.25 80.65 10.25 80.65 25.25 78.95 25.25 76.8 25.25 76.8 17.65 76.8 15.85 76.8 6.4 83.85 6.4 86.2 6.4 M70.1 17.75 L69.4 17.75 67.5 17.75 67.5 25.25 66.2 25.25 63.65 25.25 63.65 6.4 75.0 6.4 75.0 15.85 73.15 15.85 73.15 17.65 75.0 17.65 75.0 25.25 71.15 25.25 71.15 17.75 70.1 17.75 M61.3 25.25 L59.2 25.25 58.0 25.25 58.0 18.55 58.0 17.75 57.0 17.75 56.25 17.75 54.35 17.75 54.35 25.25 54.3 25.25 50.5 25.25 50.5 19.05 50.5 14.15 50.5 10.2 50.5 6.4 59.2 6.4 61.3 6.4 61.85 6.4 61.85 25.25 61.3 25.25 M69.4 10.25 L67.5 10.25 67.5 13.9 69.4 13.9 70.1 13.9 71.15 13.9 71.15 10.25 70.1 10.25 69.4 10.25 M56.25 10.25 L54.35 10.25 54.35 13.9 56.25 13.9 58.0 13.9 58.0 10.25 56.25 10.25 M37.45 25.25 L34.6 25.25 29.7 25.25 27.95 25.25 27.95 6.4 29.7 6.4 31.8 6.4 31.8 10.25 31.8 13.9 31.8 17.75 31.8 21.4 34.6 21.4 35.45 21.4 37.45 21.4 37.45 25.25 M43.05 25.25 L39.2 25.25 39.2 21.4 43.05 21.4 43.05 25.25" fill="#ffffff" fill-opacity="0.9529412" fill-rule="evenodd" stroke="none"/>
    <path d="M95.65 6.4 L97.55 6.4 97.55 10.2 97.55 14.15 97.55 25.25 95.65 25.25 95.65 6.4 M76.8 25.25 L75.0 25.25 75.0 17.65 73.15 17.65 73.15 15.85 75.0 15.85 75.0 6.4 76.8 6.4 76.8 15.85 75.05 15.85 75.05 17.65 76.8 17.65 76.8 25.25 M69.4 17.75 L69.4 25.25 67.5 25.25 67.5 17.75 69.4 17.75 M50.5 19.05 L50.4 19.05 50.4 27.85 45.5 27.85 45.5 14.15 50.4 14.15 50.5 14.15 50.5 19.05 M82.55 10.25 L82.55 25.25 80.65 25.25 80.65 10.25 82.55 10.25 M88.15 25.25 L88.15 10.25 90.05 10.25 90.05 19.05 90.05 22.95 90.05 25.25 88.15 25.25 M61.85 6.4 L63.65 6.4 63.65 25.25 61.85 25.25 61.85 6.4 M69.4 13.9 L67.5 13.9 67.5 10.25 69.4 10.25 69.4 13.9 M56.25 13.9 L54.35 13.9 54.35 10.25 56.25 10.25 56.25 13.9 M29.7 6.4 L29.7 5.3 43.4 5.3 43.4 21.4 44.95 21.4 44.95 25.25 43.4 25.25 43.4 27.85 38.5 27.85 38.5 25.25 37.45 25.25 37.45 21.4 35.45 21.4 35.45 19.05 35.45 17.75 31.8 17.75 31.8 13.9 34.6 13.9 35.45 13.9 35.45 10.25 34.6 10.25 31.8 10.25 31.8 6.4 29.7 6.4 M56.25 17.75 L56.25 25.25 54.35 25.25 54.35 17.75 56.25 17.75 M43.05 25.25 L43.05 21.4 39.2 21.4 39.2 25.25 43.05 25.25" fill="#60adfc" fill-opacity="0.9529412" fill-rule="evenodd" stroke="none"/>
    <path d="M4.8 -0.85 Q-3.2 -0.85 -3.2 7.2 L-3.2 27.7 Q-3.2 35.7 4.8 35.7 L100.35 35.7 Q108.35 35.7 108.35 27.7 L108.35 7.2 Q108.35 -0.85 100.35 -0.85 L4.8 -0.85 Z" fill="none" stroke="#ffffff" stroke-linecap="square" stroke-linejoin="miter-clip" stroke-miterlimit="3.0" stroke-width="1.5"/>
  </g>
</svg>
