<?xml version="1.0" encoding="UTF-8" standalone="no"?>
<svg xmlns:xlink="http://www.w3.org/1999/xlink" height="38.55px" width="113.55px" xmlns="http://www.w3.org/2000/svg">
  <g transform="matrix(1.0, 0.0, 0.0, 1.0, 4.2, 1.85)">
    <path d="M7.45 30.0 L7.5 30.0 7.5 30.05 7.45 30.0" fill="#01498f" fill-rule="evenodd" stroke="none"/>
    <path d="M83.65 22.95 L79.35 22.95 79.35 23.3 77.25 23.3 77.25 19.15 81.4 19.15 83.4 19.15 83.4 19.05 83.65 19.05 83.65 22.95 M70.65 22.95 L68.45 22.95 68.45 10.2 70.65 10.2 70.65 14.15 70.15 14.15 70.15 19.05 70.65 19.05 70.65 22.95 M79.35 10.65 L79.35 14.8 77.25 14.8 77.25 14.15 77.0 14.15 77.0 10.65 79.35 10.65 M57.65 22.95 L54.9 22.95 54.9 19.05 57.65 19.05 57.65 22.95 M57.65 14.15 L54.9 14.15 54.9 10.2 57.65 10.2 57.65 14.15" fill="#5faefe" fill-rule="evenodd" stroke="none"/>
    <path d="M24.15 24.2 Q24.15 26.6 25.0 29.0 L23.05 30.9 18.0 30.9 16.25 29.4 14.65 29.55 12.8 30.9 8.05 30.9 7.9 30.7 6.65 30.1 5.8 30.9 2.15 30.9 0.6 26.45 3.6 25.4 5.45 26.05 14.6 20.7 12.55 4.25 25.1 4.3 Q24.2 14.25 24.15 24.2 M7.45 30.0 L7.5 30.05 7.5 30.0 7.45 30.0" fill="#ffffff" fill-rule="evenodd" stroke="none"/>
    <path d="M4.8 -0.85 L100.35 -0.85 Q108.35 -0.85 108.35 7.2 L108.35 27.7 Q108.35 35.7 100.35 35.7 L4.8 35.7 Q-3.2 35.7 -3.2 27.7 L-3.2 7.2 Q-3.2 -0.85 4.8 -0.85 M83.65 22.95 L83.65 27.65 94.4 27.65 94.4 27.6 96.5 27.6 96.5 14.8 90.0 14.8 90.0 19.15 92.15 19.15 92.15 23.3 88.0 23.3 88.0 10.65 96.5 10.65 96.5 6.3 85.75 6.3 85.75 6.35 83.75 6.35 83.75 8.4 83.65 8.4 83.65 19.05 83.4 19.05 83.4 19.15 81.4 19.15 81.4 14.8 79.35 14.8 79.35 10.65 81.4 10.65 81.4 6.3 70.65 6.3 70.65 10.2 68.45 10.2 68.45 22.95 70.65 22.95 70.65 27.65 81.4 27.65 81.4 23.3 79.35 23.3 79.35 22.95 83.65 22.95 M77.25 14.8 L75.0 14.8 75.0 10.65 77.0 10.65 77.0 14.15 77.25 14.15 77.25 14.8 M57.65 22.95 L57.65 27.65 68.4 27.65 68.4 23.3 62.0 23.3 62.0 6.3 57.65 6.3 57.65 10.2 54.9 10.2 54.9 14.15 57.65 14.15 57.65 19.05 54.9 19.05 54.9 22.95 57.65 22.95 M70.65 14.15 L70.65 19.05 70.15 19.05 70.15 14.15 70.65 14.15 M77.25 23.3 L75.0 23.3 75.0 19.15 77.25 19.15 77.25 23.3 M49.0 23.3 L44.65 23.3 44.65 27.65 49.0 27.65 49.0 23.3 M43.15 27.65 L43.15 23.3 36.75 23.3 36.75 6.3 32.4 6.3 32.4 27.65 43.15 27.65 M24.15 24.2 Q24.2 14.25 25.1 4.3 L12.55 4.25 14.6 20.7 5.45 26.05 3.6 25.4 0.6 26.45 2.15 30.9 5.8 30.9 6.65 30.1 7.9 30.7 8.05 30.9 12.8 30.9 14.65 29.55 16.25 29.4 18.0 30.9 23.05 30.9 25.0 29.0 Q24.15 26.6 24.15 24.2" fill="#5faefe" fill-opacity="0.9529412" fill-rule="evenodd" stroke="none"/>
    <path d="M83.65 19.05 L83.65 8.4 83.75 8.4 83.75 6.35 85.75 6.35 85.75 6.3 96.5 6.3 96.5 10.65 88.0 10.65 88.0 23.3 92.15 23.3 92.15 19.15 90.0 19.15 90.0 14.8 96.5 14.8 96.5 27.6 94.4 27.6 94.4 27.65 83.65 27.65 83.65 22.95 83.65 19.05 M79.35 23.3 L81.4 23.3 81.4 27.65 70.65 27.65 70.65 22.95 70.65 19.05 70.65 14.15 70.65 10.2 70.65 6.3 81.4 6.3 81.4 10.65 79.35 10.65 77.0 10.65 75.0 10.65 75.0 14.8 77.25 14.8 79.35 14.8 81.4 14.8 81.4 19.15 77.25 19.15 75.0 19.15 75.0 23.3 77.25 23.3 79.35 23.3 M57.65 10.2 L57.65 6.3 62.0 6.3 62.0 23.3 68.4 23.3 68.4 27.65 57.65 27.65 57.65 22.95 57.65 19.05 57.65 14.15 57.65 10.2 M49.0 23.3 L49.0 27.65 44.65 27.65 44.65 23.3 49.0 23.3 M43.15 27.65 L32.4 27.65 32.4 6.3 36.75 6.3 36.75 23.3 43.15 23.3 43.15 27.65" fill="#ffffff" fill-opacity="0.9529412" fill-rule="evenodd" stroke="none"/>
    <path d="M4.8 -0.85 Q-3.2 -0.85 -3.2 7.2 L-3.2 27.7 Q-3.2 35.7 4.8 35.7 L100.35 35.7 Q108.35 35.7 108.35 27.7 L108.35 7.2 Q108.35 -0.85 100.35 -0.85 L4.8 -0.85 Z" fill="none" stroke="#ffffff" stroke-linecap="square" stroke-linejoin="miter-clip" stroke-miterlimit="3.0" stroke-width="1.5"/>
  </g>
</svg>
