<?xml version="1.0" encoding="UTF-8" standalone="no"?>
<svg xmlns:xlink="http://www.w3.org/1999/xlink" height="234.45px" width="344.5px" xmlns="http://www.w3.org/2000/svg">
  <g transform="matrix(1.0, 0.0, 0.0, 1.0, -271.7, -103.75)">
    <path d="M604.95 105.0 Q614.95 105.0 614.95 115.0 L614.95 326.95 Q614.95 336.95 604.95 336.95 L282.95 336.95 Q272.95 336.95 272.95 326.95 L272.95 115.0 Q272.95 105.0 282.95 105.0 L604.95 105.0" fill="url(#gradient0)" fill-rule="evenodd" stroke="none"/>
    <path d="M604.95 105.0 L282.95 105.0 Q272.95 105.0 272.95 115.0 L272.95 326.95 Q272.95 336.95 282.95 336.95 L604.95 336.95 Q614.95 336.95 614.95 326.95 L614.95 115.0 Q614.95 105.0 604.95 105.0 Z" fill="none" stroke="url(#gradient1)" stroke-linecap="round" stroke-linejoin="round" stroke-width="2.5"/>
  </g>
  <defs>
    <radialGradient cx="0" cy="0" gradientTransform="matrix(0.2093, -0.0936, 0.0708, 0.1583, 443.95, 221.0)" gradientUnits="userSpaceOnUse" id="gradient0" r="819.2" spreadMethod="pad">
      <stop offset="0.0" stop-color="#1e1e1e"/>
      <stop offset="1.0" stop-color="#000000"/>
    </radialGradient>
    <linearGradient gradientTransform="matrix(-0.0028, 0.004, -0.1161, -0.0832, 443.95, 220.95)" gradientUnits="userSpaceOnUse" id="gradient1" spreadMethod="pad" x1="-819.2" x2="819.2">
      <stop offset="0.0" stop-color="#262626"/>
      <stop offset="1.0" stop-color="#999999"/>
    </linearGradient>
  </defs>
</svg>
