<?xml version="1.0" encoding="UTF-8" standalone="no"?>
<svg xmlns:xlink="http://www.w3.org/1999/xlink" height="48.55px" width="145.55px" xmlns="http://www.w3.org/2000/svg">
  <g transform="matrix(1.0, 0.0, 0.0, 1.0, 4.2, 1.85)">
    <path d="M128.45 14.05 L116.0 14.05 116.0 32.5 122.0 32.5 122.0 26.5 118.9 26.5 118.9 20.05 128.45 20.05 128.45 38.8 125.3 38.8 125.3 38.9 109.6 38.9 109.6 10.75 109.8 10.75 109.8 7.75 112.7 7.75 112.7 7.65 128.45 7.65 128.45 14.05 M94.3 14.05 L94.3 38.9 87.85 38.9 87.85 7.65 106.7 7.65 106.7 38.9 100.3 38.9 100.3 14.05 94.3 14.05 M81.85 26.5 L72.55 26.5 72.55 38.9 66.15 38.9 66.15 7.65 84.95 7.65 84.95 26.4 81.85 26.4 81.85 26.5 M72.55 14.05 L72.55 20.05 78.55 20.05 78.55 14.05 72.55 14.05 M56.85 32.5 L63.25 32.5 63.25 38.9 56.85 38.9 56.85 32.5 M11.6 29.85 L11.6 31.95 Q21.35 36.45 33.25 31.95 L33.25 29.85 11.6 29.85 M8.5 11.35 L8.5 20.7 17.85 20.7 17.85 16.55 12.45 16.55 12.45 11.35 8.5 11.35 M35.8 16.55 L30.75 16.55 30.75 11.35 26.45 11.35 26.45 20.7 35.8 20.7 35.8 16.55 M5.15 4.6 L39.9 4.6 39.9 39.35 5.15 39.35 5.15 4.6" fill="#5faefe" fill-rule="evenodd" stroke="none"/>
    <path d="M4.8 -0.85 L132.35 -0.85 Q140.35 -0.85 140.35 7.2 L140.35 37.7 Q140.35 45.7 132.35 45.7 L4.8 45.7 Q-3.2 45.7 -3.2 37.7 L-3.2 7.2 Q-3.2 -0.85 4.8 -0.85 M56.85 32.5 L56.85 38.9 63.25 38.9 63.25 32.5 56.85 32.5 M72.55 14.05 L78.55 14.05 78.55 20.05 72.55 20.05 72.55 14.05 M81.85 26.5 L81.85 26.4 84.95 26.4 84.95 7.65 66.15 7.65 66.15 38.9 72.55 38.9 72.55 26.5 81.85 26.5 M94.3 14.05 L100.3 14.05 100.3 38.9 106.7 38.9 106.7 7.65 87.85 7.65 87.85 38.9 94.3 38.9 94.3 14.05 M128.45 14.05 L128.45 7.65 112.7 7.65 112.7 7.75 109.8 7.75 109.8 10.75 109.6 10.75 109.6 38.9 125.3 38.9 125.3 38.8 128.45 38.8 128.45 20.05 118.9 20.05 118.9 26.5 122.0 26.5 122.0 32.5 116.0 32.5 116.0 14.05 128.45 14.05 M35.8 16.55 L35.8 20.7 26.45 20.7 26.45 11.35 30.75 11.35 30.75 16.55 35.8 16.55 M8.5 11.35 L12.45 11.35 12.45 16.55 17.85 16.55 17.85 20.7 8.5 20.7 8.5 11.35 M11.6 29.85 L33.25 29.85 33.25 31.95 Q21.35 36.45 11.6 31.95 L11.6 29.85 M5.15 4.6 L5.15 39.35 39.9 39.35 39.9 4.6 5.15 4.6" fill="#01498f" fill-rule="evenodd" stroke="none"/>
    <path d="M4.8 -0.85 Q-3.2 -0.85 -3.2 7.2 L-3.2 37.7 Q-3.2 45.7 4.8 45.7 L132.35 45.7 Q140.35 45.7 140.35 37.7 L140.35 7.2 Q140.35 -0.85 132.35 -0.85 L4.8 -0.85 Z" fill="none" stroke="#5faefe" stroke-linecap="square" stroke-linejoin="miter-clip" stroke-miterlimit="3.0" stroke-width="1.5"/>
  </g>
</svg>
