<?xml version="1.0" encoding="UTF-8" standalone="no"?>
<svg xmlns:xlink="http://www.w3.org/1999/xlink" height="48.55px" width="145.55px" xmlns="http://www.w3.org/2000/svg">
  <g transform="matrix(1.0, 0.0, 0.0, 1.0, 4.2, 1.85)">
    <path d="M4.8 -0.85 L132.35 -0.85 Q140.35 -0.85 140.35 7.2 L140.35 37.7 Q140.35 45.7 132.35 45.7 L4.8 45.7 Q-3.2 45.7 -3.2 37.7 L-3.2 7.2 Q-3.2 -0.85 4.8 -0.85 M56.95 30.95 L56.95 37.4 63.4 37.4 63.4 30.95 56.95 30.95 M85.25 12.5 L85.25 6.1 66.35 6.1 66.35 12.5 72.55 12.5 72.55 37.4 79.0 37.4 79.0 12.5 85.25 12.5 M107.0 21.75 L103.9 21.75 103.9 18.7 107.0 18.7 107.0 6.1 100.6 6.1 100.6 18.55 94.55 18.55 94.55 6.1 88.1 6.1 88.1 18.7 91.25 18.7 91.25 21.75 88.35 21.75 88.35 24.75 88.1 24.75 88.1 37.4 94.55 37.4 94.55 25.0 100.6 25.0 100.6 37.4 107.0 37.4 107.0 21.75 M122.6 37.4 L122.6 12.5 128.85 12.5 128.85 6.1 109.95 6.1 109.95 12.5 116.15 12.5 116.15 37.4 122.6 37.4 M23.35 10.6 L10.65 10.55 10.65 10.25 10.65 9.35 10.65 8.8 23.35 8.9 23.35 10.6 M35.25 23.35 L10.65 23.35 10.65 23.05 10.65 22.15 10.65 21.6 35.25 21.75 35.25 22.05 35.25 22.95 35.25 23.25 35.25 23.35 M35.25 20.15 L15.15 20.2 15.15 18.45 35.25 18.55 35.25 18.85 35.25 19.75 35.25 20.05 35.25 20.15 M38.1 16.65 L25.35 16.65 25.35 4.35 8.2 4.35 8.2 39.4 38.1 39.4 38.1 16.65 M23.35 13.8 L10.65 13.75 10.65 13.45 10.65 12.55 10.65 12.0 23.35 12.1 23.35 13.8 M37.25 14.9 L27.45 5.3 27.45 14.9 37.25 14.9 M15.15 32.05 L35.25 32.15 35.25 32.45 35.25 33.35 35.25 33.65 35.25 33.75 15.15 33.8 15.15 32.05 M10.65 36.65 L10.65 35.75 10.65 35.2 29.9 35.35 29.9 37.0 10.65 36.95 10.65 36.65 M10.65 26.25 L10.65 25.35 10.65 24.8 23.35 24.9 23.35 26.6 10.65 26.55 10.65 26.25" fill="#5faefe" fill-rule="evenodd" stroke="none"/>
    <path d="M122.6 37.4 L116.15 37.4 116.15 12.5 109.95 12.5 109.95 6.1 128.85 6.1 128.85 12.5 122.6 12.5 122.6 37.4 M107.0 21.75 L107.0 37.4 100.6 37.4 100.6 25.0 94.55 25.0 94.55 37.4 88.1 37.4 88.1 24.75 88.35 24.75 88.35 21.75 91.25 21.75 91.25 18.7 88.1 18.7 88.1 6.1 94.55 6.1 94.55 18.55 100.6 18.55 100.6 6.1 107.0 6.1 107.0 18.7 103.9 18.7 103.9 21.75 107.0 21.75 M85.25 12.5 L79.0 12.5 79.0 37.4 72.55 37.4 72.55 12.5 66.35 12.5 66.35 6.1 85.25 6.1 85.25 12.5 M56.95 30.95 L63.4 30.95 63.4 37.4 56.95 37.4 56.95 30.95 M35.25 20.15 L35.25 20.05 35.25 19.75 35.25 18.85 35.25 18.55 15.15 18.45 15.15 20.2 35.25 20.15 M35.25 23.35 L35.25 23.25 35.25 22.95 35.25 22.05 35.25 21.75 10.65 21.6 10.65 22.15 10.65 23.05 10.65 23.35 35.25 23.35 M23.35 10.6 L23.35 8.9 10.65 8.8 10.65 9.35 10.65 10.25 10.65 10.55 23.35 10.6 M38.1 16.65 L38.1 39.4 8.2 39.4 8.2 4.35 25.35 4.35 25.35 16.65 38.1 16.65 M23.35 13.8 L23.35 12.1 10.65 12.0 10.65 12.55 10.65 13.45 10.65 13.75 23.35 13.8 M37.25 14.9 L27.45 14.9 27.45 5.3 37.25 14.9 M10.65 26.25 L10.65 26.55 23.35 26.6 23.35 24.9 10.65 24.8 10.65 25.35 10.65 26.25 M10.65 36.65 L10.65 36.95 29.9 37.0 29.9 35.35 10.65 35.2 10.65 35.75 10.65 36.65 M15.15 32.05 L15.15 33.8 35.25 33.75 35.25 33.65 35.25 33.35 35.25 32.45 35.25 32.15 15.15 32.05" fill="#ffffff" fill-rule="evenodd" stroke="none"/>
    <path d="M4.8 -0.85 Q-3.2 -0.85 -3.2 7.2 L-3.2 37.7 Q-3.2 45.7 4.8 45.7 L132.35 45.7 Q140.35 45.7 140.35 37.7 L140.35 7.2 Q140.35 -0.85 132.35 -0.85 L4.8 -0.85 Z" fill="none" stroke="#ffffff" stroke-linecap="square" stroke-linejoin="miter-clip" stroke-miterlimit="3.0" stroke-width="1.5"/>
  </g>
</svg>
