<?xml version="1.0" encoding="UTF-8" standalone="no"?>
<svg xmlns:xlink="http://www.w3.org/1999/xlink" height="48.55px" width="145.55px" xmlns="http://www.w3.org/2000/svg">
  <g transform="matrix(1.0, 0.0, 0.0, 1.0, 4.2, 1.85)">
    <path d="M4.8 -0.85 L132.35 -0.85 Q140.35 -0.85 140.35 7.2 L140.35 37.7 Q140.35 45.7 132.35 45.7 L4.8 45.7 Q-3.2 45.7 -3.2 37.7 L-3.2 7.2 Q-3.2 -0.85 4.8 -0.85 M70.25 18.35 L61.4 18.35 61.4 12.2 70.25 12.2 70.25 5.6 59.05 5.6 59.05 5.7 57.0 5.7 57.0 8.8 56.85 8.8 56.85 24.95 65.7 24.95 65.7 31.1 56.85 31.1 56.85 37.7 68.05 37.7 68.05 37.6 70.25 37.6 70.25 18.35 M96.75 24.95 L96.75 37.7 101.3 37.7 101.3 5.6 87.85 5.6 87.85 37.7 92.4 37.7 92.4 24.95 96.75 24.95 M92.4 18.35 L92.4 12.2 96.75 12.2 96.75 18.35 92.4 18.35 M85.8 5.6 L81.2 5.6 81.2 18.35 76.9 18.35 76.9 5.6 72.35 5.6 72.35 37.7 76.9 37.7 76.9 24.95 81.2 24.95 81.2 37.7 85.8 37.7 85.8 5.6 M112.25 12.2 L112.25 18.35 107.95 18.35 107.95 12.2 112.25 12.2 M116.8 24.7 L114.55 24.7 114.55 21.75 116.8 21.75 116.8 5.6 103.35 5.6 103.35 37.7 107.95 37.7 107.95 24.95 112.25 24.95 112.25 37.7 116.8 37.7 116.8 24.7 M130.1 18.35 L123.45 18.35 123.45 12.2 130.1 12.2 130.1 5.6 118.9 5.6 118.9 37.7 130.1 37.7 130.1 31.1 123.45 31.1 123.45 24.95 130.1 24.95 130.1 18.35 M42.45 13.25 L36.85 13.25 36.85 26.65 42.45 26.65 42.45 13.25 M35.9 12.45 L35.9 3.15 23.7 3.15 23.7 12.45 35.9 12.45 M22.2 11.75 L22.2 3.15 16.2 3.15 16.2 11.75 22.2 11.75 M23.7 13.25 L23.7 26.65 35.9 26.65 35.9 13.25 23.7 13.25 M9.85 28.15 L8.85 28.15 8.85 41.0 9.85 41.0 9.85 28.15 M14.85 28.15 L11.35 28.15 11.35 41.0 14.85 41.0 14.85 28.15 M15.15 13.25 L9.55 13.25 9.55 26.65 15.15 26.65 15.15 13.25 M8.05 13.25 L4.55 13.25 4.55 26.65 8.05 26.65 8.05 13.25 M3.05 13.25 L2.05 13.25 2.05 26.65 3.05 26.65 3.05 13.25 M9.7 11.75 L9.7 3.15 8.7 3.15 8.7 11.75 9.7 11.75 M11.2 11.75 L14.7 11.75 14.7 3.15 11.2 3.15 11.2 11.75 M16.35 41.0 L21.95 41.0 21.95 28.15 16.35 28.15 16.35 41.0 M30.5 27.55 L30.5 41.0 36.1 41.0 36.1 27.55 30.5 27.55 M23.85 27.55 L23.85 41.0 29.45 41.0 29.45 27.55 23.85 27.55 M22.65 13.25 L17.05 13.25 17.05 26.65 22.65 26.65 22.65 13.25" fill="#5faefe" fill-rule="evenodd" stroke="none"/>
    <path d="M130.1 18.35 L130.1 24.95 123.45 24.95 123.45 31.1 130.1 31.1 130.1 37.7 118.9 37.7 118.9 5.6 130.1 5.6 130.1 12.2 123.45 12.2 123.45 18.35 130.1 18.35 M116.8 24.7 L116.8 37.7 112.25 37.7 112.25 24.95 107.95 24.95 107.95 37.7 103.35 37.7 103.35 5.6 116.8 5.6 116.8 21.75 114.55 21.75 114.55 24.7 116.8 24.7 M112.25 12.2 L107.95 12.2 107.95 18.35 112.25 18.35 112.25 12.2 M85.8 5.6 L85.8 37.7 81.2 37.7 81.2 24.95 76.9 24.95 76.9 37.7 72.35 37.7 72.35 5.6 76.9 5.6 76.9 18.35 81.2 18.35 81.2 5.6 85.8 5.6 M92.4 18.35 L96.75 18.35 96.75 12.2 92.4 12.2 92.4 18.35 M96.75 24.95 L92.4 24.95 92.4 37.7 87.85 37.7 87.85 5.6 101.3 5.6 101.3 37.7 96.75 37.7 96.75 24.95 M70.25 18.35 L70.25 37.6 68.05 37.6 68.05 37.7 56.85 37.7 56.85 31.1 65.7 31.1 65.7 24.95 56.85 24.95 56.85 8.8 57.0 8.8 57.0 5.7 59.05 5.7 59.05 5.6 70.25 5.6 70.25 12.2 61.4 12.2 61.4 18.35 70.25 18.35 M42.45 13.25 L42.45 26.65 36.85 26.65 36.85 13.25 42.45 13.25 M22.2 11.75 L16.2 11.75 16.2 3.15 22.2 3.15 22.2 11.75 M35.9 12.45 L23.7 12.45 23.7 3.15 35.9 3.15 35.9 12.45 M23.7 13.25 L35.9 13.25 35.9 26.65 23.7 26.65 23.7 13.25 M11.2 11.75 L11.2 3.15 14.7 3.15 14.7 11.75 11.2 11.75 M9.7 11.75 L8.7 11.75 8.7 3.15 9.7 3.15 9.7 11.75 M3.05 13.25 L3.05 26.65 2.05 26.65 2.05 13.25 3.05 13.25 M8.05 13.25 L8.05 26.65 4.55 26.65 4.55 13.25 8.05 13.25 M15.15 13.25 L15.15 26.65 9.55 26.65 9.55 13.25 15.15 13.25 M14.85 28.15 L14.85 41.0 11.35 41.0 11.35 28.15 14.85 28.15 M9.85 28.15 L9.85 41.0 8.85 41.0 8.85 28.15 9.85 28.15 M23.85 27.55 L29.45 27.55 29.45 41.0 23.85 41.0 23.85 27.55 M30.5 27.55 L36.1 27.55 36.1 41.0 30.5 41.0 30.5 27.55 M16.35 41.0 L16.35 28.15 21.95 28.15 21.95 41.0 16.35 41.0 M22.65 13.25 L22.65 26.65 17.05 26.65 17.05 13.25 22.65 13.25" fill="#ffffff" fill-rule="evenodd" stroke="none"/>
    <path d="M4.8 -0.85 Q-3.2 -0.85 -3.2 7.2 L-3.2 37.7 Q-3.2 45.7 4.8 45.7 L132.35 45.7 Q140.35 45.7 140.35 37.7 L140.35 7.2 Q140.35 -0.85 132.35 -0.85 L4.8 -0.85 Z" fill="none" stroke="#ffffff" stroke-linecap="square" stroke-linejoin="miter-clip" stroke-miterlimit="3.0" stroke-width="1.5"/>
  </g>
</svg>
