<?xml version="1.0" encoding="UTF-8" standalone="no"?>
<svg xmlns:xlink="http://www.w3.org/1999/xlink" height="24.2px" width="184.0px" xmlns="http://www.w3.org/2000/svg">
  <g transform="matrix(1.0, 0.0, 0.0, 1.0, 1.0, 0.6)">
    <path d="M163.45 18.6 L163.45 18.55 164.8 18.55 164.8 4.8 161.8 4.8 161.8 15.6 159.4 15.6 159.4 4.8 156.45 4.8 156.45 18.6 163.45 18.6 M173.15 7.8 L173.15 4.8 166.15 4.8 166.15 18.6 173.15 18.6 173.15 15.6 169.1 15.6 169.1 13.2 173.15 13.2 173.15 10.2 169.1 10.2 169.1 7.8 173.15 7.8 M182.0 0.4 L182.0 22.6 38.75 22.6 Q22.2 22.6 10.45 13.85 2.55 7.95 0.0 0.4 L182.0 0.4 M51.2 10.2 L51.2 7.8 56.6 7.8 56.6 4.8 49.6 4.8 49.6 4.85 48.3 4.85 48.3 6.15 48.25 6.15 48.25 13.2 53.6 13.2 53.6 15.6 48.25 15.6 48.25 18.6 55.25 18.6 55.25 18.55 56.6 18.55 56.6 10.2 51.2 10.2 M60.9 18.6 L60.9 13.2 63.3 13.2 63.3 18.6 66.3 18.6 66.3 4.8 57.95 4.8 57.95 18.6 60.9 18.6 M60.9 10.2 L60.9 7.8 63.3 7.8 63.3 10.2 60.9 10.2 M76.0 4.8 L73.0 4.8 73.0 14.25 71.65 14.25 71.65 15.6 70.6 15.6 70.6 4.8 67.65 4.8 67.65 18.6 73.3 18.6 73.3 17.25 74.65 17.25 74.65 15.9 76.0 15.9 76.0 4.8 M84.35 7.8 L84.35 4.8 77.35 4.8 77.35 18.6 84.35 18.6 84.35 15.6 80.3 15.6 80.3 13.2 84.35 13.2 84.35 10.2 80.3 10.2 80.3 7.8 84.35 7.8 M98.2 11.55 L95.5 11.55 95.5 7.5 92.55 7.5 92.55 11.55 89.85 11.55 89.85 14.55 92.55 14.55 92.55 18.6 95.5 18.6 95.5 14.55 98.2 14.55 98.2 11.55 M112.1 10.5 L112.1 4.85 110.75 4.85 110.75 4.8 105.1 4.8 105.1 4.85 103.8 4.85 103.8 6.15 103.75 6.15 103.75 18.6 110.75 18.6 110.75 18.35 111.9 18.35 111.9 17.25 112.1 17.25 112.1 12.9 109.1 12.9 109.1 15.6 106.7 15.6 106.7 7.8 109.1 7.8 109.1 10.5 112.1 10.5 M116.4 7.8 L118.8 7.8 118.8 15.6 116.4 15.6 116.4 7.8 M121.8 18.55 L121.8 4.8 114.8 4.8 114.8 4.85 113.5 4.85 113.5 6.15 113.45 6.15 113.45 18.6 120.45 18.6 120.45 18.55 121.8 18.55 M126.1 7.8 L128.5 7.8 128.5 18.6 131.5 18.6 131.5 4.8 123.15 4.8 123.15 18.6 126.1 18.6 126.1 7.8 M141.2 4.8 L132.85 4.8 132.85 7.8 135.55 7.8 135.55 18.6 138.5 18.6 138.5 7.8 141.2 7.8 141.2 4.8 M146.75 18.6 L149.7 18.6 149.7 7.8 152.1 7.8 152.1 18.6 155.1 18.6 155.1 4.8 146.75 4.8 146.75 18.6 M145.5 4.8 L142.55 4.8 142.55 18.6 145.5 18.6 145.5 4.8 M40.75 4.05 L39.35 4.05 36.35 10.3 36.35 11.45 39.6 18.35 40.75 18.35 40.75 4.05 M30.4 11.45 L33.65 18.35 34.8 18.35 34.8 4.05 33.4 4.05 30.4 10.3 30.4 11.45 M24.45 11.45 L27.7 18.3 28.85 18.3 28.85 4.05 27.45 4.05 24.45 10.35 24.45 11.45" fill="#5faefe" fill-rule="evenodd" stroke="none"/>
    <path d="M173.15 7.8 L169.1 7.8 169.1 10.2 173.15 10.2 173.15 13.2 169.1 13.2 169.1 15.6 173.15 15.6 173.15 18.6 166.15 18.6 166.15 4.8 173.15 4.8 173.15 7.8 M163.45 18.6 L156.45 18.6 156.45 4.8 159.4 4.8 159.4 15.6 161.8 15.6 161.8 4.8 164.8 4.8 164.8 18.55 163.45 18.55 163.45 18.6 M145.5 4.8 L145.5 18.6 142.55 18.6 142.55 4.8 145.5 4.8 M146.75 18.6 L146.75 4.8 155.1 4.8 155.1 18.6 152.1 18.6 152.1 7.8 149.7 7.8 149.7 18.6 146.75 18.6 M141.2 4.8 L141.2 7.8 138.5 7.8 138.5 18.6 135.55 18.6 135.55 7.8 132.85 7.8 132.85 4.8 141.2 4.8 M126.1 7.8 L126.1 18.6 123.15 18.6 123.15 4.8 131.5 4.8 131.5 18.6 128.5 18.6 128.5 7.8 126.1 7.8 M121.8 18.55 L120.45 18.55 120.45 18.6 113.45 18.6 113.45 6.15 113.5 6.15 113.5 4.85 114.8 4.85 114.8 4.8 121.8 4.8 121.8 18.55 M116.4 7.8 L116.4 15.6 118.8 15.6 118.8 7.8 116.4 7.8 M112.1 10.5 L109.1 10.5 109.1 7.8 106.7 7.8 106.7 15.6 109.1 15.6 109.1 12.9 112.1 12.9 112.1 17.25 111.9 17.25 111.9 18.35 110.75 18.35 110.75 18.6 103.75 18.6 103.75 6.15 103.8 6.15 103.8 4.85 105.1 4.85 105.1 4.8 110.75 4.8 110.75 4.85 112.1 4.85 112.1 10.5 M98.2 11.55 L98.2 14.55 95.5 14.55 95.5 18.6 92.55 18.6 92.55 14.55 89.85 14.55 89.85 11.55 92.55 11.55 92.55 7.5 95.5 7.5 95.5 11.55 98.2 11.55 M84.35 7.8 L80.3 7.8 80.3 10.2 84.35 10.2 84.35 13.2 80.3 13.2 80.3 15.6 84.35 15.6 84.35 18.6 77.35 18.6 77.35 4.8 84.35 4.8 84.35 7.8 M76.0 4.8 L76.0 15.9 74.65 15.9 74.65 17.25 73.3 17.25 73.3 18.6 67.65 18.6 67.65 4.8 70.6 4.8 70.6 15.6 71.65 15.6 71.65 14.25 73.0 14.25 73.0 4.8 76.0 4.8 M60.9 10.2 L63.3 10.2 63.3 7.8 60.9 7.8 60.9 10.2 M60.9 18.6 L57.95 18.6 57.95 4.8 66.3 4.8 66.3 18.6 63.3 18.6 63.3 13.2 60.9 13.2 60.9 18.6 M51.2 10.2 L56.6 10.2 56.6 18.55 55.25 18.55 55.25 18.6 48.25 18.6 48.25 15.6 53.6 15.6 53.6 13.2 48.25 13.2 48.25 6.15 48.3 6.15 48.3 4.85 49.6 4.85 49.6 4.8 56.6 4.8 56.6 7.8 51.2 7.8 51.2 10.2 M24.45 11.45 L24.45 10.35 27.45 4.05 28.85 4.05 28.85 18.3 27.7 18.3 24.45 11.45 M30.4 11.45 L30.4 10.3 33.4 4.05 34.8 4.05 34.8 18.35 33.65 18.35 30.4 11.45 M40.75 4.05 L40.75 18.35 39.6 18.35 36.35 11.45 36.35 10.3 39.35 4.05 40.75 4.05" fill="#ffffff" fill-rule="evenodd" stroke="none"/>
    <path d="M182.0 0.4 L0.0 0.4 Q2.55 7.95 10.45 13.85 22.2 22.6 38.75 22.6 L182.0 22.6 182.0 0.4 Z" fill="none" stroke="#ffffff" stroke-linecap="square" stroke-linejoin="miter-clip" stroke-miterlimit="3.0" stroke-width="1.5"/>
  </g>
</svg>
